<?xml version="1.0" encoding="UTF-8"?>
<svg version="1.1" xmlns="http://www.w3.org/2000/svg" width="629" height="200">
<path d="M0 0 C17.70581105 -0.12032643 17.70581105 -0.12032643 25.37695312 -0.14648438 C30.5682113 -0.1642714 35.75930764 -0.18508254 40.95043945 -0.22631836 C76.61010121 -0.50223247 76.61010121 -0.50223247 93 3 C97.74887078 3.78806626 100.90077929 4.09945605 105.5 2.625 C126.45451078 -3.96950781 150.50507741 -0.3303402 170 9 C184.86259972 16.98673207 196.96336215 29.22811169 205 44 C205.45375 44.80308594 205.9075 45.60617188 206.375 46.43359375 C209.7102434 52.63754354 211.87471905 59.03014756 213 66 C211.48459971 67.51540029 210.09071207 67.21617897 207.97436523 67.31982422 C207.11934921 67.36170868 206.26433319 67.40359314 205.38340759 67.44674683 C201.44462415 67.59725407 197.50590297 67.70443004 193.56518555 67.78955078 C191.49174534 67.84619773 189.41882871 67.92795771 187.34741211 68.03564453 C170.58914872 68.89078106 170.58914872 68.89078106 166.27911377 65.74328613 C163.18116701 62.28378356 161.57090636 58.35157975 160 54 C158.42037735 50.47647961 157.5493903 49.54882486 154 48 C151.77880601 46.5138193 149.5965256 44.97987675 147.4140625 43.4375 C144.69747765 41.81985724 142.0210222 40.90543605 139 40 C139.39832031 40.99257813 139.79664063 41.98515625 140.20703125 43.0078125 C145.07747915 55.39345514 148.34501295 67.63417053 149 81 C149.04125 81.74894531 149.0825 82.49789062 149.125 83.26953125 C149.5820933 100.03914179 146.48533737 116.94969402 139 132 C148.77747959 128.15238072 159.26917215 122.00901599 163.90795898 112.0508728 C165.07636522 109.70328254 166.18371919 107.89923661 168 106 C171.37893651 104.88945673 174.58725205 105.06331059 178.11328125 105.21875 C179.08283249 105.23006958 180.05238373 105.24138916 181.05131531 105.25305176 C184.14040891 105.29774793 187.2248162 105.39809466 190.3125 105.5 C192.40943805 105.54013588 194.50644904 105.57663647 196.60351562 105.609375 C201.73747574 105.6974614 206.86794421 105.83546032 212 106 C209.71867751 123.17560456 199.96390465 137.01865526 188 149 C187.34257812 149.66902344 186.68515625 150.33804688 186.0078125 151.02734375 C170.83945468 165.38194846 148.54928199 172.30783667 128 172 C119.71208967 171.59994135 111.30410661 171.02062874 103.4375 168.25 C98.22322131 166.45166125 94.19938992 167.58641586 89 169 C87.33657081 169.36907335 85.66978216 169.7233255 84 170.0625 C83.278125 170.21847656 82.55625 170.37445313 81.8125 170.53515625 C72.21125919 172.122028 62.6339477 172.13272027 52.9296875 172.09765625 C51.3969833 172.09578729 49.8642785 172.09436565 48.33157349 172.09336853 C44.33022361 172.08958097 40.328911 172.07978354 36.32757568 172.06866455 C31.50910207 172.05655331 26.69061588 172.05203026 21.87213135 172.04621124 C14.58139511 172.03656917 7.29074038 172.0173865 0 172 C0 158.8 0 145.6 0 132 C18.15 132 36.3 132 55 132 C52.36 126.72 49.72 121.44 47 116 C45.49539193 110.94606008 44.10396076 106.12063154 43 101 C42.80921875 100.23429687 42.6184375 99.46859375 42.421875 98.6796875 C39.15181757 77.90876717 43.95156264 59.02740249 54 41 C54.495 40.01 54.495 40.01 55 39 C36.85 39 18.7 39 0 39 C0 26.13 0 13.26 0 0 Z M94 55 C85.64184415 70.50951914 82.48678758 84.19518167 86.93359375 101.83203125 C88.646502 106.92056088 91.18111126 111.44781398 94 116 C94.99 116 95.98 116 97 116 C97.6392371 114.71531961 98.26033982 113.42161893 98.875 112.125 C99.22304687 111.40570313 99.57109375 110.68640625 99.9296875 109.9453125 C102.72609495 102.25008908 103.38874314 94.44771416 103.375 86.3125 C103.37411377 85.35931885 103.37322754 84.4061377 103.37231445 83.42407227 C103.20882993 73.56437876 101.85175447 63.24774842 96 55 C95.34 55 94.68 55 94 55 Z " fill="#F29E19" transform="translate(12,21)"/>
<path d="M0 0 C12.47836069 -0.72925485 24.18588043 -0.12306446 34.375 8.1875 C37 11 37 11 37 13 C37.66 13 38.32 13 39 13 C37.82673599 16.94643347 36.27900595 20.55029736 34.5 24.25 C28.41009141 37.57953443 28.40749261 52.13278042 33 66 C34.21493821 68.47688297 35.50792238 70.78651198 37.01171875 73.09765625 C38 75 38 75 38 79 C39.485 79.495 39.485 79.495 41 80 C42.14462695 81.17829245 43.2892179 82.35661992 44.43359375 83.53515625 C54.12586061 92.59899683 64.4118525 94.45425596 77.265625 94.203125 C80.61039459 94.02119193 83.74014615 93.77051091 87 93 C87.33 92.34 87.66 91.68 88 91 C89.350421 90.22626093 90.73104922 89.50475013 92.125 88.8125 C100.34303136 84.32639111 104.80573046 78.17621937 109.6171875 70.2578125 C111 68 111 68 112 67 C113.38160115 66.9072167 114.76788038 66.88252957 116.15258789 66.88647461 C117.03342545 66.88655014 117.914263 66.88662567 118.8217926 66.88670349 C119.77907761 66.89186478 120.73636261 66.89702606 121.72265625 66.90234375 C123.18547279 66.90446617 123.18547279 66.90446617 124.67784119 66.90663147 C127.80609143 66.91224867 130.93427123 66.92480407 134.0625 66.9375 C136.17773334 66.94251278 138.29296781 66.94707607 140.40820312 66.95117188 C145.60549296 66.96222369 150.80274145 66.97897854 156 67 C153.71867751 84.17560456 143.96390465 98.01865526 132 110 C131.34257812 110.66902344 130.68515625 111.33804688 130.0078125 112.02734375 C114.83945468 126.38194846 92.54928199 133.30783667 72 133 C63.71208967 132.59994135 55.30410661 132.02062874 47.4375 129.25 C42.22322131 127.45166125 38.19938992 128.58641586 33 130 C31.33657081 130.36907335 29.66978216 130.7233255 28 131.0625 C27.278125 131.21847656 26.55625 131.37445313 25.8125 131.53515625 C16.21125919 133.122028 6.6339477 133.13272027 -3.0703125 133.09765625 C-4.6030167 133.09578729 -6.1357215 133.09436565 -7.66842651 133.09336853 C-11.66977639 133.08958097 -15.671089 133.07978354 -19.67242432 133.06866455 C-24.49089793 133.05655331 -29.30938412 133.05203026 -34.12786865 133.04621124 C-41.41860489 133.03656917 -48.70925962 133.0173865 -56 133 C-56 119.8 -56 106.6 -56 93 C-37.85 93 -19.7 93 -1 93 C-3.64 87.72 -6.28 82.44 -9 77 C-10.50460807 71.94606008 -11.89603924 67.12063154 -13 62 C-13.19078125 61.23429687 -13.3815625 60.46859375 -13.578125 59.6796875 C-16.84144452 38.95156534 -12.09189112 19.97924292 -2 2 C-1.34 2 -0.68 2 0 2 C0 1.34 0 0.68 0 0 Z " fill="#1A1447" transform="translate(68,60)"/>
<path d="M0 0 C3.68359375 0.58984375 3.68359375 0.58984375 4.68359375 1.58984375 C5.13819233 4.24447496 5.38602613 6.91173513 5.68359375 9.58984375 C6.00263672 8.6153125 6.00263672 8.6153125 6.328125 7.62109375 C7.49609375 5.08984375 7.49609375 5.08984375 11.68359375 0.58984375 C17.95359375 0.58984375 24.22359375 0.58984375 30.68359375 0.58984375 C30.68359375 24.67984375 30.68359375 48.76984375 30.68359375 73.58984375 C24.74359375 73.58984375 18.80359375 73.58984375 12.68359375 73.58984375 C10.52902406 71.43527406 11.42332749 66.51868105 11.3671875 63.5234375 C11.3464064 62.61481461 11.32562531 61.70619171 11.30421448 60.77003479 C11.23861703 57.85588429 11.17978695 54.94164071 11.12109375 52.02734375 C11.07791821 50.05663084 11.03430424 48.08592749 10.99023438 46.11523438 C10.88292532 41.27353387 10.781687 36.43173938 10.68359375 31.58984375 C10.11946777 32.60054932 9.5553418 33.61125488 8.97412109 34.65258789 C4.20161569 43.18332872 -0.63782999 51.65911669 -5.69140625 60.02734375 C-6.29339844 61.04376953 -6.89539063 62.06019531 -7.515625 63.10742188 C-8.38767578 64.55084961 -8.38767578 64.55084961 -9.27734375 66.0234375 C-9.79087402 66.87993896 -10.3044043 67.73644043 -10.83349609 68.61889648 C-12.31640625 70.58984375 -12.31640625 70.58984375 -15.31640625 71.58984375 C-15.64640625 59.04984375 -15.97640625 46.50984375 -16.31640625 33.58984375 C-22.44528564 43.54723366 -22.44528564 43.54723366 -28.5625 53.51171875 C-29.60845463 55.21593577 -30.65465461 56.92000194 -31.70092773 58.62402344 C-32.41591976 59.78909739 -33.13042117 60.95447254 -33.84448242 62.12011719 C-34.89502977 63.83477654 -35.94748076 65.54826911 -37 67.26171875 C-37.92123657 68.7636377 -37.92123657 68.7636377 -38.86108398 70.29589844 C-40.31640625 72.58984375 -40.31640625 72.58984375 -41.31640625 73.58984375 C-42.95113507 73.67684717 -44.5895468 73.69685438 -46.2265625 73.6875 C-47.21591797 73.68427734 -48.20527344 73.68105469 -49.22460938 73.67773438 C-50.26552734 73.66935547 -51.30644531 73.66097656 -52.37890625 73.65234375 C-53.42369141 73.64783203 -54.46847656 73.64332031 -55.54492188 73.63867188 C-58.13547285 73.62684288 -60.72591184 73.61036064 -63.31640625 73.58984375 C-62.07768222 70.25649066 -60.69173283 67.42595426 -58.6640625 64.5078125 C-57.87902344 63.36989258 -57.87902344 63.36989258 -57.078125 62.20898438 C-56.51738281 61.40654297 -55.95664062 60.60410156 -55.37890625 59.77734375 C-54.79625 58.93494141 -54.21359375 58.09253906 -53.61328125 57.22460938 C-52.41874153 55.49786187 -51.22229071 53.77243486 -50.02392578 52.04833984 C-47.60869933 48.5708834 -45.21274913 45.08032389 -42.81640625 41.58984375 C-41.921876 40.29036389 -41.02734474 38.99088474 -40.1328125 37.69140625 C-37.55412021 33.94108076 -34.98967146 30.18118422 -32.4309082 26.41723633 C-31.31924707 24.7915796 -30.19935781 23.17151687 -29.07104492 21.55737305 C-26.50078769 17.87261644 -24.05874159 14.21711182 -21.90234375 10.2734375 C-16.31672829 0.50219709 -11.00226844 -1.02360286 0 0 Z " fill="#272151" transform="translate(508.31640625,95.41015625)"/>
<path d="M0 0 C9.86620679 8.02549657 17.91539999 16.81609031 24 28 C24.680625 29.20462891 24.680625 29.20462891 25.375 30.43359375 C28.7102434 36.63754354 30.87471905 43.03014756 32 50 C30.48459971 51.51540029 29.09071207 51.21617897 26.97436523 51.31982422 C26.11934921 51.36170868 25.26433319 51.40359314 24.38340759 51.44674683 C20.44462415 51.59725407 16.50590297 51.70443004 12.56518555 51.78955078 C10.49174534 51.84619773 8.41882871 51.92795771 6.34741211 52.03564453 C-10.41085128 52.89078106 -10.41085128 52.89078106 -14.72088623 49.74328613 C-17.81883299 46.28378356 -19.42909364 42.35157975 -21 38 C-22.57962265 34.47647961 -23.4506097 33.54882486 -27 32 C-28.46963312 31.01668184 -29.92758064 30.01573289 -31.375 29 C-34.81783368 26.66683998 -37.93213166 25.04304316 -42 24 C-42 23.34 -42 22.68 -42 22 C-42.87398437 21.90912109 -42.87398437 21.90912109 -43.765625 21.81640625 C-46.95727202 20.65022753 -47.88349028 18.74112101 -49.75 15.9375 C-58.14671128 3.98417068 -68.42263099 -3.60257676 -82 -9 C-81.67 -9.99 -81.34 -10.98 -81 -12 C-78.7421875 -12.9140625 -78.7421875 -12.9140625 -75.875 -13.625 C-74.94429688 -13.86476563 -74.01359375 -14.10453125 -73.0546875 -14.3515625 C-48.03525525 -19.66259288 -20.69351211 -15.4726719 0 0 Z " fill="#1F194B" transform="translate(193,37)"/>
<path d="M0 0 C5.64033781 4.4760479 9.91402472 9.91780506 11.5546875 17.02734375 C9.24107573 19.34095552 3.8453933 18.35490071 0.7421875 18.40234375 C-0.17369141 18.43972656 -1.08957031 18.47710937 -2.03320312 18.515625 C-4.5977801 18.54924655 -6.92631718 18.51542912 -9.4453125 18.02734375 C-11.875 15.6171875 -11.875 15.6171875 -13.4453125 13.02734375 C-18.25400833 10.39617056 -21.98834988 9.44266918 -27.4453125 10.02734375 C-33.14407347 11.79592474 -36.07497177 14.11627584 -39.4453125 19.02734375 C-42.26964637 25.34847194 -42.09393551 30.76343847 -39.8203125 37.21484375 C-37.83460543 41.75852763 -36.1004868 43.95837739 -31.4453125 46.02734375 C-28.13390096 46.87998265 -24.82588491 47.51958979 -21.4453125 48.02734375 C-21.1565625 47.26421875 -20.8678125 46.50109375 -20.5703125 45.71484375 C-19.4453125 43.02734375 -19.4453125 43.02734375 -17.4453125 40.02734375 C-18.51072266 39.93646484 -18.51072266 39.93646484 -19.59765625 39.84375 C-20.51675781 39.75996094 -21.43585938 39.67617187 -22.3828125 39.58984375 C-23.29933594 39.50863281 -24.21585937 39.42742187 -25.16015625 39.34375 C-27.4453125 39.02734375 -27.4453125 39.02734375 -28.4453125 38.02734375 C-28.4453125 33.07734375 -28.4453125 28.12734375 -28.4453125 23.02734375 C-14.9153125 23.02734375 -1.3853125 23.02734375 12.5546875 23.02734375 C11.72598707 26.34214547 11.12454992 28.01903092 9.40234375 30.79296875 C8.96027588 31.510896 8.51820801 32.22882324 8.06274414 32.96850586 C7.58571045 33.73042236 7.10867676 34.49233887 6.6171875 35.27734375 C6.12790771 36.06568604 5.63862793 36.85402832 5.13452148 37.66625977 C4.11639176 39.30558786 3.09626411 40.94367667 2.07421875 42.58056641 C0.61379886 44.93216154 -0.82518504 47.29545853 -2.2578125 49.6640625 C-3.13260968 51.09778002 -4.00760089 52.53137918 -4.8828125 53.96484375 C-5.28298584 54.63225586 -5.68315918 55.29966797 -6.09545898 55.98730469 C-8.97433045 60.65902446 -11.22818207 63.28830027 -16.4453125 65.02734375 C-28.15019096 65.97807289 -39.32967638 64.53055605 -48.6328125 56.85546875 C-57.70478457 47.70529002 -61.42846187 37.76641814 -61.4453125 25.02734375 C-60.64365912 15.87391968 -55.87576087 7.45779212 -49.4453125 1.02734375 C-33.54427846 -10.55769534 -16.30407451 -10.92326805 0 0 Z " fill="#F3A528" transform="translate(492.4453125,27.97265625)"/>
<path d="M0 0 C8.36284242 7.11698135 13.33288397 14.34455928 14.47265625 25.43359375 C14.82811687 36.38622407 13.09168587 44.63042102 5.97265625 53.09765625 C-2.12007404 61.44245519 -10.81476933 65.67367213 -22.40234375 66.03515625 C-33.13208638 65.71847982 -42.24669928 61.82315003 -50.265625 54.6640625 C-58.53282128 45.17355794 -59.57320257 34.94633855 -59.07275391 22.93310547 C-58.70532755 18.30184892 -57.3100231 14.71311314 -54.90234375 10.78515625 C-54.38929688 9.93566406 -53.87625 9.08617188 -53.34765625 8.2109375 C-47.71266865 0.12122354 -39.36741031 -4.86664084 -29.69921875 -6.8828125 C-19.08787152 -8.14253948 -8.73964611 -6.45560066 0 0 Z M-36.90234375 15.78515625 C-40.67699628 21.98128399 -42.02882686 28.12256061 -40.3125 35.2265625 C-38.40357509 41.12927502 -35.86575578 44.65253078 -30.47265625 47.78515625 C-25.90969808 49.56041049 -21.69112173 49.65516716 -16.90234375 48.78515625 C-11.26046277 46.01550559 -7.29258357 41.60310168 -4.90234375 35.78515625 C-3.99775469 28.5865317 -4.03752274 22.32124028 -8.46875 16.37109375 C-12.6479552 11.74777682 -16.31997099 9.67280435 -22.52734375 9.34765625 C-28.57137156 9.44485553 -32.69672099 11.45961757 -36.90234375 15.78515625 Z " fill="#272252" transform="translate(426.90234375,103.21484375)"/>
<path d="M0 0 C3.71517028 4.60681115 3.71517028 4.60681115 5.4375 6.984375 C15.07732259 20.05374986 28.30141158 30.32693182 44 35 C40.45955222 37.36029852 37.0183061 38.12842515 32.9375 39.0625 C32.22400391 39.23587891 31.51050781 39.40925781 30.77539062 39.58789062 C19.90199723 42.12404404 9.04015899 42.13780128 -2.0703125 42.09765625 C-3.6030167 42.09578729 -5.1357215 42.09436565 -6.66842651 42.09336853 C-10.66977639 42.08958097 -14.671089 42.07978354 -18.67242432 42.06866455 C-23.49089793 42.05655331 -28.30938412 42.05203026 -33.12786865 42.04621124 C-40.41860489 42.03656917 -47.70925962 42.0173865 -55 42 C-55 28.8 -55 15.6 -55 2 C-36.85 2 -18.7 2 0 2 C0 1.34 0 0.68 0 0 Z " fill="#F3A11F" transform="translate(67,151)"/>
<path d="M0 0 C5.50770503 5.25023101 9.45835381 11.35181186 10.921875 18.83203125 C8.66150809 21.09239816 3.64122757 20.20511827 0.609375 20.26953125 C-0.69290039 20.33817383 -0.69290039 20.33817383 -2.02148438 20.40820312 C-4.5101219 20.45213149 -6.65653192 20.41531192 -9.078125 19.83203125 C-11.51953125 16.94921875 -11.51953125 16.94921875 -13.078125 13.83203125 C-17.74776424 9.71830144 -20.50044848 8.45990683 -26.62890625 8.55859375 C-30.69485326 9.01252723 -33.83029553 10.35574498 -37.078125 12.83203125 C-41.14893366 18.05101671 -42.33002835 23.2321634 -42.078125 29.83203125 C-40.99863672 35.8599702 -38.92930066 39.92742645 -34.078125 43.83203125 C-29.3417807 46.6859823 -24.44852399 46.57644299 -19.078125 45.83203125 C-15.15532326 44.12154833 -12.62589664 42.1767414 -10.99609375 38.17578125 C-9.078125 35.83203125 -9.078125 35.83203125 -7.06103516 35.43041992 C-4.48757426 35.33871358 -1.96273241 35.39722914 0.609375 35.51953125 C1.50205078 35.54208984 2.39472656 35.56464844 3.31445312 35.58789062 C5.51861772 35.64682551 7.71940172 35.72902307 9.921875 35.83203125 C8.92675195 45.2571047 4.28965732 51.37550318 -2.93359375 57.328125 C-12.0936272 63.75182787 -22.64547485 65.10834727 -33.515625 63.20703125 C-42.88419103 60.86897725 -51.59395468 54.60579921 -56.58203125 46.33984375 C-61.80057332 36.31905356 -63.06807736 25.01872013 -59.640625 14.08203125 C-55.5618138 4.36444245 -47.62643108 -2.92591945 -38.078125 -7.16796875 C-24.70508938 -11.85070924 -10.88714775 -8.60084672 0 0 Z " fill="#292353" transform="translate(294.078125,105.16796875)"/>
<path d="M0 0 C1.44964449 -0.01140188 2.89925107 -0.03166139 4.34863281 -0.06152344 C16.21870355 -0.30588717 28.56280993 0.41084132 38.11010742 8.40063477 C47.36463081 18.24371337 49.47976884 28.35563851 49.13745117 41.38500977 C48.58184045 50.21304672 45.76454523 57.60127074 39.89135742 64.29516602 C29.83913194 73.11493473 18.46370767 73.74956548 5.66552734 73.57641602 C3.30249501 73.54481345 0.94012859 73.53539118 -1.4230957 73.52954102 C-2.92375498 73.52038669 -4.42440744 73.51001599 -5.92504883 73.49829102 C-6.63222549 73.49404114 -7.33940216 73.48979126 -8.06800842 73.4854126 C-12.99135198 73.41245661 -12.99135198 73.41245661 -14.10864258 72.29516602 C-14.20845472 69.61785222 -14.24744133 66.97212427 -14.23364258 64.29516602 C-14.23750977 63.54493164 -14.24137695 62.79469727 -14.24536133 62.02172852 C-14.23525311 56.42177655 -14.23525311 56.42177655 -13.10864258 55.29516602 C-10.72081294 55.17223503 -8.35740076 55.10911578 -5.96801758 55.08422852 C-4.49014218 55.05614611 -3.01227775 55.02748156 -1.53442383 54.99829102 C0.80036961 54.95711473 3.13496134 54.92023844 5.4699707 54.89379883 C7.72024199 54.86609436 9.96957541 54.82020898 12.21948242 54.77172852 C12.91237366 54.76847565 13.60526489 54.76522278 14.31915283 54.76187134 C18.66351287 54.65234014 21.43493356 53.9551096 24.89135742 51.29516602 C29.15890979 44.82025898 28.71634075 36.79280857 27.89135742 29.29516602 C26.16881091 25.16682828 24.77337091 22.60011152 20.89135742 20.29516602 C17.40243811 19.13219291 14.53199491 19.10122936 10.85229492 19.01391602 C10.17083405 18.99550659 9.48937317 18.97709717 8.78726196 18.95812988 C5.87387656 18.87949915 2.96026762 18.8114987 0.04663086 18.74291992 C-2.08076859 18.69132078 -4.20796183 18.63404455 -6.33520508 18.57641602 C-8.2468042 18.53097656 -8.2468042 18.53097656 -10.19702148 18.48461914 C-13.10864258 18.29516602 -13.10864258 18.29516602 -14.10864258 17.29516602 C-14.34542974 14.60280826 -14.53062283 11.93018446 -14.67114258 9.23266602 C-14.71432617 8.47405273 -14.75750977 7.71543945 -14.80200195 6.93383789 C-14.90837891 5.05451164 -15.00904192 3.17486358 -15.10864258 1.29516602 C-10.730433 -0.89393878 -4.86285484 0.02653155 0 0 Z " fill="#F4A72D" transform="translate(258.108642578125,19.704833984375)"/>
<path d="M0 0 C1.64510941 0.00015915 3.29022379 0.00585551 4.93530273 0.01586914 C6.23164894 0.01799156 6.23164894 0.01799156 7.55418396 0.02015686 C10.32578941 0.025773 13.09731528 0.0383282 15.86889648 0.05102539 C17.74324428 0.05603831 19.61759334 0.06060158 21.49194336 0.06469727 C26.09679192 0.07574767 30.70158069 0.09302309 35.30639648 0.11352539 C36.0814113 3.77233417 36.44152084 7.11751376 36.43139648 10.86352539 C36.43526367 12.30985352 36.43526367 12.30985352 36.43920898 13.78540039 C36.30639648 16.11352539 36.30639648 16.11352539 35.30639648 17.11352539 C33.74691106 17.27038788 32.18096981 17.36429178 30.61499023 17.42993164 C29.19863281 17.49277344 29.19863281 17.49277344 27.75366211 17.55688477 C26.76043945 17.59620117 25.7672168 17.63551758 24.74389648 17.67602539 C23.74680664 17.71920898 22.7497168 17.76239258 21.72241211 17.80688477 C19.25055498 17.91332837 16.77859339 18.01534467 14.30639648 18.11352539 C14.30639648 20.75352539 14.30639648 23.39352539 14.30639648 26.11352539 C17.93639648 26.44352539 21.56639648 26.77352539 25.30639648 27.11352539 C25.33323961 29.9260882 25.35315836 32.7383978 25.36889648 35.55102539 C25.37727539 36.3534668 25.3856543 37.1559082 25.39428711 37.98266602 C25.40291079 40.0264776 25.35867798 42.07036441 25.30639648 44.11352539 C23.64296811 45.77695376 21.52382559 45.47400636 19.24389648 45.67602539 C18.32479492 45.75981445 17.40569336 45.84360352 16.45874023 45.92993164 C15.7484668 45.99051758 15.03819336 46.05110352 14.30639648 46.11352539 C14.30639648 49.08352539 14.30639648 52.05352539 14.30639648 55.11352539 C21.23639648 55.44352539 28.16639648 55.77352539 35.30639648 56.11352539 C36.43770532 59.5074519 36.43931589 62.16687411 36.43139648 65.73852539 C36.43526367 67.49036133 36.43526367 67.49036133 36.43920898 69.27758789 C36.30639648 72.11352539 36.30639648 72.11352539 35.30639648 73.11352539 C32.43375592 73.21459413 29.5856602 73.25322211 26.71264648 73.24633789 C25.85078735 73.24729462 24.98892822 73.24825134 24.10095215 73.24923706 C22.27506436 73.24991889 20.44917417 73.24806444 18.62329102 73.24389648 C15.8183857 73.23854825 13.01364053 73.24384138 10.20874023 73.25024414 C8.43920863 73.24958336 6.66967712 73.2483022 4.90014648 73.24633789 C4.05536743 73.24836212 3.21058838 73.25038635 2.34020996 73.25247192 C-3.5786532 73.2284757 -3.5786532 73.2284757 -4.69360352 72.11352539 C-4.79320503 69.91027565 -4.82160109 67.70379049 -4.82299805 65.49829102 C-4.82475037 64.80724777 -4.82650269 64.11620453 -4.82830811 63.40422058 C-4.83272606 61.10938032 -4.82978885 58.8146165 -4.82641602 56.51977539 C-4.82708907 54.93176254 -4.82805911 53.3437498 -4.82931519 51.7557373 C-4.83079208 48.42332989 -4.82863787 45.09094923 -4.82397461 41.75854492 C-4.81827732 37.47754029 -4.82155637 33.19659834 -4.82754707 28.91559601 C-4.83115291 25.63518803 -4.830014 22.35479502 -4.82741928 19.0743866 C-4.82675008 17.49545789 -4.82757821 15.91652785 -4.82989883 14.33760071 C-4.83242574 12.13461686 -4.82858426 9.93173591 -4.82299805 7.72875977 C-4.82220245 6.47268921 -4.82140686 5.21661865 -4.82058716 3.92248535 C-4.62864146 -0.32347708 -4.40864288 0.13550261 0 0 Z " fill="#2A2554" transform="translate(546.693603515625,95.886474609375)"/>
<path d="M0 0 C0.97372559 -0.00225586 1.94745117 -0.00451172 2.95068359 -0.00683594 C3.9917627 -0.00200195 5.0328418 0.00283203 6.10546875 0.0078125 C7.68255615 0.01506348 7.68255615 0.01506348 9.29150391 0.02246094 C33.59620291 0.21060693 33.59620291 0.21060693 41.07421875 6.671875 C46.99021157 13.02286729 48.90660453 19.79786252 48.64453125 28.38671875 C47.75854917 35.30722323 44.70568937 40.72710967 39.29296875 45.1328125 C36.99260599 46.52893575 34.64226907 47.81907715 32.29296875 49.1328125 C33.01742187 50.050625 33.741875 50.9684375 34.48828125 51.9140625 C37.43151152 55.64713839 40.36478578 59.38792543 43.29296875 63.1328125 C44.31583984 64.43992187 44.31583984 64.43992187 45.359375 65.7734375 C49.29296875 70.89184864 49.29296875 70.89184864 49.29296875 73.1328125 C31.09383857 75.07445134 31.09383857 75.07445134 25.3515625 71.09375 C23.49038758 68.52977848 21.91738913 65.94622748 20.44042969 63.14550781 C18.12018064 59.07569226 15.20005868 55.39426506 12.41796875 51.6328125 C11.31423523 50.10312664 10.21255284 48.57195795 9.11328125 47.0390625 C7.65380267 45.00666254 6.19799639 43.01628946 4.61669922 41.07617188 C3.29296875 39.1328125 3.29296875 39.1328125 3.29296875 36.1328125 C3.90817383 36.1234668 4.52337891 36.11412109 5.15722656 36.10449219 C7.95327961 36.05070165 10.74767495 35.96707431 13.54296875 35.8828125 C14.51105469 35.86863281 15.47914063 35.85445312 16.4765625 35.83984375 C22.05241401 35.72538552 22.05241401 35.72538552 26.90625 33.26953125 C28.73600398 30.45016385 29.22433072 28.49607594 29.29296875 25.1328125 C27.55952 21.40437286 27.55952 21.40437286 24.29296875 19.1328125 C22.12767567 18.99004188 19.95836404 18.90641136 17.7890625 18.8515625 C16.49162109 18.81417969 15.19417969 18.77679688 13.85742188 18.73828125 C11.78786937 18.68456504 9.7182794 18.63250659 7.64868164 18.58056641 C5.65370441 18.52894563 3.65887798 18.47159572 1.6640625 18.4140625 C0.4670874 18.38376953 -0.7298877 18.35347656 -1.96313477 18.32226562 C-4.70703125 18.1328125 -4.70703125 18.1328125 -5.70703125 17.1328125 C-5.80684339 14.4554987 -5.84583 11.80977075 -5.83203125 9.1328125 C-5.83589844 8.38257812 -5.83976562 7.63234375 -5.84375 6.859375 C-5.83138192 0.00745769 -5.83138192 0.00745769 0 0 Z " fill="#2D2756" transform="translate(313.70703125,95.8671875)"/>
<path d="M0 0 C0.804375 -0.00128906 1.60875 -0.00257812 2.4375 -0.00390625 C3.283125 -0.00003906 4.12875 0.00382812 5 0.0078125 C6.2684375 0.00201172 6.2684375 0.00201172 7.5625 -0.00390625 C8.366875 -0.00261719 9.17125 -0.00132813 10 0 C10.7425 0.00112793 11.485 0.00225586 12.25 0.00341797 C14 0.1328125 14 0.1328125 15 1.1328125 C15.09436529 3.37211136 15.11742327 5.61443 15.11352539 7.85571289 C15.11367142 8.558116 15.11381744 9.2605191 15.1139679 9.98420715 C15.11326872 12.31632528 15.10547617 14.6483645 15.09765625 16.98046875 C15.09579208 18.59329688 15.09436818 20.20612557 15.09336853 21.81895447 C15.08954323 26.07196607 15.07971285 30.32494374 15.06866455 34.57794189 C15.05845069 38.9145868 15.05387096 43.25123717 15.04882812 47.58789062 C15.03809059 56.10288019 15.02101403 64.61784213 15 73.1328125 C11.85418577 73.16169764 8.70840531 73.17957173 5.5625 73.1953125 C4.66466797 73.20369141 3.76683594 73.21207031 2.84179688 73.22070312 C1.56079102 73.22553711 1.56079102 73.22553711 0.25390625 73.23046875 C-0.53685303 73.23570557 -1.3276123 73.24094238 -2.14233398 73.24633789 C-4 73.1328125 -4 73.1328125 -5 72.1328125 C-5.09960152 69.92956276 -5.12799757 67.7230776 -5.12939453 65.51757812 C-5.13114685 64.82653488 -5.13289917 64.13549164 -5.13470459 63.42350769 C-5.13912254 61.12866743 -5.13618533 58.83390361 -5.1328125 56.5390625 C-5.13348556 54.95104965 -5.13445559 53.36303691 -5.13571167 51.77502441 C-5.13718857 48.442617 -5.13503436 45.11023634 -5.13037109 41.77783203 C-5.1246738 37.4968274 -5.12795285 33.21588545 -5.13394356 28.93488312 C-5.1375494 25.65447514 -5.13641048 22.37408213 -5.13381577 19.09367371 C-5.13314656 17.514745 -5.1339747 15.93581496 -5.13629532 14.35688782 C-5.13882223 12.15390397 -5.13498075 9.95102301 -5.12939453 7.74804688 C-5.12859894 6.49197632 -5.12780334 5.23590576 -5.12698364 3.94177246 C-4.93363455 -0.33523403 -3.88618165 0.00590349 0 0 Z " fill="#F4A82F" transform="translate(563,19.8671875)"/>
<path d="M0 0 C0.804375 -0.00128906 1.60875 -0.00257812 2.4375 -0.00390625 C3.283125 -0.00003906 4.12875 0.00382812 5 0.0078125 C6.2684375 0.00201172 6.2684375 0.00201172 7.5625 -0.00390625 C8.366875 -0.00261719 9.17125 -0.00132813 10 0 C10.7425 0.00112793 11.485 0.00225586 12.25 0.00341797 C14 0.1328125 14 0.1328125 15 1.1328125 C15.09436529 3.37211136 15.11742327 5.61443 15.11352539 7.85571289 C15.11367142 8.558116 15.11381744 9.2605191 15.1139679 9.98420715 C15.11326872 12.31632528 15.10547617 14.6483645 15.09765625 16.98046875 C15.09579208 18.59329688 15.09436818 20.20612557 15.09336853 21.81895447 C15.08954323 26.07196607 15.07971285 30.32494374 15.06866455 34.57794189 C15.05845069 38.9145868 15.05387096 43.25123717 15.04882812 47.58789062 C15.03809059 56.10288019 15.02101403 64.61784213 15 73.1328125 C11.85418577 73.16169764 8.70840531 73.17957173 5.5625 73.1953125 C4.66466797 73.20369141 3.76683594 73.21207031 2.84179688 73.22070312 C1.56079102 73.22553711 1.56079102 73.22553711 0.25390625 73.23046875 C-0.53685303 73.23570557 -1.3276123 73.24094238 -2.14233398 73.24633789 C-4 73.1328125 -4 73.1328125 -5 72.1328125 C-5.09960152 69.92956276 -5.12799757 67.7230776 -5.12939453 65.51757812 C-5.13114685 64.82653488 -5.13289917 64.13549164 -5.13470459 63.42350769 C-5.13912254 61.12866743 -5.13618533 58.83390361 -5.1328125 56.5390625 C-5.13348556 54.95104965 -5.13445559 53.36303691 -5.13571167 51.77502441 C-5.13718857 48.442617 -5.13503436 45.11023634 -5.13037109 41.77783203 C-5.1246738 37.4968274 -5.12795285 33.21588545 -5.13394356 28.93488312 C-5.1375494 25.65447514 -5.13641048 22.37408213 -5.13381577 19.09367371 C-5.13314656 17.514745 -5.1339747 15.93581496 -5.13629532 14.35688782 C-5.13882223 12.15390397 -5.13498075 9.95102301 -5.12939453 7.74804688 C-5.12859894 6.49197632 -5.12780334 5.23590576 -5.12698364 3.94177246 C-4.93363455 -0.33523403 -3.88618165 0.00590349 0 0 Z " fill="#F4A82F" transform="translate(364,19.8671875)"/>
<path d="M0 0 C2.3125 0.0625 2.3125 0.0625 5 1 C9 6.08108108 9 6.08108108 9 9 C9.66 9 10.32 9 11 9 C11.268125 8.2575 11.53625 7.515 11.8125 6.75 C12.94229421 4.13363446 14.20893202 2.19812889 16 0 C18.475 0.495 18.475 0.495 21 1 C21 7.6 21 14.2 21 21 C19.35 21.33 17.7 21.66 16 22 C13.95301586 19.95301586 14.29954307 15.69588759 14 13 C13.01 14.32 12.02 15.64 11 17 C7.125 15.25 7.125 15.25 6 13 C5.67 15.64 5.34 18.28 5 21 C3.34385343 21.38218767 1.67542976 21.71395102 0 22 C-1.58937556 20.41062444 -1.12981143 18.76100154 -1.1328125 16.5625 C-1.13410156 15.66789063 -1.13539063 14.77328125 -1.13671875 13.8515625 C-1.13091797 12.44003906 -1.13091797 12.44003906 -1.125 11 C-1.12886719 10.05898437 -1.13273437 9.11796875 -1.13671875 8.1484375 C-1.13542969 7.25382813 -1.13414062 6.35921875 -1.1328125 5.4375 C-1.13112061 4.19806641 -1.13112061 4.19806641 -1.12939453 2.93359375 C-1 1 -1 1 0 0 Z " fill="#656183" transform="translate(511,171)"/>
<path d="M0 0 C2.06183633 -0.08150744 4.12461349 -0.1394194 6.1875 -0.1875 C7.33605469 -0.22230469 8.48460937 -0.25710937 9.66796875 -0.29296875 C13.33289234 0.02926955 15.09664715 0.78767607 18 3 C20.81437575 7.22156362 20.92475051 11.04428575 20 16 C17.68437668 19.2360288 14.7549513 20.74834957 11 22 C9.29367352 22.09267588 7.58383413 22.12998202 5.875 22.125 C4.98554688 22.12757813 4.09609375 22.13015625 3.1796875 22.1328125 C1 22 1 22 0 21 C-0.08685603 19.43827255 -0.10702219 17.87270656 -0.09765625 16.30859375 C-0.09443359 15.36435547 -0.09121094 14.42011719 -0.08789062 13.44726562 C-0.07951172 12.45404297 -0.07113281 11.46082031 -0.0625 10.4375 C-0.05798828 9.44041016 -0.05347656 8.44332031 -0.04882812 7.41601562 C-0.03700007 4.94395151 -0.02051849 2.47200482 0 0 Z M5 5 C5 8.96 5 12.92 5 17 C10.58500567 16.80101292 10.58500567 16.80101292 15 14 C15.3267107 10.92891945 15.48138276 8.84949899 13.9375 6.125 C10.99772876 4.41803605 8.32129197 4.81200234 5 5 Z " fill="#575378" transform="translate(405,171)"/>
<path d="M0 0 C4.95 0 9.9 0 15 0 C15 1.65 15 3.3 15 5 C11.7 5 8.4 5 5 5 C5 5.99 5 6.98 5 8 C7.64 8 10.28 8 13 8 C13 9.65 13 11.3 13 13 C10.36 13 7.72 13 5 13 C5 14.32 5 15.64 5 17 C8.3 17 11.6 17 15 17 C15.33 17.66 15.66 18.32 16 19 C15.34 19.99 14.68 20.98 14 22 C10.7421875 22.29296875 10.7421875 22.29296875 6.875 22.1875 C5.59367187 22.16042969 4.31234375 22.13335937 2.9921875 22.10546875 C2.00476563 22.07066406 1.01734375 22.03585938 0 22 C-1.1353654 19.72926921 -1.12892412 18.45716721 -1.1328125 15.9375 C-1.13410156 15.14085937 -1.13539063 14.34421875 -1.13671875 13.5234375 C-1.13285156 12.69070312 -1.12898438 11.85796875 -1.125 11 C-1.13080078 9.75089844 -1.13080078 9.75089844 -1.13671875 8.4765625 C-1.13542969 7.67992187 -1.13414062 6.88328125 -1.1328125 6.0625 C-1.13168457 5.33160156 -1.13055664 4.60070312 -1.12939453 3.84765625 C-1 2 -1 2 0 0 Z " fill="#615D80" transform="translate(460,171)"/>
<path d="M0 0 C2.26171875 -0.01953125 2.26171875 -0.01953125 5 1 C6.7171496 3.58945218 7.73233063 6.41058803 8.8125 9.3125 C9.12380859 10.08529297 9.43511719 10.85808594 9.75585938 11.65429688 C11.23691462 15.43993919 12 17.84324108 12 22 C9.5625 21.625 9.5625 21.625 7 21 C6.67 20.34 6.34 19.68 6 19 C3.87423218 18.53348793 3.87423218 18.53348793 1.4375 18.375 C0.61121094 18.30023438 -0.21507812 18.22546875 -1.06640625 18.1484375 C-1.70449219 18.09945312 -2.34257812 18.05046875 -3 18 C-3.33 19.32 -3.66 20.64 -4 22 C-5.65 21.67 -7.3 21.34 -9 21 C-6.76686274 13.55620912 -3.59727921 6.88023305 0 0 Z M1 8 C0.67 9.65 0.34 11.3 0 13 C1.32 13 2.64 13 4 13 C3.34 11.35 2.68 9.7 2 8 C1.67 8 1.34 8 1 8 Z " fill="#575378" transform="translate(359,171)"/>
<path d="M0 0 C3.80128969 1.56652572 4.43502353 3.79613753 6.04296875 7.45703125 C6.38714844 8.29363281 6.73132813 9.13023437 7.0859375 9.9921875 C7.45332031 10.82105469 7.82070313 11.64992187 8.19921875 12.50390625 C10.85080004 18.69759989 10.85080004 18.69759989 9.7109375 22.1171875 C8.0609375 21.7871875 6.4109375 21.4571875 4.7109375 21.1171875 C4.7109375 20.1271875 4.7109375 19.1371875 4.7109375 18.1171875 C1.7409375 18.1171875 -1.2290625 18.1171875 -4.2890625 18.1171875 C-4.9490625 19.4371875 -5.6090625 20.7571875 -6.2890625 22.1171875 C-7.6090625 22.1171875 -8.9290625 22.1171875 -10.2890625 22.1171875 C-9.66816804 17.12674829 -8.19405211 12.90991002 -6.2890625 8.3046875 C-6.01578125 7.62470703 -5.7425 6.94472656 -5.4609375 6.24414062 C-2.98307022 0.15271691 -2.98307022 0.15271691 0 0 Z M-0.2890625 8.1171875 C-0.9490625 9.7671875 -1.6090625 11.4171875 -2.2890625 13.1171875 C-0.9690625 13.1171875 0.3509375 13.1171875 1.7109375 13.1171875 C1.3809375 11.4671875 1.0509375 9.8171875 0.7109375 8.1171875 C0.3809375 8.1171875 0.0509375 8.1171875 -0.2890625 8.1171875 Z " fill="#5E5A7E" transform="translate(254.2890625,170.8828125)"/>
<path d="M0 0 C3.0625 1.875 3.0625 1.875 5 4 C5 4.66 5 5.32 5 6 C3.0085944 6.38133299 1.00720923 6.71325582 -1 7 C-1.33 6.67 -1.66 6.34 -2 6 C-4.95804573 5.66659529 -4.95804573 5.66659529 -8 6 C-10.36692966 8.84826598 -10.36692966 8.84826598 -9.625 12.1875 C-9.41875 13.115625 -9.2125 14.04375 -9 15 C-6.14221967 15.68493373 -6.14221967 15.68493373 -3 16 C-2.01 15.34 -1.02 14.68 0 14 C2.6875 14.375 2.6875 14.375 5 15 C3.60478153 18.37177797 2.23717239 20.25017709 -1 22 C-4.78216379 22.41259969 -7.24695586 22.32517815 -10.75 20.8125 C-13.38978907 18.68600325 -14.65317388 17.11896575 -16 14 C-16.53255319 9.02950357 -16.1529475 5.94118438 -13 2 C-8.80925644 -0.54661389 -4.78397193 -0.71504207 0 0 Z " fill="#5D597D" transform="translate(313,171)"/>
<path d="M0 0 C2.25 -0.375 2.25 -0.375 5 0 C7.3125 3 7.3125 3 9 6 C11.87420123 3.28395285 11.87420123 3.28395285 14 0 C15.98 0 17.96 0 20 0 C16.28878822 6.65458664 16.28878822 6.65458664 14.40625 8.90625 C12.69779302 11.44995261 12.51226771 13.21353083 12.3125 16.25 C12.24675781 17.14203125 12.18101562 18.0340625 12.11328125 18.953125 C12.07589844 19.62859375 12.03851562 20.3040625 12 21 C10.125 21.625 10.125 21.625 8 22 C7.34 21.34 6.68 20.68 6 20 C6.015625 18.1171875 6.015625 18.1171875 6.25 15.875 C6.41290871 10.82482992 4.58997473 8.41372158 1.3125 4.7265625 C0 3 0 3 0 0 Z " fill="#5B577C" transform="translate(566,171)"/>
<path d="M0 0 C8.3984375 -0.1953125 8.3984375 -0.1953125 11 0 C13 2 13 2 13.1875 4.9375 C13 8 13 8 12 11 C12.27571139 13.00875442 12.60235737 15.01178687 13 17 C11.125 16.875 11.125 16.875 9 16 C7.75 12.9375 7.75 12.9375 7 10 C6.01 10 5.02 10 4 10 C4 12.31 4 14.62 4 17 C2.68 16.67 1.36 16.34 0 16 C0 10.72 0 5.44 0 0 Z M4 3 C4 3.99 4 4.98 4 6 C5.65 6 7.3 6 9 6 C8.67 5.01 8.34 4.02 8 3 C6.68 3 5.36 3 4 3 Z " fill="#505052" transform="translate(593,9)"/>
<path d="M0 0 C3.80093132 2.12822284 5.807749 4.41280797 7.75 8.375 C9.28218818 13.99302331 8.57550465 17.30857787 5.75 22.375 C2.55645161 25.375 2.55645161 25.375 -0.25 25.375 C-0.58 26.035 -0.91 26.695 -1.25 27.375 C-6.80309609 29.22603203 -12.72261692 28.08958904 -18.125 26.1875 C-21.25 24.375 -21.25 24.375 -22.5625 21.25 C-22.789375 20.30125 -23.01625 19.3525 -23.25 18.375 C-23.91 18.045 -24.57 17.715 -25.25 17.375 C-24.98320527 11.37211863 -24.44220068 6.99716998 -20.25 2.375 C-13.74791871 -2.25286717 -7.32689793 -3.22926242 0 0 Z M-21.25 6.375 C-23.27341736 9.89221541 -23.74027797 12.28935028 -23.25 16.375 C-20.77487205 21.13486144 -18.09460635 24.04241176 -13.25 26.375 C-7.31634793 27.23508963 -2.28594899 26.85220287 2.75 23.375 C5.26242458 21.12704116 6.57893886 19.57028975 7.0625 16.19140625 C7.1735057 11.96625168 6.86063074 9.09815262 4.75 5.375 C4.09 5.375 3.43 5.375 2.75 5.375 C2.75 4.715 2.75 4.055 2.75 3.375 C-6.1064391 -1.24575084 -14.55168478 -1.92177681 -21.25 6.375 Z " fill="#DBDADB" transform="translate(607.25,3.625)"/>
<path d="M0 0 C13.53 0 27.06 0 41 0 C40.67 0.99 40.34 1.98 40 3 C40 2.34 40 1.68 40 1 C27.13 1 14.26 1 1 1 C1 5.29 1 9.58 1 14 C5.29 14 9.58 14 14 14 C13.67 15.32 13.34 16.64 13 18 C12.34 18.33 11.68 18.66 11 19 C11 18.34 11 17.68 11 17 C9.93458984 16.90912109 9.93458984 16.90912109 8.84765625 16.81640625 C7.92855469 16.73261719 7.00945312 16.64882812 6.0625 16.5625 C4.68771484 16.44068359 4.68771484 16.44068359 3.28515625 16.31640625 C1 16 1 16 0 15 C0 10.05 0 5.1 0 0 Z " fill="#F7E5C9" transform="translate(464,51)"/>
<path d="M0 0 C1.65 0.33 3.3 0.66 5 1 C5 7.6 5 14.2 5 21 C3.35 21.33 1.7 21.66 0 22 C-1 21 -1 21 -1.09765625 18.05859375 C-1.08605469 16.86363281 -1.07445312 15.66867188 -1.0625 14.4375 C-1.05347656 13.23996094 -1.04445313 12.04242188 -1.03515625 10.80859375 C-1.02355469 9.88175781 -1.01195312 8.95492187 -1 8 C-0.34 8 0.32 8 1 8 C1 11.96 1 15.92 1 20 C1.66 20 2.32 20 3 20 C2.67 14.06 2.34 8.12 2 2 C0.35 3.32 -1.3 4.64 -3 6 C-1.125 1.125 -1.125 1.125 0 0 Z " fill="#9A97AD" transform="translate(527,171)"/>
<path d="M0 0 C3.0464887 1.55603434 3.42558867 1.776766 4.5625 5.1875 C3.9025 5.1875 3.2425 5.1875 2.5625 5.1875 C2.5625 4.5275 2.5625 3.8675 2.5625 3.1875 C-3.05535676 1.23346287 -8.49601085 0.21845976 -14.4375 1.1875 C-18.32951405 3.19344564 -20.81672422 6.14299531 -22.4375 10.1875 C-22.67729762 12.54972232 -22.67729762 12.54972232 -22.5625 14.9375 C-22.54445313 15.73671875 -22.52640625 16.5359375 -22.5078125 17.359375 C-22.48460937 17.96265625 -22.46140625 18.5659375 -22.4375 19.1875 C-23.4275 18.5275 -24.4175 17.8675 -25.4375 17.1875 C-25.17070527 11.18461863 -24.62970068 6.80966998 -20.4375 2.1875 C-13.80704855 -2.53173485 -7.39542026 -3.41428493 0 0 Z " fill="#C4C3C7" transform="translate(607.4375,3.8125)"/>
<path d="M0 0 C2.97922593 -0.02683987 5.95821295 -0.04676037 8.9375 -0.0625 C9.78763672 -0.07087891 10.63777344 -0.07925781 11.51367188 -0.08789062 C12.32255859 -0.09111328 13.13144531 -0.09433594 13.96484375 -0.09765625 C14.7137085 -0.10289307 15.46257324 -0.10812988 16.23413086 -0.11352539 C18 0 18 0 19 1 C19.54050028 4.72344639 20 8.24055985 20 12 C19.01 12.33 18.02 12.66 17 13 C17 9.37 17 5.74 17 2 C14.2079699 2.1404983 11.41650204 2.28715383 8.625 2.4375 C7.8309375 2.47681641 7.036875 2.51613281 6.21875 2.55664062 C1.97398779 2.68893404 1.97398779 2.68893404 -2 4 C-1.34 2.68 -0.68 1.36 0 0 Z " fill="#938FA6" transform="translate(494,96)"/>
<path d="M0 0 C0 6.27 0 12.54 0 19 C-0.66 19 -1.32 19 -2 19 C-2 15.04 -2 11.08 -2 7 C-3.32 7 -4.64 7 -6 7 C-2.86206897 0 -2.86206897 0 0 0 Z " fill="#140E43" transform="translate(530,172)"/>
<path d="M0 0 C2.55376307 1.88756401 3.03341657 3.12411867 3.875 6.25 C4.02325214 10.69756422 3.1573911 13.13157457 1 17 C-2.19354839 20 -2.19354839 20 -5 20 C-5.33 20.66 -5.66 21.32 -6 22 C-6 21.01 -6 20.02 -6 19 C-5.071875 18.87625 -5.071875 18.87625 -4.125 18.75 C-1.82618538 18.19392091 -1.82618538 18.19392091 -0.8125 16 C-0.544375 15.34 -0.27625 14.68 0 14 C0.33 13.67 0.66 13.34 1 13 C1.09894455 11.5653041 1.12970735 10.12559603 1.125 8.6875 C1.12757813 7.90761719 1.13015625 7.12773437 1.1328125 6.32421875 C1.00499912 4.08748461 0.61913869 2.14733021 0 0 Z " fill="#CCCBCE" transform="translate(612,9)"/>
<path d="M0 0 C1.98 0 3.96 0 6 0 C5.01 1.98 4.02 3.96 3 6 C2.67 5.34 2.34 4.68 2 4 C0.35 4.66 -1.3 5.32 -3 6 C-2 4 -1 2 0 0 Z " fill="#7D7996" transform="translate(580,171)"/>
<path d="M0 0 C0.33 0.99 0.66 1.98 1 3 C2.32 3 3.64 3 5 3 C4 6 4 6 2 8 C1.67 7.01 1.34 6.02 1 5 C-0.32 6.32 -1.64 7.64 -3 9 C-2.01 6.03 -1.02 3.06 0 0 Z " fill="#9491A8" transform="translate(357,174)"/>
<path d="M0 0 C4.1666604 0.47348414 6.92884715 1.04696841 10 4 C10 4.66 10 5.32 10 6 C9.34 6 8.68 6 8 6 C8 5.34 8 4.68 8 4 C6.865625 3.71125 5.73125 3.4225 4.5625 3.125 C3.386875 2.75375 2.21125 2.3825 1 2 C0.67 1.34 0.34 0.68 0 0 Z " fill="#D0D0D2" transform="translate(602,3)"/>
</svg>
