<svg xmlns="http://www.w3.org/2000/svg" xmlns:xlink="http://www.w3.org/1999/xlink" width="120" zoomAndPan="magnify" viewBox="0 0 90 60" height="80" preserveAspectRatio="xMidYMid meet" version="1.0"><defs><clipPath id="bcf7d43d0c"><path d="M 7.949219 3.171875 L 83.699219 3.171875 L 83.699219 60 L 7.949219 60 Z M 7.949219 3.171875 " clip-rule="nonzero"/></clipPath></defs><g clip-path="url(#bcf7d43d0c)"><path fill="#efd9c2" d="M 83.699219 8.046875 L 83.699219 47.777344 C 83.699219 50.464844 81.53125 52.648438 78.859375 52.648438 L 55.066406 52.648438 C 55.28125 55.261719 56.492188 56.714844 57.191406 57.324219 L 64.339844 57.324219 C 65.128906 57.324219 65.75 57.96875 65.75 58.746094 C 65.75 59.527344 65.113281 60.167969 64.339844 60.167969 L 27.433594 60.167969 C 26.644531 60.167969 26.023438 59.527344 26.023438 58.746094 C 26.023438 57.96875 26.660156 57.324219 27.433594 57.324219 L 34.582031 57.324219 C 35.28125 56.699219 36.492188 55.246094 36.707031 52.648438 L 12.792969 52.648438 C 10.121094 52.636719 7.949219 50.464844 7.949219 47.777344 L 7.949219 8.046875 C 7.949219 5.359375 10.121094 3.171875 12.792969 3.171875 L 78.859375 3.171875 C 81.53125 3.171875 83.699219 5.359375 83.699219 8.046875 Z M 83.699219 8.046875 " fill-opacity="1" fill-rule="nonzero"/></g><path fill="#260e0d" d="M 36.707031 52.636719 L 55.066406 52.636719 C 55.28125 55.246094 56.492188 56.699219 57.191406 57.3125 L 34.582031 57.3125 C 35.28125 56.699219 36.492188 55.246094 36.707031 52.636719 Z M 80.394531 43.480469 L 80.394531 8.277344 C 80.394531 7.40625 79.695312 6.703125 78.832031 6.703125 L 12.945312 6.703125 C 12.078125 6.703125 11.378906 7.40625 11.378906 8.277344 L 11.378906 43.480469 C 11.378906 44.351562 12.078125 45.054688 12.945312 45.054688 L 78.832031 45.054688 C 79.695312 45.054688 80.394531 44.351562 80.394531 43.480469 Z M 80.394531 43.480469 " fill-opacity="0.25" fill-rule="nonzero"/><path fill="#260e0d" d="M 80.394531 37.21875 L 73.945312 37.21875 L 65.582031 33.335938 L 53.839844 37.21875 L 45.886719 37.21875 L 32.277344 26.902344 L 45.886719 13.410156 L 80.394531 13.410156 Z M 80.394531 37.21875 " fill-opacity="1" fill-rule="nonzero"/><path fill="#dc775f" d="M 45.886719 37.21875 L 33.792969 37.21875 L 29.042969 33 L 22.457031 37.21875 L 11.378906 37.21875 L 11.378906 13.410156 L 45.886719 13.410156 Z M 63.898438 25.085938 L 62.457031 24.792969 L 62.5625 25.742188 C 62.5625 25.742188 63.292969 25.925781 63.898438 25.925781 C 64.503906 25.925781 65.234375 25.742188 65.234375 25.742188 L 65.339844 24.792969 Z M 70.984375 22.5625 C 70.878906 22.992188 70.210938 22.992188 70.058594 23.28125 C 70.058594 23.28125 69.421875 23.082031 69.164062 23.28125 C 69.164062 23.28125 68.617188 22.503906 67.980469 22.5625 C 67.980469 22.5625 67.933594 21.769531 67.632812 21.554688 C 68.558594 19.371094 67.84375 16.542969 65.871094 15.199219 C 62.609375 13.609375 59.847656 15.902344 59.574219 17.675781 C 59.269531 19.277344 59.5 20.484375 59.878906 21.339844 C 59.878906 21.339844 59.421875 22.015625 59.4375 22.671875 C 58.710938 22.882812 58.710938 23.496094 58.710938 23.496094 C 58.253906 23.234375 57.890625 23.496094 57.890625 23.496094 C 57.753906 22.960938 56.84375 23.191406 56.738281 22.871094 C 56.738281 22.871094 56.34375 23.710938 56.828125 24.503906 C 56.828125 24.503906 57.875 24.582031 57.921875 24.105469 C 58.875 24.398438 58.859375 23.9375 58.859375 23.9375 C 59.484375 24.0625 59.726562 23.128906 59.726562 22.914062 C 60.089844 22.929688 60.332031 22.5625 60.4375 22.335938 C 60.804688 22.824219 61.136719 23.066406 61.152344 23.097656 L 66.644531 23.023438 C 66.765625 22.898438 66.871094 22.777344 66.980469 22.640625 C 67.085938 22.808594 67.28125 23.007812 67.738281 23.097656 C 67.738281 23.097656 68.464844 24.273438 69.011719 23.984375 C 69.011719 23.984375 69.953125 24.519531 70.285156 23.785156 C 70.285156 23.785156 70.847656 24.382812 71.378906 23.785156 C 71.605469 23.234375 70.984375 22.5625 70.984375 22.5625 Z M 70.984375 22.5625 " fill-opacity="1" fill-rule="nonzero"/><path fill="#f3954f" d="M 18.238281 35.886719 C 16.8125 34.285156 17.617188 32.054688 19.589844 28.078125 C 21.5625 24.105469 23.15625 24.121094 23.15625 24.121094 L 34.035156 24.839844 L 35.765625 28.261719 C 35.765625 28.261719 36.949219 30.84375 37.3125 32.390625 C 37.675781 33.933594 37.648438 36.164062 35.976562 36.4375 C 34.324219 36.714844 33.324219 34.894531 33.324219 34.894531 C 33.292969 35.015625 33.566406 36.179688 33.777344 37.21875 L 22.457031 37.21875 C 22.609375 36.652344 22.761719 36.117188 22.746094 35.964844 C 21.730469 36.378906 18.984375 36.484375 18.238281 35.886719 Z M 18.238281 35.886719 " fill-opacity="1" fill-rule="nonzero"/><path fill="#260e0d" d="M 29.527344 25.3125 C 31.746094 26 36.175781 28.523438 31.425781 29.195312 C 26.675781 29.867188 24.414062 26.171875 24.15625 25.496094 C 23.898438 24.824219 23.839844 24.199219 23.15625 24.121094 C 24.21875 23.175781 27.3125 24.613281 29.527344 25.3125 Z M 29.527344 25.3125 " fill-opacity="0.25" fill-rule="nonzero"/><path fill="#260e0d" d="M 24.535156 21.90625 C 24.566406 21.890625 24.808594 20.316406 24.792969 18.851562 C 24.78125 17.382812 24.902344 14.234375 28.148438 13.703125 C 31.410156 13.167969 32.457031 17.183594 32.683594 19.765625 C 32.914062 22.351562 34.097656 24.214844 34.050781 24.839844 C 34.003906 25.46875 32.835938 28.738281 29.300781 28.429688 C 25.75 28.125 24.445312 25.511719 24.066406 24.808594 C 23.6875 24.105469 23.171875 24.121094 23.171875 24.121094 C 23.15625 23.742188 23.429688 23.359375 24.050781 22.882812 C 23.945312 22.472656 24.535156 21.90625 24.535156 21.90625 Z M 34.097656 31.089844 C 34.097656 31.089844 34.445312 32.753906 35.324219 32.632812 C 36.207031 32.511719 36.507812 30.601562 36.175781 29.195312 C 36.175781 29.195312 34.113281 30.402344 34.097656 31.089844 Z M 34.097656 31.089844 " fill-opacity="1" fill-rule="nonzero"/><path fill="#f3954f" d="M 30.804688 26 C 28.890625 26.429688 27.675781 25.621094 28.375 25.757812 C 29.074219 25.894531 30.332031 25.757812 30.363281 25.757812 C 30.378906 25.757812 32.714844 25.589844 30.804688 26 Z M 24.429688 22.015625 C 25.886719 25.269531 29.285156 24.792969 28.800781 24.75 C 25.976562 24.441406 24.613281 22.242188 24.519531 21.90625 C 24.535156 21.90625 24.492188 21.953125 24.429688 22.015625 Z M 27.542969 26.734375 C 24.960938 25.695312 24.203125 23.449219 24.066406 22.976562 C 24.050781 22.914062 24.035156 22.882812 24.035156 22.882812 C 23.929688 22.960938 23.839844 23.039062 23.761719 23.113281 C 23.839844 23.511719 24.125 24.152344 25.007812 25.085938 C 26.644531 26.796875 27.921875 26.871094 27.542969 26.734375 Z M 62.578125 25.726562 C 62.578125 25.726562 62.382812 25.832031 62.367188 25.910156 C 62.351562 26 62.230469 26.382812 62.167969 26.507812 C 62.109375 26.613281 56.265625 27.621094 55.128906 30.859375 C 53.988281 34.101562 53.824219 37.21875 53.824219 37.21875 L 73.945312 37.21875 C 73.945312 37.21875 73.777344 34.101562 72.640625 30.859375 C 71.5 27.621094 65.660156 26.613281 65.597656 26.507812 C 65.539062 26.398438 65.417969 26 65.402344 25.910156 C 65.386719 25.820312 65.1875 25.726562 65.1875 25.726562 " fill-opacity="1" fill-rule="nonzero"/><path fill="#efd9c2" d="M 26.234375 17.964844 C 26.222656 17.414062 27.417969 15.960938 28.511719 15.824219 C 29.605469 15.6875 30.789062 17.339844 30.941406 17.644531 C 31.078125 17.949219 27.101562 18.621094 26.234375 17.964844 Z M 30.152344 31.929688 C 31.5 31.992188 34.535156 31.289062 36.160156 30.921875 C 36.28125 29.699219 35.949219 28.277344 35.902344 28.035156 C 35.855469 27.789062 35.445312 25.941406 35.445312 25.941406 C 35.445312 25.941406 35.839844 25.621094 35.460938 22.519531 C 34.371094 22.394531 30.394531 23.296875 29.773438 23.039062 C 29.742188 23.039062 29.96875 31.183594 30.152344 31.929688 Z M 30.152344 31.929688 " fill-opacity="1" fill-rule="nonzero"/><path fill="#260e0d" d="M 23.382812 32.632812 C 23.382812 32.632812 23.308594 35.476562 22.972656 35.871094 C 22.640625 36.269531 22.351562 35.183594 22.414062 33.183594 C 22.683594 32.574219 23.382812 32.632812 23.382812 32.632812 Z M 27.949219 30.9375 L 32.65625 29.027344 C 32.820312 28.964844 32.898438 28.765625 32.835938 28.597656 C 32.777344 28.429688 32.578125 28.339844 32.398438 28.417969 C 31.335938 28.875 27.859375 30.386719 27.707031 30.449219 Z M 27.949219 30.9375 " fill-opacity="1" fill-rule="nonzero"/><path fill="#260e0d" d="M 79.753906 49.058594 C 79.753906 49.640625 79.285156 50.113281 78.707031 50.113281 C 78.132812 50.113281 77.660156 49.640625 77.660156 49.058594 C 77.660156 48.480469 78.132812 48.003906 78.707031 48.003906 C 79.285156 48.003906 79.753906 48.480469 79.753906 49.058594 Z M 70.953125 48.003906 C 70.378906 48.003906 69.90625 48.480469 69.90625 49.058594 C 69.90625 49.640625 70.378906 50.113281 70.953125 50.113281 C 71.53125 50.113281 72 49.640625 72 49.058594 C 72 48.480469 71.53125 48.003906 70.953125 48.003906 Z M 63.183594 48.003906 C 62.609375 48.003906 62.136719 48.480469 62.136719 49.058594 C 62.136719 49.640625 62.609375 50.113281 63.183594 50.113281 C 63.761719 50.113281 64.234375 49.640625 64.234375 49.058594 C 64.234375 48.480469 63.761719 48.003906 63.183594 48.003906 Z M 58.722656 23.496094 C 58.679688 23.464844 58.617188 23.449219 58.574219 23.433594 C 58.601562 23.648438 58.648438 23.9375 58.753906 24.152344 C 58.875 24.078125 58.875 23.953125 58.875 23.953125 C 58.875 23.953125 58.769531 23.753906 58.738281 23.417969 C 58.722656 23.464844 58.722656 23.496094 58.722656 23.496094 Z M 57.933594 24.105469 C 57.933594 24.199219 57.890625 24.261719 57.828125 24.304688 C 57.753906 23.953125 57.769531 23.601562 57.828125 23.3125 C 57.875 23.359375 57.90625 23.417969 57.921875 23.480469 C 57.921875 23.480469 57.921875 23.480469 57.933594 23.464844 C 57.890625 23.800781 57.933594 24.105469 57.933594 24.105469 Z M 59.757812 22.914062 C 59.757812 22.960938 59.742188 23.066406 59.710938 23.175781 C 59.527344 23.054688 59.40625 22.871094 59.332031 22.703125 C 59.375 22.6875 59.40625 22.671875 59.453125 22.65625 C 59.453125 22.640625 59.453125 22.640625 59.453125 22.625 C 59.542969 22.824219 59.757812 22.914062 59.757812 22.914062 Z M 57.175781 24.214844 C 57.175781 24.304688 56.933594 24.351562 56.78125 24.382812 C 56.738281 24.304688 56.707031 24.214844 56.675781 24.136719 C 56.886719 24.136719 57.175781 24.136719 57.175781 24.214844 Z M 60.46875 22.335938 C 60.4375 22.410156 60.394531 22.488281 60.332031 22.578125 C 60.164062 22.257812 59.96875 21.601562 60.015625 21.585938 C 60.058594 21.570312 60.273438 22.058594 60.46875 22.335938 Z M 57.402344 23.847656 C 57.390625 23.878906 56.933594 23.785156 56.613281 23.726562 C 56.613281 23.648438 56.613281 23.574219 56.613281 23.511719 C 56.980469 23.648438 57.402344 23.816406 57.402344 23.847656 Z M 70.210938 23.128906 C 70.300781 23.34375 70.453125 23.695312 70.53125 23.953125 C 70.394531 23.878906 70.316406 23.785156 70.316406 23.785156 C 70.316406 23.785156 70.210938 23.527344 70.089844 23.25 C 70.105469 23.207031 70.152344 23.160156 70.210938 23.128906 Z M 69.300781 23.207031 C 69.300781 23.480469 69.300781 23.816406 69.269531 24.09375 C 69.132812 24.046875 69.042969 23.984375 69.042969 23.984375 C 69.042969 23.984375 69.195312 23.449219 69.179688 23.265625 C 69.210938 23.25 69.253906 23.222656 69.300781 23.207031 Z M 65.75 22.425781 C 65.824219 22.714844 65.902344 22.898438 65.992188 23.023438 L 64.460938 23.039062 C 64.382812 22.871094 64.355469 22.777344 64.355469 22.777344 L 65.023438 20.683594 L 66.8125 21.019531 C 66.980469 20.730469 66.964844 19.613281 66.996094 19.492188 C 67.023438 19.355469 67.296875 20.257812 67.191406 20.945312 C 67.070312 21.648438 65.339844 20.777344 65.75 22.425781 Z M 67.523438 21.96875 C 67.570312 21.953125 67.328125 22.519531 67.175781 22.839844 C 67.101562 22.777344 67.039062 22.703125 66.996094 22.640625 C 67.007812 22.640625 67.464844 21.984375 67.523438 21.96875 Z M 71.441406 23.617188 C 71.304688 23.742188 71.136719 23.863281 71.046875 23.863281 C 70.925781 23.863281 71.199219 23.664062 71.425781 23.375 C 71.441406 23.449219 71.457031 23.542969 71.441406 23.617188 Z M 67.996094 22.5625 C 68.042969 22.5625 68.085938 22.5625 68.132812 22.5625 C 68.085938 22.746094 68.011719 23.066406 67.917969 23.328125 C 67.828125 23.191406 67.769531 23.097656 67.769531 23.097656 C 67.769531 23.097656 67.917969 22.777344 67.996094 22.5625 Z M 70.96875 23.417969 C 70.847656 23.511719 71.0625 23.191406 71.210938 22.882812 C 71.242188 22.929688 71.273438 22.976562 71.304688 23.039062 C 71.210938 23.175781 71.074219 23.34375 70.96875 23.417969 Z M 60.546875 19.691406 C 60.546875 20.226562 60.757812 20.945312 60.773438 21.035156 C 60.773438 21.035156 60.683594 22.105469 60.46875 20.960938 C 60.257812 19.8125 60.546875 19.15625 60.546875 19.691406 Z M 23.324219 30.15625 C 22.078125 30.632812 19.832031 31.855469 19.832031 31.855469 C 19.558594 31.945312 19.953125 31.503906 20.621094 31.195312 C 20.878906 31.074219 21.289062 30.875 21.714844 30.664062 C 21.636719 30.632812 21.53125 30.601562 21.378906 30.554688 C 21.03125 30.464844 20.273438 30.449219 20.546875 30.386719 C 21.167969 30.339844 21.867188 30.554688 21.867188 30.554688 C 21.867188 30.554688 22.0625 30.496094 22.167969 30.433594 C 22.167969 29.960938 22.671875 28.875 22.730469 28.78125 C 22.777344 28.707031 22.851562 28.078125 22.929688 28.277344 C 23.003906 28.675781 22.519531 29.546875 22.519531 30.265625 C 22.941406 30.066406 23.308594 29.929688 23.429688 29.914062 C 23.761719 29.882812 23.488281 30.097656 23.324219 30.15625 Z M 22.746094 26.613281 C 22.820312 26.15625 22.09375 25.375 22.046875 25.359375 C 21.882812 25.3125 22.019531 25.496094 22.199219 25.789062 C 22.367188 26.078125 22.671875 26.886719 22.746094 26.613281 Z M 34.398438 31.503906 C 34.382812 31.425781 34.355469 31.363281 34.339844 31.320312 C 34.261719 31.335938 34.1875 31.351562 34.113281 31.363281 C 34.125 33.613281 33.292969 33.414062 33.351562 34.894531 C 33.351562 34.894531 33.65625 35.445312 34.203125 35.886719 C 34.113281 35.429688 33.945312 34.574219 34.113281 33.960938 C 34.308594 33.136719 34.566406 32.113281 34.398438 31.503906 Z M 30.378906 33.765625 C 30.058594 33.582031 29.742188 33.414062 29.390625 33.289062 C 29.042969 33.167969 28.679688 33.121094 28.316406 33.214844 C 27.996094 33.289062 27.722656 33.441406 27.390625 33.472656 C 27.070312 33.503906 26.980469 33.839844 27.359375 33.871094 C 27.859375 33.902344 28.34375 33.808594 28.847656 33.824219 C 29.195312 33.839844 29.558594 33.902344 29.894531 34.023438 C 30.074219 34.085938 30.273438 34.160156 30.4375 34.085938 C 30.46875 34.070312 30.5 34.039062 30.515625 34.007812 C 30.574219 33.917969 30.46875 33.824219 30.378906 33.765625 Z M 32.65625 29.027344 L 30 30.113281 C 30 30.234375 30.015625 30.339844 30.015625 30.449219 C 30.546875 30.203125 32.382812 29.410156 32.609375 29.273438 C 32.867188 29.117188 32.929688 28.738281 32.835938 28.597656 C 32.898438 28.78125 32.820312 28.964844 32.65625 29.027344 Z M 34.976562 27.804688 C 34.914062 27.835938 34.886719 28.109375 34.886719 28.171875 C 34.886719 28.1875 34.886719 28.21875 34.902344 28.21875 C 34.914062 28.21875 34.914062 28.21875 34.929688 28.21875 C 34.976562 28.1875 34.992188 28.140625 35.007812 28.078125 C 35.023438 28.035156 35.066406 27.757812 34.976562 27.804688 Z M 34.492188 27.347656 C 34.414062 27.363281 34.339844 27.589844 34.308594 27.652344 C 34.308594 27.667969 34.292969 27.699219 34.308594 27.699219 C 34.308594 27.714844 34.324219 27.714844 34.339844 27.714844 C 34.398438 27.714844 34.429688 27.667969 34.460938 27.621094 C 34.492188 27.574219 34.613281 27.316406 34.492188 27.347656 Z M 34.308594 26.859375 C 34.308594 26.78125 34.097656 26.8125 34.050781 26.8125 C 34.035156 26.8125 34.003906 26.8125 33.988281 26.828125 C 34.003906 26.84375 34.019531 26.859375 34.050781 26.859375 C 34.113281 26.871094 34.308594 26.917969 34.308594 26.859375 Z M 34.492188 26.230469 C 34.445312 26.339844 34.6875 26.429688 34.671875 26.339844 C 34.671875 26.277344 34.535156 26.109375 34.492188 26.230469 Z M 34.945312 26.078125 C 34.960938 26.078125 34.960938 26.0625 34.960938 26.046875 C 34.976562 26 34.960938 25.941406 34.945312 25.894531 C 34.929688 25.847656 34.855469 25.636719 34.777344 25.726562 C 34.734375 25.804688 34.839844 25.972656 34.871094 26.03125 C 34.902344 26.0625 34.929688 26.09375 34.945312 26.078125 Z M 29.726562 16.269531 C 29.347656 15.976562 28.921875 15.78125 28.511719 15.824219 C 27.585938 15.949219 26.617188 16.988281 26.328125 17.644531 C 26.554688 17.246094 27.511719 15.917969 29.726562 16.269531 Z M 57.601562 37.21875 L 58.359375 37.21875 C 58.359375 37.21875 58.34375 33.199219 58.070312 32.769531 C 57.796875 32.34375 57.601562 37.21875 57.601562 37.21875 Z M 70.742188 32.769531 C 70.46875 33.199219 70.453125 37.21875 70.453125 37.21875 L 71.210938 37.21875 C 71.210938 37.21875 71.015625 32.34375 70.742188 32.769531 Z M 56.996094 30.050781 C 56.917969 29.867188 56.8125 29.609375 56.613281 29.515625 C 56.28125 29.363281 56.492188 29.761719 56.585938 29.882812 C 56.964844 30.339844 57.132812 30.953125 57.527344 31.410156 C 57.554688 31.410156 57.554688 31.363281 57.539062 31.335938 C 57.359375 30.890625 57.175781 30.480469 56.996094 30.050781 Z M 62.730469 26.125 C 62.625 26.109375 62.625 26.644531 62.625 26.71875 C 62.625 26.75 62.625 26.78125 62.65625 26.78125 C 62.683594 26.78125 62.699219 26.75 62.699219 26.71875 C 62.714844 26.644531 62.820312 26.140625 62.730469 26.125 Z M 63.320312 26.261719 C 63.261719 26.277344 63.292969 26.675781 63.292969 26.75 C 63.292969 26.765625 63.292969 26.796875 63.308594 26.8125 C 63.320312 26.828125 63.335938 26.84375 63.351562 26.84375 C 63.367188 26.796875 63.367188 26.75 63.382812 26.703125 C 63.382812 26.644531 63.398438 26.246094 63.320312 26.261719 Z M 63.929688 26.308594 C 63.808594 26.277344 63.867188 26.613281 63.882812 26.675781 C 63.898438 26.75 63.914062 26.828125 63.960938 26.871094 C 63.988281 26.859375 64.003906 26.828125 64.003906 26.78125 C 64.003906 26.703125 64.019531 26.339844 63.929688 26.308594 Z M 64.429688 26.445312 C 64.429688 26.492188 64.492188 26.828125 64.550781 26.828125 C 64.582031 26.828125 64.597656 26.78125 64.597656 26.75 C 64.597656 26.660156 64.613281 26.566406 64.582031 26.476562 C 64.550781 26.382812 64.414062 26.246094 64.429688 26.445312 Z M 65.128906 26.199219 C 65.082031 26.046875 65.007812 26.109375 65.023438 26.230469 C 65.035156 26.351562 65.066406 26.476562 65.128906 26.597656 C 65.144531 26.628906 65.15625 26.644531 65.1875 26.628906 C 65.1875 26.628906 65.203125 26.613281 65.203125 26.597656 C 65.21875 26.535156 65.203125 26.492188 65.1875 26.429688 C 65.15625 26.351562 65.144531 26.277344 65.128906 26.199219 Z M 70.757812 31.363281 C 70.789062 31.378906 70.804688 31.335938 70.816406 31.320312 C 70.894531 31.042969 70.894531 30.769531 70.984375 30.496094 C 71.03125 30.339844 71.121094 30.203125 71.199219 30.050781 C 71.242188 29.976562 71.425781 29.667969 71.199219 29.667969 C 71.074219 29.667969 70.96875 30.035156 70.941406 30.144531 C 70.789062 30.507812 70.695312 30.921875 70.726562 31.320312 C 70.726562 31.335938 70.742188 31.351562 70.757812 31.363281 Z M 70.757812 31.363281 " fill-opacity="0.25" fill-rule="nonzero"/><path fill="#f4a898" d="M 30.941406 17.644531 C 31 17.902344 31.425781 18.378906 31.425781 18.804688 C 31.425781 20.441406 30.847656 22.59375 29.316406 22.777344 C 27.785156 22.960938 26.480469 21.296875 26.144531 20.210938 C 25.8125 19.125 26.234375 18.621094 26.234375 17.964844 C 28.664062 16.972656 30.941406 17.644531 30.941406 17.644531 Z M 34.582031 27.027344 C 34.507812 27.117188 34.550781 27.421875 35.039062 27.53125 C 35.097656 27.910156 35.703125 28.125 35.703125 28.125 L 36.097656 29.242188 C 36.097656 29.242188 36.828125 28.753906 36.980469 28.554688 C 37.132812 28.355469 37.011719 28.019531 37.011719 28.019531 C 37.085938 27.957031 37.207031 27.683594 37.054688 27.40625 C 37.207031 27.179688 36.996094 26.75 36.996094 26.75 C 36.964844 26.476562 36.507812 25.527344 36.054688 25.621094 C 34.75 25.957031 34.75 26.566406 34.75 26.566406 C 34.671875 26.628906 34.429688 26.765625 34.582031 27.027344 Z M 67.722656 21.144531 C 67.660156 20.484375 66.949219 20.667969 66.949219 20.667969 C 64.355469 20.609375 63.6875 17.582031 63.6875 17.582031 C 63.550781 18.390625 62.394531 20.667969 60.789062 20.667969 C 60.789062 20.667969 60.074219 20.484375 60.015625 21.144531 C 59.953125 21.800781 60.636719 22.304688 60.910156 22.335938 C 60.910156 22.335938 61.652344 25.253906 63.914062 25.253906 C 66.523438 25.253906 66.828125 22.335938 66.828125 22.335938 C 67.101562 22.320312 67.769531 21.800781 67.722656 21.144531 Z M 23.078125 32.800781 C 23.550781 32.542969 24.1875 32.234375 24.644531 32.191406 C 24.824219 32.191406 25.1875 32.464844 25.675781 32.574219 C 26.144531 32.679688 26.84375 32.542969 26.933594 32.542969 C 27.023438 32.542969 27.328125 32.695312 27.511719 32.710938 C 27.691406 32.726562 27.921875 32.480469 27.8125 32.144531 C 27.949219 32.113281 28.117188 31.914062 28.085938 31.609375 C 28.238281 31.578125 28.4375 31.363281 28.40625 31.136719 C 28.375 30.90625 27.980469 30.324219 27.980469 30.324219 C 28.148438 30.339844 28.589844 30.464844 28.589844 30.464844 C 28.464844 30.617188 28.542969 30.832031 28.695312 30.84375 C 28.847656 30.859375 29.242188 30.539062 29.269531 30.433594 C 29.300781 30.324219 29.132812 29.746094 28.96875 29.714844 C 28.800781 29.683594 27.175781 29.300781 26.207031 29.410156 C 25.234375 29.515625 23.382812 30.171875 23.324219 30.1875 C 22.414062 31.183594 22.699219 33.015625 23.078125 32.800781 Z M 23.078125 32.800781 " fill-opacity="1" fill-rule="nonzero"/><path fill="#dc775f" d="M 62.898438 20.332031 C 62.394531 20.347656 61.820312 20.625 61.773438 20.652344 C 61.621094 20.46875 62.59375 19.90625 62.898438 19.90625 C 62.972656 19.890625 63.019531 20.316406 62.898438 20.332031 Z M 64.886719 19.949219 C 64.792969 19.949219 64.75 20.378906 64.886719 20.394531 C 65.386719 20.410156 65.960938 20.683594 66.007812 20.714844 C 66.160156 20.53125 65.1875 19.949219 64.886719 19.949219 Z M 45.886719 39.113281 C 44.777344 39.113281 43.882812 40.015625 43.882812 41.128906 C 43.882812 42.246094 44.777344 43.144531 45.886719 43.144531 C 46.996094 43.144531 47.890625 42.246094 47.890625 41.128906 C 47.890625 40.027344 46.996094 39.113281 45.886719 39.113281 Z M 59.542969 39.113281 C 58.4375 39.113281 57.539062 40.015625 57.539062 41.128906 C 57.539062 42.246094 58.4375 43.144531 59.542969 43.144531 C 60.652344 43.144531 61.546875 42.246094 61.546875 41.128906 C 61.546875 40.027344 60.652344 39.113281 59.542969 39.113281 Z M 32.230469 39.113281 C 31.121094 39.113281 30.226562 40.015625 30.226562 41.128906 C 30.226562 42.246094 31.121094 43.144531 32.230469 43.144531 C 33.335938 43.144531 34.234375 42.246094 34.234375 41.128906 C 34.234375 40.027344 33.335938 39.113281 32.230469 39.113281 Z M 27.707031 31.089844 C 27.707031 31.089844 28.058594 31.488281 28.085938 31.609375 C 28.132812 31.59375 28.179688 31.578125 28.222656 31.546875 C 28.222656 31.546875 28.027344 31.226562 27.90625 31.105469 C 27.769531 30.953125 27.664062 31.027344 27.707031 31.089844 Z M 27.527344 31.855469 C 27.527344 31.855469 27.785156 32.082031 27.828125 32.144531 C 27.859375 32.128906 27.90625 32.113281 27.949219 32.082031 C 27.691406 31.761719 27.449219 31.703125 27.527344 31.855469 Z M 28.785156 30.449219 C 28.738281 30.449219 28.589844 30.449219 28.589844 30.449219 C 28.574219 30.464844 28.558594 30.496094 28.558594 30.507812 C 28.726562 30.507812 28.890625 30.449219 28.785156 30.449219 Z M 27.996094 30.3125 C 28.027344 30.3125 28.058594 30.3125 28.101562 30.324219 C 28.101562 30.324219 27.84375 30.066406 27.90625 30.171875 Z M 27.449219 30.21875 C 27.417969 30.097656 27.40625 30.171875 27.390625 30.21875 C 27.390625 30.371094 27.253906 30.480469 27.207031 30.632812 C 27.160156 30.800781 27.253906 30.984375 27.222656 31.136719 C 27.191406 31.226562 27.132812 31.304688 27.085938 31.378906 C 27.023438 31.457031 26.980469 31.546875 27.011719 31.65625 C 27.039062 31.746094 27.101562 31.640625 27.085938 31.5625 C 27.085938 31.472656 27.296875 31.335938 27.3125 31.195312 C 27.328125 31.058594 27.238281 30.800781 27.3125 30.648438 C 27.390625 30.496094 27.480469 30.339844 27.449219 30.21875 Z M 26.996094 32.023438 C 26.949219 32.113281 26.84375 32.265625 26.933594 32.28125 C 27.023438 32.191406 27.085938 32.066406 27.070312 31.945312 C 27.023438 31.855469 27.039062 31.914062 26.996094 32.023438 Z M 22.414062 33.199219 C 22.414062 33.199219 22.699219 33.015625 23.078125 32.800781 C 22.835938 32.3125 23.019531 31.015625 23.15625 30.3125 C 22.808594 30.753906 22.503906 31.808594 22.414062 33.199219 Z M 36.097656 25.941406 C 36.113281 25.863281 36.113281 25.773438 36.097656 25.695312 C 36.070312 25.652344 36.070312 25.757812 36.070312 25.789062 C 36.070312 25.832031 36.070312 26.03125 36.097656 25.941406 Z M 36.097656 26.660156 C 36.113281 26.550781 36.113281 26.445312 36.085938 26.324219 C 36.054688 26.246094 36.054688 26.367188 36.023438 26.445312 C 35.992188 26.519531 36.039062 26.71875 36.097656 26.660156 Z M 36.113281 27.300781 C 36.160156 27.222656 36.144531 27.117188 36.144531 27.027344 C 36.128906 26.933594 36.113281 27.179688 36.113281 27.179688 C 36.113281 27.179688 36.085938 27.363281 36.113281 27.300781 Z M 36.113281 27.910156 C 36.113281 27.851562 36.113281 27.789062 36.097656 27.726562 C 36.070312 27.667969 36.039062 27.714844 36.054688 27.742188 C 36.070312 27.773438 36.097656 27.988281 36.113281 27.910156 Z M 34.960938 26.519531 C 34.945312 26.492188 34.960938 26.859375 34.992188 26.75 C 34.976562 26.675781 35.007812 26.582031 34.960938 26.519531 Z M 35.992188 27.484375 C 35.355469 27.390625 34.960938 27.515625 34.960938 27.515625 C 34.992188 27.515625 35.007812 27.53125 35.039062 27.53125 C 35.113281 27.53125 35.25 27.515625 35.417969 27.515625 C 35.417969 27.546875 35.417969 27.589844 35.417969 27.605469 C 35.402344 27.636719 35.371094 27.757812 35.433594 27.699219 C 35.460938 27.636719 35.507812 27.558594 35.460938 27.515625 C 35.886719 27.515625 36.449219 27.574219 36.75 27.941406 C 36.84375 27.972656 36.628906 27.574219 35.992188 27.484375 Z M 35.613281 26.8125 C 35.050781 26.84375 34.550781 26.964844 34.550781 26.964844 C 34.566406 26.980469 34.566406 27.011719 34.582031 27.027344 C 34.628906 26.996094 34.777344 26.949219 34.992188 26.917969 C 34.960938 26.933594 34.992188 26.980469 34.976562 27.011719 C 34.976562 27.054688 34.992188 27.269531 35.039062 27.179688 C 35.039062 27.085938 35.023438 26.996094 35.007812 26.917969 C 35.296875 26.871094 35.691406 26.859375 36.007812 26.886719 C 36.585938 26.949219 36.75 27.117188 36.75 27.117188 C 36.796875 27.148438 36.84375 27.101562 36.78125 27.054688 C 36.707031 27.011719 36.175781 26.78125 35.613281 26.8125 Z M 36.023438 26.199219 C 35.660156 26.246094 35.082031 26.351562 34.765625 26.507812 C 34.75 26.535156 34.75 26.550781 34.75 26.550781 C 34.777344 26.550781 35.1875 26.339844 35.960938 26.246094 C 36.539062 26.214844 36.84375 26.628906 36.84375 26.628906 C 36.917969 26.691406 36.886719 26.566406 36.8125 26.492188 C 36.722656 26.414062 36.417969 26.140625 36.023438 26.199219 Z M 36.144531 28.21875 L 35.703125 28.125 L 35.828125 28.386719 C 36.039062 28.355469 36.328125 28.261719 36.144531 28.21875 Z M 60.363281 21.339844 C 60.589844 21.402344 60.710938 21.632812 60.726562 21.722656 C 60.742188 21.800781 60.878906 21.890625 60.832031 21.738281 C 60.726562 21.296875 60.332031 21.1875 60.242188 21.21875 C 60.226562 21.203125 60.195312 21.296875 60.363281 21.339844 Z M 67.390625 21.050781 C 67.34375 21.003906 67.28125 21.066406 67.238281 21.113281 C 67.128906 21.265625 67.054688 21.449219 66.996094 21.632812 C 66.933594 21.832031 67.054688 21.675781 67.117188 21.601562 C 67.175781 21.523438 67.3125 21.203125 67.390625 21.171875 C 67.464844 21.144531 67.449219 21.050781 67.390625 21.050781 Z M 67.390625 21.050781 " fill-opacity="1" fill-rule="nonzero"/><path fill="#260e0d" d="M 27.90625 18.652344 C 27.90625 18.820312 27.8125 18.957031 27.691406 18.957031 C 27.570312 18.957031 27.480469 18.820312 27.480469 18.652344 C 27.480469 18.484375 27.570312 18.347656 27.691406 18.347656 C 27.800781 18.347656 27.90625 18.484375 27.90625 18.652344 Z M 29.96875 18.347656 C 29.847656 18.347656 29.757812 18.484375 29.757812 18.652344 C 29.757812 18.820312 29.847656 18.957031 29.96875 18.957031 C 30.089844 18.957031 30.179688 18.820312 30.179688 18.652344 C 30.179688 18.484375 30.089844 18.347656 29.96875 18.347656 Z M 29.121094 18.957031 C 28.859375 18.773438 28.921875 18.53125 28.921875 18.484375 C 28.921875 18.421875 28.875 18.316406 28.832031 18.515625 C 28.785156 18.714844 28.847656 18.882812 29.089844 19.066406 C 29.332031 19.25 29.316406 19.417969 29.210938 19.539062 C 29.105469 19.660156 29.089844 19.753906 29.179688 19.707031 C 29.5 19.539062 29.378906 19.140625 29.121094 18.957031 Z M 28.207031 20.609375 C 28.179688 21.050781 29.058594 21.417969 29.285156 20.683594 C 29.285156 20.667969 28.695312 20.820312 28.207031 20.609375 Z M 27.375 17.613281 C 27.085938 17.691406 26.828125 17.949219 26.902344 18.027344 C 26.980469 18.117188 27.417969 17.734375 27.980469 17.8125 C 28.207031 17.75 27.785156 17.507812 27.375 17.613281 Z M 29.96875 17.429688 C 29.710938 17.398438 29.285156 17.644531 29.363281 17.75 C 29.453125 17.828125 29.894531 17.613281 30.46875 17.765625 C 30.574219 17.78125 30.453125 17.476562 29.96875 17.429688 Z M 64.140625 21.601562 C 64.308594 21.859375 64.21875 21.953125 64.066406 22.058594 C 63.914062 22.167969 63.761719 22.363281 63.898438 22.304688 C 63.898438 22.304688 64.367188 22.089844 64.355469 21.832031 C 64.339844 21.570312 63.746094 21.050781 63.777344 20.820312 C 63.761719 20.730469 63.671875 20.714844 63.6875 20.898438 C 63.703125 21.082031 63.960938 21.339844 64.140625 21.601562 Z M 64.339844 23.375 C 63.960938 23.710938 63.414062 23.402344 63.261719 23.328125 C 63.109375 23.25 62.957031 23.175781 63.050781 23.3125 C 63.050781 23.3125 64.019531 24.136719 64.75 23.175781 C 64.824219 23.097656 64.71875 23.039062 64.339844 23.375 Z M 62.578125 20.652344 C 62.457031 20.652344 62.367188 20.792969 62.367188 20.960938 C 62.367188 21.128906 62.457031 21.265625 62.578125 21.265625 C 62.699219 21.265625 62.789062 21.128906 62.789062 20.960938 C 62.789062 20.792969 62.699219 20.652344 62.578125 20.652344 Z M 65.1875 20.652344 C 65.066406 20.652344 64.976562 20.792969 64.976562 20.960938 C 64.976562 21.128906 65.066406 21.265625 65.1875 21.265625 C 65.308594 21.265625 65.402344 21.128906 65.402344 20.960938 C 65.402344 20.792969 65.308594 20.652344 65.1875 20.652344 Z M 33.503906 41.128906 L 33.503906 40.488281 L 32.914062 40.839844 L 32.914062 40.671875 C 32.914062 40.535156 32.792969 40.410156 32.65625 40.410156 L 31.394531 40.410156 C 31.257812 40.410156 31.136719 40.535156 31.136719 40.671875 L 31.136719 41.585938 C 31.136719 41.726562 31.257812 41.847656 31.394531 41.847656 L 32.65625 41.847656 C 32.792969 41.847656 32.914062 41.726562 32.914062 41.585938 L 32.914062 41.417969 L 33.503906 41.769531 Z M 47.117188 41.800781 C 47.054688 41.769531 46.660156 41.542969 46.585938 41.496094 C 46.492188 41.449219 46.371094 41.632812 46.328125 41.695312 C 46.28125 41.753906 46.207031 41.847656 46.144531 41.816406 C 46.085938 41.785156 45.824219 41.664062 45.597656 41.433594 C 45.386719 41.222656 45.25 40.960938 45.21875 40.882812 C 45.1875 40.824219 45.28125 40.746094 45.339844 40.703125 C 45.402344 40.65625 45.582031 40.535156 45.539062 40.441406 C 45.492188 40.351562 45.265625 39.96875 45.234375 39.90625 C 45.203125 39.84375 45.066406 39.890625 45.007812 39.90625 C 44.960938 39.921875 44.886719 39.9375 44.824219 40 C 44.765625 40.058594 44.597656 40.273438 44.628906 40.5625 C 44.65625 40.855469 44.765625 41.222656 45.28125 41.742188 C 45.796875 42.261719 46.160156 42.351562 46.449219 42.398438 C 46.738281 42.441406 46.964844 42.261719 47.007812 42.199219 C 47.070312 42.152344 47.085938 42.078125 47.101562 42.015625 C 47.132812 41.96875 47.175781 41.832031 47.117188 41.800781 Z M 60.042969 41.082031 L 60.042969 40.546875 C 60.042969 40.273438 59.816406 40.042969 59.542969 40.042969 C 59.332031 40.042969 59.148438 40.183594 59.074219 40.363281 L 60 41.296875 C 60.027344 41.234375 60.042969 41.160156 60.042969 41.082031 Z M 60.136719 41.664062 C 60.273438 41.527344 60.378906 41.34375 60.394531 41.128906 C 60.394531 41.082031 60.363281 41.039062 60.316406 41.039062 C 60.273438 41.039062 60.242188 41.066406 60.242188 41.113281 C 60.226562 41.28125 60.152344 41.433594 60.027344 41.558594 L 58.574219 40.089844 C 58.542969 40.058594 58.496094 40.058594 58.464844 40.089844 C 58.4375 40.121094 58.4375 40.167969 58.464844 40.195312 L 59.058594 40.792969 L 59.058594 41.082031 C 59.058594 41.359375 59.285156 41.585938 59.558594 41.585938 C 59.632812 41.585938 59.726562 41.570312 59.785156 41.527344 L 59.90625 41.648438 C 59.800781 41.710938 59.679688 41.742188 59.558594 41.742188 C 59.195312 41.742188 58.890625 41.464844 58.859375 41.113281 C 58.859375 41.066406 58.816406 41.039062 58.785156 41.039062 C 58.738281 41.039062 58.695312 41.082031 58.710938 41.128906 C 58.753906 41.542969 59.074219 41.863281 59.484375 41.910156 L 59.484375 42.304688 L 59.148438 42.304688 C 59.105469 42.304688 59.074219 42.335938 59.074219 42.382812 C 59.074219 42.429688 59.105469 42.457031 59.148438 42.457031 L 59.984375 42.457031 C 60.027344 42.457031 60.058594 42.429688 60.058594 42.382812 C 60.058594 42.335938 60.027344 42.304688 59.984375 42.304688 L 59.648438 42.304688 L 59.648438 41.910156 C 59.785156 41.894531 59.921875 41.847656 60.042969 41.769531 L 60.546875 42.273438 C 60.574219 42.304688 60.621094 42.304688 60.652344 42.273438 C 60.683594 42.246094 60.683594 42.199219 60.652344 42.167969 Z M 32.882812 26.398438 L 32.851562 26.246094 L 32.777344 26.261719 L 32.804688 26.414062 Z M 32.804688 26.09375 L 32.777344 25.941406 L 32.699219 25.957031 L 32.730469 26.109375 Z M 32.671875 25.46875 L 32.640625 25.3125 L 32.5625 25.328125 L 32.59375 25.480469 Z M 32.746094 25.789062 L 32.714844 25.636719 L 32.640625 25.652344 L 32.671875 25.804688 Z M 32.957031 26.703125 L 32.929688 26.550781 L 32.851562 26.566406 L 32.882812 26.71875 Z M 32.488281 25.023438 L 32.519531 25.175781 L 32.59375 25.160156 L 32.5625 25.007812 Z M 33.324219 28.246094 L 33.292969 28.09375 L 33.214844 28.109375 L 33.246094 28.261719 Z M 33.398438 28.554688 L 33.367188 28.402344 L 33.292969 28.417969 L 33.324219 28.570312 Z M 32.988281 27.195312 L 33.019531 27.347656 L 33.09375 27.332031 L 33.066406 27.179688 Z M 33.246094 27.941406 L 33.214844 27.789062 L 33.140625 27.804688 L 33.171875 27.957031 Z M 33.171875 27.636719 L 33.140625 27.484375 L 33.066406 27.5 L 33.09375 27.652344 Z M 34.125 25.238281 C 33.703125 24.855469 33.140625 24.671875 32.578125 24.734375 C 31.457031 24.839844 30.574219 25.910156 30.574219 27.148438 C 30.574219 27.316406 30.589844 27.46875 30.636719 27.621094 L 30.621094 27.636719 L 30.636719 27.636719 C 30.726562 28.003906 30.910156 28.324219 31.167969 28.570312 C 31.5 28.875 31.957031 29.042969 32.457031 29.042969 C 32.535156 29.042969 32.609375 29.042969 32.683594 29.027344 C 33.65625 28.9375 34.429688 28.261719 34.6875 27.390625 C 34.65625 27.378906 34.644531 27.347656 34.628906 27.332031 C 34.460938 27.957031 34.019531 28.460938 33.429688 28.738281 L 33.429688 28.707031 L 33.351562 28.722656 L 33.367188 28.765625 C 33.15625 28.859375 32.929688 28.921875 32.683594 28.949219 C 32.125 29.011719 31.609375 28.859375 31.226562 28.507812 C 30.984375 28.277344 30.820312 27.988281 30.726562 27.652344 L 30.925781 27.683594 L 30.941406 27.605469 L 30.863281 27.589844 L 32.882812 27.039062 C 32.914062 27.070312 32.941406 27.101562 32.988281 27.101562 C 33.066406 27.101562 33.125 27.039062 33.125 26.964844 C 33.125 26.886719 33.066406 26.828125 32.988281 26.828125 C 32.914062 26.828125 32.867188 26.886719 32.867188 26.949219 L 30.789062 27.515625 L 30.863281 27.390625 L 30.804688 27.347656 L 30.699219 27.5 C 30.667969 27.378906 30.667969 27.238281 30.667969 27.117188 C 30.667969 25.972656 31.441406 24.976562 32.457031 24.792969 L 32.472656 24.824219 L 32.546875 24.808594 L 32.546875 24.78125 C 32.578125 24.78125 32.59375 24.765625 32.625 24.765625 C 32.683594 24.765625 32.761719 24.75 32.820312 24.75 C 33.308594 24.75 33.761719 24.933594 34.125 25.253906 C 34.492188 25.589844 34.71875 26.046875 34.75 26.550781 C 34.765625 26.535156 34.777344 26.519531 34.792969 26.519531 C 34.792969 26.519531 34.792969 26.492188 34.808594 26.429688 C 34.703125 26 34.492188 25.574219 34.125 25.238281 Z M 34.125 25.238281 " fill-opacity="1" fill-rule="nonzero"/></svg>