<svg xmlns="http://www.w3.org/2000/svg" xmlns:xlink="http://www.w3.org/1999/xlink" width="120" zoomAndPan="magnify" viewBox="0 0 90 60" height="80" preserveAspectRatio="xMidYMid meet" version="1.0"><defs><filter x="0%" y="0%" width="100%" height="100%" id="670aab3560"><feColorMatrix values="0 0 0 0 1 0 0 0 0 1 0 0 0 0 1 0 0 0 1 0" color-interpolation-filters="sRGB"/></filter><mask id="bb8e599779"><g filter="url(#670aab3560)"><rect x="-9" width="108" fill="#000000" y="-6" height="72" fill-opacity="0.42"/></g></mask><clipPath id="7143d3644c"><path d="M 1 0.558594 L 8.601562 0.558594 L 8.601562 4 L 1 4 Z M 1 0.558594 " clip-rule="nonzero"/></clipPath><clipPath id="c400562303"><path d="M 0.921875 0.558594 L 8.601562 0.558594 L 8.601562 4.160156 L 0.921875 4.160156 Z M 0.921875 0.558594 " clip-rule="nonzero"/></clipPath><clipPath id="be4211840f"><rect x="0" width="9" y="0" height="5"/></clipPath><mask id="7278cb44b3"><g filter="url(#670aab3560)"><rect x="-9" width="108" fill="#000000" y="-6" height="72" fill-opacity="0.35"/></g></mask><clipPath id="f7c3554a63"><path d="M 0.441406 0.71875 L 53 0.71875 L 53 18.960938 L 0.441406 18.960938 Z M 0.441406 0.71875 " clip-rule="nonzero"/></clipPath><clipPath id="5bb5b0796e"><rect x="0" width="53" y="0" height="19"/></clipPath><clipPath id="02764eca95"><path d="M 15 39 L 76 39 L 76 59.574219 L 15 59.574219 Z M 15 39 " clip-rule="nonzero"/></clipPath><clipPath id="be7f0da088"><path d="M 14 38 L 77 38 L 77 59.574219 L 14 59.574219 Z M 14 38 " clip-rule="nonzero"/></clipPath><mask id="1ea76e3f99"><g filter="url(#670aab3560)"><rect x="-9" width="108" fill="#000000" y="-6" height="72" fill-opacity="0.19"/></g></mask><clipPath id="86a4dee958"><path d="M 0.121094 0.519531 L 42.359375 0.519531 L 42.359375 16.839844 L 0.121094 16.839844 Z M 0.121094 0.519531 " clip-rule="nonzero"/></clipPath><clipPath id="604ed88fc5"><rect x="0" width="43" y="0" height="17"/></clipPath><mask id="2a1f8e4ae5"><g filter="url(#670aab3560)"><rect x="-9" width="108" fill="#000000" y="-6" height="72" fill-opacity="0.62"/></g></mask><clipPath id="1ebea3f060"><path d="M 0.238281 0.121094 L 54 0.121094 L 54 18.359375 L 0.238281 18.359375 Z M 0.238281 0.121094 " clip-rule="nonzero"/></clipPath><clipPath id="d2376c0db2"><rect x="0" width="54" y="0" height="19"/></clipPath><clipPath id="d85486854b"><path d="M 13 28 L 77.59375 28 L 77.59375 50 L 13 50 Z M 13 28 " clip-rule="nonzero"/></clipPath><clipPath id="9df4c9389e"><path d="M 75 36 L 77.59375 36 L 77.59375 38 L 75 38 Z M 75 36 " clip-rule="nonzero"/></clipPath><clipPath id="38203efce1"><path d="M 17 10 L 77.59375 10 L 77.59375 32 L 17 32 Z M 17 10 " clip-rule="nonzero"/></clipPath><mask id="6a05390d61"><g filter="url(#670aab3560)"><rect x="-9" width="108" fill="#000000" y="-6" height="72" fill-opacity="0.35"/></g></mask><clipPath id="494c099977"><path d="M 1 0.761719 L 53.441406 0.761719 L 53.441406 19 L 1 19 Z M 1 0.761719 " clip-rule="nonzero"/></clipPath><clipPath id="46373da1e3"><path d="M 0.640625 0.761719 L 53.441406 0.761719 L 53.441406 19 L 0.640625 19 Z M 0.640625 0.761719 " clip-rule="nonzero"/></clipPath><clipPath id="c391e2145c"><rect x="0" width="54" y="0" height="19"/></clipPath><clipPath id="3862a97414"><path d="M 16 20 L 77.59375 20 L 77.59375 41 L 16 41 Z M 16 20 " clip-rule="nonzero"/></clipPath><clipPath id="db618aed50"><path d="M 16 19 L 77.59375 19 L 77.59375 42 L 16 42 Z M 16 19 " clip-rule="nonzero"/></clipPath><mask id="f5f53a3eae"><g filter="url(#670aab3560)"><rect x="-9" width="108" fill="#000000" y="-6" height="72" fill-opacity="0.19"/></g></mask><clipPath id="a7264e2f46"><path d="M 0.320312 0.558594 L 42.800781 0.558594 L 42.800781 16.878906 L 0.320312 16.878906 Z M 0.320312 0.558594 " clip-rule="nonzero"/></clipPath><clipPath id="458ee120c4"><rect x="0" width="43" y="0" height="17"/></clipPath><clipPath id="6bec4de116"><path d="M 76 27 L 77.59375 27 L 77.59375 29 L 76 29 Z M 76 27 " clip-rule="nonzero"/></clipPath><clipPath id="156022c082"><path d="M 75 27 L 77.59375 27 L 77.59375 30 L 75 30 Z M 75 27 " clip-rule="nonzero"/></clipPath><clipPath id="62b15cb21c"><path d="M 75 22 L 77.59375 22 L 77.59375 24 L 75 24 Z M 75 22 " clip-rule="nonzero"/></clipPath><clipPath id="bb0edeb37f"><path d="M 16 0.324219 L 76 0.324219 L 76 21 L 16 21 Z M 16 0.324219 " clip-rule="nonzero"/></clipPath><clipPath id="dc3d9a58d2"><path d="M 15 0.324219 L 77 0.324219 L 77 22 L 15 22 Z M 15 0.324219 " clip-rule="nonzero"/></clipPath><mask id="26b9caaa46"><g filter="url(#670aab3560)"><rect x="-9" width="108" fill="#000000" y="-6" height="72" fill-opacity="0.52"/></g></mask><clipPath id="c9b85b46ff"><path d="M 1 0.199219 L 53.480469 0.199219 L 53.480469 18.679688 L 1 18.679688 Z M 1 0.199219 " clip-rule="nonzero"/></clipPath><clipPath id="2269a88ec3"><path d="M 0.921875 0.199219 L 53.480469 0.199219 L 53.480469 18.679688 L 0.921875 18.679688 Z M 0.921875 0.199219 " clip-rule="nonzero"/></clipPath><clipPath id="635139582a"><rect x="0" width="54" y="0" height="19"/></clipPath><clipPath id="b11479b724"><path d="M 15 9 L 77.59375 9 L 77.59375 31 L 15 31 Z M 15 9 " clip-rule="nonzero"/></clipPath><mask id="de61d53823"><g filter="url(#670aab3560)"><rect x="-9" width="108" fill="#000000" y="-6" height="72" fill-opacity="0.19"/></g></mask><clipPath id="d0bdd6d871"><path d="M 0.558594 0 L 42.800781 0 L 42.800781 16.800781 L 0.558594 16.800781 Z M 0.558594 0 " clip-rule="nonzero"/></clipPath><clipPath id="5121488073"><rect x="0" width="43" y="0" height="17"/></clipPath><mask id="6e49491cb2"><g filter="url(#670aab3560)"><rect x="-9" width="108" fill="#000000" y="-6" height="72" fill-opacity="0.16"/></g></mask><clipPath id="1dbe74ea91"><path d="M 0.320312 0.679688 L 6.320312 0.679688 L 6.320312 3.800781 L 0.320312 3.800781 Z M 0.320312 0.679688 " clip-rule="nonzero"/></clipPath><clipPath id="0c72f24698"><rect x="0" width="7" y="0" height="4"/></clipPath></defs><g mask="url(#bb8e599779)"><g transform="matrix(1, 0, 0, 1, 13, 28)"><g clip-path="url(#be4211840f)"><g clip-path="url(#7143d3644c)"><path fill="#010101" d="M 3.863281 0.8125 L 1.230469 2.195312 L 8.265625 3.824219 Z M 3.863281 0.8125 " fill-opacity="1" fill-rule="nonzero"/></g><g clip-path="url(#c400562303)"><path stroke-linecap="butt" transform="matrix(0.0340242, 0, 0, 0.0340009, -1.733089, -32.233308)" fill="none" stroke-linejoin="miter" d="M 164.482225 971.909317 L 87.101557 1012.579175 L 293.870969 1060.48689 Z M 164.482225 971.909317 " stroke="#000000" stroke-width="1" stroke-opacity="1" stroke-miterlimit="10"/></g></g></g></g><path stroke-linecap="butt" transform="matrix(0.0340242, 0, 0, 0.0340009, 11.266911, -4.233309)" fill-opacity="1" fill="#ffffff" fill-rule="nonzero" stroke-linejoin="miter" d="M 1874.8935 1522.101301 L 1871.334449 1353.677537 L 659.994044 1632.047783 L 197.776579 1359.766527 C 197.776579 1359.766527 187.788273 1351.264918 179.177665 1355.285949 C 170.567056 1359.306981 169.763399 1366.889497 169.763399 1366.889497 L 163.448953 1505.098084 C 163.448953 1505.098084 162.530488 1513.944352 168.959742 1517.965383 C 175.388997 1522.101301 648.857657 1818.508745 648.857657 1818.508745 Z M 1874.8935 1522.101301 " stroke="#000000" stroke-width="1" stroke-opacity="1" stroke-miterlimit="10"/><path stroke-linecap="butt" transform="matrix(0.0340242, 0, 0, 0.0340009, 11.266911, -4.233309)" fill-opacity="1" fill="#f26822" fill-rule="nonzero" stroke-linejoin="miter" d="M 1293.73483 997.988605 L 1888.555666 1299.680832 L 665.045601 1591.837471 L 148.40909 1281.413862 Z M 1293.73483 997.988605 " stroke="#000000" stroke-width="1" stroke-opacity="1" stroke-miterlimit="10"/><g mask="url(#7278cb44b3)"><g transform="matrix(1, 0, 0, 1, 19, 30)"><g clip-path="url(#5bb5b0796e)"><g clip-path="url(#f7c3554a63)"><path stroke-linecap="butt" transform="matrix(0.0340242, 0, 0, 0.0340009, -7.733089, -34.233308)" fill-opacity="1" fill="#f9a11b" fill-rule="nonzero" stroke-linejoin="miter" d="M 671.704471 1554.614183 C 670.55639 1554.614183 669.523117 1554.269523 668.604652 1553.69509 L 250.243887 1302.438082 C 248.062533 1301.17433 246.914451 1298.761711 247.258876 1296.349092 C 247.718108 1293.936473 249.44023 1291.868515 251.8512 1291.294082 L 1287.420384 1035.09695 C 1288.798081 1034.75229 1290.290586 1034.867177 1291.553476 1035.556497 L 1774.551209 1280.494741 C 1776.847371 1281.643607 1778.11026 1284.056225 1777.880644 1286.583731 C 1777.53622 1289.111236 1775.69929 1291.179195 1773.173512 1291.868515 L 673.082169 1554.384409 C 672.622936 1554.499296 672.163704 1554.614183 671.704471 1554.614183 Z M 269.072417 1299.565917 L 672.737744 1541.976656 L 1754.344981 1283.826452 L 1288.109232 1047.389817 Z M 269.072417 1299.565917 " stroke="#000000" stroke-width="1" stroke-opacity="1" stroke-miterlimit="10"/></g></g></g></g><g clip-path="url(#02764eca95)"><path fill="#cd5928" d="M 75.878906 47.320312 L 75.878906 48.972656 L 33.535156 59.554688 L 15.566406 48.011719 C 15.566406 48.011719 14.265625 43.460938 16.316406 39.335938 L 33.894531 49.890625 L 75.523438 39.957031 L 75.523438 41.660156 L 33.722656 51.257812 L 17.800781 41.886719 C 17.472656 41.691406 17.054688 41.914062 17.039062 42.296875 L 16.824219 46.980469 C 16.816406 47.148438 16.902344 47.308594 17.042969 47.398438 L 33.34375 57.597656 Z M 75.878906 47.320312 " fill-opacity="1" fill-rule="nonzero"/></g><g clip-path="url(#be7f0da088)"><path stroke-linecap="butt" transform="matrix(0.0340242, 0, 0, 0.0340009, 11.266911, -4.233309)" fill="none" stroke-linejoin="miter" d="M 1899.003204 1516.242084 L 1899.003204 1564.839119 L 654.483254 1876.066934 L 126.365932 1536.577014 C 126.365932 1536.577014 88.134831 1402.734118 148.40909 1281.413862 L 665.045601 1591.837471 L 1888.555666 1299.680832 L 1888.555666 1349.771392 L 659.994044 1632.047783 L 192.036173 1356.434815 C 182.392292 1350.690485 170.107824 1357.239022 169.648591 1368.497909 L 163.334145 1506.24695 C 163.104529 1511.187074 165.630307 1515.897425 169.763399 1518.539816 L 648.857657 1818.508745 Z M 1899.003204 1516.242084 " stroke="#000000" stroke-width="1" stroke-opacity="1" stroke-miterlimit="10"/></g><g mask="url(#1ea76e3f99)"><g transform="matrix(1, 0, 0, 1, 33, 41)"><g clip-path="url(#604ed88fc5)"><g clip-path="url(#86a4dee958)"><path stroke-linecap="butt" transform="matrix(0.0340242, 0, 0, 0.0340009, -21.733089, -45.233307)" fill-opacity="1" fill="#f9a11b" fill-rule="nonzero" stroke-linejoin="miter" d="M 648.857657 1818.508688 L 659.994044 1632.047727 L 1871.334449 1353.67748 L 1874.8935 1522.101245 Z M 648.857657 1818.508688 " stroke="#000000" stroke-width="1" stroke-opacity="1" stroke-miterlimit="10"/></g></g></g></g><path stroke-linecap="butt" transform="matrix(0.0340242, 0, 0, 0.0340009, 11.266911, -4.233309)" fill-opacity="1" fill="#e98d24" fill-rule="nonzero" stroke-linejoin="miter" d="M 1899.003204 1516.242084 L 1874.549076 1503.030125 L 1874.8935 1522.101301 Z M 1899.003204 1516.242084 " stroke="#000000" stroke-width="1" stroke-opacity="1" stroke-miterlimit="10"/><path stroke-linecap="butt" transform="matrix(0.0340242, 0, 0, 0.0340009, 11.266911, -4.233309)" fill-opacity="1" fill="#e98d24" fill-rule="nonzero" stroke-linejoin="miter" d="M 1888.555666 1349.771392 L 1871.449257 1357.124135 L 1871.334449 1353.677537 Z M 1888.555666 1349.771392 " stroke="#000000" stroke-width="1" stroke-opacity="1" stroke-miterlimit="10"/><path stroke-linecap="butt" transform="matrix(0.0340242, 0, 0, 0.0340009, 11.266911, -4.233309)" fill-opacity="1" fill="#fce586" fill-rule="nonzero" stroke-linejoin="miter" d="M 1251.829868 1086.795951 L 1572.488929 1263.146891 L 1450.10348 1306.114482 L 1146.665637 1115.402716 Z M 1251.829868 1086.795951 " stroke="#000000" stroke-width="1" stroke-opacity="1" stroke-miterlimit="10"/><path stroke-linecap="butt" transform="matrix(0.0340242, 0, 0, 0.0340009, 11.266911, -4.233309)" fill-opacity="1" fill="#fce586" fill-rule="nonzero" stroke-linejoin="miter" d="M 1050.226821 1150.672904 L 1354.009089 1331.159762 L 1341.724621 1338.282732 L 1038.286777 1156.647007 Z M 1050.226821 1150.672904 " stroke="#000000" stroke-width="1" stroke-opacity="1" stroke-miterlimit="10"/><path stroke-linecap="butt" transform="matrix(0.0340242, 0, 0, 0.0340009, 11.266911, -4.233309)" fill-opacity="1" fill="#e5e1d3" fill-rule="nonzero" stroke-linejoin="miter" d="M 195.480417 1397.56422 C 231.530164 1418.014036 267.120679 1439.038285 302.596387 1460.407194 C 320.391644 1470.976762 337.957285 1481.890989 355.637735 1492.575444 L 408.564275 1525.20324 L 461.146391 1558.060809 C 478.597224 1569.20481 496.162866 1580.119037 513.498891 1591.377925 C 548.400557 1613.780813 583.072608 1636.298588 617.285425 1659.620569 C 581.235678 1639.170753 545.645163 1618.146504 510.169456 1596.777595 C 492.374198 1586.208027 474.808557 1575.2938 457.128107 1564.609346 L 404.201567 1531.981549 L 351.619451 1499.12398 C 334.168618 1487.979979 316.602976 1476.950865 299.266951 1465.806864 C 264.365285 1443.403976 229.693234 1420.886201 195.480417 1397.56422 Z M 195.480417 1397.56422 " stroke="#000000" stroke-width="1" stroke-opacity="1" stroke-miterlimit="10"/><path stroke-linecap="butt" transform="matrix(0.0340242, 0, 0, 0.0340009, 11.266911, -4.233309)" fill-opacity="1" fill="#e5e1d3" fill-rule="nonzero" stroke-linejoin="miter" d="M 193.643487 1443.174203 C 229.578426 1463.624019 265.28375 1484.648268 300.759457 1506.017176 C 318.439906 1516.586744 336.120356 1527.500972 353.800805 1538.185426 L 406.612537 1570.813222 L 459.309461 1603.670792 C 476.760295 1614.814792 494.325936 1625.843907 511.661961 1636.987907 C 546.448819 1659.390795 581.235678 1681.90857 615.448496 1705.230551 C 579.398748 1684.780735 543.808233 1663.756487 508.332526 1642.387578 C 490.537268 1631.81801 472.971627 1620.903782 455.176369 1610.219328 L 402.364637 1577.706419 L 349.782521 1544.733963 C 332.331688 1533.589962 314.766047 1522.675734 297.430021 1511.416847 C 262.528355 1489.013959 227.856305 1466.496184 193.643487 1443.174203 Z M 193.643487 1443.174203 " stroke="#000000" stroke-width="1" stroke-opacity="1" stroke-miterlimit="10"/><path stroke-linecap="butt" transform="matrix(0.0340242, 0, 0, 0.0340009, 11.266911, -4.233309)" fill-opacity="1" fill="#e5e1d3" fill-rule="nonzero" stroke-linejoin="miter" d="M 195.480417 1490.507485 C 231.530164 1510.9573 267.120679 1531.981549 302.596387 1553.350458 C 320.391644 1563.920026 337.957285 1574.834253 355.637735 1585.518708 L 408.564275 1618.031617 L 461.146391 1651.004073 C 478.597224 1662.148074 496.162866 1673.062302 513.498891 1684.321189 C 548.400557 1706.724077 583.072608 1729.241852 617.285425 1752.563833 C 581.235678 1732.114017 545.645163 1710.974882 510.169456 1689.720859 C 492.374198 1679.151292 474.808557 1668.237064 457.128107 1657.55261 L 404.201567 1624.924814 L 351.619451 1592.067244 C 334.168618 1580.923244 316.602976 1569.894129 299.266951 1558.635242 C 264.365285 1536.34724 229.693234 1513.714579 195.480417 1490.507485 Z M 195.480417 1490.507485 " stroke="#000000" stroke-width="1" stroke-opacity="1" stroke-miterlimit="10"/><path stroke-linecap="butt" transform="matrix(0.0340242, 0, 0, 0.0340009, 11.266911, -4.233309)" fill-opacity="1" fill="#e5e1d3" fill-rule="nonzero" stroke-linejoin="miter" d="M 721.416384 1663.067167 C 813.722108 1637.447454 906.372255 1613.321266 999.252019 1589.884399 C 1045.634497 1577.936192 1092.131783 1566.562418 1138.629069 1554.958871 L 1278.120926 1521.067322 L 1417.957209 1487.865093 L 1487.87535 1471.666081 L 1522.891824 1463.624019 L 1557.908299 1455.696843 C 1651.247295 1434.442821 1744.815908 1413.878118 1838.728944 1394.806942 C 1746.423221 1420.426655 1653.658265 1444.437956 1560.89331 1467.98971 L 1526.106451 1476.835978 L 1491.204785 1485.567361 L 1421.51626 1502.800351 L 1281.909594 1536.806787 L 1142.18812 1569.894129 C 1095.461218 1580.578584 1048.963932 1591.607698 1002.23703 1602.062379 C 908.783225 1623.316401 815.214613 1643.881104 721.416384 1663.067167 Z M 721.416384 1663.067167 " stroke="#000000" stroke-width="1" stroke-opacity="1" stroke-miterlimit="10"/><path stroke-linecap="butt" transform="matrix(0.0340242, 0, 0, 0.0340009, 11.266911, -4.233309)" fill-opacity="1" fill="#e5e1d3" fill-rule="nonzero" stroke-linejoin="miter" d="M 721.416384 1705.804984 C 813.722108 1680.185271 906.372255 1656.059084 999.252019 1632.622216 C 1045.634497 1620.674009 1092.131783 1609.300235 1138.629069 1597.696688 L 1278.120926 1563.805139 L 1417.957209 1530.717797 L 1487.87535 1514.403899 L 1522.891824 1506.361836 L 1557.908299 1498.43466 C 1651.247295 1477.295525 1744.815908 1456.615936 1838.728944 1437.544759 C 1746.423221 1463.164472 1653.658265 1487.29066 1560.89331 1510.727527 L 1526.106451 1519.573796 L 1491.204785 1528.305178 L 1421.51626 1545.538169 L 1281.909594 1579.544604 L 1142.18812 1612.631947 C 1095.461218 1623.316401 1048.963932 1634.345515 1002.23703 1644.800197 C 908.783225 1666.054219 815.214613 1686.618921 721.416384 1705.804984 Z M 721.416384 1705.804984 " stroke="#000000" stroke-width="1" stroke-opacity="1" stroke-miterlimit="10"/><path stroke-linecap="butt" transform="matrix(0.0340242, 0, 0, 0.0340009, 11.266911, -4.233309)" fill-opacity="1" fill="#e5e1d3" fill-rule="nonzero" stroke-linejoin="miter" d="M 721.416384 1753.138266 C 813.722108 1727.518553 906.372255 1703.507252 999.252019 1679.955498 C 1045.634497 1668.122178 1092.131783 1656.748404 1138.629069 1645.144856 L 1278.120926 1611.138421 L 1417.957209 1578.051078 L 1487.87535 1561.852067 L 1522.891824 1553.810005 L 1557.908299 1545.882829 C 1651.247295 1524.628807 1744.815908 1503.949218 1838.728944 1484.878041 C 1746.423221 1510.612641 1653.658265 1534.623941 1560.89331 1558.175696 L 1526.106451 1567.021964 L 1491.204785 1575.63846 L 1421.51626 1592.986337 L 1281.909594 1626.877886 L 1142.18812 1659.965229 C 1095.461218 1670.764569 1048.963932 1681.793684 1002.23703 1692.248365 C 908.783225 1713.3875 815.214613 1734.067089 721.416384 1753.138266 Z M 721.416384 1753.138266 " stroke="#000000" stroke-width="1" stroke-opacity="1" stroke-miterlimit="10"/><path stroke-linecap="butt" transform="matrix(0.0340242, 0, 0, 0.0340009, 11.266911, -4.233309)" fill-opacity="1" fill="#f04d6e" fill-rule="nonzero" stroke-linejoin="miter" d="M 1588.447257 1460.636967 L 1675.127383 1438.693625 C 1675.127383 1438.693625 1688.100699 1488.439526 1676.045848 1528.420065 L 1642.751495 1500.502619 L 1611.638496 1542.091571 C 1611.638496 1542.091571 1611.40888 1477.755071 1588.447257 1460.636967 Z M 1588.447257 1460.636967 " stroke="#000000" stroke-width="1" stroke-opacity="1" stroke-miterlimit="10"/><path stroke-linecap="butt" transform="matrix(0.0340242, 0, 0, 0.0340009, 11.266911, -4.233309)" fill-opacity="1" fill="#f04d6e" fill-rule="nonzero" stroke-linejoin="miter" d="M 1041.271788 1633.196649 L 1128.411146 1613.436153 C 1128.411146 1613.436153 1141.384463 1662.377847 1129.329611 1702.358386 L 1096.035258 1674.440941 L 1064.92226 1716.029892 C 1064.92226 1716.029892 1064.233411 1650.314754 1041.271788 1633.196649 Z M 1041.271788 1633.196649 " stroke="#000000" stroke-width="1" stroke-opacity="1" stroke-miterlimit="10"/><path stroke-linecap="butt" transform="matrix(0.0340242, 0, 0, 0.0340009, 11.266911, -4.233309)" fill-opacity="1" fill="#ffffff" fill-rule="nonzero" stroke-linejoin="miter" d="M 1887.752009 1002.928729 L 1896.477425 1220.064414 L 1390.288453 1522.675734 C 1390.288453 1522.675734 1319.451847 1466.95573 1366.408366 1320.130648 Z M 1887.752009 1002.928729 " stroke="#000000" stroke-width="1" stroke-opacity="1" stroke-miterlimit="10"/><path stroke-linecap="butt" transform="matrix(0.0340242, 0, 0, 0.0340009, 11.266911, -4.233309)" fill-opacity="1" fill="#55c1ae" fill-rule="nonzero" stroke-linejoin="miter" d="M 1892.918374 985.465965 L 1353.779473 1313.352338 L 87.101558 1012.579204 L 653.335173 714.563348 Z M 1892.918374 985.465965 " stroke="#000000" stroke-width="1" stroke-opacity="1" stroke-miterlimit="10"/><g mask="url(#2a1f8e4ae5)"><g transform="matrix(1, 0, 0, 1, 18, 21)"><g clip-path="url(#d2376c0db2)"><g clip-path="url(#1ebea3f060)"><path stroke-linecap="butt" transform="matrix(0.0340242, 0, 0, 0.0340009, -6.733089, -25.233308)" fill-opacity="1" fill="#07b28f" fill-rule="nonzero" stroke-linejoin="miter" d="M 1345.742905 1271.763359 C 1345.054057 1271.763359 1344.365208 1271.648472 1343.676359 1271.533585 L 218.671656 1004.30734 C 214.997796 1003.503133 212.357209 1000.516082 211.897977 996.83971 C 211.438744 993.163339 213.275674 989.601854 216.60511 987.878555 L 655.97576 756.611817 C 657.927498 755.577838 659.994044 755.348064 662.06059 755.807611 L 1769.384844 997.87369 C 1772.943895 998.563009 1775.584482 1001.435175 1776.273331 1004.996659 C 1776.847371 1008.558144 1775.125249 1012.119629 1772.02543 1014.072701 L 1350.33523 1270.499606 C 1348.957532 1271.303812 1347.350219 1271.763359 1345.742905 1271.763359 Z M 245.76637 992.588906 L 1344.2504 1253.381502 L 1743.897443 1010.39633 L 661.371741 773.844808 Z M 245.76637 992.588906 " stroke="#000000" stroke-width="1" stroke-opacity="1" stroke-miterlimit="10"/></g></g></g></g><path fill="#00b59c" d="M 14.230469 30.195312 C 14.230469 30.195312 12.355469 35.847656 14.570312 37.75 C 16.78125 39.652344 57.695312 48.988281 57.695312 48.988281 L 76.671875 37.9375 L 76.699219 36.707031 L 58.570312 47.539062 C 58.570312 47.539062 57.28125 46.664062 57.328125 44.359375 C 57.375 42.058594 57.757812 40.652344 57.757812 40.652344 L 75.496094 29.867188 L 75.628906 29.265625 L 57.328125 40.421875 Z M 14.230469 30.195312 " fill-opacity="1" fill-rule="nonzero"/><g clip-path="url(#d85486854b)"><path stroke-linecap="butt" transform="matrix(0.0340242, 0, 0, 0.0340009, 11.266911, -4.233309)" fill="none" stroke-linejoin="miter" d="M 87.101558 1012.579204 C 87.101558 1012.579204 31.993663 1178.820122 97.089863 1234.7699 C 162.071256 1290.719677 1364.571436 1565.298665 1364.571436 1565.298665 L 1922.309251 1240.284457 L 1923.112908 1204.095176 L 1390.288453 1522.675734 C 1390.288453 1522.675734 1352.401776 1496.941135 1353.779473 1429.158037 C 1355.157171 1361.489826 1366.408366 1320.130648 1366.408366 1320.130648 L 1887.752009 1002.928729 L 1891.655485 985.236191 L 1353.779473 1313.352338 Z M 87.101558 1012.579204 " stroke="#000000" stroke-width="1" stroke-opacity="1" stroke-miterlimit="10"/></g><path fill="#039e84" d="M 76.699219 36.707031 L 75.769531 36.707031 L 75.792969 37.25 Z M 76.699219 36.707031 " fill-opacity="1" fill-rule="nonzero"/><g clip-path="url(#9df4c9389e)"><path stroke-linecap="butt" transform="matrix(0.0340242, 0, 0, 0.0340009, 11.266911, -4.233309)" fill="none" stroke-linejoin="miter" d="M 1923.112908 1204.095176 L 1895.788577 1204.095176 L 1896.477425 1220.064414 Z M 1923.112908 1204.095176 " stroke="#000000" stroke-width="1" stroke-opacity="1" stroke-miterlimit="10"/></g><path stroke-linecap="butt" transform="matrix(0.0340242, 0, 0, 0.0340009, 11.266911, -4.233309)" fill-opacity="1" fill="#65c5b3" fill-rule="nonzero" stroke-linejoin="miter" d="M 288.934221 1060.486918 C 288.934221 1060.486918 200.531974 1221.443053 290.541535 1301.174358 L 337.727669 1314.156544 C 337.727669 1314.156544 259.19892 1220.179301 359.081978 1077.145476 Z M 288.934221 1060.486918 " stroke="#000000" stroke-width="1" stroke-opacity="1" stroke-miterlimit="10"/><path stroke-linecap="butt" transform="matrix(0.0340242, 0, 0, 0.0340009, 11.266911, -4.233309)" fill-opacity="1" fill="#65c5b3" fill-rule="nonzero" stroke-linejoin="miter" d="M 397.542696 1086.221518 C 397.542696 1086.221518 309.025641 1251.083798 399.15001 1330.815102 L 447.139801 1343.452629 C 447.139801 1343.452629 367.807395 1245.9139 467.690454 1102.880076 Z M 397.542696 1086.221518 " stroke="#000000" stroke-width="1" stroke-opacity="1" stroke-miterlimit="10"/><path stroke-linecap="butt" transform="matrix(0.0340242, 0, 0, 0.0340009, 11.266911, -4.233309)" fill-opacity="1" fill="#65c5b3" fill-rule="nonzero" stroke-linejoin="miter" d="M 923.937896 1210.643712 C 923.937896 1210.643712 836.568922 1382.858735 926.578483 1462.590039 L 973.64981 1473.848927 C 973.64981 1473.848927 894.087787 1370.336095 994.085654 1227.417157 Z M 923.937896 1210.643712 " stroke="#000000" stroke-width="1" stroke-opacity="1" stroke-miterlimit="10"/><path stroke-linecap="butt" transform="matrix(0.0340242, 0, 0, 0.0340009, 11.266911, -4.233309)" fill-opacity="1" fill="#65c5b3" fill-rule="nonzero" stroke-linejoin="miter" d="M 1032.431564 1236.493199 C 1032.431564 1236.493199 944.947781 1408.708221 1034.957342 1488.439526 L 1083.061942 1499.8133 C 1083.061942 1499.8133 1002.696262 1396.070694 1102.694129 1253.151757 Z M 1032.431564 1236.493199 " stroke="#000000" stroke-width="1" stroke-opacity="1" stroke-miterlimit="10"/><path stroke-linecap="butt" transform="matrix(0.0340242, 0, 0, 0.0340009, 11.266911, -4.233309)" fill-opacity="1" fill="#e5e1d3" fill-rule="nonzero" stroke-linejoin="miter" d="M 1874.549076 1060.257145 C 1836.777206 1087.715044 1798.20168 1113.679417 1759.28173 1139.069357 C 1739.879159 1151.936657 1720.132163 1164.229523 1700.614784 1176.86705 L 1641.488605 1213.745651 L 1581.788386 1249.820045 C 1561.696967 1261.538479 1541.835163 1273.601572 1521.628935 1285.090233 C 1481.331287 1308.297327 1440.689215 1330.929989 1399.128678 1352.184011 C 1436.785739 1324.726112 1475.476073 1298.761739 1514.396024 1273.256913 C 1533.683787 1260.389613 1553.430782 1248.096746 1572.948162 1235.574106 L 1632.189148 1198.695505 L 1691.889367 1162.621111 C 1711.865979 1150.787791 1731.842591 1138.839584 1752.048819 1127.350923 C 1792.346466 1104.143829 1832.988539 1081.396281 1874.549076 1060.257145 Z M 1874.549076 1060.257145 " stroke="#000000" stroke-width="1" stroke-opacity="1" stroke-miterlimit="10"/><path stroke-linecap="butt" transform="matrix(0.0340242, 0, 0, 0.0340009, 11.266911, -4.233309)" fill-opacity="1" fill="#e5e1d3" fill-rule="nonzero" stroke-linejoin="miter" d="M 1868.119821 1171.926926 C 1830.347952 1199.384825 1791.772426 1225.349198 1752.852475 1250.739138 C 1733.449904 1263.606438 1713.702909 1275.899305 1694.185529 1288.536831 L 1635.059351 1325.415432 L 1575.359132 1361.489826 C 1555.267712 1373.20826 1535.405909 1385.271353 1515.199681 1396.760014 C 1474.902033 1419.967109 1434.259961 1442.59977 1392.699424 1463.853792 C 1430.356485 1436.395893 1469.046819 1410.43152 1507.966769 1384.926694 C 1527.369341 1372.059394 1547.001528 1359.766527 1566.633715 1347.243887 L 1625.759894 1310.365286 L 1685.460113 1274.290892 C 1705.551533 1262.457572 1725.413336 1250.509365 1745.619564 1239.020704 C 1785.917212 1215.81361 1826.559284 1193.066062 1868.119821 1171.926926 Z M 1868.119821 1171.926926 " stroke="#000000" stroke-width="1" stroke-opacity="1" stroke-miterlimit="10"/><path stroke-linecap="butt" transform="matrix(0.0340242, 0, 0, 0.0340009, 11.266911, -4.233309)" fill-opacity="1" fill="#e5e1d3" fill-rule="nonzero" stroke-linejoin="miter" d="M 1869.841943 1116.781355 C 1831.496033 1143.090388 1792.690891 1168.710101 1753.426516 1193.755381 C 1714.276949 1218.800661 1674.782958 1243.386395 1635.288967 1267.857242 C 1595.56536 1292.098316 1555.841753 1316.109617 1515.773721 1339.661371 C 1475.70569 1363.328012 1435.293234 1386.305333 1394.536353 1408.708221 C 1432.882263 1382.399188 1471.687406 1356.779475 1510.95178 1331.849082 C 1550.101347 1306.688915 1589.595338 1282.103181 1629.089329 1257.747221 C 1668.812936 1233.506147 1708.536544 1209.37996 1748.604575 1185.943092 C 1788.672607 1162.276451 1829.085063 1139.184243 1869.841943 1116.781355 Z M 1869.841943 1116.781355 " stroke="#000000" stroke-width="1" stroke-opacity="1" stroke-miterlimit="10"/><path stroke-linecap="butt" transform="matrix(0.0340242, 0, 0, 0.0340009, 11.266911, -4.233309)" fill-opacity="1" fill="#ffffff" fill-rule="nonzero" stroke-linejoin="miter" d="M 1914.731915 963.867283 L 1911.172864 795.443518 L 699.832459 1073.813765 L 237.614994 801.532508 C 237.614994 801.532508 227.51188 793.030899 218.901272 797.051931 C 210.290663 801.072962 209.601815 808.655478 209.601815 808.655478 L 203.17256 946.864065 C 203.17256 946.864065 202.368903 955.710334 208.798158 959.731365 C 215.227412 963.867283 688.696072 1260.274726 688.696072 1260.274726 Z M 1914.731915 963.867283 " stroke="#000000" stroke-width="1" stroke-opacity="1" stroke-miterlimit="10"/><path fill="#fecf09" d="M 56.640625 10.71875 L 76.878906 20.976562 L 35.246094 30.910156 L 17.667969 20.355469 Z M 56.640625 10.71875 " fill-opacity="1" fill-rule="nonzero"/><g clip-path="url(#38203efce1)"><path stroke-linecap="butt" transform="matrix(0.0340242, 0, 0, 0.0340009, 11.266911, -4.233309)" fill="none" stroke-linejoin="miter" d="M 1333.573245 439.754586 L 1928.394081 741.446813 L 704.769208 1033.603452 L 188.132697 723.179843 Z M 1333.573245 439.754586 " stroke="#000000" stroke-width="1" stroke-opacity="1" stroke-miterlimit="10"/></g><g mask="url(#6a05390d61)"><g transform="matrix(1, 0, 0, 1, 20, 11)"><g clip-path="url(#c391e2145c)"><g clip-path="url(#494c099977)"><path fill="#f9a11b" d="M 15.472656 18.644531 C 15.4375 18.644531 15.398438 18.632812 15.367188 18.613281 L 1.132812 10.070312 C 1.0625 10.027344 1.023438 9.945312 1.035156 9.863281 C 1.046875 9.78125 1.109375 9.710938 1.191406 9.691406 L 36.421875 0.980469 C 36.472656 0.96875 36.523438 0.972656 36.566406 0.996094 L 53 9.324219 C 53.074219 9.363281 53.121094 9.445312 53.109375 9.53125 C 53.101562 9.617188 53.039062 9.691406 52.953125 9.710938 L 15.523438 18.640625 C 15.507812 18.640625 15.488281 18.644531 15.472656 18.644531 Z M 1.773438 9.972656 L 15.507812 18.21875 L 52.308594 9.4375 L 36.449219 1.398438 Z M 1.773438 9.972656 " fill-opacity="1" fill-rule="nonzero"/></g><g clip-path="url(#46373da1e3)"><path stroke-linecap="butt" transform="matrix(0.0340242, 0, 0, 0.0340009, -8.733089, -15.233308)" fill="none" stroke-linejoin="miter" d="M 711.428078 996.380164 C 710.394805 996.380164 709.246724 996.035504 708.328259 995.461071 L 289.967494 744.204064 C 287.900948 742.940311 286.752867 740.527692 287.097291 738.115074 C 287.441716 735.702455 289.278645 733.634496 291.689616 733.060063 L 1327.143991 476.862931 C 1328.636496 476.518272 1330.129002 476.633158 1331.391891 477.322478 L 1814.389624 722.260722 C 1816.570978 723.409588 1817.948676 725.822207 1817.604251 728.349712 C 1817.374635 730.877217 1815.537705 733.060063 1813.011927 733.634496 L 712.920584 996.265277 C 712.461351 996.265277 711.887311 996.380164 711.428078 996.380164 Z M 308.796025 741.331898 L 712.461351 983.857524 L 1794.068588 725.592433 L 1327.947648 489.155798 Z M 308.796025 741.331898 " stroke="#000000" stroke-width="1" stroke-opacity="1" stroke-miterlimit="10"/></g></g></g></g><g clip-path="url(#3862a97414)"><path fill="#f9a11b" d="M 77.230469 28.339844 L 77.230469 29.992188 L 34.886719 40.574219 L 16.917969 29.03125 C 16.917969 29.03125 15.617188 24.480469 17.667969 20.355469 L 35.246094 30.910156 L 76.878906 20.976562 L 76.878906 22.679688 L 35.078125 32.277344 L 19.15625 22.90625 C 18.828125 22.710938 18.410156 22.9375 18.390625 23.316406 L 18.179688 28 C 18.171875 28.167969 18.253906 28.328125 18.398438 28.417969 L 34.699219 38.617188 Z M 77.230469 28.339844 " fill-opacity="1" fill-rule="nonzero"/></g><g clip-path="url(#db618aed50)"><path stroke-linecap="butt" transform="matrix(0.0340242, 0, 0, 0.0340009, 11.266911, -4.233309)" fill="none" stroke-linejoin="miter" d="M 1938.726811 958.008066 L 1938.726811 1006.6051 L 694.206861 1317.832916 L 166.08954 978.342995 C 166.08954 978.342995 127.858438 844.500099 188.132697 723.179843 L 704.769208 1033.603452 L 1928.394081 741.446813 L 1928.394081 791.537374 L 699.832459 1073.813765 L 231.874589 798.200797 C 222.230707 792.456466 209.946239 799.11989 209.372198 810.26389 L 203.17256 948.012931 C 202.942944 952.953055 205.353914 957.663406 209.601815 960.305798 L 688.696072 1260.274726 Z M 1938.726811 958.008066 " stroke="#000000" stroke-width="1" stroke-opacity="1" stroke-miterlimit="10"/></g><g mask="url(#f5f53a3eae)"><g transform="matrix(1, 0, 0, 1, 34, 22)"><g clip-path="url(#458ee120c4)"><g clip-path="url(#a7264e2f46)"><path stroke-linecap="butt" transform="matrix(0.0340242, 0, 0, 0.0340009, -22.733089, -26.233308)" fill-opacity="1" fill="#f9a11b" fill-rule="nonzero" stroke-linejoin="miter" d="M 688.696072 1260.274698 L 699.832459 1073.813736 L 1911.172864 795.44349 L 1914.731915 963.867254 Z M 688.696072 1260.274698 " stroke="#000000" stroke-width="1" stroke-opacity="1" stroke-miterlimit="10"/></g></g></g></g><g clip-path="url(#6bec4de116)"><path fill="#e98d24" d="M 77.230469 28.339844 L 76.398438 27.890625 L 76.414062 28.539062 Z M 77.230469 28.339844 " fill-opacity="1" fill-rule="nonzero"/></g><g clip-path="url(#156022c082)"><path stroke-linecap="butt" transform="matrix(0.0340242, 0, 0, 0.0340009, 11.266911, -4.233309)" fill="none" stroke-linejoin="miter" d="M 1938.726811 958.008066 L 1914.272683 944.796106 L 1914.731915 963.867283 Z M 1938.726811 958.008066 " stroke="#000000" stroke-width="1" stroke-opacity="1" stroke-miterlimit="10"/></g><path fill="#e98d24" d="M 76.878906 22.679688 L 76.292969 22.933594 L 76.292969 22.8125 Z M 76.878906 22.679688 " fill-opacity="1" fill-rule="nonzero"/><g clip-path="url(#62b15cb21c)"><path stroke-linecap="butt" transform="matrix(0.0340242, 0, 0, 0.0340009, 11.266911, -4.233309)" fill="none" stroke-linejoin="miter" d="M 1928.394081 791.537374 L 1911.172864 799.005003 L 1911.172864 795.443518 Z M 1928.394081 791.537374 " stroke="#000000" stroke-width="1" stroke-opacity="1" stroke-miterlimit="10"/></g><path stroke-linecap="butt" transform="matrix(0.0340242, 0, 0, 0.0340009, 11.266911, -4.233309)" fill-opacity="1" fill="#fce586" fill-rule="nonzero" stroke-linejoin="miter" d="M 1291.553476 528.676819 L 1612.212536 704.912873 L 1489.827088 747.880463 L 1186.389244 557.168697 Z M 1291.553476 528.676819 " stroke="#000000" stroke-width="1" stroke-opacity="1" stroke-miterlimit="10"/><path stroke-linecap="butt" transform="matrix(0.0340242, 0, 0, 0.0340009, 11.266911, -4.233309)" fill-opacity="1" fill="#fce586" fill-rule="nonzero" stroke-linejoin="miter" d="M 1090.065237 592.438885 L 1393.847505 772.925743 L 1381.563037 780.1636 L 1078.125193 598.412989 Z M 1090.065237 592.438885 " stroke="#000000" stroke-width="1" stroke-opacity="1" stroke-miterlimit="10"/><path stroke-linecap="butt" transform="matrix(0.0340242, 0, 0, 0.0340009, 11.266911, -4.233309)" fill-opacity="1" fill="#e5e1d3" fill-rule="nonzero" stroke-linejoin="miter" d="M 235.204024 839.330202 C 271.253772 859.780018 306.844287 880.804266 342.319994 902.173175 C 360.115251 912.742743 377.795701 923.65697 395.47615 934.341425 L 448.287882 966.969221 L 500.869998 999.82679 C 518.320832 1010.970791 535.886473 1021.999905 553.337306 1033.143906 C 588.124165 1055.546794 622.796215 1078.064569 657.123841 1101.38655 C 621.074093 1080.936734 585.36877 1059.912485 549.893063 1038.543577 C 532.212613 1027.974009 514.532164 1017.059781 496.851714 1006.375327 L 444.039982 973.862417 L 391.457866 940.889961 C 374.007033 929.745961 356.441392 918.831733 338.990558 907.572846 C 304.2037 885.169957 269.53165 862.652183 235.204024 839.330202 Z M 235.204024 839.330202 " stroke="#000000" stroke-width="1" stroke-opacity="1" stroke-miterlimit="10"/><path stroke-linecap="butt" transform="matrix(0.0340242, 0, 0, 0.0340009, 11.266911, -4.233309)" fill-opacity="1" fill="#e5e1d3" fill-rule="nonzero" stroke-linejoin="miter" d="M 233.367094 884.940184 C 269.416842 905.39 305.007357 926.529136 340.483064 947.783158 C 358.278322 958.352725 375.843963 969.266953 393.524412 979.951407 L 446.450953 1012.579204 L 499.033069 1045.436773 C 516.483902 1056.580774 534.049543 1067.609888 551.385568 1078.753889 C 586.287235 1101.156777 620.959285 1123.789438 655.172103 1146.996533 C 619.237163 1126.546717 583.53184 1105.522468 548.056133 1084.153559 C 530.260875 1073.583991 512.695234 1062.78465 495.014785 1051.985309 L 442.203052 1019.4724 L 389.506128 986.499944 C 372.055295 975.355943 354.604462 964.441716 337.153629 953.182828 C 302.36677 930.77994 267.69472 908.262165 233.367094 884.940184 Z M 233.367094 884.940184 " stroke="#000000" stroke-width="1" stroke-opacity="1" stroke-miterlimit="10"/><path stroke-linecap="butt" transform="matrix(0.0340242, 0, 0, 0.0340009, 11.266911, -4.233309)" fill-opacity="1" fill="#e5e1d3" fill-rule="nonzero" stroke-linejoin="miter" d="M 235.204024 932.273466 C 271.253772 952.723282 306.844287 973.747531 342.319994 995.116439 C 360.115251 1005.686007 377.795701 1016.600235 395.47615 1027.284689 L 448.287882 1059.797599 L 500.869998 1092.770055 C 518.320832 1103.914055 535.886473 1114.828283 553.337306 1126.08717 C 588.124165 1148.490058 622.796215 1171.007833 657.123841 1194.329814 C 621.074093 1173.879998 585.36877 1152.85575 549.893063 1131.486841 C 532.212613 1120.917273 514.532164 1110.003045 496.851714 1099.318591 L 444.039982 1066.690795 L 391.457866 1033.833226 C 374.007033 1022.689225 356.441392 1011.660111 338.990558 1000.51611 C 304.2037 978.113222 269.53165 955.595447 235.204024 932.273466 Z M 235.204024 932.273466 " stroke="#000000" stroke-width="1" stroke-opacity="1" stroke-miterlimit="10"/><path stroke-linecap="butt" transform="matrix(0.0340242, 0, 0, 0.0340009, 11.266911, -4.233309)" fill-opacity="1" fill="#e5e1d3" fill-rule="nonzero" stroke-linejoin="miter" d="M 761.139992 1104.833148 C 853.445715 1079.213435 946.21067 1055.087248 1038.975626 1031.65038 C 1085.358104 1019.702173 1131.970198 1008.328399 1178.352676 996.724852 L 1317.959342 962.833303 L 1457.680816 929.745961 L 1527.713765 913.546949 L 1562.615431 905.39 L 1597.746714 897.462824 C 1691.08571 876.323689 1784.654323 855.6441 1878.452552 836.572923 C 1786.146828 862.192636 1693.496681 886.318824 1600.616917 909.755691 L 1565.830059 918.60196 L 1530.928392 927.333342 L 1461.239867 944.566333 L 1321.748009 978.572768 L 1181.911727 1011.660111 C 1135.299633 1022.344565 1088.687539 1033.373679 1041.960637 1043.82836 C 948.506833 1065.082382 855.053028 1085.647085 761.139992 1104.833148 Z M 761.139992 1104.833148 " stroke="#000000" stroke-width="1" stroke-opacity="1" stroke-miterlimit="10"/><path stroke-linecap="butt" transform="matrix(0.0340242, 0, 0, 0.0340009, 11.266911, -4.233309)" fill-opacity="1" fill="#e5e1d3" fill-rule="nonzero" stroke-linejoin="miter" d="M 761.139992 1147.570966 C 853.445715 1121.951252 946.21067 1097.825065 1038.975626 1074.388198 C 1085.358104 1062.439991 1131.970198 1051.066217 1178.352676 1039.462669 L 1317.959342 1005.571121 L 1457.680816 972.483778 L 1527.713765 956.284767 L 1562.615431 948.127818 L 1597.746714 940.200642 C 1691.08571 919.061506 1784.654323 898.381917 1878.452552 879.310741 C 1786.146828 904.930454 1693.496681 929.056641 1600.616917 952.493509 L 1565.830059 961.339777 L 1530.928392 970.071159 L 1461.239867 987.419037 L 1321.748009 1021.310586 L 1181.911727 1054.397928 C 1135.299633 1065.197269 1088.687539 1076.111497 1041.960637 1086.566178 C 948.506833 1107.8202 855.053028 1128.499789 761.139992 1147.570966 Z M 761.139992 1147.570966 " stroke="#000000" stroke-width="1" stroke-opacity="1" stroke-miterlimit="10"/><path stroke-linecap="butt" transform="matrix(0.0340242, 0, 0, 0.0340009, 11.266911, -4.233309)" fill-opacity="1" fill="#e5e1d3" fill-rule="nonzero" stroke-linejoin="miter" d="M 761.139992 1194.904247 C 853.445715 1169.284534 946.21067 1145.273234 1038.975626 1121.721479 C 1085.358104 1109.888159 1131.970198 1098.514385 1178.352676 1086.910838 L 1317.959342 1052.904402 L 1457.680816 1019.81706 L 1527.713765 1003.618048 L 1562.615431 995.575986 L 1597.746714 987.64881 C 1691.08571 966.394788 1784.654323 945.830085 1878.452552 926.758909 C 1786.146828 952.378622 1693.496681 976.389923 1600.616917 999.941677 L 1565.830059 1008.787946 L 1530.928392 1017.404441 L 1461.239867 1034.752319 L 1321.748009 1068.643867 L 1181.911727 1101.846096 C 1135.299633 1112.530551 1088.687539 1123.559665 1041.960637 1134.014346 C 948.506833 1155.153482 855.053028 1175.833071 761.139992 1194.904247 Z M 761.139992 1194.904247 " stroke="#000000" stroke-width="1" stroke-opacity="1" stroke-miterlimit="10"/><path stroke-linecap="butt" transform="matrix(0.0340242, 0, 0, 0.0340009, 11.266911, -4.233309)" fill-opacity="1" fill="#f04d6e" fill-rule="nonzero" stroke-linejoin="miter" d="M 1628.170864 902.402948 L 1714.85099 880.459607 C 1714.85099 880.459607 1727.824307 930.205507 1715.769455 970.186046 L 1682.58991 942.268601 L 1651.476911 983.857552 C 1651.476911 983.857552 1651.247295 919.521053 1628.170864 902.402948 Z M 1628.170864 902.402948 " stroke="#000000" stroke-width="1" stroke-opacity="1" stroke-miterlimit="10"/><path stroke-linecap="butt" transform="matrix(0.0340242, 0, 0, 0.0340009, 11.266911, -4.233309)" fill-opacity="1" fill="#f04d6e" fill-rule="nonzero" stroke-linejoin="miter" d="M 1081.110204 1074.962631 L 1168.134754 1055.317021 C 1168.134754 1055.317021 1181.108071 1104.143829 1169.053219 1144.124367 L 1135.873674 1116.206922 L 1104.760675 1157.795874 C 1104.760675 1157.795874 1104.071826 1092.080735 1081.110204 1074.962631 Z M 1081.110204 1074.962631 " stroke="#000000" stroke-width="1" stroke-opacity="1" stroke-miterlimit="10"/><path stroke-linecap="butt" transform="matrix(0.0340242, 0, 0, 0.0340009, 11.266911, -4.233309)" fill-opacity="1" fill="#ffffff" fill-rule="nonzero" stroke-linejoin="miter" d="M 161.497215 654.247879 L 166.319156 485.939002 L 1375.478207 773.270403 L 1839.762217 504.435745 C 1839.762217 504.435745 1849.865331 496.049023 1858.47594 500.070054 C 1867.086548 504.205972 1867.660589 511.788488 1867.660589 511.788488 L 1873.05657 649.997075 C 1873.05657 649.997075 1873.860227 658.843344 1867.430973 662.864375 C 1860.88691 666.885406 1385.236896 959.846251 1385.236896 959.846251 Z M 161.497215 654.247879 " stroke="#000000" stroke-width="1" stroke-opacity="1" stroke-miterlimit="10"/><g clip-path="url(#bb0edeb37f)"><path fill="#f0536d" d="M 36.667969 0.34375 L 16.351562 10.449219 L 57.910156 20.6875 L 75.5625 10.265625 Z M 36.667969 0.34375 " fill-opacity="1" fill-rule="nonzero"/></g><g clip-path="url(#dc3d9a58d2)"><path stroke-linecap="butt" transform="matrix(0.0340242, 0, 0, 0.0340009, 11.266911, -4.233309)" fill="none" stroke-linejoin="miter" d="M 746.559361 134.61576 L 149.442363 431.82741 L 1370.885882 732.945204 L 1889.703747 426.42774 Z M 746.559361 134.61576 " stroke="#000000" stroke-width="1" stroke-opacity="1" stroke-miterlimit="10"/></g><g mask="url(#26b9caaa46)"><g transform="matrix(1, 0, 0, 1, 19, 1)"><g clip-path="url(#635139582a)"><g clip-path="url(#c9b85b46ff)"><path fill="#ffffff" d="M 38.691406 18.421875 C 38.726562 18.421875 38.765625 18.414062 38.796875 18.394531 L 53.09375 9.953125 C 53.167969 9.910156 53.207031 9.828125 53.195312 9.746094 C 53.183594 9.664062 53.121094 9.597656 53.042969 9.574219 L 17.875 0.601562 C 17.824219 0.589844 17.773438 0.597656 17.730469 0.617188 L 1.238281 8.824219 C 1.160156 8.863281 1.113281 8.945312 1.125 9.03125 C 1.132812 9.117188 1.195312 9.1875 1.277344 9.210938 L 38.644531 18.417969 C 38.660156 18.421875 38.675781 18.421875 38.691406 18.421875 Z M 52.453125 9.851562 L 38.660156 17.996094 L 1.925781 8.941406 L 17.84375 1.023438 Z M 52.453125 9.851562 " fill-opacity="1" fill-rule="nonzero"/></g><g clip-path="url(#2269a88ec3)"><path stroke-linecap="butt" transform="matrix(0.0340242, 0, 0, 0.0340009, -7.733089, -5.233309)" fill="none" stroke-linejoin="miter" d="M 1364.456628 695.721944 C 1365.489901 695.721944 1366.637982 695.492171 1367.556447 694.917738 L 1787.754142 446.647782 C 1789.935496 445.38403 1791.083577 442.971411 1790.739153 440.558792 C 1790.394729 438.146173 1788.557799 436.193101 1786.261636 435.503781 L 752.644191 171.609247 C 751.151686 171.264588 749.65918 171.494361 748.396291 172.068794 L 263.676436 413.445553 C 261.380274 414.594419 260.002576 417.007038 260.347001 419.534543 C 260.576617 422.062049 262.413547 424.130007 264.824517 424.819327 L 1363.07893 695.607058 C 1363.538163 695.721944 1363.997395 695.721944 1364.456628 695.721944 Z M 1768.925611 443.66073 L 1363.538163 683.199304 L 283.882664 416.892151 L 751.725726 184.017001 Z M 1768.925611 443.66073 " stroke="#000000" stroke-width="1" stroke-opacity="1" stroke-miterlimit="10"/></g></g></g></g><path fill="#ed184a" d="M 15.945312 17.808594 L 15.933594 19.460938 L 58.195312 30.359375 L 76.25 18.949219 C 76.25 18.949219 77.582031 14.40625 75.5625 10.265625 L 57.910156 20.6875 L 16.351562 10.449219 L 16.339844 12.148438 L 58.066406 22.058594 L 74.058594 12.804688 C 74.390625 12.613281 74.804688 12.839844 74.820312 13.222656 L 74.996094 17.90625 C 75.003906 18.074219 74.917969 18.234375 74.773438 18.324219 L 58.398438 28.402344 Z M 15.945312 17.808594 " fill-opacity="1" fill-rule="nonzero"/><g clip-path="url(#b11479b724)"><path stroke-linecap="butt" transform="matrix(0.0340242, 0, 0, 0.0340009, 11.266911, -4.233309)" fill="none" stroke-linejoin="miter" d="M 137.502319 648.273776 L 137.157895 696.87081 L 1379.266874 1017.404441 L 1909.909975 681.820665 C 1909.909975 681.820665 1949.059541 548.207542 1889.703747 426.42774 L 1370.885882 732.945204 L 149.442363 431.82741 L 149.097939 481.803084 L 1375.478207 773.270403 L 1845.502623 501.104034 C 1855.261313 495.47459 1867.430973 502.138013 1867.890205 513.3969 L 1873.05657 651.145941 C 1873.286186 656.086065 1870.760408 660.796416 1866.512508 663.438808 L 1385.236896 959.846251 Z M 137.502319 648.273776 " stroke="#000000" stroke-width="1" stroke-opacity="1" stroke-miterlimit="10"/></g><g mask="url(#de61d53823)"><g transform="matrix(1, 0, 0, 1, 16, 12)"><g clip-path="url(#5121488073)"><g clip-path="url(#d0bdd6d871)"><path stroke-linecap="butt" transform="matrix(0.0340242, 0, 0, 0.0340009, -4.733089, -16.233308)" fill-opacity="1" fill="#f9a11b" fill-rule="nonzero" stroke-linejoin="miter" d="M 1385.236896 959.846223 L 1375.478207 773.270375 L 166.319156 485.938973 L 161.497215 654.247851 Z M 1385.236896 959.846223 " stroke="#000000" stroke-width="1" stroke-opacity="1" stroke-miterlimit="10"/></g></g></g></g><path stroke-linecap="butt" transform="matrix(0.0340242, 0, 0, 0.0340009, 11.266911, -4.233309)" fill-opacity="1" fill="#e98d24" fill-rule="nonzero" stroke-linejoin="miter" d="M 137.502319 648.273776 L 161.956448 635.291589 L 161.497215 654.247879 Z M 137.502319 648.273776 " stroke="#000000" stroke-width="1" stroke-opacity="1" stroke-miterlimit="10"/><path stroke-linecap="butt" transform="matrix(0.0340242, 0, 0, 0.0340009, 11.266911, -4.233309)" fill-opacity="1" fill="#e98d24" fill-rule="nonzero" stroke-linejoin="miter" d="M 149.097939 481.803084 L 166.204348 489.3856 L 166.319156 485.939002 Z M 149.097939 481.803084 " stroke="#000000" stroke-width="1" stroke-opacity="1" stroke-miterlimit="10"/><path stroke-linecap="butt" transform="matrix(0.0340242, 0, 0, 0.0340009, 11.266911, -4.233309)" fill-opacity="1" fill="#f7acbc" fill-rule="nonzero" stroke-linejoin="miter" d="M 787.775474 223.65288 L 465.853524 397.591201 L 587.894548 441.477885 L 892.71009 253.063851 Z M 787.775474 223.65288 " stroke="#000000" stroke-width="1" stroke-opacity="1" stroke-miterlimit="10"/><path stroke-linecap="butt" transform="matrix(0.0340242, 0, 0, 0.0340009, 11.266911, -4.233309)" fill-opacity="1" fill="#f7acbc" fill-rule="nonzero" stroke-linejoin="miter" d="M 988.804481 289.023359 L 683.759323 467.212485 L 696.043791 474.565228 L 1000.744524 295.112349 Z M 988.804481 289.023359 " stroke="#000000" stroke-width="1" stroke-opacity="1" stroke-miterlimit="10"/><path stroke-linecap="butt" transform="matrix(0.0340242, 0, 0, 0.0340009, 11.266911, -4.233309)" fill-opacity="1" fill="#e5e1d3" fill-rule="nonzero" stroke-linejoin="miter" d="M 1841.828763 542.233438 C 1805.664208 562.338595 1769.844076 583.247957 1734.253561 604.272206 C 1716.343495 614.726887 1698.663046 625.411341 1680.867788 636.095796 L 1627.82644 668.264045 L 1574.8999 700.776955 C 1557.449066 711.806069 1539.768617 722.60541 1522.317784 733.749411 C 1487.301309 755.807639 1452.514451 778.095641 1418.072017 801.072962 C 1454.236572 780.967806 1490.056704 760.17333 1525.647219 739.149081 C 1543.442477 728.6944 1561.122926 717.895059 1578.918184 707.325491 L 1632.07434 675.157242 L 1684.886072 642.644332 C 1702.451714 631.615218 1720.017355 620.815877 1737.468188 609.671876 C 1772.484663 587.613648 1807.386329 565.21076 1841.828763 542.233438 Z M 1841.828763 542.233438 " stroke="#000000" stroke-width="1" stroke-opacity="1" stroke-miterlimit="10"/><path stroke-linecap="butt" transform="matrix(0.0340242, 0, 0, 0.0340009, 11.266911, -4.233309)" fill-opacity="1" fill="#e5e1d3" fill-rule="nonzero" stroke-linejoin="miter" d="M 1843.321269 587.843421 C 1807.156713 608.063464 1771.336582 628.857939 1735.746067 649.882188 C 1717.950809 660.336869 1700.155551 671.13621 1682.475102 681.705778 L 1629.318945 713.874028 L 1576.507213 746.386937 C 1558.941572 757.416052 1541.261122 768.215393 1523.810289 779.359393 C 1488.793815 801.417622 1454.006956 823.705623 1419.564522 846.797831 C 1455.729078 826.577788 1491.549209 805.783313 1527.139724 784.759064 C 1544.934982 774.304383 1562.73024 763.505042 1580.410689 752.935474 L 1633.566846 720.767224 L 1686.378578 688.254315 C 1703.944219 677.225201 1721.50986 666.42586 1739.075502 655.281859 C 1774.091976 633.22363 1808.878835 610.935629 1843.321269 587.843421 Z M 1843.321269 587.843421 " stroke="#000000" stroke-width="1" stroke-opacity="1" stroke-miterlimit="10"/><path stroke-linecap="butt" transform="matrix(0.0340242, 0, 0, 0.0340009, 11.266911, -4.233309)" fill-opacity="1" fill="#e5e1d3" fill-rule="nonzero" stroke-linejoin="miter" d="M 1841.139915 635.176703 C 1804.975359 655.281859 1769.155228 676.191221 1733.564712 697.21547 C 1715.654647 707.670151 1697.974197 718.354606 1680.17894 728.924173 L 1627.137591 761.20731 L 1574.211051 793.720219 C 1556.760218 804.634447 1539.079768 815.548674 1521.628935 826.577788 C 1486.61246 848.750903 1451.825602 871.038905 1417.383168 894.016226 C 1453.547724 873.91107 1489.253047 853.116594 1524.95837 831.977459 C 1542.753628 821.522778 1560.434077 810.838323 1578.229335 800.268756 L 1631.385491 768.100506 L 1684.197224 735.47271 C 1701.762865 724.558482 1719.328506 713.644255 1736.77934 702.61514 C 1771.795814 680.442026 1806.697481 658.154024 1841.139915 635.176703 Z M 1841.139915 635.176703 " stroke="#000000" stroke-width="1" stroke-opacity="1" stroke-miterlimit="10"/><path stroke-linecap="butt" transform="matrix(0.0340242, 0, 0, 0.0340009, 11.266911, -4.233309)" fill-opacity="1" fill="#e5e1d3" fill-rule="nonzero" stroke-linejoin="miter" d="M 1313.941058 803.83024 C 1221.864951 777.521208 1129.329611 752.705701 1036.679464 728.579513 C 990.296986 716.286647 943.914508 704.568213 897.53203 692.620006 L 758.269789 657.694478 L 618.663123 623.458269 L 548.85979 606.799711 L 513.958123 598.412989 L 478.941649 590.25604 C 385.717461 568.312698 292.378464 547.058676 198.580236 527.29818 C 290.771151 553.607212 383.30649 578.307833 475.956638 602.548907 L 510.628688 611.624949 L 545.415546 620.586104 L 614.989263 638.393528 L 754.366313 673.433943 L 893.858171 707.555265 C 940.470265 718.584379 986.967551 729.958153 1033.579645 740.757494 C 1126.803833 762.700835 1220.142829 783.954858 1313.941058 803.83024 Z M 1313.941058 803.83024 " stroke="#000000" stroke-width="1" stroke-opacity="1" stroke-miterlimit="10"/><path stroke-linecap="butt" transform="matrix(0.0340242, 0, 0, 0.0340009, 11.266911, -4.233309)" fill-opacity="1" fill="#e5e1d3" fill-rule="nonzero" stroke-linejoin="miter" d="M 1313.596633 846.568058 C 1221.520526 820.259025 1128.985187 795.443518 1036.335039 771.317331 C 990.06737 759.024464 943.570084 747.30603 897.187606 735.357823 L 757.925364 700.432295 L 618.433507 666.196086 L 548.515365 649.537528 L 513.613699 641.150806 L 478.597224 632.993857 C 385.373036 611.050515 292.03404 589.796493 198.35062 570.035997 C 290.426726 596.34503 382.962066 621.04565 475.612213 645.286724 L 510.399072 654.362766 L 545.18593 663.323921 L 614.644839 681.131345 L 754.021889 716.17176 L 893.513746 750.293082 C 940.12584 761.322196 986.623126 772.69597 1033.23522 783.495311 C 1126.459409 805.438653 1219.913213 826.692675 1313.596633 846.568058 Z M 1313.596633 846.568058 " stroke="#000000" stroke-width="1" stroke-opacity="1" stroke-miterlimit="10"/><path stroke-linecap="butt" transform="matrix(0.0340242, 0, 0, 0.0340009, 11.266911, -4.233309)" fill-opacity="1" fill="#e5e1d3" fill-rule="nonzero" stroke-linejoin="miter" d="M 1313.252209 893.90134 C 1221.176102 867.592307 1128.640763 842.891686 1035.990615 818.650613 C 989.722945 806.357746 943.225659 794.754199 896.843182 782.805991 L 757.58094 747.765577 L 618.089082 713.644255 L 548.170941 696.87081 L 513.269275 688.598975 L 478.2528 680.327139 C 385.028612 658.498684 291.689616 637.129775 198.006195 617.369279 C 290.082302 643.678312 382.617642 668.493818 475.267789 692.620006 L 510.054647 701.696048 L 544.726698 710.657203 L 614.300414 728.464627 L 753.677464 763.505042 L 893.169322 797.626364 C 939.781416 808.770364 986.278702 820.144138 1032.890796 830.828593 C 1126.114984 852.771935 1219.568789 874.140843 1313.252209 893.90134 Z M 1313.252209 893.90134 " stroke="#000000" stroke-width="1" stroke-opacity="1" stroke-miterlimit="10"/><path stroke-linecap="butt" transform="matrix(0.0340242, 0, 0, 0.0340009, 11.266911, -4.233309)" fill-opacity="1" fill="#f04d6e" fill-rule="nonzero" stroke-linejoin="miter" d="M 448.402691 594.966391 L 361.952181 572.448616 C 361.952181 572.448616 348.519632 622.07963 360.344868 662.060169 L 393.754029 634.487383 L 424.522603 676.306108 C 424.522603 676.306108 425.32626 611.969608 448.402691 594.966391 Z M 448.402691 594.966391 " stroke="#000000" stroke-width="1" stroke-opacity="1" stroke-miterlimit="10"/><path stroke-linecap="butt" transform="matrix(0.0340242, 0, 0, 0.0340009, 11.266911, -4.233309)" fill-opacity="1" fill="#f04d6e" fill-rule="nonzero" stroke-linejoin="miter" d="M 994.31527 771.547104 L 907.29072 751.212175 C 907.29072 751.212175 893.972979 800.038982 905.798215 840.019521 L 939.207376 812.446736 L 969.97595 854.26546 C 969.97595 854.26546 971.124031 788.550322 994.31527 771.547104 Z M 994.31527 771.547104 " stroke="#000000" stroke-width="1" stroke-opacity="1" stroke-miterlimit="10"/><g mask="url(#6e49491cb2)"><g transform="matrix(1, 0, 0, 1, 70, 19)"><g clip-path="url(#0c72f24698)"><g clip-path="url(#1dbe74ea91)"><path stroke-linecap="butt" transform="matrix(0.0340242, 0, 0, 0.0340009, -58.733088, -23.233308)" fill-opacity="1" fill="#010101" fill-rule="nonzero" stroke-linejoin="miter" d="M 1865.708816 709.738082 L 1903.251069 728.694372 L 1747.112035 784.759036 Z M 1865.708816 709.738082 " stroke="#000000" stroke-width="1" stroke-opacity="1" stroke-miterlimit="10"/></g></g></g></g></svg>