<svg xmlns="http://www.w3.org/2000/svg" xmlns:xlink="http://www.w3.org/1999/xlink" width="120" zoomAndPan="magnify" viewBox="0 0 90 60" height="80" preserveAspectRatio="xMidYMid meet" version="1.0"><defs><clipPath id="a3d31f57d0"><path d="M 56.933594 1.296875 L 75.597656 1.296875 L 75.597656 9.425781 L 56.933594 9.425781 Z M 56.933594 1.296875 " clip-rule="nonzero"/></clipPath><clipPath id="f4526efa23"><path d="M 14.113281 44 L 20 44 L 20 57 L 14.113281 57 Z M 14.113281 44 " clip-rule="nonzero"/></clipPath><clipPath id="e517402a45"><path d="M 25.410156 46.300781 L 28.425781 46.300781 L 28.425781 60 L 25.410156 60 Z M 25.410156 46.300781 " clip-rule="nonzero"/></clipPath></defs><path fill="#cc936d" d="M 28.363281 30.542969 L 25.074219 30.542969 L 25.074219 45.410156 L 26.597656 45.410156 L 28.363281 30.542969 " fill-opacity="1" fill-rule="nonzero"/><path fill="#cc936d" d="M 64.898438 30.542969 L 66.664062 53.113281 L 68.183594 53.113281 L 68.183594 30.542969 L 64.898438 30.542969 " fill-opacity="1" fill-rule="nonzero"/><path fill="#c18963" d="M 61.609375 35.625 L 31.648438 35.625 C 31.121094 35.625 30.695312 35.199219 30.695312 34.667969 L 30.695312 32.035156 L 62.5625 32.035156 L 62.5625 34.667969 C 62.5625 35.199219 62.136719 35.625 61.609375 35.625 " fill-opacity="1" fill-rule="nonzero"/><path fill="#cc936d" d="M 61.011719 33.109375 L 32.308594 33.109375 C 32.15625 33.109375 32.035156 33.234375 32.035156 33.386719 L 32.035156 34.46875 C 32.035156 34.621094 32.15625 34.746094 32.308594 34.746094 L 61.011719 34.746094 C 61.164062 34.746094 61.285156 34.621094 61.285156 34.46875 L 61.285156 33.386719 C 61.285156 33.234375 61.164062 33.109375 61.011719 33.109375 " fill-opacity="1" fill-rule="nonzero"/><path fill="#cc936d" d="M 68.183594 32.460938 L 25.074219 32.460938 L 25.074219 29.742188 L 68.183594 29.742188 L 68.183594 32.460938 " fill-opacity="1" fill-rule="nonzero"/><path fill="#dba37d" d="M 69.949219 31.289062 L 23.3125 31.289062 C 23.230469 31.289062 23.167969 31.222656 23.167969 31.144531 L 23.167969 28.714844 C 23.167969 28.632812 23.230469 28.566406 23.3125 28.566406 L 69.949219 28.566406 C 70.027344 28.566406 70.09375 28.632812 70.09375 28.714844 L 70.09375 31.144531 C 70.09375 31.222656 70.027344 31.289062 69.949219 31.289062 " fill-opacity="1" fill-rule="nonzero"/><path fill="#ffd599" d="M 65.824219 28.578125 L 64.820312 28.578125 C 64.675781 28.578125 64.5625 28.460938 64.5625 28.316406 L 64.5625 20.40625 C 64.5625 20.261719 64.675781 20.144531 64.820312 20.144531 L 65.824219 20.144531 C 65.96875 20.144531 66.082031 20.261719 66.082031 20.40625 L 66.082031 28.316406 C 66.082031 28.460938 65.96875 28.578125 65.824219 28.578125 " fill-opacity="1" fill-rule="nonzero"/><path fill="#fcce90" d="M 69.785156 28.203125 L 68.832031 28.503906 C 68.695312 28.550781 68.546875 28.472656 68.503906 28.332031 L 66.160156 20.785156 C 66.117188 20.644531 66.191406 20.5 66.328125 20.453125 L 67.285156 20.152344 C 67.421875 20.109375 67.570312 20.1875 67.613281 20.328125 L 69.957031 27.875 C 70 28.015625 69.925781 28.160156 69.785156 28.203125 " fill-opacity="1" fill-rule="nonzero"/><path fill="#ffd599" d="M 43 13.066406 C 43.746094 12.824219 44.152344 12.019531 43.910156 11.273438 C 43.671875 10.53125 42.871094 10.121094 42.128906 10.363281 C 41.386719 10.609375 40.980469 11.410156 41.21875 12.15625 C 41.460938 12.902344 42.257812 13.308594 43 13.066406 Z M 43.902344 15.175781 L 43.519531 15.300781 C 43.398438 15.339844 43.261719 15.300781 43.183594 15.199219 L 42.878906 14.835938 C 42.511719 14.875 42.144531 14.84375 41.796875 14.753906 L 41.445312 15.0625 C 41.351562 15.148438 41.210938 15.164062 41.097656 15.105469 L 40.742188 14.925781 C 40.625 14.867188 40.558594 14.742188 40.570312 14.613281 L 40.613281 14.15625 C 40.328125 13.925781 40.078125 13.640625 39.886719 13.3125 L 39.441406 13.28125 C 39.3125 13.273438 39.203125 13.1875 39.164062 13.066406 L 39.039062 12.683594 C 39 12.558594 39.039062 12.425781 39.136719 12.34375 L 39.46875 12.0625 C 39.425781 11.675781 39.460938 11.289062 39.554688 10.921875 L 39.273438 10.597656 C 39.1875 10.5 39.171875 10.359375 39.230469 10.246094 L 39.410156 9.886719 C 39.46875 9.773438 39.589844 9.703125 39.71875 9.714844 L 40.140625 9.753906 C 40.378906 9.457031 40.671875 9.199219 41.015625 9 L 41.042969 8.578125 C 41.050781 8.449219 41.136719 8.339844 41.257812 8.296875 L 41.640625 8.175781 C 41.761719 8.132812 41.894531 8.171875 41.976562 8.273438 L 42.25 8.601562 C 42.636719 8.5625 43.023438 8.597656 43.386719 8.695312 L 43.710938 8.410156 C 43.808594 8.324219 43.945312 8.308594 44.0625 8.367188 L 44.417969 8.550781 C 44.53125 8.605469 44.597656 8.730469 44.589844 8.859375 L 44.546875 9.304688 C 44.832031 9.539062 45.078125 9.828125 45.269531 10.160156 L 45.71875 10.191406 C 45.847656 10.199219 45.957031 10.285156 45.996094 10.40625 L 46.121094 10.789062 C 46.160156 10.914062 46.121094 11.046875 46.023438 11.128906 L 45.664062 11.429688 C 45.699219 11.800781 45.667969 12.167969 45.574219 12.519531 L 45.886719 12.875 C 45.96875 12.972656 45.988281 13.113281 45.929688 13.226562 L 45.746094 13.585938 C 45.6875 13.703125 45.566406 13.769531 45.441406 13.757812 L 44.964844 13.714844 C 44.738281 13.992188 44.464844 14.230469 44.148438 14.417969 L 44.117188 14.894531 C 44.109375 15.023438 44.023438 15.132812 43.902344 15.175781 " fill-opacity="1" fill-rule="nonzero"/><path fill="#ffd599" d="M 64.027344 16.238281 C 64.425781 16.109375 64.644531 15.675781 64.515625 15.277344 C 64.386719 14.875 63.957031 14.65625 63.558594 14.789062 C 63.15625 14.917969 62.9375 15.347656 63.066406 15.75 C 63.195312 16.152344 63.625 16.371094 64.027344 16.238281 Z M 64.507812 17.375 L 64.304688 17.441406 C 64.238281 17.460938 64.167969 17.441406 64.121094 17.386719 L 63.960938 17.191406 C 63.761719 17.210938 63.566406 17.195312 63.378906 17.144531 L 63.191406 17.3125 C 63.136719 17.359375 63.0625 17.367188 63.003906 17.335938 L 62.808594 17.238281 C 62.75 17.207031 62.710938 17.140625 62.71875 17.070312 L 62.742188 16.824219 C 62.585938 16.703125 62.453125 16.550781 62.351562 16.371094 L 62.109375 16.355469 C 62.042969 16.351562 61.984375 16.304688 61.960938 16.238281 L 61.894531 16.03125 C 61.875 15.96875 61.894531 15.894531 61.949219 15.851562 L 62.128906 15.699219 C 62.105469 15.492188 62.121094 15.285156 62.171875 15.085938 L 62.019531 14.910156 C 61.976562 14.859375 61.964844 14.785156 61.996094 14.722656 L 62.097656 14.53125 C 62.125 14.46875 62.191406 14.429688 62.261719 14.4375 L 62.488281 14.460938 C 62.617188 14.300781 62.773438 14.160156 62.957031 14.054688 L 62.972656 13.824219 C 62.976562 13.757812 63.023438 13.699219 63.089844 13.675781 L 63.292969 13.609375 C 63.359375 13.589844 63.429688 13.609375 63.472656 13.660156 L 63.621094 13.839844 C 63.832031 13.816406 64.035156 13.835938 64.230469 13.890625 L 64.410156 13.734375 C 64.460938 13.691406 64.535156 13.679688 64.59375 13.710938 L 64.789062 13.8125 C 64.847656 13.84375 64.882812 13.90625 64.878906 13.976562 L 64.855469 14.21875 C 65.011719 14.34375 65.140625 14.496094 65.246094 14.675781 L 65.488281 14.695312 C 65.554688 14.699219 65.613281 14.746094 65.636719 14.808594 L 65.703125 15.015625 C 65.722656 15.082031 65.703125 15.15625 65.648438 15.199219 L 65.457031 15.359375 C 65.476562 15.558594 65.460938 15.757812 65.410156 15.945312 L 65.578125 16.136719 C 65.621094 16.191406 65.632812 16.265625 65.601562 16.324219 L 65.503906 16.519531 C 65.46875 16.582031 65.40625 16.617188 65.335938 16.613281 L 65.082031 16.585938 C 64.960938 16.734375 64.8125 16.863281 64.640625 16.964844 L 64.625 17.222656 C 64.621094 17.292969 64.574219 17.351562 64.507812 17.375 " fill-opacity="1" fill-rule="nonzero"/><path fill="#ffd599" d="M 49.957031 3.042969 C 49.957031 4.722656 48.601562 6.082031 46.933594 6.082031 C 45.265625 6.082031 43.910156 4.722656 43.910156 3.042969 C 43.910156 1.363281 45.265625 0 46.933594 0 C 48.601562 0 49.957031 1.363281 49.957031 3.042969 " fill-opacity="1" fill-rule="nonzero"/><path fill="#ffedca" d="M 46.933594 1.867188 C 46.933594 1.867188 47.699219 1.292969 48.792969 1.820312 L 48.792969 4.363281 C 47.699219 3.835938 46.933594 4.414062 46.933594 4.414062 L 46.933594 1.867188 " fill-opacity="1" fill-rule="nonzero"/><path fill="#ffedd0" d="M 46.933594 1.867188 C 46.933594 1.867188 46.171875 1.292969 45.074219 1.820312 L 45.074219 4.363281 C 46.171875 3.835938 46.933594 4.414062 46.933594 4.414062 L 46.933594 1.867188 " fill-opacity="1" fill-rule="nonzero"/><path fill="#ffd599" d="M 38.578125 19.941406 C 38.578125 21.152344 37.605469 22.128906 36.402344 22.128906 C 35.203125 22.128906 34.230469 21.152344 34.230469 19.941406 C 34.230469 18.734375 35.203125 17.753906 36.402344 17.753906 C 37.605469 17.753906 38.578125 18.734375 38.578125 19.941406 " fill-opacity="1" fill-rule="nonzero"/><path fill="#ffedd0" d="M 37.542969 19.644531 L 36.1875 18.859375 C 35.960938 18.726562 35.675781 18.890625 35.675781 19.15625 L 35.675781 20.730469 C 35.675781 20.992188 35.960938 21.15625 36.1875 21.023438 L 37.542969 20.238281 C 37.769531 20.105469 37.769531 19.777344 37.542969 19.644531 " fill-opacity="1" fill-rule="nonzero"/><path fill="#ffd599" d="M 74.632812 13.558594 C 74.632812 15.238281 73.28125 16.601562 71.609375 16.601562 C 69.941406 16.601562 68.589844 15.238281 68.589844 13.558594 C 68.589844 11.878906 69.941406 10.519531 71.609375 10.519531 C 73.28125 10.519531 74.632812 11.878906 74.632812 13.558594 " fill-opacity="1" fill-rule="nonzero"/><path fill="#ffedd0" d="M 70.886719 13.648438 C 70.886719 13.917969 70.671875 14.136719 70.40625 14.136719 C 70.136719 14.136719 69.921875 13.917969 69.921875 13.648438 C 69.921875 13.382812 70.136719 13.164062 70.40625 13.164062 C 70.671875 13.164062 70.886719 13.382812 70.886719 13.648438 " fill-opacity="1" fill-rule="nonzero"/><path fill="#ffedd0" d="M 72.867188 12.546875 C 72.867188 12.8125 72.652344 13.03125 72.382812 13.03125 C 72.117188 13.03125 71.902344 12.8125 71.902344 12.546875 C 71.902344 12.277344 72.117188 12.0625 72.382812 12.0625 C 72.652344 12.0625 72.867188 12.277344 72.867188 12.546875 " fill-opacity="1" fill-rule="nonzero"/><path fill="#ffedd0" d="M 72.867188 14.753906 C 72.867188 15.019531 72.652344 15.238281 72.382812 15.238281 C 72.117188 15.238281 71.902344 15.019531 71.902344 14.753906 C 71.902344 14.484375 72.117188 14.269531 72.382812 14.269531 C 72.652344 14.269531 72.867188 14.484375 72.867188 14.753906 " fill-opacity="1" fill-rule="nonzero"/><path fill="#ffedd0" d="M 70.867188 13.652344 C 70.851562 13.652344 70.835938 13.644531 70.824219 13.628906 C 70.808594 13.601562 70.816406 13.570312 70.839844 13.554688 L 71.972656 12.816406 C 71.996094 12.796875 72.03125 12.804688 72.046875 12.832031 C 72.0625 12.855469 72.054688 12.886719 72.03125 12.902344 L 70.898438 13.644531 C 70.886719 13.648438 70.878906 13.652344 70.867188 13.652344 " fill-opacity="1" fill-rule="nonzero"/><path fill="#ffedd0" d="M 71.972656 14.566406 C 71.964844 14.566406 71.953125 14.566406 71.941406 14.558594 L 70.84375 13.800781 C 70.820312 13.785156 70.8125 13.75 70.832031 13.726562 C 70.847656 13.703125 70.878906 13.695312 70.90625 13.714844 L 72.003906 14.46875 C 72.027344 14.488281 72.035156 14.519531 72.015625 14.542969 C 72.007812 14.558594 71.988281 14.566406 71.972656 14.566406 " fill-opacity="1" fill-rule="nonzero"/><path fill="#264177" d="M 53.113281 28.230469 L 51.414062 28.230469 L 51.414062 25.925781 L 53.113281 25.925781 L 53.113281 28.230469 " fill-opacity="1" fill-rule="nonzero"/><path fill="#355093" d="M 55.765625 28.566406 L 48.757812 28.566406 L 48.757812 28.230469 C 48.757812 28 48.945312 27.8125 49.175781 27.8125 L 55.347656 27.8125 C 55.578125 27.8125 55.765625 28 55.765625 28.230469 L 55.765625 28.566406 " fill-opacity="1" fill-rule="nonzero"/><path fill="#1c2a4c" d="M 62.75 26.378906 L 42.707031 26.378906 C 42.222656 26.378906 41.832031 25.988281 41.832031 25.5 L 41.832031 12.535156 C 41.832031 12.046875 42.222656 11.652344 42.707031 11.652344 L 62.75 11.652344 C 63.230469 11.652344 63.625 12.046875 63.625 12.535156 L 63.625 25.5 C 63.625 25.988281 63.230469 26.378906 62.75 26.378906 " fill-opacity="1" fill-rule="nonzero"/><path fill="#355093" d="M 63.023438 25.925781 L 63.023438 12.109375 C 63.023438 11.859375 62.820312 11.652344 62.570312 11.652344 L 42.707031 11.652344 C 42.222656 11.652344 41.832031 12.046875 41.832031 12.535156 L 41.832031 25.5 C 41.832031 25.984375 42.222656 26.378906 42.707031 26.378906 L 62.570312 26.378906 C 62.820312 26.378906 63.023438 26.175781 63.023438 25.925781 " fill-opacity="1" fill-rule="nonzero"/><path fill="#c1eeff" d="M 61.816406 25.609375 L 42.992188 25.609375 C 42.722656 25.609375 42.5 25.390625 42.5 25.117188 L 42.5 12.671875 C 42.5 12.398438 42.722656 12.179688 42.992188 12.179688 L 61.816406 12.179688 C 62.085938 12.179688 62.304688 12.398438 62.304688 12.671875 L 62.304688 25.117188 C 62.304688 25.390625 62.085938 25.609375 61.816406 25.609375 " fill-opacity="1" fill-rule="nonzero"/><path fill="#b2e9ff" d="M 50.972656 21.375 L 43.472656 21.375 C 43.378906 21.375 43.300781 21.296875 43.300781 21.203125 L 43.300781 20.789062 C 43.300781 20.691406 43.378906 20.613281 43.472656 20.613281 L 50.972656 20.613281 C 51.070312 20.613281 51.144531 20.691406 51.144531 20.789062 L 51.144531 21.203125 C 51.144531 21.296875 51.070312 21.375 50.972656 21.375 " fill-opacity="1" fill-rule="nonzero"/><path fill="#b2e9ff" d="M 50.972656 22.644531 L 43.472656 22.644531 C 43.375 22.644531 43.300781 22.566406 43.300781 22.46875 L 43.300781 22.054688 C 43.300781 21.960938 43.375 21.882812 43.472656 21.882812 L 50.972656 21.882812 C 51.070312 21.882812 51.144531 21.960938 51.144531 22.054688 L 51.144531 22.46875 C 51.144531 22.566406 51.070312 22.644531 50.972656 22.644531 " fill-opacity="1" fill-rule="nonzero"/><path fill="#ffffff" d="M 50.972656 20.019531 L 43.472656 20.019531 C 43.375 20.019531 43.300781 19.941406 43.300781 19.84375 L 43.300781 13.203125 C 43.300781 13.109375 43.375 13.03125 43.472656 13.03125 L 50.972656 13.03125 C 51.070312 13.03125 51.144531 13.109375 51.144531 13.203125 L 51.144531 19.84375 C 51.144531 19.941406 51.070312 20.019531 50.972656 20.019531 " fill-opacity="1" fill-rule="nonzero"/><path fill="#b2e9ff" d="M 44.964844 16.585938 L 45.507812 15.304688 L 46.054688 16.585938 Z M 45.84375 14.4375 C 45.816406 14.367188 45.777344 14.316406 45.71875 14.277344 C 45.664062 14.238281 45.605469 14.21875 45.539062 14.21875 C 45.46875 14.210938 45.40625 14.230469 45.34375 14.269531 C 45.285156 14.308594 45.242188 14.367188 45.210938 14.4375 L 43.855469 17.714844 C 43.84375 17.75 43.839844 17.785156 43.839844 17.816406 C 43.839844 17.898438 43.863281 17.964844 43.910156 18.019531 C 43.957031 18.074219 44.03125 18.101562 44.128906 18.101562 C 44.191406 18.101562 44.246094 18.082031 44.300781 18.042969 C 44.351562 18.007812 44.390625 17.953125 44.417969 17.882812 L 44.699219 17.214844 L 46.324219 17.214844 L 46.605469 17.878906 C 46.632812 17.945312 46.675781 18 46.726562 18.042969 C 46.78125 18.082031 46.839844 18.101562 46.90625 18.101562 C 46.980469 18.101562 47.050781 18.074219 47.113281 18.015625 C 47.175781 17.957031 47.210938 17.878906 47.210938 17.78125 C 47.210938 17.738281 47.199219 17.695312 47.183594 17.648438 L 45.84375 14.4375 " fill-opacity="1" fill-rule="nonzero"/><path fill="#b2e9ff" d="M 49.683594 17.078125 C 49.617188 17.21875 49.523438 17.328125 49.402344 17.40625 C 49.28125 17.488281 49.144531 17.527344 48.984375 17.527344 C 48.828125 17.527344 48.691406 17.488281 48.570312 17.40625 C 48.449219 17.328125 48.355469 17.21875 48.289062 17.078125 C 48.222656 16.9375 48.1875 16.785156 48.1875 16.613281 C 48.1875 16.4375 48.222656 16.28125 48.289062 16.140625 C 48.355469 16.003906 48.449219 15.894531 48.570312 15.8125 C 48.691406 15.734375 48.828125 15.691406 48.984375 15.691406 C 49.144531 15.691406 49.28125 15.734375 49.402344 15.8125 C 49.523438 15.894531 49.617188 16.003906 49.683594 16.140625 C 49.75 16.28125 49.785156 16.4375 49.785156 16.613281 C 49.785156 16.785156 49.75 16.9375 49.683594 17.078125 Z M 50.316406 15.183594 C 50.253906 15.121094 50.175781 15.089844 50.082031 15.089844 C 49.988281 15.089844 49.910156 15.121094 49.847656 15.1875 C 49.785156 15.25 49.757812 15.328125 49.757812 15.425781 L 49.757812 15.429688 C 49.722656 15.402344 49.6875 15.371094 49.648438 15.34375 C 49.554688 15.269531 49.441406 15.207031 49.308594 15.160156 C 49.179688 15.113281 49.035156 15.089844 48.878906 15.089844 C 48.636719 15.089844 48.414062 15.15625 48.214844 15.285156 C 48.015625 15.414062 47.859375 15.59375 47.738281 15.820312 C 47.621094 16.050781 47.5625 16.3125 47.5625 16.613281 C 47.5625 16.910156 47.621094 17.171875 47.738281 17.398438 C 47.859375 17.625 48.019531 17.804688 48.222656 17.933594 C 48.425781 18.066406 48.652344 18.128906 48.902344 18.128906 C 49.039062 18.128906 49.167969 18.105469 49.285156 18.0625 C 49.402344 18.015625 49.503906 17.960938 49.59375 17.894531 C 49.65625 17.84375 49.710938 17.796875 49.757812 17.746094 C 49.757812 17.839844 49.789062 17.917969 49.847656 17.980469 C 49.910156 18.042969 49.988281 18.074219 50.082031 18.074219 C 50.175781 18.074219 50.253906 18.042969 50.316406 17.980469 C 50.378906 17.914062 50.410156 17.835938 50.410156 17.742188 L 50.410156 15.425781 C 50.410156 15.324219 50.378906 15.246094 50.316406 15.183594 " fill-opacity="1" fill-rule="nonzero"/><path fill="#8c4949" d="M 59.402344 13.625 C 59.402344 13.625 59.148438 15.097656 59.789062 15.351562 L 59.789062 16.871094 L 56.816406 16.871094 L 56.816406 15.511719 C 56.816406 15.511719 57.734375 15.488281 57.734375 14.5 L 59.402344 13.625 " fill-opacity="1" fill-rule="nonzero"/><path fill="#723333" d="M 57.613281 15.035156 C 58.425781 14.886719 59.019531 14.246094 59.386719 13.632812 L 57.734375 14.5 C 57.734375 14.726562 57.683594 14.898438 57.613281 15.035156 " fill-opacity="1" fill-rule="nonzero"/><path fill="#8c4949" d="M 58.410156 10.167969 C 57.519531 10.0625 56.710938 10.695312 56.582031 11.589844 C 56.5 12.132812 56.410156 12.839844 56.382812 13.304688 C 56.339844 14.15625 56.589844 14.984375 57.847656 14.753906 C 59.105469 14.523438 59.835938 13.121094 60.019531 12.453125 C 60.203125 11.785156 59.789062 10.359375 58.464844 10.175781 C 58.445312 10.171875 58.425781 10.171875 58.410156 10.167969 " fill-opacity="1" fill-rule="nonzero"/><path fill="#212851" d="M 58.433594 10.8125 C 58.433594 10.8125 58.050781 11.273438 57.703125 11.410156 C 57.351562 11.546875 57.304688 11.730469 57.121094 11.871094 C 56.941406 12.007812 56.40625 12.132812 56.316406 11.929688 C 56.222656 11.730469 56.300781 10.519531 57.046875 10.058594 C 57.792969 9.601562 58.675781 9.675781 59.074219 10.046875 C 59.074219 10.046875 59.773438 10.089844 60.125 10.582031 C 60.476562 11.074219 60.550781 11.671875 60.382812 12.269531 C 60.21875 12.867188 60.003906 13.203125 60.15625 13.757812 C 60.308594 14.308594 60.523438 14.753906 60.246094 14.753906 C 59.988281 14.753906 59.644531 14.90625 59.429688 14.816406 C 59.40625 14.808594 59.390625 14.789062 59.390625 14.765625 C 59.363281 14.59375 59.261719 13.832031 59.300781 13.34375 C 59.347656 12.789062 58.875 12.730469 58.890625 12.316406 C 58.90625 11.902344 58.90625 11.179688 58.433594 10.8125 " fill-opacity="1" fill-rule="nonzero"/><path fill="#8c4949" d="M 59.121094 12.652344 C 59.121094 12.652344 59.425781 12.191406 59.652344 12.300781 C 59.882812 12.40625 59.820312 13.234375 59.453125 13.496094 C 59.089844 13.757812 58.84375 13.160156 59.121094 12.652344 " fill-opacity="1" fill-rule="nonzero"/><path fill="#ef5e8e" d="M 56.519531 15.652344 C 56.519531 15.652344 55.972656 15.8125 55.171875 16.847656 C 54.371094 17.882812 54.121094 18.550781 53.320312 19.308594 C 52.566406 20.023438 52.519531 20.621094 52.65625 20.875 C 52.792969 21.125 53.527344 21.933594 55.582031 20 C 57.640625 18.066406 57.503906 15.8125 56.519531 15.652344 " fill-opacity="1" fill-rule="nonzero"/><path fill="#e25088" d="M 56.183594 16.453125 C 56.183594 16.453125 55.621094 17.203125 55.339844 17.546875 C 55.058594 17.890625 54.625 18.816406 54.980469 19.753906 C 55.078125 20.003906 55.140625 20.199219 55.183594 20.355469 C 55.3125 20.246094 55.445312 20.128906 55.582031 20 C 55.894531 19.707031 56.15625 19.40625 56.371094 19.109375 L 56.183594 16.453125 " fill-opacity="1" fill-rule="nonzero"/><path fill="#e25088" d="M 54.140625 19.753906 C 54.21875 19.183594 54.125 18.730469 54.042969 18.472656 C 53.878906 18.703125 53.703125 18.921875 53.484375 19.148438 L 54.140625 19.753906 " fill-opacity="1" fill-rule="nonzero"/><path fill="#8c4949" d="M 51.070312 15.933594 C 51.070312 15.933594 50.964844 15.628906 50.796875 15.382812 C 50.628906 15.136719 50.226562 14.394531 50.15625 14.109375 C 50.089844 13.824219 50.339844 13.65625 50.5 13.808594 C 50.5 13.808594 50.652344 13.496094 50.886719 13.648438 C 50.886719 13.648438 51.03125 13.289062 51.308594 13.480469 C 51.308594 13.480469 50.902344 12.316406 51.164062 12.222656 C 51.421875 12.132812 51.769531 13.519531 51.875 13.65625 C 51.984375 13.792969 52.132812 14.039062 52.195312 14.226562 C 52.253906 14.410156 52.136719 14.890625 52.125 15.03125 C 52.109375 15.167969 52.046875 15.398438 52.09375 15.503906 L 51.070312 15.933594 " fill-opacity="1" fill-rule="nonzero"/><path fill="#723333" d="M 51.285156 14.878906 C 51.285156 14.878906 51.65625 15.003906 51.734375 14.71875 C 51.8125 14.433594 51.378906 13.652344 51.378906 13.652344 C 51.105469 13.460938 50.957031 13.820312 50.957031 13.820312 C 50.722656 13.667969 50.570312 13.980469 50.570312 13.980469 C 50.410156 13.828125 50.160156 13.996094 50.226562 14.28125 C 50.234375 14.3125 50.246094 14.351562 50.261719 14.390625 C 50.359375 14.609375 50.496094 14.878906 50.621094 15.089844 C 50.6875 15.113281 50.875 15.160156 50.902344 14.992188 C 50.902344 14.992188 51.1875 15.125 51.285156 14.878906 " fill-opacity="1" fill-rule="nonzero"/><path fill="#8c4949" d="M 51.214844 14.707031 C 51.214844 14.707031 51.585938 14.828125 51.664062 14.546875 C 51.742188 14.261719 51.308594 13.480469 51.308594 13.480469 C 51.035156 13.289062 50.886719 13.648438 50.886719 13.648438 C 50.652344 13.496094 50.5 13.808594 50.5 13.808594 C 50.339844 13.65625 50.089844 13.824219 50.15625 14.109375 C 50.199219 14.28125 50.359375 14.613281 50.519531 14.910156 C 50.523438 14.910156 50.523438 14.910156 50.523438 14.910156 C 50.523438 14.910156 50.796875 15.023438 50.832031 14.820312 C 50.832031 14.820312 51.117188 14.953125 51.214844 14.707031 " fill-opacity="1" fill-rule="nonzero"/><path fill="#723333" d="M 52.195312 14.226562 C 52.15625 14.113281 52.085938 13.976562 52.011719 13.855469 C 51.664062 13.742188 51.152344 13.597656 51.015625 13.6875 C 51.015625 13.6875 50.8125 13.894531 51.140625 14.160156 C 51.347656 14.324219 51.53125 14.503906 51.5625 14.589844 C 51.59375 14.675781 51.375 15.183594 51.710938 15.371094 L 52.207031 14.28125 C 52.203125 14.261719 52.199219 14.242188 52.195312 14.226562 " fill-opacity="1" fill-rule="nonzero"/><path fill="#8c4949" d="M 52.195312 14.003906 C 52.195312 14.003906 51.3125 13.753906 51.117188 13.71875 C 50.921875 13.683594 50.992188 14.003906 51.160156 14.109375 C 51.328125 14.214844 51.691406 14.367188 51.742188 14.429688 C 51.796875 14.492188 51.328125 15.097656 51.769531 15.578125 L 52.140625 15.488281 C 52.140625 15.488281 52.761719 14.152344 52.195312 14.003906 " fill-opacity="1" fill-rule="nonzero"/><path fill="#723333" d="M 50.832031 14.820312 L 50.75 14.632812 L 50.671875 14.441406 C 50.648438 14.378906 50.617188 14.316406 50.597656 14.25 C 50.578125 14.183594 50.558594 14.117188 50.546875 14.050781 L 50.550781 14.046875 C 50.585938 14.109375 50.613281 14.171875 50.640625 14.234375 C 50.667969 14.296875 50.6875 14.363281 50.707031 14.429688 L 50.773438 14.625 L 50.835938 14.820312 L 50.832031 14.820312 " fill-opacity="1" fill-rule="nonzero"/><path fill="#723333" d="M 51.210938 14.707031 L 51.136719 14.511719 L 51.066406 14.320312 C 51.042969 14.253906 51.015625 14.191406 50.996094 14.125 C 50.976562 14.058594 50.960938 13.992188 50.949219 13.921875 L 50.957031 13.917969 C 50.988281 13.980469 51.015625 14.042969 51.039062 14.109375 C 51.066406 14.171875 51.082031 14.242188 51.101562 14.308594 L 51.160156 14.503906 L 51.214844 14.703125 L 51.210938 14.707031 " fill-opacity="1" fill-rule="nonzero"/><path fill="#ef5e8e" d="M 52.65625 20.875 C 52.65625 20.875 52.0625 19.863281 51.765625 18.871094 C 51.46875 17.882812 50.917969 15.8125 50.917969 15.8125 C 50.917969 15.8125 51.597656 15.480469 52.214844 15.367188 C 52.214844 15.367188 52.527344 16.179688 53.007812 17.101562 C 53.488281 18.019531 54.257812 19.425781 54.121094 20.160156 C 53.984375 20.898438 52.976562 20.988281 52.65625 20.875 " fill-opacity="1" fill-rule="nonzero"/><path fill="#ef5e8e" d="M 57.234375 15.398438 C 57.234375 15.398438 56.65625 15.46875 56.519531 15.652344 C 56.382812 15.835938 55.972656 16.847656 55.628906 17.355469 C 55.285156 17.859375 55.058594 18.78125 55.195312 19.402344 C 55.332031 20.023438 55.71875 21.21875 55.652344 21.769531 C 55.582031 22.324219 55.148438 23.40625 55.195312 23.886719 L 61.09375 23.886719 C 61.09375 23.886719 60.820312 22.875 60.523438 22.300781 C 60.222656 21.726562 60.246094 20.828125 60.382812 20.367188 C 60.523438 19.90625 61.4375 16.800781 61.277344 16.066406 C 61.117188 15.328125 59.59375 15.207031 59.59375 15.207031 C 59.59375 15.207031 59.195312 16.433594 58.03125 16.433594 C 57.09375 16.433594 57.234375 15.398438 57.234375 15.398438 " fill-opacity="1" fill-rule="nonzero"/><path fill="#e25088" d="M 60.523438 22.300781 C 60.308594 21.890625 60.261719 21.316406 60.300781 20.855469 C 59.960938 20.949219 59.351562 21.128906 58.472656 21.445312 L 58.972656 23.136719 C 58.972656 23.136719 60.125 23.238281 60.878906 23.1875 C 60.777344 22.886719 60.652344 22.550781 60.523438 22.300781 " fill-opacity="1" fill-rule="nonzero"/><path fill="#e25088" d="M 60.394531 20.332031 C 60.457031 20.125 60.617188 19.582031 60.78125 18.945312 L 60.179688 17.5625 C 60.179688 17.5625 60.117188 19.183594 60.394531 20.332031 " fill-opacity="1" fill-rule="nonzero"/><path fill="#ef5e8e" d="M 60.984375 15.648438 C 60.984375 15.648438 60.226562 15.8125 60.109375 17.101562 C 59.996094 18.390625 60.660156 19.632812 60.886719 20.484375 C 61.117188 21.332031 61.5625 22.265625 62.097656 22.390625 C 62.578125 22.507812 63.152344 22.230469 62.992188 21.011719 C 62.832031 19.792969 62.097656 18.226562 61.847656 17.238281 C 61.597656 16.25 61.328125 15.695312 60.984375 15.648438 " fill-opacity="1" fill-rule="nonzero"/><path fill="#ffffff" d="M 59.667969 23.375 L 56.867188 23.941406 C 56.6875 23.980469 56.511719 23.863281 56.476562 23.679688 L 55.71875 19.890625 C 55.683594 19.710938 55.800781 19.535156 55.980469 19.5 L 58.78125 18.933594 C 58.960938 18.894531 59.136719 19.011719 59.171875 19.195312 L 59.929688 22.984375 C 59.964844 23.164062 59.847656 23.339844 59.667969 23.375 " fill-opacity="1" fill-rule="nonzero"/><path fill="#355093" d="M 58.847656 18.980469 C 58.828125 18.980469 58.808594 18.980469 58.792969 18.984375 L 55.988281 19.550781 C 55.839844 19.582031 55.742188 19.730469 55.769531 19.878906 L 56.527344 23.671875 C 56.542969 23.742188 56.585938 23.808594 56.648438 23.847656 C 56.710938 23.890625 56.785156 23.90625 56.855469 23.890625 L 59.65625 23.324219 C 59.808594 23.292969 59.90625 23.144531 59.875 22.996094 L 59.121094 19.203125 C 59.105469 19.128906 59.0625 19.066406 59 19.027344 C 58.953125 18.996094 58.902344 18.980469 58.847656 18.980469 Z M 56.800781 24.003906 C 56.726562 24.003906 56.652344 23.980469 56.589844 23.9375 C 56.503906 23.878906 56.445312 23.792969 56.425781 23.691406 L 55.667969 19.902344 C 55.625 19.691406 55.761719 19.488281 55.96875 19.445312 L 58.769531 18.878906 C 58.871094 18.859375 58.972656 18.878906 59.058594 18.9375 C 59.144531 18.996094 59.203125 19.082031 59.222656 19.183594 L 59.980469 22.972656 C 60.023438 23.183594 59.886719 23.386719 59.679688 23.429688 L 56.878906 23.996094 C 56.851562 24 56.828125 24.003906 56.800781 24.003906 " fill-opacity="1" fill-rule="nonzero"/><path fill="#8c4949" d="M 57.800781 22 C 57.800781 22 57.253906 22.070312 56.839844 21.976562 C 56.429688 21.886719 55.890625 21.867188 55.847656 22.097656 C 55.789062 22.390625 55.925781 22.484375 55.925781 22.484375 C 55.925781 22.484375 55.71875 22.679688 55.925781 22.992188 C 56.0625 23.191406 55.949219 23.335938 56.15625 23.382812 C 56.359375 23.425781 57.6875 22.921875 57.984375 22.875 L 57.800781 22 " fill-opacity="1" fill-rule="nonzero"/><path fill="#ef5e8e" d="M 62.605469 22.347656 C 62.605469 22.347656 61.984375 22.714844 61.023438 22.828125 C 60.066406 22.945312 58.25 23.015625 57.726562 23.0625 C 57.726562 23.0625 57.320312 22.511719 57.527344 21.886719 C 57.527344 21.886719 58.921875 21.539062 59.449219 21.332031 C 59.972656 21.125 61.800781 20.621094 62.398438 20.941406 C 62.992188 21.265625 62.945312 21.996094 62.605469 22.347656 " fill-opacity="1" fill-rule="nonzero"/><g clip-path="url(#a3d31f57d0)"><path fill="#cae8ff" d="M 74.941406 1.304688 L 57.585938 1.304688 C 57.226562 1.304688 56.933594 1.597656 56.933594 1.960938 L 56.933594 9.414062 L 58.613281 6.925781 L 74.941406 6.925781 C 75.304688 6.925781 75.597656 6.628906 75.597656 6.265625 L 75.597656 1.960938 C 75.597656 1.597656 75.304688 1.304688 74.941406 1.304688 " fill-opacity="1" fill-rule="nonzero"/></g><path fill="#ffffff" d="M 74.203125 3.175781 L 58.789062 3.175781 C 58.675781 3.175781 58.582031 3.078125 58.582031 2.960938 L 58.582031 2.820312 C 58.582031 2.707031 58.675781 2.609375 58.789062 2.609375 L 74.203125 2.609375 C 74.320312 2.609375 74.414062 2.707031 74.414062 2.820312 L 74.414062 2.960938 C 74.414062 3.078125 74.320312 3.175781 74.203125 3.175781 " fill-opacity="1" fill-rule="nonzero"/><path fill="#ffffff" d="M 68.789062 4.363281 L 58.789062 4.363281 C 58.675781 4.363281 58.578125 4.269531 58.578125 4.152344 L 58.578125 4.011719 C 58.578125 3.894531 58.675781 3.800781 58.789062 3.800781 L 68.789062 3.800781 C 68.902344 3.800781 69 3.894531 69 4.011719 L 69 4.152344 C 69 4.269531 68.902344 4.363281 68.789062 4.363281 " fill-opacity="1" fill-rule="nonzero"/><path fill="#ffffff" d="M 74.203125 4.363281 L 69.699219 4.363281 C 69.582031 4.363281 69.488281 4.269531 69.488281 4.152344 L 69.488281 4.011719 C 69.488281 3.894531 69.582031 3.800781 69.699219 3.800781 L 74.203125 3.800781 C 74.320312 3.800781 74.414062 3.894531 74.414062 4.011719 L 74.414062 4.152344 C 74.414062 4.269531 74.320312 4.363281 74.203125 4.363281 " fill-opacity="1" fill-rule="nonzero"/><path fill="#ffffff" d="M 63.808594 5.617188 L 58.789062 5.617188 C 58.675781 5.617188 58.578125 5.519531 58.578125 5.40625 L 58.578125 5.265625 C 58.578125 5.148438 58.675781 5.050781 58.789062 5.050781 L 63.808594 5.050781 C 63.925781 5.050781 64.019531 5.148438 64.019531 5.265625 L 64.019531 5.40625 C 64.019531 5.519531 63.925781 5.617188 63.808594 5.617188 " fill-opacity="1" fill-rule="nonzero"/><path fill="#ffffff" d="M 69.957031 5.617188 L 64.9375 5.617188 C 64.824219 5.617188 64.726562 5.519531 64.726562 5.402344 L 64.726562 5.261719 C 64.726562 5.148438 64.824219 5.050781 64.9375 5.050781 L 69.957031 5.050781 C 70.074219 5.050781 70.167969 5.148438 70.167969 5.261719 L 70.167969 5.402344 C 70.167969 5.519531 70.074219 5.617188 69.957031 5.617188 " fill-opacity="1" fill-rule="nonzero"/><path fill="#ffffff" d="M 42.5 23.59375 L 42.5 25.117188 C 42.5 25.390625 42.722656 25.609375 42.992188 25.609375 L 61.816406 25.609375 C 62.085938 25.609375 62.304688 25.390625 62.304688 25.117188 L 62.304688 23.59375 L 42.5 23.59375 " fill-opacity="1" fill-rule="nonzero"/><path fill="#e0dcda" d="M 61.527344 24.953125 L 43.308594 24.953125 C 43.230469 24.953125 43.167969 24.890625 43.167969 24.808594 L 43.167969 24.324219 C 43.167969 24.242188 43.230469 24.179688 43.308594 24.179688 L 61.527344 24.179688 C 61.605469 24.179688 61.667969 24.242188 61.667969 24.324219 L 61.667969 24.808594 C 61.667969 24.890625 61.605469 24.953125 61.527344 24.953125 " fill-opacity="1" fill-rule="nonzero"/><path fill="#9fd1f7" d="M 47.285156 24.179688 L 43.308594 24.179688 C 43.230469 24.179688 43.167969 24.242188 43.167969 24.320312 L 43.167969 24.808594 C 43.167969 24.890625 43.230469 24.953125 43.308594 24.953125 L 47.285156 24.953125 L 47.285156 24.179688 " fill-opacity="1" fill-rule="nonzero"/><path fill="#5482dd" d="M 47.609375 25.214844 L 46.519531 25.214844 C 46.4375 25.214844 46.371094 25.148438 46.371094 25.066406 L 46.371094 24.015625 C 46.371094 23.929688 46.4375 23.863281 46.519531 23.863281 L 47.609375 23.863281 C 47.691406 23.863281 47.757812 23.929688 47.757812 24.015625 L 47.757812 25.066406 C 47.757812 25.148438 47.691406 25.214844 47.609375 25.214844 " fill-opacity="1" fill-rule="nonzero"/><path fill="#f6af9a" d="M 40.117188 50.71875 C 40.117188 50.71875 41.046875 51.972656 41.523438 52.402344 C 41.523438 52.402344 43.195312 52 43.75 51.015625 C 43.75 51.015625 42.582031 50.105469 42.1875 49.253906 L 40.117188 50.71875 " fill-opacity="1" fill-rule="nonzero"/><path fill="#293463" d="M 41.734375 54.082031 C 41.734375 54.082031 41.949219 54.402344 42.082031 54.429688 C 42.210938 54.453125 43.214844 54.304688 44.117188 53.589844 C 44.695312 53.132812 45.59375 52.550781 46.390625 52.070312 C 47.183594 51.589844 48.261719 50.726562 47.96875 49.925781 L 41.734375 54.082031 " fill-opacity="1" fill-rule="nonzero"/><path fill="#e0dcda" d="M 40.726562 51.949219 C 40.726562 51.949219 40.570312 52.1875 40.675781 52.535156 C 40.78125 52.882812 41.523438 53.894531 41.734375 54.082031 C 41.949219 54.269531 43.167969 53.867188 43.804688 53.414062 C 44.4375 52.960938 45.074219 52.507812 46.003906 52 C 46.929688 51.492188 47.9375 50.746094 47.964844 50.027344 C 47.992188 49.304688 46.613281 49.679688 46.082031 49.8125 C 45.550781 49.945312 43.722656 50.242188 43.324219 50.132812 C 42.929688 50.027344 43.113281 50.453125 43.113281 50.453125 C 43.113281 50.453125 43.828125 50.828125 42.980469 51.519531 C 42.46875 51.9375 42.160156 51.972656 41.839844 51.972656 C 41.523438 51.972656 41.152344 51.761719 40.726562 51.949219 " fill-opacity="1" fill-rule="nonzero"/><path fill="#212d54" d="M 37.996094 38.289062 C 37.996094 38.289062 41.601562 46.960938 42.425781 49.332031 C 42.425781 49.332031 41.601562 50.320312 39.960938 50.988281 C 39.960938 50.988281 35.691406 46.027344 33.941406 42.773438 C 32.191406 39.515625 35.558594 37.464844 37.996094 38.289062 " fill-opacity="1" fill-rule="nonzero"/><path fill="#f6af9a" d="M 31.695312 52.421875 C 31.695312 52.421875 31.058594 54.5 30.773438 55.210938 C 30.773438 55.210938 31.480469 55.90625 32.386719 55.957031 C 33.292969 56.007812 33.445312 55.277344 33.445312 55.277344 C 33.445312 55.277344 33.863281 53.976562 34.25 53.132812 L 31.695312 52.421875 " fill-opacity="1" fill-rule="nonzero"/><path fill="#293463" d="M 29.832031 57.847656 C 29.832031 57.847656 29.832031 58.222656 29.964844 58.304688 C 30.101562 58.390625 32.335938 58.609375 34.183594 58.273438 C 36.03125 57.933594 38.773438 58.019531 38.519531 55.886719 L 29.832031 57.847656 " fill-opacity="1" fill-rule="nonzero"/><path fill="#e8e2df" d="M 31.058594 54.921875 C 31.058594 54.921875 30.570312 54.839844 30.421875 55.125 C 30.269531 55.414062 30.101562 56.039062 29.949219 56.496094 C 29.796875 56.953125 29.679688 57.644531 29.832031 57.847656 C 29.984375 58.050781 32.082031 58.238281 33.460938 58.035156 C 34.839844 57.832031 37.359375 57.613281 37.964844 57.039062 C 38.570312 56.460938 38.855469 55.617188 37.964844 55.464844 C 37.074219 55.3125 35.292969 55.367188 34.605469 55.074219 C 33.882812 54.773438 33.664062 54.621094 33.445312 55.277344 C 33.328125 55.734375 32.101562 55.835938 31.882812 55.652344 C 31.664062 55.464844 31.597656 54.941406 31.058594 54.921875 " fill-opacity="1" fill-rule="nonzero"/><path fill="#293463" d="M 39.695312 40.503906 C 39.695312 40.503906 39.507812 42.425781 37.757812 46.960938 C 36.011719 51.492188 34.609375 53.9375 34.609375 53.9375 C 34.609375 53.9375 32.355469 54.132812 31.058594 53.117188 C 31.058594 53.117188 32.457031 44.558594 33.703125 41.144531 C 34.949219 37.730469 38.660156 38.664062 39.695312 40.503906 " fill-opacity="1" fill-rule="nonzero"/><path fill="#212d54" d="M 38.632812 41.753906 L 33.449219 41.90625 C 33.085938 43.066406 32.722656 44.574219 32.390625 46.105469 C 33.816406 45.410156 37.460938 43.515625 38.632812 41.753906 " fill-opacity="1" fill-rule="nonzero"/><g clip-path="url(#f4526efa23)"><path fill="#cc936d" d="M 17.394531 44.421875 L 14.183594 56.398438 C 14.128906 56.601562 14.277344 56.800781 14.488281 56.800781 L 14.777344 56.800781 C 14.90625 56.800781 15.023438 56.71875 15.070312 56.59375 L 19.515625 45.027344 L 17.394531 44.421875 " fill-opacity="1" fill-rule="nonzero"/></g><g clip-path="url(#e517402a45)"><path fill="#cc936d" d="M 25.421875 46.554688 L 27.394531 59.730469 C 27.417969 59.886719 27.550781 60 27.707031 60 L 28.097656 60 C 28.277344 60 28.421875 59.851562 28.414062 59.671875 L 28.070312 46.308594 L 25.421875 46.554688 " fill-opacity="1" fill-rule="nonzero"/></g><path fill="#c18963" d="M 34.644531 44.917969 L 37.902344 57.71875 C 37.953125 57.917969 37.804688 58.117188 37.597656 58.117188 L 37.277344 58.117188 C 37.144531 58.117188 37.019531 58.03125 36.972656 57.910156 L 32.417969 45.632812 L 34.644531 44.917969 " fill-opacity="1" fill-rule="nonzero"/><path fill="#c18963" d="M 22.492188 46.371094 L 21.902344 55.449219 C 21.890625 55.632812 22.035156 55.789062 22.21875 55.789062 L 22.421875 55.789062 C 22.570312 55.789062 22.699219 55.6875 22.730469 55.539062 L 24.742188 46.664062 L 22.492188 46.371094 " fill-opacity="1" fill-rule="nonzero"/><path fill="#c9c3c0" d="M 16.902344 43.175781 C 16.902344 43.175781 16.9375 43.960938 17.007812 44.171875 C 17.078125 44.386719 20.4375 46.875 25.667969 46.984375 C 27.433594 46.945312 32.773438 46.269531 35.070312 45.027344 C 35.5625 44.777344 35.707031 43.640625 35.351562 42.855469 C 35 42.074219 26.199219 41.46875 26.019531 41.46875 C 25.84375 41.46875 16.902344 43.175781 16.902344 43.175781 " fill-opacity="1" fill-rule="nonzero"/><path fill="#e0dad7" d="M 25.667969 46.984375 C 27.433594 46.945312 32.773438 46.269531 35.070312 45.027344 C 35.367188 44.875 35.539062 44.398438 35.546875 43.875 C 33.40625 45.089844 29.203125 45.667969 27.894531 45.738281 C 21.144531 46.199219 16.902344 43.175781 16.902344 43.175781 C 16.902344 43.175781 16.9375 43.960938 17.007812 44.171875 C 17.078125 44.386719 20.4375 46.875 25.667969 46.984375 " fill-opacity="1" fill-rule="nonzero"/><path fill="#212d54" d="M 18.9375 40.984375 C 18.9375 40.984375 19.894531 45.117188 25.804688 44.957031 C 25.804688 44.957031 36.699219 42.371094 37.996094 38.289062 C 38.023438 38.023438 34.816406 36.503906 30.203125 36.101562 C 30.203125 36.101562 21.058594 34.796875 18.9375 40.984375 " fill-opacity="1" fill-rule="nonzero"/><path fill="#293463" d="M 22.4375 40.824219 C 22.4375 40.824219 23.3125 45.679688 27.710938 45.066406 C 32.113281 44.453125 38.632812 42.746094 39.429688 41.382812 C 40.226562 40.023438 39.429688 38.449219 36.699219 37.757812 C 33.96875 37.0625 29.78125 36.957031 27.632812 36.289062 C 25.484375 35.621094 21.882812 37.144531 22.4375 40.824219 " fill-opacity="1" fill-rule="nonzero"/><path fill="#2a8c52" d="M 19.707031 20.257812 C 19.707031 20.257812 18.5625 20.554688 17.960938 21.941406 C 17.542969 22.90625 16.335938 27.597656 16.195312 28.878906 C 16.054688 30.160156 16.089844 34.535156 16.300781 35.421875 C 16.511719 36.3125 18.597656 37.414062 18.597656 37.414062 L 19.707031 20.257812 " fill-opacity="1" fill-rule="nonzero"/><path fill="#f6af9a" d="M 22.855469 17.816406 C 22.855469 17.816406 22.945312 19.398438 22.609375 20.074219 C 22.609375 20.074219 24.359375 21.746094 27.011719 20.394531 C 27.011719 20.394531 26.90625 18.386719 27.046875 17.640625 C 27.046875 17.640625 24.128906 17.105469 22.855469 17.816406 " fill-opacity="1" fill-rule="nonzero"/><path fill="#f6af9a" d="M 25.753906 8.855469 C 25.753906 8.855469 27.699219 9.121094 28.230469 11.328125 C 28.761719 13.53125 29.769531 17.425781 28.496094 17.996094 C 27.222656 18.5625 23.527344 18.28125 22.855469 17.816406 C 22.1875 17.355469 20.613281 13.53125 21.460938 11.167969 C 22.308594 8.800781 25.261719 8.765625 25.753906 8.855469 " fill-opacity="1" fill-rule="nonzero"/><path fill="#e57e73" d="M 26.992188 18.285156 C 27.601562 18.246094 28.140625 18.152344 28.496094 17.996094 C 28.53125 17.980469 28.5625 17.960938 28.59375 17.941406 C 27.96875 17.914062 27.046875 17.640625 27.046875 17.640625 C 27.011719 17.863281 26.996094 18.101562 26.992188 18.285156 " fill-opacity="1" fill-rule="nonzero"/><path fill="#8c4949" d="M 28.210938 7.664062 C 28.210938 7.664062 29.023438 8.230469 28.742188 8.980469 C 28.460938 9.726562 28.054688 9.902344 28.335938 10.136719 C 28.617188 10.367188 28.601562 10.773438 28.355469 11.023438 C 28.105469 11.273438 28.089844 11.71875 27.453125 11.878906 C 26.816406 12.039062 26.375 13.15625 26.285156 13.675781 C 26.199219 14.1875 25.898438 15.0625 26.125 15.628906 C 26.355469 16.199219 26.074219 16.820312 25.84375 17.210938 C 25.613281 17.605469 25.523438 17.816406 25.539062 18.066406 C 25.5625 18.523438 24.902344 18.410156 23.875 18.328125 C 22.917969 18.25 22.804688 18.1875 22.546875 17.792969 C 22.414062 17.585938 22.261719 17.386719 22.101562 17.203125 C 21.511719 16.519531 19.929688 14.34375 20.683594 11.289062 C 20.808594 10.6875 21.285156 10.4375 21.285156 10.4375 C 21.285156 10.4375 21.601562 9.40625 22.628906 8.820312 C 23.652344 8.230469 25.136719 8.675781 25.828125 8.515625 C 26.515625 8.355469 26.992188 7.21875 28.210938 7.664062 " fill-opacity="1" fill-rule="nonzero"/><path fill="#1c2a4c" d="M 23.421875 8.550781 C 23.421875 8.550781 24.394531 8.695312 24.871094 10.152344 C 25.347656 11.609375 25.683594 13.976562 25.96875 14.617188 L 26.605469 14.472656 C 26.605469 14.472656 26.234375 12.875 26.164062 11.808594 C 26.089844 10.738281 25.730469 9.109375 25.058594 8.539062 C 25.058594 8.539062 24.328125 8.171875 23.421875 8.550781 " fill-opacity="1" fill-rule="nonzero"/><path fill="#1c2a4c" d="M 27.222656 14.660156 C 27.351562 15.394531 27.015625 16.070312 26.472656 16.164062 C 25.929688 16.261719 25.382812 15.742188 25.257812 15.003906 C 25.128906 14.269531 25.464844 13.597656 26.007812 13.5 C 26.550781 13.40625 27.097656 13.925781 27.222656 14.660156 " fill-opacity="1" fill-rule="nonzero"/><path fill="#264177" d="M 27.402344 14.582031 C 27.53125 15.316406 27.210938 15.988281 26.683594 16.082031 C 26.160156 16.171875 25.632812 15.652344 25.503906 14.917969 C 25.375 14.183594 25.699219 13.511719 26.222656 13.417969 C 26.746094 13.324219 27.277344 13.847656 27.402344 14.582031 " fill-opacity="1" fill-rule="nonzero"/><path fill="#355093" d="M 27.210938 14.597656 C 27.304688 15.144531 27.066406 15.640625 26.679688 15.707031 C 26.289062 15.773438 25.898438 15.390625 25.804688 14.847656 C 25.710938 14.304688 25.949219 13.808594 26.335938 13.738281 C 26.722656 13.671875 27.113281 14.054688 27.210938 14.597656 " fill-opacity="1" fill-rule="nonzero"/><path fill="#35a063" d="M 22.4375 19.699219 C 22.4375 19.699219 20.238281 20.019531 19.707031 20.257812 C 19.175781 20.5 18.039062 22.765625 17.667969 26.3125 C 17.296875 29.859375 17.296875 34.234375 17.667969 36.664062 C 18.039062 39.089844 18.59375 40.769531 18.78125 41.277344 C 18.964844 41.785156 20.636719 41.542969 21.90625 41.917969 C 23.179688 42.292969 26.8125 41.863281 28.03125 40.929688 C 29.25 39.996094 30.535156 38.988281 30.878906 36.878906 C 30.878906 36.878906 30.65625 36.664062 30.390625 35.835938 C 30.125 35.007812 29.964844 34.664062 29.832031 34.609375 C 29.832031 34.609375 29.964844 33.355469 29.886719 32.476562 C 29.808594 31.59375 30.523438 28.3125 30.683594 26.3125 C 30.839844 24.3125 31.078125 22.257812 29.570312 21.296875 C 28.132812 20.386719 27.078125 20.179688 27.078125 20.179688 C 27.078125 20.179688 23.921875 21.324219 22.4375 19.699219 " fill-opacity="1" fill-rule="nonzero"/><path fill="#2a8c52" d="M 29.882812 32.265625 C 29.890625 31.753906 30.03125 30.84375 30.191406 29.824219 L 28.070312 26.460938 C 28.070312 26.460938 28.414062 30.082031 29.882812 32.265625 " fill-opacity="1" fill-rule="nonzero"/><path fill="#2a8c52" d="M 22.785156 19.453125 C 22.785156 19.453125 22.175781 19.382812 21.734375 19.808594 C 21.734375 19.808594 22.523438 21.019531 24.625 21.214844 C 26.546875 21.394531 27.621094 20.339844 27.621094 20.339844 C 27.621094 20.339844 27.441406 20.023438 26.984375 19.667969 C 26.984375 19.667969 24.640625 21.070312 22.785156 19.453125 " fill-opacity="1" fill-rule="nonzero"/><path fill="#eae3df" d="M 43.484375 24.445312 L 38.15625 31.488281 L 31.714844 30.5 L 36.753906 23.992188 L 43.484375 24.445312 " fill-opacity="1" fill-rule="nonzero"/><path fill="#e0dad7" d="M 41.777344 25.496094 C 41.773438 25.496094 41.769531 25.496094 41.765625 25.496094 L 36.917969 25.132812 C 36.839844 25.125 36.78125 25.058594 36.789062 24.980469 C 36.792969 24.902344 36.859375 24.84375 36.9375 24.851562 L 41.789062 25.214844 C 41.867188 25.21875 41.921875 25.289062 41.917969 25.363281 C 41.914062 25.4375 41.851562 25.496094 41.777344 25.496094 " fill-opacity="1" fill-rule="nonzero"/><path fill="#e0dad7" d="M 40.972656 26.609375 C 40.96875 26.609375 40.964844 26.609375 40.960938 26.609375 L 36.109375 26.246094 C 36.035156 26.242188 35.976562 26.171875 35.980469 26.09375 C 35.988281 26.015625 36.054688 25.960938 36.132812 25.964844 L 40.980469 26.328125 C 41.058594 26.335938 41.117188 26.402344 41.113281 26.480469 C 41.105469 26.554688 41.042969 26.609375 40.972656 26.609375 " fill-opacity="1" fill-rule="nonzero"/><path fill="#e0dad7" d="M 40.140625 27.902344 C 40.136719 27.902344 40.132812 27.902344 40.132812 27.902344 L 35.28125 27.539062 C 35.203125 27.53125 35.144531 27.464844 35.152344 27.386719 C 35.15625 27.308594 35.226562 27.25 35.300781 27.257812 L 40.152344 27.621094 C 40.230469 27.625 40.289062 27.695312 40.28125 27.773438 C 40.277344 27.84375 40.214844 27.902344 40.140625 27.902344 " fill-opacity="1" fill-rule="nonzero"/><path fill="#e0dad7" d="M 39.183594 29.359375 C 39.179688 29.359375 39.175781 29.359375 39.171875 29.355469 L 34.320312 28.992188 C 34.246094 28.988281 34.1875 28.921875 34.191406 28.84375 C 34.199219 28.765625 34.265625 28.707031 34.34375 28.710938 L 39.195312 29.078125 C 39.269531 29.082031 39.328125 29.148438 39.324219 29.226562 C 39.316406 29.300781 39.257812 29.359375 39.183594 29.359375 " fill-opacity="1" fill-rule="nonzero"/><path fill="#35a063" d="M 29.566406 21.296875 C 29.566406 21.296875 28.246094 21.230469 27.789062 23.152344 C 27.328125 25.074219 28.320312 28.878906 29.910156 31.011719 C 31.5 33.148438 33.335938 34.355469 34.363281 34.070312 C 35.386719 33.789062 36.269531 31.546875 35.070312 29.734375 C 33.867188 27.917969 33.371094 26.886719 32.523438 25.003906 C 31.675781 23.117188 30.570312 21.257812 29.566406 21.296875 " fill-opacity="1" fill-rule="nonzero"/><path fill="#f6af9a" d="M 39.984375 28.84375 C 39.984375 28.84375 40.441406 28.238281 40.40625 27.777344 C 40.371094 27.3125 40.582031 26.746094 40.761719 26.28125 C 40.9375 25.820312 40.9375 25.25 41.113281 25.109375 C 41.289062 24.964844 41.679688 25.214844 41.609375 25.75 C 41.539062 26.28125 41.339844 26.628906 41.539062 26.78125 C 41.699219 26.90625 42.515625 25.683594 42.949219 25.152344 C 42.949219 25.152344 43.410156 25.464844 43.234375 25.890625 C 43.234375 25.890625 43.625 26.105469 43.445312 26.601562 C 43.445312 26.601562 43.800781 26.921875 43.515625 27.421875 C 43.515625 27.421875 43.765625 27.882812 43.515625 28.203125 C 43.269531 28.523438 42.386719 29.234375 41.960938 29.554688 C 41.539062 29.875 41.433594 30.015625 41.042969 30.371094 C 41.042969 30.371094 40.300781 29.660156 39.984375 28.84375 " fill-opacity="1" fill-rule="nonzero"/><path fill="#35a063" d="M 34.363281 34.070312 C 34.363281 34.070312 38.605469 33.75 41.679688 30.871094 C 41.679688 30.871094 41.21875 29.234375 39.984375 28.34375 C 39.984375 28.34375 38.320312 29.234375 37.261719 29.519531 C 36.199219 29.804688 34.46875 30.050781 33.726562 30.691406 C 32.984375 31.332031 32.628906 33.148438 34.363281 34.070312 " fill-opacity="1" fill-rule="nonzero"/><path fill="#e0dad7" d="M 16.511719 28.382812 C 16.511719 28.382812 15.417969 28.203125 15.3125 29.234375 C 15.203125 30.265625 15.097656 39.121094 16.902344 43.175781 C 17.183594 43.605469 18.316406 44.527344 20.824219 45.347656 C 23.335938 46.164062 26.585938 46.449219 27.894531 45.738281 C 27.894531 45.738281 26.691406 44.066406 26.199219 40.546875 C 25.703125 37.023438 25.949219 33.429688 25.914062 32.117188 C 25.878906 30.800781 25.492188 29.660156 24.007812 29.375 C 22.523438 29.09375 16.511719 28.382812 16.511719 28.382812 " fill-opacity="1" fill-rule="nonzero"/><path fill="#c9c3c0" d="M 27.890625 45.742188 L 27.894531 45.738281 C 27.894531 45.738281 26.691406 44.066406 26.199219 40.546875 C 25.703125 37.023438 25.949219 33.429688 25.914062 32.117188 C 25.878906 30.800781 25.492188 29.660156 24.007812 29.375 C 22.523438 29.09375 16.511719 28.382812 16.511719 28.382812 C 16.511719 28.382812 15.417969 28.203125 15.3125 29.234375 C 15.308594 29.261719 15.304688 29.292969 15.304688 29.328125 C 15.613281 29.195312 16.199219 29.0625 17.21875 29.164062 C 18.988281 29.339844 24.148438 29.554688 24.925781 30.976562 C 25.605469 32.21875 24.203125 41.371094 27.035156 45.527344 C 27.226562 45.804688 27.59375 45.898438 27.890625 45.742188 " fill-opacity="1" fill-rule="nonzero"/></svg>