<svg xmlns="http://www.w3.org/2000/svg" xmlns:xlink="http://www.w3.org/1999/xlink" width="120" zoomAndPan="magnify" viewBox="0 0 90 60" height="80" preserveAspectRatio="xMidYMid meet" version="1.0"><defs><clipPath id="015981c99f"><path d="M 8.136719 57 L 62 57 L 62 60 L 8.136719 60 Z M 8.136719 57 " clip-rule="nonzero"/></clipPath><clipPath id="324575d6af"><path d="M 73 28 L 83.886719 28 L 83.886719 37 L 73 37 Z M 73 28 " clip-rule="nonzero"/></clipPath></defs><path fill="#ffffff" d="M 33.671875 0.0195312 L 82 0.0195312 L 82 38.105469 L 33.671875 38.105469 Z M 33.671875 0.0195312 " fill-opacity="1" fill-rule="nonzero"/><path fill="#000000" d="M 33.671875 0.0195312 L 82 0.0195312 L 82 2.566406 L 33.671875 2.566406 Z M 33.671875 0.0195312 " fill-opacity="0.27" fill-rule="nonzero"/><path fill="#000000" d="M 36.839844 1.316406 C 36.839844 1.492188 36.777344 1.640625 36.652344 1.761719 C 36.527344 1.886719 36.378906 1.949219 36.203125 1.949219 C 36.03125 1.949219 35.882812 1.886719 35.757812 1.761719 C 35.632812 1.640625 35.570312 1.492188 35.570312 1.316406 C 35.570312 1.140625 35.632812 0.992188 35.757812 0.867188 C 35.882812 0.742188 36.03125 0.679688 36.203125 0.679688 C 36.378906 0.679688 36.527344 0.742188 36.652344 0.867188 C 36.777344 0.992188 36.839844 1.140625 36.839844 1.316406 Z M 36.839844 1.316406 " fill-opacity="0.57" fill-rule="nonzero"/><path fill="#000000" d="M 39.21875 1.316406 C 39.21875 1.492188 39.15625 1.640625 39.03125 1.761719 C 38.910156 1.886719 38.761719 1.949219 38.585938 1.949219 C 38.410156 1.949219 38.261719 1.886719 38.136719 1.761719 C 38.015625 1.640625 37.953125 1.492188 37.953125 1.316406 C 37.953125 1.140625 38.015625 0.992188 38.136719 0.867188 C 38.261719 0.742188 38.410156 0.679688 38.585938 0.679688 C 38.761719 0.679688 38.910156 0.742188 39.03125 0.867188 C 39.15625 0.992188 39.21875 1.140625 39.21875 1.316406 Z M 39.21875 1.316406 " fill-opacity="0.57" fill-rule="nonzero"/><path fill="#000000" d="M 41.585938 1.316406 C 41.585938 1.492188 41.523438 1.640625 41.402344 1.761719 C 41.277344 1.886719 41.128906 1.949219 40.953125 1.949219 C 40.777344 1.949219 40.628906 1.886719 40.503906 1.761719 C 40.382812 1.640625 40.320312 1.492188 40.320312 1.316406 C 40.320312 1.140625 40.382812 0.992188 40.503906 0.867188 C 40.628906 0.742188 40.777344 0.679688 40.953125 0.679688 C 41.128906 0.679688 41.277344 0.742188 41.402344 0.867188 C 41.523438 0.992188 41.585938 1.140625 41.585938 1.316406 Z M 41.585938 1.316406 " fill-opacity="0.57" fill-rule="nonzero"/><path fill="#f8b498" d="M 33.363281 41.945312 L 33.523438 38.445312 L 35.292969 38.535156 L 35.605469 42.105469 C 34.847656 42.058594 34.09375 42.003906 33.363281 41.945312 Z M 33.363281 41.945312 " fill-opacity="1" fill-rule="nonzero"/><path fill="#f8b498" d="M 33.785156 39.429688 C 33.785156 39.429688 32.609375 38.34375 32.917969 36.859375 L 32.203125 35.464844 C 32.09375 35.246094 32.191406 35.007812 32.429688 34.902344 C 32.6875 34.789062 33.027344 34.871094 33.191406 35.089844 L 33.78125 35.867188 L 33.769531 35.558594 C 33.746094 35.066406 33.523438 34.582031 33.132812 34.1875 L 32.023438 33.058594 C 31.898438 32.929688 31.863281 32.761719 31.933594 32.617188 C 32.066406 32.335938 32.511719 32.273438 32.789062 32.496094 L 34.460938 33.835938 C 35.105469 34.355469 35.46875 35.0625 35.449219 35.777344 L 35.359375 39.613281 Z M 33.785156 39.429688 " fill-opacity="1" fill-rule="nonzero"/><g clip-path="url(#015981c99f)"><path fill="#ffffff" d="M 8.136719 57.769531 L 61.84375 57.769531 L 61.84375 59.976562 L 8.136719 59.976562 Z M 8.136719 57.769531 " fill-opacity="1" fill-rule="nonzero"/><path fill="#000000" d="M 8.136719 57.769531 L 61.84375 57.769531 L 61.84375 59.976562 L 8.136719 59.976562 Z M 8.136719 57.769531 " fill-opacity="0.27" fill-rule="nonzero"/></g><path fill="#000000" d="M 18.648438 30.84375 L 18.28125 38.042969 L 30.15625 36.042969 L 27.484375 28.308594 Z M 18.648438 30.84375 " fill-opacity="1" fill-rule="nonzero"/><path fill="#f8b498" d="M 26.890625 36.230469 L 26.980469 41.917969 L 22.769531 41.832031 L 23.347656 33.203125 Z M 26.890625 36.230469 " fill-opacity="1" fill-rule="nonzero"/><path fill="#3f2952" d="M 22.289062 39.453125 L 19.96875 39.460938 C 18.160156 39.46875 16.40625 40.199219 15.214844 41.558594 C 14.886719 41.925781 14.613281 42.324219 14.40625 42.742188 L 9.84375 51.890625 C 9.152344 53.175781 8.949219 54.667969 9.277344 56.089844 C 9.652344 57.726562 11.160156 58.84375 12.832031 58.71875 L 27.863281 57.621094 L 30.78125 50.519531 L 33.382812 54.761719 C 34.152344 56.015625 35.523438 56.769531 36.992188 56.742188 C 38.289062 56.71875 39.386719 55.785156 39.621094 54.507812 C 39.839844 53.320312 39.78125 52.101562 39.453125 50.941406 L 36.132812 39.230469 L 32.6875 39.382812 L 35.148438 49.65625 L 31.90625 42.042969 C 31.476562 40.910156 30.03125 39.773438 28.828125 39.628906 L 28.332031 39.570312 Z M 22.289062 39.453125 " fill-opacity="1" fill-rule="nonzero"/><path fill="#000000" d="M 73.402344 13.097656 C 73.464844 13.480469 73.453125 13.863281 73.367188 14.242188 C 73.277344 14.621094 73.121094 14.96875 72.894531 15.289062 C 72.667969 15.605469 72.390625 15.867188 72.058594 16.070312 C 71.730469 16.277344 71.371094 16.414062 70.988281 16.476562 C 70.605469 16.539062 70.222656 16.527344 69.84375 16.441406 C 69.464844 16.351562 69.117188 16.195312 68.800781 15.96875 C 68.484375 15.742188 68.222656 15.464844 68.015625 15.132812 C 67.8125 14.800781 67.675781 14.445312 67.613281 14.0625 C 67.550781 13.675781 67.5625 13.292969 67.648438 12.914062 C 67.738281 12.535156 67.894531 12.1875 68.121094 11.871094 C 68.347656 11.554688 68.625 11.292969 68.953125 11.085938 C 69.285156 10.878906 69.640625 10.746094 70.027344 10.679688 C 70.410156 10.617188 70.789062 10.628906 71.167969 10.714844 C 71.550781 10.804688 71.898438 10.960938 72.214844 11.1875 C 72.53125 11.414062 72.789062 11.695312 72.996094 12.023438 C 73.203125 12.355469 73.335938 12.710938 73.402344 13.097656 Z M 73.402344 13.097656 " fill-opacity="1" fill-rule="nonzero"/><path fill="#f8b498" d="M 63.640625 13.191406 C 63.640625 13.191406 62.777344 12.722656 62.332031 13.523438 C 61.664062 14.738281 63.472656 16.433594 64.597656 15.21875 Z M 63.640625 13.191406 " fill-opacity="1" fill-rule="nonzero"/><path fill="#000000" d="M 64.015625 14.722656 C 63.992188 14.726562 63.96875 14.714844 63.953125 14.695312 C 63.386719 13.933594 63.015625 14.09375 63.011719 14.097656 C 62.984375 14.113281 62.945312 14.097656 62.929688 14.066406 C 62.914062 14.035156 62.925781 14 62.957031 13.984375 C 62.976562 13.972656 63.417969 13.761719 64.054688 14.621094 C 64.074219 14.648438 64.070312 14.691406 64.042969 14.710938 C 64.03125 14.714844 64.023438 14.71875 64.015625 14.722656 Z M 64.015625 14.722656 " fill-opacity="1" fill-rule="nonzero"/><path fill="#f8b498" d="M 71.84375 11.824219 C 71.84375 11.824219 72.507812 11.101562 73.1875 11.714844 C 74.214844 12.644531 73.050781 14.839844 71.589844 14.050781 Z M 71.84375 11.824219 " fill-opacity="1" fill-rule="nonzero"/><path fill="#000000" d="M 71.984375 13.394531 C 71.976562 13.394531 71.964844 13.394531 71.957031 13.390625 C 71.921875 13.378906 71.902344 13.34375 71.914062 13.3125 C 72.238281 12.292969 72.726562 12.347656 72.746094 12.351562 C 72.78125 12.355469 72.804688 12.390625 72.800781 12.421875 C 72.796875 12.457031 72.761719 12.480469 72.730469 12.476562 C 72.722656 12.476562 72.324219 12.449219 72.035156 13.351562 C 72.027344 13.375 72.007812 13.390625 71.984375 13.394531 Z M 71.984375 13.394531 " fill-opacity="1" fill-rule="nonzero"/><path fill="#000000" d="M 72.324219 9.65625 C 72.378906 9.972656 72.398438 10.289062 72.386719 10.605469 C 72.375 10.925781 72.332031 11.238281 72.257812 11.550781 C 72.183594 11.859375 72.078125 12.160156 71.941406 12.449219 C 71.804688 12.742188 71.644531 13.015625 71.453125 13.277344 C 71.261719 13.535156 71.046875 13.777344 70.808594 13.996094 C 70.570312 14.214844 70.316406 14.40625 70.039062 14.578125 C 69.761719 14.746094 69.46875 14.886719 69.164062 15.003906 C 68.859375 15.117188 68.546875 15.199219 68.226562 15.253906 C 67.902344 15.304688 67.578125 15.328125 67.253906 15.320312 C 66.929688 15.3125 66.609375 15.273438 66.292969 15.203125 C 65.972656 15.128906 65.667969 15.03125 65.371094 14.902344 C 65.074219 14.769531 64.796875 14.613281 64.53125 14.429688 C 64.265625 14.246094 64.023438 14.039062 63.800781 13.808594 C 63.582031 13.574219 63.382812 13.324219 63.210938 13.054688 C 63.042969 12.785156 62.898438 12.503906 62.785156 12.207031 C 62.671875 11.90625 62.589844 11.601562 62.535156 11.289062 C 62.484375 10.976562 62.464844 10.660156 62.476562 10.339844 C 62.488281 10.023438 62.53125 9.707031 62.605469 9.398438 C 62.679688 9.085938 62.785156 8.785156 62.917969 8.496094 C 63.054688 8.203125 63.21875 7.929688 63.40625 7.671875 C 63.597656 7.410156 63.8125 7.171875 64.050781 6.953125 C 64.289062 6.734375 64.546875 6.539062 64.824219 6.371094 C 65.101562 6.199219 65.390625 6.058594 65.695312 5.945312 C 66.003906 5.832031 66.316406 5.746094 66.636719 5.695312 C 66.957031 5.640625 67.28125 5.617188 67.605469 5.625 C 67.933594 5.636719 68.253906 5.675781 68.570312 5.746094 C 68.886719 5.816406 69.195312 5.917969 69.488281 6.046875 C 69.785156 6.175781 70.066406 6.332031 70.332031 6.515625 C 70.59375 6.699219 70.835938 6.910156 71.058594 7.140625 C 71.28125 7.371094 71.476562 7.621094 71.648438 7.890625 C 71.820312 8.160156 71.960938 8.445312 72.078125 8.742188 C 72.191406 9.039062 72.273438 9.34375 72.324219 9.65625 Z M 72.324219 9.65625 " fill-opacity="1" fill-rule="nonzero"/><path fill="#f8b498" d="M 66.910156 16.472656 L 66.578125 21.363281 L 69.980469 21.363281 L 69.5 16.414062 Z M 66.910156 16.472656 " fill-opacity="1" fill-rule="nonzero"/><path fill="#000000" d="M 66.871094 16.816406 C 66.988281 16.878906 69.734375 18.824219 69.734375 18.824219 L 69.5 16.414062 Z M 66.871094 16.816406 " fill-opacity="1" fill-rule="nonzero"/><path fill="#f8b498" d="M 63.234375 10.804688 C 63.234375 10.804688 63.945312 18.269531 68.429688 17.519531 C 73.277344 16.714844 71.542969 9.417969 71.542969 9.417969 C 71.542969 9.417969 70.964844 6.101562 66.800781 6.792969 C 62.984375 7.429688 63.234375 10.804688 63.234375 10.804688 Z M 63.234375 10.804688 " fill-opacity="1" fill-rule="nonzero"/><path fill="#000000" d="M 65.839844 12.980469 C 65.871094 13.175781 65.742188 13.359375 65.546875 13.390625 C 65.347656 13.425781 65.164062 13.292969 65.132812 13.097656 C 65.101562 12.902344 65.230469 12.714844 65.425781 12.683594 C 65.621094 12.652344 65.808594 12.78125 65.839844 12.980469 Z M 65.839844 12.980469 " fill-opacity="1" fill-rule="nonzero"/><path fill="#000000" d="M 69.5 12.351562 C 69.5 12.449219 69.464844 12.535156 69.394531 12.605469 C 69.328125 12.675781 69.242188 12.710938 69.144531 12.710938 C 69.042969 12.710938 68.960938 12.675781 68.890625 12.605469 C 68.820312 12.535156 68.785156 12.449219 68.785156 12.351562 C 68.785156 12.25 68.820312 12.167969 68.890625 12.097656 C 68.960938 12.027344 69.042969 11.992188 69.144531 11.992188 C 69.242188 11.992188 69.328125 12.027344 69.394531 12.097656 C 69.464844 12.167969 69.5 12.25 69.5 12.351562 Z M 69.5 12.351562 " fill-opacity="1" fill-rule="nonzero"/><path fill="#000000" d="M 67.878906 14.265625 C 67.875 14.265625 67.875 14.265625 67.875 14.265625 L 67.457031 14.328125 C 67.421875 14.332031 67.390625 14.308594 67.386719 14.277344 L 67.289062 13.699219 C 67.285156 13.667969 67.308594 13.632812 67.339844 13.628906 C 67.375 13.621094 67.40625 13.644531 67.414062 13.679688 L 67.5 14.195312 L 67.859375 14.140625 C 67.890625 14.136719 67.925781 14.160156 67.929688 14.195312 C 67.933594 14.226562 67.910156 14.261719 67.878906 14.265625 Z M 67.878906 14.265625 " fill-opacity="1" fill-rule="nonzero"/><path fill="#000000" d="M 68.953125 10.460938 C 68.953125 10.460938 68.015625 10.433594 68.054688 10.929688 C 68.054688 10.929688 68.089844 11.265625 68.90625 11.265625 C 69.71875 11.269531 70.28125 11.210938 70.324219 10.890625 C 70.367188 10.570312 69.390625 10.425781 68.953125 10.460938 Z M 68.953125 10.460938 " fill-opacity="1" fill-rule="nonzero"/><path fill="#000000" d="M 64.800781 11.199219 C 64.800781 11.199219 63.882812 11.394531 64.035156 11.867188 C 64.035156 11.867188 64.148438 12.1875 64.941406 11.996094 C 65.734375 11.808594 66.289062 11.621094 66.230469 11.265625 C 66.164062 10.855469 65.214844 11.066406 64.800781 11.199219 Z M 64.800781 11.199219 " fill-opacity="1" fill-rule="nonzero"/><path fill="#000000" d="M 62.9375 11 C 62.9375 11 65.832031 9.679688 65.71875 6.972656 C 65.71875 6.972656 62.390625 6.882812 62.9375 11 Z M 62.9375 11 " fill-opacity="1" fill-rule="nonzero"/><path fill="#000000" d="M 64.992188 7.058594 C 64.992188 7.058594 66.292969 10.496094 71.933594 9.363281 C 71.933594 9.363281 71.039062 6.25 68.113281 6.207031 C 65.191406 6.160156 64.992188 7.058594 64.992188 7.058594 Z M 64.992188 7.058594 " fill-opacity="1" fill-rule="nonzero"/><path fill="#f89a00" d="M 74.203125 33.640625 L 75.597656 38.105469 L 62.585938 38.105469 L 63.714844 33.914062 C 62.9375 30.546875 61.648438 24.984375 60.949219 22.117188 L 64.714844 21.113281 L 72.640625 21.34375 L 75.917969 22.117188 C 75.917969 22.117188 75.015625 28.652344 74.203125 33.640625 Z M 74.203125 33.640625 " fill-opacity="1" fill-rule="nonzero"/><path fill="#f8b498" d="M 68.78125 19.578125 L 72.640625 21.34375 C 72.640625 21.34375 72.421875 23.65625 68.433594 23.664062 C 65.035156 23.667969 64.71875 21.113281 64.71875 21.113281 Z M 68.78125 19.578125 " fill-opacity="1" fill-rule="nonzero"/><path fill="#f89a00" d="M 62.757812 21.953125 C 62.757812 21.953125 60.164062 21.121094 58.476562 24.875 C 56.789062 28.625 55.078125 32.914062 55.078125 32.914062 L 58.851562 33.066406 L 63.234375 26.285156 Z M 62.757812 21.953125 " fill-opacity="1" fill-rule="nonzero"/><path fill="#f8b498" d="M 46.53125 25.390625 L 45.480469 26.949219 L 48.988281 29.292969 C 49.34375 28.476562 49.675781 27.648438 49.984375 26.808594 Z M 46.53125 25.390625 " fill-opacity="1" fill-rule="nonzero"/><path fill="#f89a00" d="M 57.78125 30.011719 L 49.984375 26.8125 C 49.679688 27.648438 49.34375 28.476562 48.988281 29.292969 L 55.789062 33.839844 C 56.960938 34.589844 58.527344 34.058594 58.996094 32.746094 C 59.386719 31.65625 58.851562 30.453125 57.78125 30.011719 Z M 57.78125 30.011719 " fill-opacity="1" fill-rule="nonzero"/><path fill="#f8b498" d="M 47.167969 26.273438 C 46.96875 25.8125 46.644531 25.414062 46.230469 25.128906 L 45.828125 24.851562 C 45.289062 24.480469 44.667969 24.242188 44.019531 24.152344 L 42.875 24 C 42.601562 23.960938 42.363281 24.179688 42.371094 24.453125 C 42.378906 24.683594 42.527344 24.890625 42.746094 24.96875 L 43.894531 25.390625 L 39.734375 26.109375 C 39.53125 26.140625 39.398438 26.34375 39.453125 26.542969 L 39.492188 26.675781 C 39.535156 26.832031 39.683594 26.9375 39.847656 26.925781 L 42.664062 26.542969 L 39.488281 27.429688 C 39.289062 27.472656 39.171875 27.683594 39.238281 27.878906 L 39.269531 27.976562 C 39.328125 28.140625 39.496094 28.234375 39.667969 28.199219 L 42.515625 27.570312 L 40.457031 28.523438 C 40.257812 28.609375 40.183594 28.859375 40.3125 29.039062 L 40.339844 29.074219 C 40.425781 29.199219 40.582031 29.25 40.726562 29.203125 L 42.933594 28.367188 L 41.898438 29.058594 C 41.667969 29.167969 41.632812 29.480469 41.832031 29.636719 C 41.925781 29.714844 42.050781 29.734375 42.164062 29.691406 L 47.703125 27.511719 Z M 47.167969 26.273438 " fill-opacity="1" fill-rule="nonzero"/><g clip-path="url(#324575d6af)"><path fill="#f89a00" d="M 82.285156 32.113281 L 74.488281 28.910156 C 74.183594 29.75 73.847656 30.574219 73.492188 31.394531 L 80.292969 35.9375 C 81.464844 36.691406 83.03125 36.15625 83.5 34.847656 C 83.890625 33.757812 83.355469 32.550781 82.285156 32.113281 Z M 82.285156 32.113281 " fill-opacity="1" fill-rule="nonzero"/></g><path fill="#f89a00" d="M 74.574219 22.113281 C 74.574219 22.113281 77.167969 21.277344 78.855469 25.03125 C 80.542969 28.785156 82.75 32.328125 82.75 32.328125 L 79.121094 33.917969 L 73.851562 26.445312 Z M 74.574219 22.113281 " fill-opacity="1" fill-rule="nonzero"/><path fill="#f89a00" d="M 71.953125 21.03125 L 72.640625 21.34375 L 73.492188 21.621094 L 68.914062 30.882812 L 64.09375 21.28125 L 64.71875 21.113281 L 68.679688 25.214844 Z M 71.953125 21.03125 " fill-opacity="1" fill-rule="nonzero"/><path fill="#3f2952" d="M 66.644531 20.386719 L 68.433594 23.664062 L 69.855469 20.070312 L 71.953125 21.03125 L 68.878906 29.828125 L 64.71875 21.113281 Z M 66.644531 20.386719 " fill-opacity="1" fill-rule="nonzero"/><path fill="#000000" d="M 68.792969 32.984375 C 68.777344 32.984375 68.761719 32.976562 68.75 32.964844 L 64.996094 28.953125 C 64.984375 28.941406 64.976562 28.925781 64.976562 28.910156 C 64.980469 28.890625 64.984375 28.875 65 28.863281 L 66.472656 27.503906 L 64.273438 26.183594 C 64.257812 26.175781 64.246094 26.15625 64.246094 26.140625 L 63.566406 21.414062 C 63.5625 21.378906 63.585938 21.347656 63.621094 21.34375 C 63.65625 21.335938 63.6875 21.359375 63.691406 21.394531 L 64.367188 26.089844 L 66.613281 27.4375 C 66.628906 27.449219 66.640625 27.464844 66.640625 27.488281 C 66.644531 27.507812 66.636719 27.527344 66.621094 27.539062 L 65.128906 28.914062 L 68.796875 32.832031 L 72.46875 29.5 L 71.078125 27.121094 C 71.058594 27.09375 71.066406 27.054688 71.097656 27.035156 L 73.207031 25.707031 L 73.429688 21.617188 C 73.433594 21.585938 73.460938 21.558594 73.496094 21.558594 C 73.53125 21.5625 73.558594 21.589844 73.554688 21.625 L 73.332031 25.746094 C 73.332031 25.765625 73.320312 25.785156 73.300781 25.796875 L 71.214844 27.109375 L 72.605469 29.480469 C 72.621094 29.503906 72.617188 29.539062 72.59375 29.558594 L 68.835938 32.96875 C 68.824219 32.976562 68.808594 32.984375 68.792969 32.984375 Z M 68.792969 32.984375 " fill-opacity="1" fill-rule="nonzero"/><path fill="#f8b498" d="M 71.035156 27.492188 L 69.984375 29.050781 L 73.492188 31.394531 C 73.847656 30.574219 74.179688 29.75 74.488281 28.910156 Z M 71.035156 27.492188 " fill-opacity="1" fill-rule="nonzero"/><path fill="#f8b498" d="M 72.207031 28.921875 C 72.351562 28.4375 72.355469 27.925781 72.222656 27.441406 L 72.089844 26.972656 C 71.917969 26.339844 71.59375 25.757812 71.152344 25.269531 L 70.378906 24.417969 C 70.191406 24.214844 69.871094 24.226562 69.699219 24.441406 C 69.558594 24.625 69.539062 24.875 69.65625 25.074219 L 70.265625 26.136719 L 66.617188 24.011719 C 66.441406 23.90625 66.210938 23.976562 66.125 24.164062 L 66.066406 24.289062 C 66 24.441406 66.046875 24.617188 66.179688 24.710938 L 68.582031 26.230469 L 65.582031 24.867188 C 65.398438 24.769531 65.171875 24.855469 65.101562 25.050781 L 65.0625 25.144531 C 65 25.308594 65.070312 25.488281 65.222656 25.570312 L 67.808594 26.925781 L 65.621094 26.328125 C 65.410156 26.265625 65.195312 26.410156 65.179688 26.628906 L 65.175781 26.675781 C 65.164062 26.824219 65.25 26.964844 65.390625 27.019531 L 67.617188 27.800781 L 66.378906 27.664062 C 66.136719 27.601562 65.910156 27.816406 65.957031 28.066406 C 65.980469 28.183594 66.066406 28.28125 66.179688 28.320312 L 71.820312 30.214844 Z M 72.207031 28.921875 " fill-opacity="1" fill-rule="nonzero"/><path fill="#000000" d="M 68.792969 38.167969 C 68.757812 38.167969 68.730469 38.136719 68.730469 38.101562 L 68.816406 29.828125 C 68.816406 29.792969 68.84375 29.765625 68.878906 29.765625 C 68.914062 29.765625 68.941406 29.792969 68.941406 29.828125 L 68.855469 38.105469 C 68.855469 38.140625 68.828125 38.167969 68.792969 38.167969 Z M 68.792969 38.167969 " fill-opacity="1" fill-rule="nonzero"/><path fill="#000000" d="M 23.507812 25.644531 C 23.507812 25.644531 27.039062 23.921875 29.109375 25.21875 C 32.140625 27.125 29.179688 29.445312 29.179688 29.445312 Z M 23.507812 25.644531 " fill-opacity="1" fill-rule="nonzero"/><path fill="#000000" d="M 29.902344 29.226562 C 29.964844 29.535156 29.992188 29.847656 29.984375 30.164062 C 29.972656 30.484375 29.925781 30.800781 29.847656 31.113281 C 29.765625 31.425781 29.648438 31.734375 29.496094 32.03125 C 29.34375 32.332031 29.164062 32.617188 28.949219 32.886719 C 28.734375 33.160156 28.492188 33.414062 28.222656 33.648438 C 27.949219 33.882812 27.660156 34.09375 27.34375 34.28125 C 27.027344 34.46875 26.699219 34.632812 26.351562 34.765625 C 26.003906 34.902344 25.644531 35.003906 25.277344 35.082031 C 24.910156 35.15625 24.539062 35.203125 24.167969 35.214844 C 23.796875 35.230469 23.429688 35.214844 23.066406 35.164062 C 22.699219 35.117188 22.347656 35.039062 22.007812 34.929688 C 21.667969 34.820312 21.34375 34.683594 21.039062 34.519531 C 20.738281 34.355469 20.457031 34.164062 20.199219 33.949219 C 19.941406 33.738281 19.714844 33.5 19.515625 33.246094 C 19.316406 32.988281 19.148438 32.714844 19.015625 32.429688 C 18.882812 32.140625 18.78125 31.84375 18.71875 31.53125 C 18.65625 31.222656 18.628906 30.910156 18.636719 30.59375 C 18.648438 30.277344 18.691406 29.960938 18.773438 29.644531 C 18.855469 29.332031 18.972656 29.023438 19.125 28.726562 C 19.273438 28.425781 19.457031 28.140625 19.671875 27.871094 C 19.886719 27.597656 20.128906 27.34375 20.398438 27.109375 C 20.667969 26.875 20.960938 26.664062 21.277344 26.476562 C 21.589844 26.289062 21.921875 26.128906 22.269531 25.992188 C 22.617188 25.859375 22.976562 25.753906 23.34375 25.675781 C 23.710938 25.601562 24.078125 25.558594 24.453125 25.542969 C 24.824219 25.527344 25.191406 25.546875 25.554688 25.59375 C 25.917969 25.640625 26.269531 25.71875 26.613281 25.828125 C 26.953125 25.9375 27.273438 26.074219 27.578125 26.238281 C 27.882812 26.402344 28.164062 26.59375 28.421875 26.808594 C 28.679688 27.023438 28.90625 27.257812 29.105469 27.515625 C 29.304688 27.769531 29.472656 28.042969 29.605469 28.332031 C 29.738281 28.617188 29.835938 28.917969 29.902344 29.226562 Z M 29.902344 29.226562 " fill-opacity="1" fill-rule="nonzero"/><path fill="#000000" d="M 26.9375 39.230469 L 23.785156 35.851562 L 26.890625 36.230469 Z M 26.9375 39.230469 " fill-opacity="1" fill-rule="nonzero"/><path fill="#f8b498" d="M 28.65625 26.871094 C 29.085938 27.105469 29.410156 27.496094 29.601562 27.949219 C 30.167969 29.289062 31.222656 31.636719 31.035156 33.222656 C 30.789062 35.285156 29.507812 36.976562 26.878906 37.015625 C 26.878906 37.015625 23.785156 37.335938 22.375 33.621094 C 20.121094 27.703125 24.957031 24.855469 28.65625 26.871094 Z M 28.65625 26.871094 " fill-opacity="1" fill-rule="nonzero"/><path fill="#000000" d="M 29.144531 32.980469 C 29.109375 32.980469 29.074219 32.960938 29.0625 32.925781 C 29.042969 32.878906 29.0625 32.828125 29.109375 32.808594 L 29.457031 32.667969 C 29.480469 32.65625 29.496094 32.617188 29.480469 32.585938 L 29.121094 32.007812 C 29.097656 31.964844 29.109375 31.910156 29.152344 31.886719 C 29.191406 31.859375 29.25 31.871094 29.273438 31.914062 L 29.636719 32.5 C 29.695312 32.632812 29.648438 32.773438 29.53125 32.832031 L 29.175781 32.976562 C 29.167969 32.980469 29.15625 32.980469 29.144531 32.980469 Z M 29.144531 32.980469 " fill-opacity="1" fill-rule="nonzero"/><path fill="#000000" d="M 27.492188 31.648438 C 27.492188 31.746094 27.457031 31.832031 27.386719 31.90625 C 27.316406 31.976562 27.230469 32.011719 27.128906 32.011719 C 27.03125 32.011719 26.945312 31.976562 26.875 31.90625 C 26.804688 31.832031 26.765625 31.746094 26.765625 31.648438 C 26.765625 31.546875 26.804688 31.460938 26.875 31.390625 C 26.945312 31.320312 27.03125 31.285156 27.128906 31.285156 C 27.230469 31.285156 27.316406 31.320312 27.386719 31.390625 C 27.457031 31.460938 27.492188 31.546875 27.492188 31.648438 Z M 27.492188 31.648438 " fill-opacity="1" fill-rule="nonzero"/><path fill="#000000" d="M 29.621094 31.101562 C 29.652344 31.285156 29.828125 31.410156 30.011719 31.378906 C 30.195312 31.347656 30.316406 31.171875 30.289062 30.988281 C 30.257812 30.804688 30.082031 30.679688 29.898438 30.710938 C 29.714844 30.742188 29.59375 30.917969 29.621094 31.101562 Z M 29.621094 31.101562 " fill-opacity="1" fill-rule="nonzero"/><path fill="#000000" d="M 28.53125 34.085938 C 28.234375 34.085938 27.898438 34.015625 27.5625 33.820312 C 27.519531 33.796875 27.503906 33.742188 27.53125 33.699219 C 27.554688 33.65625 27.609375 33.640625 27.652344 33.667969 C 28.617188 34.230469 29.585938 33.609375 29.59375 33.601562 C 29.636719 33.574219 29.691406 33.585938 29.71875 33.628906 C 29.746094 33.667969 29.734375 33.726562 29.691406 33.75 C 29.664062 33.769531 29.175781 34.085938 28.53125 34.085938 Z M 28.53125 34.085938 " fill-opacity="1" fill-rule="nonzero"/><path fill="#000000" d="M 29.125 29.164062 C 29.125 29.164062 29.058594 29.589844 29.574219 29.585938 C 29.964844 29.585938 30.214844 29.578125 30.441406 29.636719 C 30.574219 29.667969 30.707031 29.601562 30.761719 29.480469 C 30.804688 29.378906 30.785156 29.265625 30.710938 29.1875 C 30.5625 29.023438 30.265625 28.789062 29.789062 28.785156 C 29.175781 28.777344 29.125 29.164062 29.125 29.164062 Z M 29.125 29.164062 " fill-opacity="1" fill-rule="nonzero"/><path fill="#000000" d="M 27.371094 29.476562 C 27.371094 29.476562 27.59375 29.855469 26.957031 30.035156 C 26.476562 30.171875 25.921875 30.457031 25.65625 30.59375 C 25.507812 30.667969 25.320312 30.652344 25.214844 30.554688 C 25.128906 30.476562 25.113281 30.363281 25.175781 30.261719 C 25.304688 30.054688 25.84375 29.523438 26.429688 29.351562 C 27.179688 29.128906 27.371094 29.476562 27.371094 29.476562 Z M 27.371094 29.476562 " fill-opacity="1" fill-rule="nonzero"/><path fill="#000000" d="M 27.285156 25.976562 C 27.285156 25.976562 28.410156 29.066406 20.648438 29.929688 C 20.648438 29.929688 19.453125 25.550781 27.285156 25.976562 Z M 27.285156 25.976562 " fill-opacity="1" fill-rule="nonzero"/><path fill="#000000" d="M 22.925781 28.878906 L 23.273438 33.589844 L 19.121094 31.113281 Z M 22.925781 28.878906 " fill-opacity="1" fill-rule="nonzero"/><path fill="#f8b498" d="M 20.542969 34.765625 C 20.996094 35.59375 22.03125 35.902344 22.859375 35.453125 C 23.6875 35 23.996094 33.964844 23.546875 33.132812 C 23.097656 32.304688 22.058594 31.996094 21.230469 32.445312 C 20.402344 32.898438 20.09375 33.933594 20.542969 34.765625 Z M 20.542969 34.765625 " fill-opacity="1" fill-rule="nonzero"/><path fill="#f8b498" d="M 21.191406 33.617188 C 21.191406 33.617188 22.246094 33.003906 22.730469 34.210938 " fill-opacity="1" fill-rule="nonzero"/><path fill="#f8b498" d="M 21.546875 39.4375 L 27.171875 39.382812 L 28.332031 39.570312 C 28.332031 39.570312 29.578125 41.730469 26.304688 41.730469 C 23.03125 41.730469 21.625 39.78125 21.546875 39.4375 Z M 21.546875 39.4375 " fill-opacity="1" fill-rule="nonzero"/><path fill="#f8b498" d="M 23.84375 57.78125 L 28.074219 56.910156 L 28.152344 54.800781 L 23.933594 54.21875 C 23.917969 54.945312 23.84375 57.78125 23.84375 57.78125 Z M 23.84375 57.78125 " fill-opacity="1" fill-rule="nonzero"/><path fill="#000000" d="M 30.78125 50.609375 C 30.773438 50.609375 30.761719 50.609375 30.753906 50.605469 C 30.707031 50.585938 30.683594 50.535156 30.699219 50.488281 C 30.703125 50.472656 31.300781 48.78125 30.96875 46.890625 C 30.636719 44.984375 30.355469 44.128906 30.351562 44.121094 C 30.335938 44.074219 30.363281 44.023438 30.410156 44.007812 C 30.453125 43.992188 30.503906 44.015625 30.519531 44.0625 C 30.523438 44.074219 30.808594 44.9375 31.144531 46.859375 C 31.484375 48.796875 30.875 50.53125 30.867188 50.550781 C 30.855469 50.585938 30.820312 50.609375 30.78125 50.609375 Z M 30.78125 50.609375 " fill-opacity="1" fill-rule="nonzero"/><path fill="#000000" d="M 28.492188 50.4375 L 28.167969 49.769531 L 28.898438 49.414062 L 29.234375 50.082031 Z M 28.492188 50.4375 " fill-opacity="1" fill-rule="nonzero"/><path fill="#000000" d="M 32.539062 58.367188 L 32.789062 58.730469 C 32.839844 58.808594 32.90625 58.78125 32.882812 58.691406 L 32.773438 58.273438 C 32.667969 58.222656 32.578125 58.265625 32.539062 58.367188 Z M 32.539062 58.367188 " fill-opacity="1" fill-rule="nonzero"/><path fill="#f89a00" d="M 32.40625 56.726562 L 32.429688 56.777344 L 32.417969 56.78125 L 32.796875 58.320312 C 32.695312 58.28125 32.605469 58.320312 32.5625 58.414062 L 31.625 57.105469 L 31.617188 57.109375 L 31.601562 57.074219 L 28.460938 50.375 L 28.832031 50.199219 L 29.207031 50.019531 Z M 32.40625 56.726562 " fill-opacity="1" fill-rule="nonzero"/><path fill="#f8b498" d="M 28.195312 49.832031 L 28.113281 49.652344 C 28.007812 49.417969 28.074219 49.160156 28.269531 49.066406 C 28.464844 48.964844 28.722656 49.078125 28.84375 49.3125 L 28.925781 49.480469 Z M 28.195312 49.832031 " fill-opacity="1" fill-rule="nonzero"/><path fill="#f8b498" d="M 34.855469 57.234375 L 33.472656 55.625 C 32.9375 55.003906 32.15625 54.652344 31.335938 54.664062 L 26.917969 54.730469 C 26.917969 54.730469 26.980469 56.242188 26.980469 56.242188 C 26.980469 56.265625 27.070312 56.324219 27.085938 56.335938 C 27.183594 56.417969 27.285156 56.492188 27.390625 56.558594 C 27.742188 56.789062 28.132812 56.957031 28.539062 57.050781 C 29.117188 57.183594 29.722656 57.21875 30.222656 56.855469 C 30.421875 56.710938 30.597656 56.527344 30.816406 56.417969 C 31.523438 56.058594 32.398438 56.402344 32.949219 56.898438 L 34.140625 57.96875 C 34.277344 58.089844 34.46875 58.125 34.640625 58.058594 C 34.976562 57.929688 35.085938 57.503906 34.855469 57.234375 Z M 34.855469 57.234375 " fill-opacity="1" fill-rule="nonzero"/><path fill="#ffffff" d="M 25.617188 56.386719 L 31.492188 56.386719 L 31.492188 59.171875 L 25.617188 59.171875 Z M 25.617188 56.386719 " fill-opacity="1" fill-rule="nonzero"/><path fill="#f89a00" d="M 40.394531 56.566406 L 40.394531 58.996094 C 40.394531 59.058594 40.375 59.121094 40.34375 59.171875 C 40.265625 59.300781 40.101562 59.390625 39.917969 59.390625 C 35.027344 59.390625 30.140625 59.40625 25.25 59.40625 C 25.179688 59.40625 25.105469 59.40625 25.03125 59.40625 L 25.03125 58.902344 L 31.019531 58.902344 C 31.144531 58.902344 31.238281 58.832031 31.238281 58.765625 L 31.238281 56.773438 C 31.238281 56.707031 31.144531 56.636719 31.019531 56.636719 L 25.03125 56.636719 L 25.03125 56.132812 C 29.921875 56.132812 34.808594 56.171875 39.699219 56.171875 C 39.769531 56.171875 39.84375 56.171875 39.917969 56.171875 C 40.179688 56.171875 40.394531 56.351562 40.394531 56.566406 Z M 40.394531 56.566406 " fill-opacity="1" fill-rule="nonzero"/><path fill="#000000" d="M 23.808594 54.285156 C 23.804688 54.285156 23.796875 54.285156 23.792969 54.28125 L 15.824219 52.828125 C 15.796875 52.820312 15.773438 52.804688 15.761719 52.78125 C 15.75 52.753906 15.746094 52.726562 15.761719 52.699219 L 18.203125 47.523438 C 18.222656 47.480469 18.273438 47.460938 18.320312 47.480469 C 18.363281 47.5 18.382812 47.554688 18.363281 47.601562 L 15.972656 52.671875 L 23.824219 54.105469 C 23.871094 54.117188 23.90625 54.164062 23.894531 54.210938 C 23.886719 54.253906 23.851562 54.285156 23.808594 54.285156 Z M 23.808594 54.285156 " fill-opacity="1" fill-rule="nonzero"/><path fill="#000000" d="M 33.144531 37.648438 C 33.101562 37.648438 33.0625 37.617188 33.054688 37.570312 C 32.984375 36.96875 33.675781 35.867188 33.707031 35.820312 C 33.734375 35.777344 33.789062 35.765625 33.828125 35.792969 C 33.871094 35.816406 33.882812 35.875 33.855469 35.914062 C 33.851562 35.925781 33.167969 37.007812 33.234375 37.550781 C 33.238281 37.597656 33.203125 37.644531 33.15625 37.648438 C 33.152344 37.648438 33.148438 37.648438 33.144531 37.648438 Z M 33.144531 37.648438 " fill-opacity="1" fill-rule="nonzero"/><path fill="#f89a00" d="M 55.035156 11.742188 L 49.769531 8.304688 L 44.375 11.359375 L 39.050781 7.886719 L 39.238281 7.59375 L 44.386719 10.949219 L 49.78125 7.898438 L 55.226562 11.449219 Z M 55.035156 11.742188 " fill-opacity="1" fill-rule="nonzero"/><path fill="#ffffff" d="M 39.703125 7.742188 C 39.703125 7.894531 39.648438 8.027344 39.539062 8.136719 C 39.429688 8.246094 39.300781 8.304688 39.144531 8.304688 C 38.992188 8.304688 38.859375 8.246094 38.75 8.136719 C 38.640625 8.027344 38.585938 7.894531 38.585938 7.742188 C 38.585938 7.585938 38.640625 7.453125 38.75 7.34375 C 38.859375 7.234375 38.992188 7.179688 39.144531 7.179688 C 39.300781 7.179688 39.429688 7.234375 39.539062 7.34375 C 39.648438 7.453125 39.703125 7.585938 39.703125 7.742188 Z M 39.703125 7.742188 " fill-opacity="1" fill-rule="nonzero"/><path fill="#f89a00" d="M 39.144531 8.476562 C 38.742188 8.476562 38.410156 8.148438 38.410156 7.742188 C 38.410156 7.332031 38.738281 7.003906 39.144531 7.003906 C 39.550781 7.003906 39.878906 7.332031 39.878906 7.742188 C 39.878906 8.148438 39.550781 8.476562 39.144531 8.476562 Z M 39.144531 7.351562 C 38.933594 7.351562 38.761719 7.527344 38.761719 7.742188 C 38.761719 7.953125 38.933594 8.128906 39.144531 8.128906 C 39.355469 8.128906 39.53125 7.953125 39.53125 7.742188 C 39.53125 7.527344 39.355469 7.351562 39.144531 7.351562 Z M 39.144531 7.351562 " fill-opacity="1" fill-rule="nonzero"/><path fill="#ffffff" d="M 44.941406 11.15625 C 44.941406 11.3125 44.886719 11.441406 44.777344 11.554688 C 44.667969 11.664062 44.535156 11.71875 44.378906 11.71875 C 44.226562 11.71875 44.09375 11.664062 43.984375 11.554688 C 43.875 11.441406 43.820312 11.3125 43.820312 11.15625 C 43.820312 11 43.875 10.867188 43.984375 10.757812 C 44.09375 10.648438 44.226562 10.59375 44.378906 10.59375 C 44.535156 10.59375 44.667969 10.648438 44.777344 10.757812 C 44.886719 10.867188 44.941406 11 44.941406 11.15625 Z M 44.941406 11.15625 " fill-opacity="1" fill-rule="nonzero"/><path fill="#f89a00" d="M 44.378906 11.894531 C 43.976562 11.894531 43.648438 11.5625 43.648438 11.15625 C 43.648438 10.75 43.976562 10.417969 44.378906 10.417969 C 44.785156 10.417969 45.113281 10.75 45.113281 11.15625 C 45.113281 11.5625 44.785156 11.894531 44.378906 11.894531 Z M 44.378906 10.769531 C 44.167969 10.769531 43.996094 10.941406 43.996094 11.15625 C 43.996094 11.367188 44.167969 11.542969 44.378906 11.542969 C 44.59375 11.542969 44.765625 11.367188 44.765625 11.15625 C 44.765625 10.941406 44.59375 10.769531 44.378906 10.769531 Z M 44.378906 10.769531 " fill-opacity="1" fill-rule="nonzero"/><path fill="#ffffff" d="M 50.335938 8.164062 C 50.335938 8.316406 50.28125 8.449219 50.171875 8.558594 C 50.0625 8.667969 49.929688 8.726562 49.777344 8.726562 C 49.621094 8.726562 49.488281 8.667969 49.378906 8.558594 C 49.269531 8.449219 49.214844 8.316406 49.214844 8.164062 C 49.214844 8.007812 49.269531 7.875 49.378906 7.765625 C 49.488281 7.65625 49.621094 7.601562 49.777344 7.601562 C 49.929688 7.601562 50.0625 7.65625 50.171875 7.765625 C 50.28125 7.875 50.335938 8.007812 50.335938 8.164062 Z M 50.335938 8.164062 " fill-opacity="1" fill-rule="nonzero"/><path fill="#f89a00" d="M 49.777344 8.898438 C 49.371094 8.898438 49.042969 8.570312 49.042969 8.164062 C 49.042969 7.753906 49.371094 7.425781 49.777344 7.425781 C 50.179688 7.425781 50.511719 7.753906 50.511719 8.164062 C 50.511719 8.570312 50.179688 8.898438 49.777344 8.898438 Z M 49.777344 7.773438 C 49.5625 7.773438 49.390625 7.949219 49.390625 8.164062 C 49.390625 8.375 49.5625 8.550781 49.777344 8.550781 C 49.988281 8.550781 50.160156 8.375 50.160156 8.164062 C 50.160156 7.949219 49.988281 7.773438 49.777344 7.773438 Z M 49.777344 7.773438 " fill-opacity="1" fill-rule="nonzero"/><path fill="#ffffff" d="M 55.691406 11.597656 C 55.691406 11.753906 55.636719 11.886719 55.527344 11.996094 C 55.417969 12.105469 55.285156 12.160156 55.128906 12.160156 C 54.976562 12.160156 54.84375 12.105469 54.734375 11.996094 C 54.625 11.886719 54.570312 11.753906 54.570312 11.597656 C 54.570312 11.441406 54.625 11.308594 54.734375 11.199219 C 54.84375 11.089844 54.976562 11.035156 55.128906 11.035156 C 55.285156 11.035156 55.417969 11.089844 55.527344 11.199219 C 55.636719 11.308594 55.691406 11.441406 55.691406 11.597656 Z M 55.691406 11.597656 " fill-opacity="1" fill-rule="nonzero"/><path fill="#f89a00" d="M 55.128906 12.335938 C 54.726562 12.335938 54.394531 12.003906 54.394531 11.597656 C 54.394531 11.191406 54.726562 10.859375 55.128906 10.859375 C 55.535156 10.859375 55.863281 11.191406 55.863281 11.597656 C 55.863281 12.003906 55.535156 12.335938 55.128906 12.335938 Z M 55.128906 11.210938 C 54.917969 11.210938 54.746094 11.382812 54.746094 11.597656 C 54.746094 11.8125 54.917969 11.984375 55.128906 11.984375 C 55.34375 11.984375 55.515625 11.8125 55.515625 11.597656 C 55.515625 11.382812 55.34375 11.210938 55.128906 11.210938 Z M 55.128906 11.210938 " fill-opacity="1" fill-rule="nonzero"/><path fill="#3f2952" d="M 53.128906 19.632812 L 52.054688 16.230469 C 52.363281 16.132812 52.683594 16.078125 53.011719 16.066406 C 54.964844 16 56.625 17.554688 56.691406 19.511719 C 56.757812 21.46875 55.203125 23.128906 53.25 23.195312 C 51.296875 23.261719 49.636719 21.707031 49.570312 19.75 Z M 53.128906 19.632812 " fill-opacity="1" fill-rule="nonzero"/><path fill="#f89a00" d="M 52.742188 19.363281 L 51.621094 15.960938 C 51.621094 15.960938 49.078125 16.785156 49.222656 19.46875 Z M 52.742188 19.363281 " fill-opacity="1" fill-rule="nonzero"/><path fill="#000000" d="M 42.121094 16.675781 C 43.273438 16.675781 44.234375 17.5 44.457031 18.585938 C 44.71875 18.484375 44.980469 18.382812 45.238281 18.277344 C 44.890625 16.882812 43.625 15.84375 42.121094 15.84375 C 40.886719 15.84375 39.8125 16.546875 39.273438 17.574219 C 39.496094 17.742188 39.726562 17.90625 39.957031 18.070312 C 40.332031 17.25 41.160156 16.675781 42.121094 16.675781 Z M 42.121094 16.675781 " fill-opacity="0.57" fill-rule="nonzero"/><path fill="#000000" d="M 42.121094 21.445312 C 40.808594 21.445312 39.742188 20.375 39.742188 19.0625 C 39.742188 18.707031 39.816406 18.375 39.957031 18.070312 C 39.726562 17.90625 39.496094 17.742188 39.273438 17.574219 C 39.039062 18.019531 38.90625 18.523438 38.90625 19.0625 C 38.90625 20.835938 40.351562 22.277344 42.121094 22.277344 C 42.613281 22.277344 43.078125 22.167969 43.496094 21.96875 C 43.347656 21.734375 43.210938 21.488281 43.078125 21.246094 C 42.785156 21.375 42.460938 21.445312 42.121094 21.445312 Z M 42.121094 21.445312 " fill-opacity="0.27" fill-rule="nonzero"/><path fill="#3f2952" d="M 45.335938 19.0625 C 45.335938 18.792969 45.300781 18.53125 45.238281 18.277344 C 44.980469 18.382812 44.71875 18.484375 44.457031 18.589844 C 44.488281 18.742188 44.503906 18.898438 44.503906 19.0625 C 44.503906 20.035156 43.914062 20.875 43.078125 21.246094 C 43.210938 21.492188 43.347656 21.734375 43.496094 21.96875 C 44.582031 21.453125 45.335938 20.34375 45.335938 19.0625 Z M 45.335938 19.0625 " fill-opacity="1" fill-rule="nonzero"/><path fill="#000000" d="M 82.285156 32.179688 C 82.273438 32.179688 82.265625 32.175781 82.257812 32.175781 L 76.164062 29.671875 C 76.128906 29.65625 76.113281 29.617188 76.128906 29.582031 C 76.140625 29.550781 76.179688 29.535156 76.214844 29.546875 L 82.308594 32.050781 C 82.34375 32.0625 82.359375 32.101562 82.34375 32.136719 C 82.335938 32.164062 82.308594 32.179688 82.285156 32.179688 Z M 82.285156 32.179688 " fill-opacity="1" fill-rule="nonzero"/><path fill="#ffffff" d="M 66.65625 15.300781 L 68.890625 14.925781 C 68.890625 14.925781 68.816406 15.535156 67.882812 15.679688 C 67.882812 15.679688 67.003906 15.878906 66.65625 15.300781 Z M 66.65625 15.300781 " fill-opacity="1" fill-rule="nonzero"/></svg>