<svg xmlns="http://www.w3.org/2000/svg" xmlns:xlink="http://www.w3.org/1999/xlink" width="160" zoomAndPan="magnify" viewBox="0 0 120 52.499999" height="70" preserveAspectRatio="xMidYMid meet" version="1.0"><defs><clipPath id="007db3ac31"><path d="M 14.898438 1 L 109.996094 1 L 109.996094 51 L 14.898438 51 Z M 14.898438 1 " clip-rule="nonzero"/></clipPath></defs><g clip-path="url(#007db3ac31)"><path fill="#00678c" d="M 14.726562 46.554688 L 17.847656 46.554688 L 17.847656 34.195312 L 22.726562 44.972656 C 23.277344 46.265625 24.074219 46.746094 25.609375 46.746094 C 27.148438 46.746094 27.894531 46.265625 28.464844 44.972656 L 33.316406 34.195312 L 33.316406 46.554688 L 36.464844 46.554688 L 36.464844 34.195312 C 36.464844 32.996094 35.984375 32.417969 34.976562 32.105469 C 32.597656 31.386719 31.011719 32.011719 30.289062 33.617188 L 25.507812 44.273438 L 20.894531 33.617188 C 20.199219 32.011719 18.589844 31.386719 16.1875 32.105469 C 15.199219 32.417969 14.71875 32.996094 14.71875 34.195312 L 14.71875 46.554688 Z M 39.066406 36.5 L 42.210938 36.5 L 42.210938 43.292969 C 42.1875 43.675781 42.332031 44.539062 44.042969 44.5625 C 44.933594 44.585938 50.820312 44.5625 50.867188 44.5625 L 50.867188 36.449219 L 54.015625 36.449219 L 54.015625 47.5625 C 54.015625 50.296875 50.621094 50.898438 49.039062 50.921875 L 39.144531 50.921875 L 39.144531 48.835938 L 49.066406 48.835938 C 51.085938 48.621094 50.84375 47.613281 50.84375 47.277344 L 50.84375 46.457031 L 44.1875 46.457031 C 41.089844 46.433594 39.09375 45.066406 39.070312 43.507812 L 39.070312 36.496094 Z M 106.578125 28.625 C 104.660156 28.578125 103.167969 28.769531 101.917969 29.296875 C 101.558594 29.445312 100.980469 29.445312 100.933594 29.898438 C 101.125 30.089844 101.148438 30.402344 101.316406 30.667969 C 101.605469 31.148438 102.109375 31.792969 102.566406 32.128906 C 103.074219 32.515625 103.578125 32.898438 104.105469 33.234375 C 105.042969 33.808594 106.097656 34.144531 107.011719 34.722656 C 107.539062 35.058594 108.070312 35.492188 108.597656 35.851562 C 108.867188 36.042969 109.03125 36.355469 109.367188 36.476562 L 109.367188 36.402344 C 109.199219 36.1875 109.148438 35.875 108.984375 35.632812 C 108.742188 35.394531 108.5 35.179688 108.261719 34.9375 C 107.566406 34.003906 106.699219 33.1875 105.761719 32.515625 C 104.992188 31.988281 103.3125 31.265625 103 30.378906 L 102.953125 30.332031 C 103.480469 30.28125 104.105469 30.089844 104.609375 29.945312 C 105.425781 29.730469 106.171875 29.777344 107.011719 29.5625 C 107.398438 29.464844 107.78125 29.347656 108.164062 29.226562 L 108.164062 29.011719 C 107.734375 28.578125 107.421875 28.003906 106.964844 27.59375 C 105.738281 26.539062 104.394531 25.507812 103 24.644531 C 102.253906 24.164062 101.292969 23.851562 100.5 23.445312 C 100.210938 23.300781 99.730469 23.226562 99.5625 22.988281 C 99.128906 22.460938 98.890625 21.761719 98.578125 21.140625 C 97.882812 19.820312 97.207031 18.355469 96.609375 16.964844 C 96.175781 16.027344 95.910156 15.089844 95.382812 14.226562 C 92.910156 10.148438 90.214844 7.675781 86.085938 5.25 C 85.195312 4.746094 84.136719 4.53125 83.015625 4.265625 L 81.210938 4.167969 C 80.828125 4 80.445312 3.546875 80.105469 3.328125 C 78.738281 2.464844 75.207031 0.59375 74.195312 3.066406 C 73.546875 4.625 75.15625 6.160156 75.703125 6.953125 C 76.113281 7.503906 76.640625 8.128906 76.929688 8.753906 C 77.089844 9.160156 77.144531 9.59375 77.3125 10.027344 C 77.699219 11.082031 78.058594 12.257812 78.5625 13.242188 C 78.832031 13.746094 79.113281 14.277344 79.453125 14.730469 C 79.644531 14.996094 79.980469 15.117188 80.050781 15.546875 C 79.714844 16.027344 79.691406 16.746094 79.5 17.347656 C 78.636719 20.058594 78.972656 23.417969 80.195312 25.410156 C 80.582031 26.011719 81.488281 27.332031 82.71875 26.828125 C 83.800781 26.394531 83.558594 25.027344 83.871094 23.828125 C 83.945312 23.539062 83.898438 23.347656 84.039062 23.15625 L 84.039062 23.203125 L 85.027344 25.195312 C 85.769531 26.371094 87.070312 27.59375 88.148438 28.410156 C 88.726562 28.84375 89.183594 29.589844 89.902344 29.851562 L 89.902344 29.78125 L 89.855469 29.78125 C 89.710938 29.5625 89.496094 29.46875 89.300781 29.300781 C 88.871094 28.867188 88.390625 28.339844 88.054688 27.859375 C 87.042969 26.515625 86.15625 25.027344 85.363281 23.492188 C 84.976562 22.746094 84.640625 21.929688 84.328125 21.1875 C 84.183594 20.898438 84.183594 20.464844 83.945312 20.324219 C 83.582031 20.851562 83.054688 21.308594 82.789062 21.957031 C 82.332031 22.988281 82.285156 24.257812 82.117188 25.578125 C 82.023438 25.605469 82.066406 25.578125 82.023438 25.628906 C 81.253906 25.4375 80.988281 24.644531 80.699219 23.972656 C 79.980469 22.269531 79.859375 19.53125 80.484375 17.5625 C 80.652344 17.058594 81.375 15.476562 81.085938 14.996094 C 80.941406 14.539062 80.460938 14.277344 80.195312 13.914062 C 79.882812 13.460938 79.546875 12.882812 79.332031 12.378906 C 78.753906 11.035156 78.46875 9.546875 77.84375 8.203125 C 77.554688 7.578125 77.050781 6.929688 76.640625 6.355469 C 76.183594 5.707031 75.679688 5.25 75.320312 4.484375 C 75.199219 4.21875 75.03125 3.789062 75.222656 3.5 C 75.269531 3.308594 75.367188 3.234375 75.558594 3.1875 C 75.871094 2.921875 76.761719 3.257812 77.074219 3.402344 C 77.960938 3.761719 78.707031 4.097656 79.453125 4.601562 C 79.789062 4.84375 80.148438 5.296875 80.582031 5.417969 L 81.085938 5.417969 C 81.855469 5.585938 82.71875 5.46875 83.441406 5.683594 C 84.714844 6.089844 85.867188 6.691406 86.898438 7.339844 C 90.046875 9.332031 92.644531 12.164062 94.394531 15.546875 C 94.683594 16.101562 94.804688 16.605469 95.070312 17.179688 C 95.574219 18.355469 96.199219 19.554688 96.703125 20.707031 C 97.207031 21.835938 97.6875 22.988281 98.410156 23.925781 C 98.769531 24.429688 100.210938 24.691406 100.859375 24.957031 C 101.339844 25.171875 102.085938 25.367188 102.519531 25.628906 C 103.335938 26.132812 104.152344 26.710938 104.917969 27.261719 C 105.304688 27.550781 106.503906 28.148438 106.578125 28.628906 Z M 82.078125 7.769531 C 81.742188 7.765625 81.414062 7.804688 81.09375 7.890625 L 81.09375 7.9375 L 81.140625 7.9375 C 81.332031 8.320312 81.667969 8.585938 81.910156 8.921875 L 82.460938 10.074219 L 82.507812 10.027344 C 82.847656 9.785156 83.015625 9.402344 83.015625 8.828125 C 82.871094 8.660156 82.847656 8.488281 82.726562 8.324219 C 82.582031 8.082031 82.269531 7.960938 82.078125 7.769531 Z M 82.078125 7.769531 " fill-opacity="1" fill-rule="evenodd"/></g><path fill="#ce8b2c" d="M 56.414062 46.554688 L 65.449219 46.554688 C 66.503906 46.554688 67.515625 46.339844 68.332031 45.953125 C 69.699219 45.332031 70.347656 44.492188 70.347656 43.386719 L 70.347656 41.082031 C 70.347656 40.195312 69.605469 39.355469 68.117188 38.78125 C 67.347656 38.492188 66.386719 38.324219 65.449219 38.324219 L 61.652344 38.324219 C 60.378906 38.324219 59.777344 37.9375 59.609375 37.097656 C 59.585938 37.003906 59.585938 36.90625 59.585938 36.8125 L 59.585938 35.394531 C 59.585938 35.324219 59.585938 35.226562 59.609375 35.132812 C 59.777344 34.484375 60.113281 34.316406 61.222656 34.195312 L 70.472656 34.195312 L 70.472656 32.105469 L 61.679688 32.105469 C 60.40625 32.105469 59.734375 32.179688 59.132812 32.371094 C 57.28125 32.945312 56.464844 33.859375 56.464844 35.46875 L 56.464844 37.292969 C 56.464844 38.707031 58.050781 39.90625 60.742188 40.195312 C 61.03125 40.21875 61.34375 40.21875 61.65625 40.21875 L 64.898438 40.21875 C 65.019531 40.21875 65.140625 40.21875 65.234375 40.246094 C 66.222656 40.339844 66.652344 40.507812 66.941406 40.867188 C 67.132812 41.058594 67.183594 41.226562 67.183594 41.445312 L 67.183594 43.265625 C 67.183594 43.484375 67.039062 43.773438 66.75 44.011719 C 66.460938 44.25 66.003906 44.417969 65.402344 44.441406 C 65.28125 44.441406 65.210938 44.46875 65.089844 44.46875 L 56.414062 44.46875 Z M 89.90625 42.929688 C 89.90625 45.066406 91.523438 46.265625 94.738281 46.507812 C 95.050781 46.53125 95.335938 46.554688 95.648438 46.554688 L 103.820312 46.554688 L 103.820312 44.46875 L 95.578125 44.46875 C 93.75 44.46875 93.054688 44.011719 93.054688 42.90625 L 93.054688 32.105469 L 89.898438 32.105469 L 89.898438 42.933594 Z M 72.34375 43.027344 L 72.34375 35.585938 C 72.34375 33.691406 73.6875 32.539062 76.308594 32.179688 C 76.597656 32.152344 76.882812 32.128906 77.148438 32.128906 L 83.105469 32.128906 C 83.417969 32.128906 83.683594 32.152344 83.996094 32.179688 C 86.613281 32.539062 87.9375 33.691406 87.9375 35.585938 L 87.9375 43.027344 C 87.9375 44.5625 87.382812 45.378906 86.085938 45.929688 L 89.160156 48.714844 L 85.53125 48.714844 L 83.035156 46.457031 L 80.511719 46.601562 L 77.148438 46.601562 C 76.527344 46.601562 75.917969 46.519531 75.320312 46.363281 C 73.328125 45.8125 72.34375 44.753906 72.34375 43.027344 Z M 75.730469 42.859375 C 75.730469 42.957031 75.785156 43.050781 75.800781 43.171875 C 75.96875 44.035156 76.785156 44.515625 78.035156 44.515625 L 80.871094 44.515625 L 78.277344 42.164062 L 81.90625 42.164062 L 84.1875 44.226562 C 84.621094 43.988281 84.886719 43.652344 84.980469 43.21875 C 85.003906 43.125 85.003906 43.003906 85.003906 42.90625 L 85.003906 35.777344 C 85.003906 35.683594 85.003906 35.585938 84.980469 35.492188 C 84.8125 34.675781 83.996094 34.21875 82.769531 34.21875 L 78.035156 34.21875 C 76.644531 34.21875 75.730469 34.820312 75.730469 35.777344 Z M 75.730469 42.859375 " fill-opacity="1" fill-rule="evenodd"/></svg>