<?xml version="1.0" encoding="UTF-8"?>
<svg version="1.1" xmlns="http://www.w3.org/2000/svg" width="100" height="100">
<path d="M0 0 C2.17077561 1.0026641 4.2719388 2.09384885 6.37942505 3.22338867 C7.14779694 3.62291748 7.91616882 4.02244629 8.70782471 4.43408203 C11.14878505 5.70663797 13.5804417 6.99592102 16.01223755 8.28588867 C17.6705054 9.15419683 19.3293539 10.02139703 20.98880005 10.88745117 C25.04511701 13.00748936 29.09317766 15.1425686 33.13723755 17.28588867 C33.13723755 18.27588867 33.13723755 19.26588867 33.13723755 20.28588867 C31.81723755 20.28588867 30.49723755 20.28588867 29.13723755 20.28588867 C29.14167877 20.89532318 29.14612 21.50475769 29.1506958 22.13265991 C29.19484162 28.45877749 29.22506742 34.78485152 29.24710083 41.11108398 C29.25717678 43.47405778 29.27083784 45.83701906 29.28811646 48.19995117 C29.31229479 51.59060755 29.32370454 54.98109952 29.33255005 58.37182617 C29.34287262 59.43331879 29.35319519 60.4948114 29.36383057 61.58847046 C29.36398163 62.56933624 29.36413269 63.55020203 29.36428833 64.56079102 C29.36872955 65.42682953 29.37317078 66.29286804 29.37774658 67.18515015 C29.13723755 69.28588867 29.13723755 69.28588867 27.13723755 71.28588867 C24.48049927 71.53985596 24.48049927 71.53985596 21.06692505 71.54467773 C19.15484253 71.55413422 19.15484253 71.55413422 17.20413208 71.56378174 C15.8068325 71.56020206 14.40953418 71.55610013 13.01223755 71.55151367 C11.58499078 71.55286038 10.15774446 71.55480096 8.73049927 71.55731201 C5.7377791 71.56026301 2.74517824 71.55596649 -0.24752808 71.54663086 C-4.08792619 71.53523623 -7.92804477 71.54179584 -11.76843262 71.55377579 C-14.71605545 71.5609951 -17.66361176 71.55870616 -20.61123657 71.5535202 C-22.02745598 71.5521839 -23.44368139 71.55383076 -24.8598938 71.55847931 C-26.83741138 71.56354542 -28.81495007 71.55445775 -30.79244995 71.54467773 C-32.48216919 71.54229095 -32.48216919 71.54229095 -34.20602417 71.53985596 C-36.86276245 71.28588867 -36.86276245 71.28588867 -38.86276245 69.28588867 C-39.10327148 67.18515015 -39.10327148 67.18515015 -39.08981323 64.56079102 C-39.08966217 63.57992523 -39.08951111 62.59905945 -39.08935547 61.58847046 C-39.0790329 60.52697784 -39.06871033 59.46548523 -39.05807495 58.37182617 C-39.05524506 57.28704987 -39.05241516 56.20227356 -39.04949951 55.08462524 C-39.03827823 51.60993554 -39.01317007 48.13550085 -38.98776245 44.66088867 C-38.97773517 42.30932989 -38.96860889 39.95776707 -38.9604187 37.60620117 C-38.93833256 31.83267623 -38.9048359 26.05930067 -38.86276245 20.28588867 C-40.18276245 20.28588867 -41.50276245 20.28588867 -42.86276245 20.28588867 C-42.86276245 19.29588867 -42.86276245 18.30588867 -42.86276245 17.28588867 C-37.99621803 14.70665824 -33.12154788 12.14376515 -28.23873901 9.59545898 C-26.57984609 8.72682352 -24.92323501 7.85381538 -23.26901245 6.97631836 C-20.88690302 5.71368584 -18.49695319 4.46715386 -16.10494995 3.22338867 C-15.00302811 2.63279663 -15.00302811 2.63279663 -13.87884521 2.03027344 C-9.10624974 -0.42579266 -5.32196379 -2.04023579 0 0 Z M-13.5619812 5.53198242 C-14.19763504 5.86255142 -14.83328888 6.19312042 -15.48820496 6.53370667 C-17.51295802 7.5893562 -19.53145627 8.65641872 -21.55026245 9.72338867 C-22.92033692 10.43828754 -24.29077584 11.15248842 -25.66159058 11.8659668 C-26.96204686 12.54568185 -28.26218832 13.22599964 -29.5619812 13.90698242 C-30.1786113 14.22992783 -30.79524139 14.55287323 -31.43055725 14.88560486 C-34.33258022 16.31806367 -34.33258022 16.31806367 -36.86276245 18.28588867 C-36.97145274 19.77361355 -37.01179118 21.2664158 -37.02389526 22.75805664 C-37.03350281 23.70929413 -37.04311035 24.66053162 -37.05300903 25.64059448 C-37.05725891 26.67596344 -37.06150879 27.7113324 -37.06588745 28.77807617 C-37.07158752 29.83495636 -37.0772876 30.89183655 -37.0831604 31.98074341 C-37.09262693 34.22193393 -37.09915091 36.46313848 -37.10299683 38.7043457 C-37.11270153 42.13932508 -37.14370946 45.57370617 -37.17526245 49.00854492 C-37.18179217 51.18171844 -37.18704276 53.35489625 -37.19088745 55.52807617 C-37.20323425 56.55939667 -37.21558105 57.59071716 -37.228302 58.65328979 C-37.2253009 59.6108316 -37.2222998 60.56837341 -37.21920776 61.55493164 C-37.22285339 62.39796844 -37.22649902 63.24100525 -37.23025513 64.10958862 C-37.00670843 66.32803274 -37.00670843 66.32803274 -35.69155884 68.05731201 C-33.14093287 69.77081033 -31.30716578 69.66687045 -28.24557495 69.67407227 C-27.09428101 69.68352875 -25.94298706 69.69298523 -24.75680542 69.70272827 C-23.51302124 69.69665558 -22.26923706 69.69058289 -20.98776245 69.68432617 C-19.71175171 69.68719635 -18.43574097 69.69006653 -17.12106323 69.69302368 C-14.42072129 69.69506702 -11.72119164 69.69102259 -9.02096558 69.67700195 C-5.56057015 69.65990956 -2.10087274 69.66975175 1.35949707 69.68771935 C4.66043561 69.70116883 7.96128991 69.69175112 11.26223755 69.68432617 C12.50602173 69.69039886 13.74980591 69.69647156 15.03128052 69.70272827 C16.18257446 69.69327179 17.33386841 69.68381531 18.52005005 69.67407227 C19.53470337 69.67168549 20.54935669 69.66929871 21.59475708 69.6668396 C24.14460171 69.47018666 24.14460171 69.47018666 25.96702576 68.05830383 C27.49263341 65.74760234 27.49955221 64.29985002 27.47781372 61.5390625 C27.47758713 60.578293 27.47736053 59.6175235 27.47712708 58.62763977 C27.46164322 57.59318222 27.44615936 56.55872467 27.4302063 55.49291992 C27.42596146 54.43175461 27.42171661 53.37058929 27.41734314 52.27726746 C27.40053461 48.88405102 27.36287773 45.49142595 27.32473755 42.09838867 C27.30969355 39.79956912 27.29600466 37.50074026 27.28372192 35.2019043 C27.250624 29.56303025 27.20040285 23.92450171 27.13723755 18.28588867 C23.63834454 16.36719377 20.13804493 14.45108864 16.63723755 12.53588867 C15.65497192 11.99706055 14.6727063 11.45823242 13.66067505 10.90307617 C10.82528878 9.35306501 7.98350755 7.81581014 5.13723755 6.28588867 C3.96741333 5.65070312 3.96741333 5.65070312 2.7739563 5.00268555 C-3.81342092 1.53789623 -7.2517172 2.17333969 -13.5619812 5.53198242 Z " fill="#FFFFFF" transform="translate(54.862762451171875,14.714111328125)"/>
<path d="M0 0 C0.99 0 1.98 0 3 0 C3 0.66 3 1.32 3 2 C4.65 2 6.3 2 8 2 C8.66 3.32 9.32 4.64 10 6 C6.98968256 6.93423645 6.13349732 7.04449911 3 6 C3.18964471 10.06503034 3.18964471 10.06503034 4 14 C6.39056942 15.9354148 6.39056942 15.9354148 9 17 C10.73044016 20.46088033 10.61689275 24.2248846 10 28 C7.625 30.5625 7.625 30.5625 5 32 C4.34 32 3.68 32 3 32 C3 32.66 3 33.32 3 34 C2.01 34 1.02 34 0 34 C0 33.34 0 32.68 0 32 C-0.94875 31.87625 -1.8975 31.7525 -2.875 31.625 C-6 31 -6 31 -8 29 C-8 27.68 -8 26.36 -8 25 C-5.06296616 25.62936439 -2.66211372 26.62420173 0 28 C-0.01306754 24.57630354 -0.1663051 21.32950306 -1 18 C-3.94236782 15.78831775 -3.94236782 15.78831775 -7 14 C-8.1875 10.5625 -8.1875 10.5625 -8 7 C-5.75 4.0625 -5.75 4.0625 -3 2 C-2.01 2 -1.02 2 0 2 C0 1.34 0 0.68 0 0 Z M-2 6 C-2.33 7.65 -2.66 9.3 -3 11 C-1.515 11.99 -1.515 11.99 0 13 C0 10.69 0 8.38 0 6 C-0.66 6 -1.32 6 -2 6 Z M3 19 C3 21.97 3 24.94 3 28 C3.99 27.34 4.98 26.68 6 26 C6.5 23.5 6.5 23.5 6 21 C5.01 20.34 4.02 19.68 3 19 Z " fill="#FFFFFF" transform="translate(49,37)"/>
<path d="M0 0 C0.495 0.33 0.99 0.66 1.5 1 C1.17 1.99 0.84 2.98 0.5 4 C-0.03625 3.67 -0.5725 3.34 -1.125 3 C-4.99817436 1.36918974 -8.28034546 1.52841947 -12.18481445 3.03808594 C-15.06879898 4.5953482 -17.9495301 6.15430712 -20.8125 7.75 C-21.82634766 8.28882813 -22.84019531 8.82765625 -23.88476562 9.3828125 C-24.84705078 9.91132813 -25.80933594 10.43984375 -26.80078125 10.984375 C-28.11816284 11.70705566 -28.11816284 11.70705566 -29.4621582 12.44433594 C-31.5700784 13.80178869 -31.5700784 13.80178869 -32.28540039 15.70581055 C-32.59790845 19.04669591 -32.64232028 22.37064357 -32.6328125 25.72265625 C-32.63376923 26.46454697 -32.63472595 27.20643768 -32.63571167 27.97080994 C-32.6363906 29.53498418 -32.63455638 31.09916128 -32.63037109 32.66333008 C-32.62501115 35.05751866 -32.63032968 37.4515203 -32.63671875 39.84570312 C-32.63605807 41.36718791 -32.63477711 42.88867259 -32.6328125 44.41015625 C-32.63483673 45.12583267 -32.63686096 45.84150909 -32.63894653 46.57887268 C-32.62438927 49.66182725 -32.48286033 52.05141902 -31.5 55 C-28.71500665 55.92833112 -27.04331755 56.12640788 -24.16796875 56.12939453 C-23.29696533 56.13254669 -22.42596191 56.13569885 -21.52856445 56.13894653 C-20.59101318 56.1369223 -19.65346191 56.13489807 -18.6875 56.1328125 C-17.72223389 56.13376923 -16.75696777 56.13472595 -15.76245117 56.13571167 C-13.72151626 56.1363922 -11.68057919 56.13454675 -9.63964844 56.13037109 C-6.51232043 56.12502108 -3.38513604 56.13032039 -0.2578125 56.13671875 C1.72395865 56.13605795 3.70572971 56.13477674 5.6875 56.1328125 C7.0938269 56.13584885 7.0938269 56.13584885 8.52856445 56.13894653 C9.39956787 56.13579437 10.27057129 56.13264221 11.16796875 56.12939453 C11.93391357 56.12859894 12.6998584 56.12780334 13.48901367 56.12698364 C15.70740053 56.07298522 15.70740053 56.07298522 18.5 55 C19.38639389 52.34081834 19.67989025 50.51935359 19.81640625 47.76953125 C19.87924805 46.56586914 19.87924805 46.56586914 19.94335938 45.33789062 C19.98267578 44.50451172 20.02199219 43.67113281 20.0625 42.8125 C20.12727539 41.5450293 20.12727539 41.5450293 20.19335938 40.25195312 C20.29931518 38.16815567 20.4001502 36.08409897 20.5 34 C20.83 34 21.16 34 21.5 34 C21.55787784 37.62493334 21.5935542 41.24974857 21.625 44.875 C21.64175781 45.90753906 21.65851563 46.94007812 21.67578125 48.00390625 C21.68544922 49.48310547 21.68544922 49.48310547 21.6953125 50.9921875 C21.71102295 52.35899658 21.71102295 52.35899658 21.72705078 53.75341797 C21.5 56 21.5 56 19.5 58 C17.29882812 58.25396729 17.29882812 58.25396729 14.53125 58.25878906 C13.49677734 58.26509338 12.46230469 58.27139771 11.39648438 58.27789307 C9.71522461 58.27182037 9.71522461 58.27182037 8 58.265625 C6.28006836 58.26849518 6.28006836 58.26849518 4.52539062 58.27142334 C2.09765402 58.27278622 -0.33008984 58.26908267 -2.7578125 58.26074219 C-6.48454073 58.25004438 -10.21078686 58.26063431 -13.9375 58.2734375 C-16.29166774 58.27211592 -18.64583517 58.26955357 -21 58.265625 C-22.12083984 58.26967346 -23.24167969 58.27372192 -24.39648438 58.27789307 C-25.94819336 58.26843658 -25.94819336 58.26843658 -27.53125 58.25878906 C-28.44455078 58.25719788 -29.35785156 58.25560669 -30.29882812 58.25396729 C-32.5 58 -32.5 58 -34.5 56 C-34.77415466 54.15396118 -34.77415466 54.15396118 -34.80639648 51.88916016 C-34.82238388 51.04132965 -34.83837128 50.19349915 -34.85484314 49.31997681 C-34.86020584 48.40227509 -34.86556854 47.48457336 -34.87109375 46.5390625 C-34.88012222 45.59694916 -34.8891507 44.65483582 -34.89845276 43.68417358 C-34.91297709 41.68857003 -34.9218474 39.69291862 -34.92553711 37.69726562 C-34.93742713 34.64371401 -34.98658544 31.59218687 -35.03710938 28.5390625 C-35.04657398 26.60157238 -35.05380884 24.66406983 -35.05859375 22.7265625 C-35.07812607 21.81290924 -35.09765839 20.89925598 -35.11778259 19.95791626 C-35.07267993 13.61940409 -35.07267993 13.61940409 -32.23779297 10.55322266 C-30.88258545 9.78437744 -30.88258545 9.78437744 -29.5 9 C-28.77901123 8.5472168 -28.05802246 8.09443359 -27.31518555 7.62792969 C-24.94839632 6.31761491 -22.57247388 5.02693543 -20.1875 3.75 C-19.37087891 3.29109375 -18.55425781 2.8321875 -17.71289062 2.359375 C-11.74055162 -0.8385627 -6.63536189 -2.65414476 0 0 Z " fill="#FFFFFF" transform="translate(56.5,22)"/>
<path d="M0 0 C0.99 0.33 1.98 0.66 3 1 C3 1.66 3 2.32 3 3 C2.01 3 1.02 3 0 3 C0 2.01 0 1.02 0 0 Z " fill="#FFFFFF" transform="translate(60,25)"/>
<path d="M0 0 C0.99 0.495 0.99 0.495 2 1 C2 1.66 2 2.32 2 3 C1.34 3 0.68 3 0 3 C0 2.01 0 1.02 0 0 Z " fill="#FFFFFF" transform="translate(64,27)"/>
</svg>
