<svg width="414" height="414" viewBox="0 0 414 414" fill="none" xmlns="http://www.w3.org/2000/svg">
<path d="M334.09 66.613H249.634C249.634 66.613 258.005 43.7354 270.897 43.7354C283.789 43.7354 287.813 59.5253 287.813 59.5253C287.813 59.5253 296.507 50.9472 303.653 50.9472C310.798 50.9472 317.008 62.2826 317.008 62.2826C317.008 62.2826 327.102 56.1885 334.09 66.613Z" fill="#EBEBEB"/>
<path opacity="0.5" d="M373.428 91.0221H333.982C333.982 91.0221 342.792 78.2461 349.756 78.2461C356.719 78.2461 358.756 86.7662 358.756 86.7662C358.756 86.7662 363.658 82.7835 368.204 83.4542C372.749 84.1249 373.428 91.0221 373.428 91.0221Z" fill="#EBEBEB"/>
<path opacity="0.5" d="M293.402 138.558H253.932C253.932 138.558 262.75 125.782 269.705 125.782C276.66 125.782 278.705 134.294 278.705 134.294C278.705 134.294 283.607 130.32 288.153 131.032C292.699 131.744 293.402 138.558 293.402 138.558Z" fill="#EBEBEB"/>
<path d="M117.427 148.378H40.5723C40.5723 148.378 51.0713 124.871 62.3321 123.372C73.5929 121.874 78.9832 140.835 78.9832 140.835C78.9832 140.835 86.253 134.145 91.9662 134.145C97.6794 134.145 102.084 142.955 102.084 142.955C102.084 142.955 113.511 136.952 117.427 148.378Z" fill="#EBEBEB"/>
<path opacity="0.5" d="M152.543 79.2975H100.603C100.603 79.2975 109.528 62.2655 119.233 62.0171C128.937 61.7687 133.971 74.9091 133.971 74.9091C133.971 74.9091 149.041 62.8286 152.543 79.2975Z" fill="#EBEBEB"/>
<path d="M235.989 160.317H205.121V322.142H235.989V160.317Z" fill="#DBDBDB"/>
<path d="M215.918 165.575H209.915V171.752H215.918V165.575Z" fill="#EBEBEB"/>
<path d="M223.594 165.575H217.591V171.752H223.594V165.575Z" fill="#EBEBEB"/>
<path d="M215.918 176.066H209.915V182.243H215.918V176.066Z" fill="#EBEBEB"/>
<path d="M223.594 176.066H217.591V182.243H223.594V176.066Z" fill="#EBEBEB"/>
<path d="M215.918 186.557H209.915V192.734H215.918V186.557Z" fill="#EBEBEB"/>
<path d="M223.594 186.557H217.591V192.734H223.594V186.557Z" fill="#EBEBEB"/>
<path d="M215.918 197.048H209.915V203.225H215.918V197.048Z" fill="#EBEBEB"/>
<path d="M223.594 197.048H217.591V203.225H223.594V197.048Z" fill="#EBEBEB"/>
<path d="M215.918 207.539H209.915V213.716H215.918V207.539Z" fill="#EBEBEB"/>
<path d="M223.594 207.539H217.591V213.716H223.594V207.539Z" fill="#EBEBEB"/>
<path d="M215.918 218.029H209.915V224.206H215.918V218.029Z" fill="#EBEBEB"/>
<path d="M223.594 218.029H217.591V224.206H223.594V218.029Z" fill="#EBEBEB"/>
<path d="M215.918 228.521H209.915V234.697H215.918V228.521Z" fill="#EBEBEB"/>
<path d="M223.594 228.521H217.591V234.697H223.594V228.521Z" fill="#EBEBEB"/>
<path d="M215.918 239.011H209.915V245.188H215.918V239.011Z" fill="#EBEBEB"/>
<path d="M223.594 239.011H217.591V245.188H223.594V239.011Z" fill="#EBEBEB"/>
<path d="M215.918 249.502H209.915V255.679H215.918V249.502Z" fill="#EBEBEB"/>
<path d="M223.594 249.502H217.591V255.679H223.594V249.502Z" fill="#EBEBEB"/>
<path d="M215.918 259.992H209.915V266.169H215.918V259.992Z" fill="#EBEBEB"/>
<path d="M223.594 259.992H217.591V266.169H223.594V259.992Z" fill="#EBEBEB"/>
<path d="M215.918 270.483H209.915V276.66H215.918V270.483Z" fill="#EBEBEB"/>
<path d="M223.594 270.483H217.591V276.66H223.594V270.483Z" fill="#EBEBEB"/>
<path d="M215.918 280.974H209.915V287.151H215.918V280.974Z" fill="#EBEBEB"/>
<path d="M223.594 280.974H217.591V287.151H223.594V280.974Z" fill="#EBEBEB"/>
<path d="M215.918 291.465H209.915V297.641H215.918V291.465Z" fill="#EBEBEB"/>
<path d="M223.594 291.465H217.591V297.642H223.594V291.465Z" fill="#EBEBEB"/>
<path d="M215.918 301.955H209.915V308.132H215.918V301.955Z" fill="#EBEBEB"/>
<path d="M225.191 308.124H231.194V301.947H225.191V308.124Z" fill="#EBEBEB"/>
<path d="M225.191 297.633H231.194V291.456H225.191V297.633Z" fill="#EBEBEB"/>
<path d="M225.191 287.143H231.194V280.966H225.191V287.143Z" fill="#EBEBEB"/>
<path d="M225.191 276.66H231.194V270.483H225.191V276.66Z" fill="#EBEBEB"/>
<path d="M225.191 266.169H231.194V259.992H225.191V266.169Z" fill="#EBEBEB"/>
<path d="M225.191 255.678H231.194V249.502H225.191V255.678Z" fill="#EBEBEB"/>
<path d="M225.191 245.188H231.194V239.011H225.191V245.188Z" fill="#EBEBEB"/>
<path d="M225.191 234.697H231.194V228.52H225.191V234.697Z" fill="#EBEBEB"/>
<path d="M225.191 224.206H231.194V218.029H225.191V224.206Z" fill="#EBEBEB"/>
<path d="M225.191 213.716H231.194V207.539H225.191V213.716Z" fill="#EBEBEB"/>
<path d="M225.191 203.225H231.194V197.048H225.191V203.225Z" fill="#EBEBEB"/>
<path d="M225.191 192.734H231.194V186.557H225.191V192.734Z" fill="#EBEBEB"/>
<path d="M225.191 182.243H231.194V176.066H225.191V182.243Z" fill="#EBEBEB"/>
<path d="M225.191 171.752H231.194V165.575H225.191V171.752Z" fill="#EBEBEB"/>
<path d="M223.594 301.955H217.591V308.132H223.594V301.955Z" fill="#EBEBEB"/>
<path d="M260.331 160.317H235.988V322.142H260.331V160.317Z" fill="#A6A6A6"/>
<path d="M252.864 308.124H257.823V301.947H252.864V308.124Z" fill="#C7C7C7"/>
<path d="M246.529 308.124H251.48V301.947H246.529V308.124Z" fill="#C7C7C7"/>
<path d="M252.864 297.633H257.823V291.456H252.864V297.633Z" fill="#C7C7C7"/>
<path d="M246.529 297.633H251.48V291.456H246.529V297.633Z" fill="#C7C7C7"/>
<path d="M252.864 287.143H257.823V280.966H252.864V287.143Z" fill="#C7C7C7"/>
<path d="M246.529 287.143H251.48V280.966H246.529V287.143Z" fill="#C7C7C7"/>
<path d="M252.864 276.66H257.823V270.483H252.864V276.66Z" fill="#C7C7C7"/>
<path d="M246.529 276.66H251.48V270.483H246.529V276.66Z" fill="#C7C7C7"/>
<path d="M252.864 266.169H257.823V259.992H252.864V266.169Z" fill="#C7C7C7"/>
<path d="M246.529 266.169H251.48V259.992H246.529V266.169Z" fill="#C7C7C7"/>
<path d="M252.864 255.679H257.823V249.502H252.864V255.679Z" fill="#C7C7C7"/>
<path d="M246.529 255.678H251.48V249.502H246.529V255.678Z" fill="#C7C7C7"/>
<path d="M252.864 245.188H257.823V239.011H252.864V245.188Z" fill="#C7C7C7"/>
<path d="M246.529 245.188H251.48V239.011H246.529V245.188Z" fill="#C7C7C7"/>
<path d="M252.864 234.697H257.823V228.52H252.864V234.697Z" fill="#C7C7C7"/>
<path d="M246.529 234.697H251.48V228.52H246.529V234.697Z" fill="#C7C7C7"/>
<path d="M252.864 224.206H257.823V218.029H252.864V224.206Z" fill="#C7C7C7"/>
<path d="M246.529 224.206H251.48V218.029H246.529V224.206Z" fill="#C7C7C7"/>
<path d="M252.864 213.716H257.823V207.539H252.864V213.716Z" fill="#C7C7C7"/>
<path d="M246.529 213.716H251.48V207.539H246.529V213.716Z" fill="#C7C7C7"/>
<path d="M252.864 203.225H257.823V197.048H252.864V203.225Z" fill="#C7C7C7"/>
<path d="M246.529 203.225H251.48V197.048H246.529V203.225Z" fill="#C7C7C7"/>
<path d="M252.864 192.734H257.823V186.557H252.864V192.734Z" fill="#C7C7C7"/>
<path d="M246.529 192.734H251.48V186.557H246.529V192.734Z" fill="#C7C7C7"/>
<path d="M252.864 182.243H257.823V176.066H252.864V182.243Z" fill="#C7C7C7"/>
<path d="M246.529 182.243H251.48V176.066H246.529V182.243Z" fill="#C7C7C7"/>
<path d="M252.864 171.752H257.823V165.575H252.864V171.752Z" fill="#C7C7C7"/>
<path d="M245.196 165.575H240.244V171.752H245.196V165.575Z" fill="#C7C7C7"/>
<path d="M245.196 176.066H240.244V182.243H245.196V176.066Z" fill="#C7C7C7"/>
<path d="M245.196 186.557H240.244V192.734H245.196V186.557Z" fill="#C7C7C7"/>
<path d="M245.196 197.048H240.244V203.225H245.196V197.048Z" fill="#C7C7C7"/>
<path d="M245.196 207.539H240.244V213.716H245.196V207.539Z" fill="#C7C7C7"/>
<path d="M245.196 218.029H240.244V224.206H245.196V218.029Z" fill="#C7C7C7"/>
<path d="M245.196 228.521H240.244V234.697H245.196V228.521Z" fill="#C7C7C7"/>
<path d="M245.196 239.011H240.244V245.188H245.196V239.011Z" fill="#C7C7C7"/>
<path d="M245.196 249.502H240.244V255.679H245.196V249.502Z" fill="#C7C7C7"/>
<path d="M245.196 259.992H240.244V266.169H245.196V259.992Z" fill="#C7C7C7"/>
<path d="M245.196 270.483H240.244V276.66H245.196V270.483Z" fill="#C7C7C7"/>
<path d="M245.196 280.974H240.244V287.151H245.196V280.974Z" fill="#C7C7C7"/>
<path d="M245.196 291.465H240.244V297.642H245.196V291.465Z" fill="#C7C7C7"/>
<path d="M245.196 301.955H240.244V308.132H245.196V301.955Z" fill="#C7C7C7"/>
<path d="M246.529 171.752H251.48V165.575H246.529V171.752Z" fill="#C7C7C7"/>
<path d="M124.995 156.79H92.7939V322.142H124.995V156.79Z" fill="#EBEBEB"/>
<path d="M125.003 153.495H92.0242V156.791H125.003V153.495Z" fill="#C7C7C7"/>
<path d="M98.9711 161.643H95.7087V322.142H98.9711V161.643Z" fill="white"/>
<path d="M104.751 161.643H101.488V322.142H104.751V161.643Z" fill="white"/>
<path d="M110.53 161.643H107.268V322.142H110.53V161.643Z" fill="white"/>
<path d="M116.309 161.643H113.047V322.142H116.309V161.643Z" fill="white"/>
<path d="M122.088 161.643H118.826V322.142H122.088V161.643Z" fill="white"/>
<path d="M98.9713 165.799H95.709V172.299H98.9713V165.799Z" fill="#EBEBEB"/>
<path d="M104.751 165.799H101.488V172.299H104.751V165.799Z" fill="#EBEBEB"/>
<path d="M110.53 165.799H107.268V172.299H110.53V165.799Z" fill="#EBEBEB"/>
<path d="M116.309 165.799H113.047V172.299H116.309V165.799Z" fill="#EBEBEB"/>
<path d="M122.088 165.799H118.826V172.299H122.088V165.799Z" fill="#EBEBEB"/>
<path d="M98.9711 176.364H95.7087V182.864H98.9711V176.364Z" fill="#EBEBEB"/>
<path d="M104.751 176.364H101.488V182.864H104.751V176.364Z" fill="#EBEBEB"/>
<path d="M110.53 176.364H107.268V182.864H110.53V176.364Z" fill="#EBEBEB"/>
<path d="M116.309 176.364H113.047V182.864H116.309V176.364Z" fill="#EBEBEB"/>
<path d="M122.088 176.364H118.826V182.864H122.088V176.364Z" fill="#EBEBEB"/>
<path d="M98.9711 186.93H95.7087V193.429H98.9711V186.93Z" fill="#EBEBEB"/>
<path d="M104.751 186.93H101.488V193.429H104.751V186.93Z" fill="#EBEBEB"/>
<path d="M110.53 186.93H107.268V193.429H110.53V186.93Z" fill="#EBEBEB"/>
<path d="M116.309 186.93H113.047V193.429H116.309V186.93Z" fill="#EBEBEB"/>
<path d="M122.088 186.93H118.826V193.429H122.088V186.93Z" fill="#EBEBEB"/>
<path d="M98.9711 197.495H95.7087V203.995H98.9711V197.495Z" fill="#EBEBEB"/>
<path d="M104.751 197.495H101.488V203.995H104.751V197.495Z" fill="#EBEBEB"/>
<path d="M110.53 197.495H107.268V203.995H110.53V197.495Z" fill="#EBEBEB"/>
<path d="M116.309 197.495H113.047V203.995H116.309V197.495Z" fill="#EBEBEB"/>
<path d="M122.088 197.495H118.826V203.995H122.088V197.495Z" fill="#EBEBEB"/>
<path d="M98.9713 208.061H95.709V214.56H98.9713V208.061Z" fill="#EBEBEB"/>
<path d="M104.751 208.061H101.488V214.56H104.751V208.061Z" fill="#EBEBEB"/>
<path d="M110.53 208.061H107.268V214.56H110.53V208.061Z" fill="#EBEBEB"/>
<path d="M116.309 208.061H113.047V214.56H116.309V208.061Z" fill="#EBEBEB"/>
<path d="M122.088 208.061H118.826V214.56H122.088V208.061Z" fill="#EBEBEB"/>
<path d="M98.9711 218.617H95.7087V225.117H98.9711V218.617Z" fill="#EBEBEB"/>
<path d="M104.751 218.617H101.488V225.117H104.751V218.617Z" fill="#EBEBEB"/>
<path d="M110.53 218.617H107.268V225.117H110.53V218.617Z" fill="#EBEBEB"/>
<path d="M116.309 218.617H113.047V225.117H116.309V218.617Z" fill="#EBEBEB"/>
<path d="M122.088 218.617H118.826V225.117H122.088V218.617Z" fill="#EBEBEB"/>
<path d="M98.9711 229.183H95.7087V235.682H98.9711V229.183Z" fill="#EBEBEB"/>
<path d="M104.751 229.183H101.488V235.682H104.751V229.183Z" fill="#EBEBEB"/>
<path d="M110.53 229.183H107.268V235.682H110.53V229.183Z" fill="#EBEBEB"/>
<path d="M116.309 229.183H113.047V235.682H116.309V229.183Z" fill="#EBEBEB"/>
<path d="M122.088 229.183H118.826V235.682H122.088V229.183Z" fill="#EBEBEB"/>
<path d="M98.9713 239.748H95.709V246.248H98.9713V239.748Z" fill="#EBEBEB"/>
<path d="M104.751 239.748H101.488V246.248H104.751V239.748Z" fill="#EBEBEB"/>
<path d="M110.53 239.748H107.268V246.248H110.53V239.748Z" fill="#EBEBEB"/>
<path d="M116.309 239.748H113.047V246.248H116.309V239.748Z" fill="#EBEBEB"/>
<path d="M122.088 239.748H118.826V246.248H122.088V239.748Z" fill="#EBEBEB"/>
<path d="M98.9713 250.313H95.709V256.813H98.9713V250.313Z" fill="#EBEBEB"/>
<path d="M104.751 250.313H101.488V256.813H104.751V250.313Z" fill="#EBEBEB"/>
<path d="M110.53 250.313H107.268V256.813H110.53V250.313Z" fill="#EBEBEB"/>
<path d="M116.309 250.313H113.047V256.813H116.309V250.313Z" fill="#EBEBEB"/>
<path d="M122.088 250.313H118.826V256.813H122.088V250.313Z" fill="#EBEBEB"/>
<path d="M98.9713 260.878H95.709V267.378H98.9713V260.878Z" fill="#EBEBEB"/>
<path d="M104.751 260.878H101.488V267.378H104.751V260.878Z" fill="#EBEBEB"/>
<path d="M110.53 260.878H107.268V267.378H110.53V260.878Z" fill="#EBEBEB"/>
<path d="M116.309 260.878H113.047V267.378H116.309V260.878Z" fill="#EBEBEB"/>
<path d="M122.088 260.878H118.826V267.378H122.088V260.878Z" fill="#EBEBEB"/>
<path d="M98.9713 271.443H95.709V277.943H98.9713V271.443Z" fill="#EBEBEB"/>
<path d="M104.751 271.443H101.488V277.943H104.751V271.443Z" fill="#EBEBEB"/>
<path d="M110.53 271.443H107.268V277.943H110.53V271.443Z" fill="#EBEBEB"/>
<path d="M116.309 271.443H113.047V277.943H116.309V271.443Z" fill="#EBEBEB"/>
<path d="M122.088 271.443H118.826V277.943H122.088V271.443Z" fill="#EBEBEB"/>
<path d="M98.9713 282.001H95.709V288.501H98.9713V282.001Z" fill="#EBEBEB"/>
<path d="M104.751 282.001H101.488V288.501H104.751V282.001Z" fill="#EBEBEB"/>
<path d="M110.53 282.001H107.268V288.501H110.53V282.001Z" fill="#EBEBEB"/>
<path d="M116.309 282.001H113.047V288.501H116.309V282.001Z" fill="#EBEBEB"/>
<path d="M122.088 282.001H118.826V288.501H122.088V282.001Z" fill="#EBEBEB"/>
<path d="M98.9713 292.565H95.709V299.065H98.9713V292.565Z" fill="#EBEBEB"/>
<path d="M104.751 292.565H101.488V299.065H104.751V292.565Z" fill="#EBEBEB"/>
<path d="M110.53 292.565H107.268V299.065H110.53V292.565Z" fill="#EBEBEB"/>
<path d="M116.309 292.565H113.047V299.065H116.309V292.565Z" fill="#EBEBEB"/>
<path d="M122.088 292.565H118.826V299.065H122.088V292.565Z" fill="#EBEBEB"/>
<path d="M98.9713 303.131H95.709V322.142H98.9713V303.131Z" fill="#EBEBEB"/>
<path d="M104.751 303.131H101.488V322.142H104.751V303.131Z" fill="#EBEBEB"/>
<path d="M110.53 303.131H107.268V322.142H110.53V303.131Z" fill="#EBEBEB"/>
<path d="M116.309 303.131H113.047V322.142H116.309V303.131Z" fill="#EBEBEB"/>
<path d="M122.088 303.131H118.826V322.142H122.088V303.131Z" fill="#EBEBEB"/>
<path d="M145.679 156.79H125.004V322.142H145.679V156.79Z" fill="#DBDBDB"/>
<path d="M146.573 153.495H125.004V156.791H146.573V153.495Z" fill="#C7C7C7"/>
<path d="M131.172 161.643H127.91V322.142H131.172V161.643Z" fill="#C7C7C7"/>
<path d="M136.952 161.643H133.689V322.142H136.952V161.643Z" fill="#C7C7C7"/>
<path d="M142.731 161.643H139.469V322.142H142.731V161.643Z" fill="#C7C7C7"/>
<path d="M131.172 165.799H127.91V172.299H131.172V165.799Z" fill="#DBDBDB"/>
<path d="M136.952 165.799H133.689V172.299H136.952V165.799Z" fill="#DBDBDB"/>
<path d="M142.731 165.799H139.469V172.299H142.731V165.799Z" fill="#DBDBDB"/>
<path d="M131.172 176.364H127.91V182.864H131.172V176.364Z" fill="#DBDBDB"/>
<path d="M136.952 176.364H133.689V182.864H136.952V176.364Z" fill="#DBDBDB"/>
<path d="M142.731 176.364H139.469V182.864H142.731V176.364Z" fill="#DBDBDB"/>
<path d="M131.172 186.93H127.91V193.429H131.172V186.93Z" fill="#DBDBDB"/>
<path d="M136.952 186.93H133.689V193.429H136.952V186.93Z" fill="#DBDBDB"/>
<path d="M142.731 186.93H139.469V193.429H142.731V186.93Z" fill="#DBDBDB"/>
<path d="M131.172 197.495H127.91V203.995H131.172V197.495Z" fill="#DBDBDB"/>
<path d="M136.952 197.495H133.689V203.995H136.952V197.495Z" fill="#DBDBDB"/>
<path d="M142.731 197.495H139.469V203.995H142.731V197.495Z" fill="#DBDBDB"/>
<path d="M131.172 208.061H127.91V214.56H131.172V208.061Z" fill="#DBDBDB"/>
<path d="M136.952 208.061H133.689V214.56H136.952V208.061Z" fill="#DBDBDB"/>
<path d="M142.731 208.061H139.469V214.56H142.731V208.061Z" fill="#DBDBDB"/>
<path d="M131.172 218.617H127.91V225.117H131.172V218.617Z" fill="#DBDBDB"/>
<path d="M136.952 218.617H133.689V225.117H136.952V218.617Z" fill="#DBDBDB"/>
<path d="M142.731 218.617H139.469V225.117H142.731V218.617Z" fill="#DBDBDB"/>
<path d="M131.172 229.183H127.91V235.682H131.172V229.183Z" fill="#DBDBDB"/>
<path d="M136.952 229.183H133.689V235.682H136.952V229.183Z" fill="#DBDBDB"/>
<path d="M142.731 229.183H139.469V235.682H142.731V229.183Z" fill="#DBDBDB"/>
<path d="M131.172 239.748H127.91V246.248H131.172V239.748Z" fill="#DBDBDB"/>
<path d="M136.952 239.748H133.689V246.248H136.952V239.748Z" fill="#DBDBDB"/>
<path d="M142.731 239.748H139.469V246.248H142.731V239.748Z" fill="#DBDBDB"/>
<path d="M131.172 250.313H127.91V256.813H131.172V250.313Z" fill="#DBDBDB"/>
<path d="M136.952 250.313H133.689V256.813H136.952V250.313Z" fill="#DBDBDB"/>
<path d="M142.731 250.313H139.469V256.813H142.731V250.313Z" fill="#DBDBDB"/>
<path d="M131.172 260.878H127.91V267.378H131.172V260.878Z" fill="#DBDBDB"/>
<path d="M136.952 260.878H133.689V267.378H136.952V260.878Z" fill="#DBDBDB"/>
<path d="M142.731 260.878H139.469V267.378H142.731V260.878Z" fill="#DBDBDB"/>
<path d="M131.172 271.443H127.91V277.943H131.172V271.443Z" fill="#DBDBDB"/>
<path d="M136.952 271.443H133.689V277.943H136.952V271.443Z" fill="#DBDBDB"/>
<path d="M142.731 271.443H139.469V277.943H142.731V271.443Z" fill="#DBDBDB"/>
<path d="M131.172 282.001H127.91V288.501H131.172V282.001Z" fill="#DBDBDB"/>
<path d="M136.952 282.001H133.689V288.501H136.952V282.001Z" fill="#DBDBDB"/>
<path d="M142.731 282.001H139.469V288.501H142.731V282.001Z" fill="#DBDBDB"/>
<path d="M131.172 292.565H127.91V299.065H131.172V292.565Z" fill="#DBDBDB"/>
<path d="M136.952 292.565H133.689V299.065H136.952V292.565Z" fill="#DBDBDB"/>
<path d="M142.731 292.565H139.469V299.065H142.731V292.565Z" fill="#DBDBDB"/>
<path d="M131.172 303.131H127.91V322.142H131.172V303.131Z" fill="#DBDBDB"/>
<path d="M136.952 303.131H133.689V322.142H136.952V303.131Z" fill="#DBDBDB"/>
<path d="M142.731 303.131H139.469V322.142H142.731V303.131Z" fill="#DBDBDB"/>
<path d="M78.2715 206.313H47.7266V322.142H78.2715V206.313Z" fill="#EBEBEB"/>
<path d="M78.2712 198.629H52.0732V206.313H78.2712V198.629Z" fill="#C7C7C7"/>
<path d="M74.9177 210.32H51.0713V296.913H74.9177V210.32Z" fill="#DBDBDB"/>
<path d="M74.9177 218.584H51.0713V220.629H74.9177V218.584Z" fill="white"/>
<path d="M74.9177 227.062H51.0713V229.108H74.9177V227.062Z" fill="white"/>
<path d="M74.9177 235.533H51.0713V237.578H74.9177V235.533Z" fill="white"/>
<path d="M74.9177 244.012H51.0713V246.057H74.9177V244.012Z" fill="white"/>
<path d="M74.9177 252.49H51.0713V254.535H74.9177V252.49Z" fill="white"/>
<path d="M74.9177 260.961H51.0713V263.006H74.9177V260.961Z" fill="white"/>
<path d="M74.9177 269.439H51.0713V271.485H74.9177V269.439Z" fill="white"/>
<path d="M74.9177 277.919H51.0713V279.964H74.9177V277.919Z" fill="white"/>
<path d="M74.9177 286.389H51.0713V288.434H74.9177V286.389Z" fill="white"/>
<path d="M74.9177 294.868H51.0713V296.913H74.9177V294.868Z" fill="white"/>
<path d="M97.3983 206.313H78.2715V322.142H97.3983V206.313Z" fill="#DBDBDB"/>
<path d="M94.5334 198.629H78.2715V206.313H94.5334V198.629Z" fill="#A6A6A6"/>
<path d="M95.6096 210.32H80.9043V296.913H95.6096V210.32Z" fill="#C7C7C7"/>
<path d="M95.6093 218.584H80.9041V220.629H95.6093V218.584Z" fill="white"/>
<path d="M95.6096 227.062H80.9043V229.108H95.6096V227.062Z" fill="white"/>
<path d="M95.6093 235.533H80.9041V237.578H95.6093V235.533Z" fill="white"/>
<path d="M95.6096 244.012H80.9043V246.057H95.6096V244.012Z" fill="white"/>
<path d="M95.6096 252.49H80.9043V254.535H95.6096V252.49Z" fill="white"/>
<path d="M95.6093 260.961H80.9041V263.006H95.6093V260.961Z" fill="white"/>
<path d="M95.6096 269.439H80.9043V271.485H95.6096V269.439Z" fill="white"/>
<path d="M95.6096 277.919H80.9043V279.964H95.6096V277.919Z" fill="white"/>
<path d="M95.6096 286.389H80.9043V288.434H95.6096V286.389Z" fill="white"/>
<path d="M95.6096 294.868H80.9043V296.913H95.6096V294.868Z" fill="white"/>
<path d="M336.946 208.268H320.635V227.535H336.946V208.268Z" fill="#DBDBDB"/>
<path d="M347.288 208.268H336.946V228.247H347.288V208.268Z" fill="#C7C7C7"/>
<path d="M347.975 216.771H337.708V228.238H347.975V216.771Z" fill="#DBDBDB"/>
<path d="M354.376 216.771H347.976V228.238H354.376V216.771Z" fill="#C7C7C7"/>
<path d="M340.755 226.284H314.375V322.15H340.755V226.284Z" fill="#EBEBEB"/>
<path d="M325.686 230.399H317.39V233.786H325.686V230.399Z" fill="white"/>
<path d="M336.3 230.399H328.004V233.786H336.3V230.399Z" fill="white"/>
<path d="M325.686 236.154H317.39V239.541H325.686V236.154Z" fill="white"/>
<path d="M336.3 236.154H328.004V239.541H336.3V236.154Z" fill="white"/>
<path d="M325.686 241.909H317.39V245.296H325.686V241.909Z" fill="white"/>
<path d="M336.3 241.909H328.004V245.296H336.3V241.909Z" fill="white"/>
<path d="M325.686 247.663H317.39V251.05H325.686V247.663Z" fill="white"/>
<path d="M336.3 247.663H328.004V251.05H336.3V247.663Z" fill="white"/>
<path d="M325.686 253.418H317.39V256.804H325.686V253.418Z" fill="white"/>
<path d="M336.3 253.418H328.004V256.804H336.3V253.418Z" fill="white"/>
<path d="M325.686 259.173H317.39V262.559H325.686V259.173Z" fill="white"/>
<path d="M336.3 259.173H328.004V262.559H336.3V259.173Z" fill="white"/>
<path d="M325.686 264.928H317.39V268.314H325.686V264.928Z" fill="white"/>
<path d="M336.3 264.928H328.004V268.314H336.3V264.928Z" fill="white"/>
<path d="M325.686 270.682H317.39V274.068H325.686V270.682Z" fill="white"/>
<path d="M336.3 270.682H328.004V274.068H336.3V270.682Z" fill="white"/>
<path d="M325.686 276.437H317.39V279.823H325.686V276.437Z" fill="white"/>
<path d="M336.3 276.437H328.004V279.823H336.3V276.437Z" fill="white"/>
<path d="M325.686 282.191H317.39V285.578H325.686V282.191Z" fill="white"/>
<path d="M336.3 282.191H328.004V285.578H336.3V282.191Z" fill="white"/>
<path d="M325.686 287.938H317.39V291.324H325.686V287.938Z" fill="white"/>
<path d="M336.3 287.938H328.004V291.324H336.3V287.938Z" fill="white"/>
<path d="M325.686 293.692H317.39V297.079H325.686V293.692Z" fill="white"/>
<path d="M336.3 293.692H328.004V297.079H336.3V293.692Z" fill="white"/>
<path d="M325.686 299.446H317.39V302.833H325.686V299.446Z" fill="white"/>
<path d="M336.3 299.446H328.004V302.833H336.3V299.446Z" fill="white"/>
<path d="M325.686 305.201H317.39V308.588H325.686V305.201Z" fill="white"/>
<path d="M336.3 305.201H328.004V308.588H336.3V305.201Z" fill="white"/>
<path d="M362.127 226.284H340.756V322.15H362.127V226.284Z" fill="#C7C7C7"/>
<path d="M353.175 308.596H359.981V305.209H353.175V308.596Z" fill="#EBEBEB"/>
<path d="M344.465 308.596H351.271V305.209H344.465V308.596Z" fill="#EBEBEB"/>
<path d="M353.175 302.842H359.981V299.455H353.175V302.842Z" fill="#EBEBEB"/>
<path d="M344.465 302.842H351.271V299.455H344.465V302.842Z" fill="#EBEBEB"/>
<path d="M353.175 297.087H359.981V293.7H353.175V297.087Z" fill="#EBEBEB"/>
<path d="M344.465 297.087H351.271V293.7H344.465V297.087Z" fill="#EBEBEB"/>
<path d="M353.175 291.332H359.981V287.946H353.175V291.332Z" fill="#EBEBEB"/>
<path d="M344.465 291.332H351.271V287.946H344.465V291.332Z" fill="#EBEBEB"/>
<path d="M353.175 285.569H359.981V282.183H353.175V285.569Z" fill="#EBEBEB"/>
<path d="M344.465 285.569H351.271V282.183H344.465V285.569Z" fill="#EBEBEB"/>
<path d="M353.175 279.823H359.981V276.437H353.175V279.823Z" fill="#EBEBEB"/>
<path d="M344.465 279.823H351.271V276.437H344.465V279.823Z" fill="#EBEBEB"/>
<path d="M353.175 274.068H359.981V270.682H353.175V274.068Z" fill="#EBEBEB"/>
<path d="M344.465 274.068H351.271V270.682H344.465V274.068Z" fill="#EBEBEB"/>
<path d="M353.175 268.313H359.981V264.927H353.175V268.313Z" fill="#EBEBEB"/>
<path d="M344.465 268.313H351.271V264.927H344.465V268.313Z" fill="#EBEBEB"/>
<path d="M353.175 262.56H359.981V259.173H353.175V262.56Z" fill="#EBEBEB"/>
<path d="M344.465 262.56H351.271V259.173H344.465V262.56Z" fill="#EBEBEB"/>
<path d="M353.175 256.805H359.981V253.418H353.175V256.805Z" fill="#EBEBEB"/>
<path d="M344.465 256.805H351.271V253.418H344.465V256.805Z" fill="#EBEBEB"/>
<path d="M353.175 251.05H359.981V247.664H353.175V251.05Z" fill="#EBEBEB"/>
<path d="M344.465 251.05H351.271V247.663H344.465V251.05Z" fill="#EBEBEB"/>
<path d="M353.175 245.304H359.981V241.917H353.175V245.304Z" fill="#EBEBEB"/>
<path d="M344.465 245.304H351.271V241.917H344.465V245.304Z" fill="#EBEBEB"/>
<path d="M353.175 239.549H359.981V236.163H353.175V239.549Z" fill="#EBEBEB"/>
<path d="M344.465 239.549H351.271V236.162H344.465V239.549Z" fill="#EBEBEB"/>
<path d="M353.175 233.795H359.981V230.408H353.175V233.795Z" fill="#EBEBEB"/>
<path d="M344.465 233.795H351.271V230.408H344.465V233.795Z" fill="#EBEBEB"/>
<path d="M160.591 208.268H144.279V227.535H160.591V208.268Z" fill="#DBDBDB"/>
<path d="M170.933 208.268H160.591V228.247H170.933V208.268Z" fill="#C7C7C7"/>
<path d="M171.629 216.771H161.361V228.238H171.629V216.771Z" fill="#DBDBDB"/>
<path d="M178.021 216.771H171.62V228.238H178.021V216.771Z" fill="#C7C7C7"/>
<path d="M164.4 226.284H138.02V322.15H164.4V226.284Z" fill="#EBEBEB"/>
<path d="M149.33 230.399H141.033V233.786H149.33V230.399Z" fill="white"/>
<path d="M159.945 230.399H151.648V233.786H159.945V230.399Z" fill="white"/>
<path d="M149.33 236.154H141.033V239.541H149.33V236.154Z" fill="white"/>
<path d="M159.945 236.154H151.648V239.541H159.945V236.154Z" fill="white"/>
<path d="M149.33 241.909H141.033V245.296H149.33V241.909Z" fill="white"/>
<path d="M159.945 241.909H151.648V245.296H159.945V241.909Z" fill="white"/>
<path d="M149.33 247.663H141.033V251.05H149.33V247.663Z" fill="white"/>
<path d="M159.945 247.663H151.648V251.05H159.945V247.663Z" fill="white"/>
<path d="M149.33 253.418H141.033V256.804H149.33V253.418Z" fill="white"/>
<path d="M159.945 253.418H151.648V256.804H159.945V253.418Z" fill="white"/>
<path d="M149.33 259.173H141.033V262.559H149.33V259.173Z" fill="white"/>
<path d="M159.945 259.173H151.648V262.559H159.945V259.173Z" fill="white"/>
<path d="M149.33 264.928H141.033V268.314H149.33V264.928Z" fill="white"/>
<path d="M159.945 264.928H151.648V268.314H159.945V264.928Z" fill="white"/>
<path d="M149.33 270.682H141.033V274.068H149.33V270.682Z" fill="white"/>
<path d="M159.945 270.682H151.648V274.068H159.945V270.682Z" fill="white"/>
<path d="M149.33 276.437H141.033V279.823H149.33V276.437Z" fill="white"/>
<path d="M159.945 276.437H151.648V279.823H159.945V276.437Z" fill="white"/>
<path d="M149.33 282.191H141.033V285.578H149.33V282.191Z" fill="white"/>
<path d="M159.945 282.191H151.648V285.578H159.945V282.191Z" fill="white"/>
<path d="M149.33 287.938H141.033V291.324H149.33V287.938Z" fill="white"/>
<path d="M159.945 287.938H151.648V291.324H159.945V287.938Z" fill="white"/>
<path d="M149.33 293.692H141.033V297.079H149.33V293.692Z" fill="white"/>
<path d="M159.945 293.692H151.648V297.079H159.945V293.692Z" fill="white"/>
<path d="M149.33 299.446H141.033V302.833H149.33V299.446Z" fill="white"/>
<path d="M159.945 299.446H151.648V302.833H159.945V299.446Z" fill="white"/>
<path d="M149.33 305.201H141.033V308.588H149.33V305.201Z" fill="white"/>
<path d="M159.945 305.201H151.648V308.588H159.945V305.201Z" fill="white"/>
<path d="M185.77 226.284H164.399V322.15H185.77V226.284Z" fill="#C7C7C7"/>
<path d="M176.82 308.596H183.626V305.209H176.82V308.596Z" fill="#EBEBEB"/>
<path d="M168.109 308.596H174.915V305.209H168.109V308.596Z" fill="#EBEBEB"/>
<path d="M176.82 302.842H183.626V299.455H176.82V302.842Z" fill="#EBEBEB"/>
<path d="M168.109 302.842H174.915V299.455H168.109V302.842Z" fill="#EBEBEB"/>
<path d="M176.82 297.087H183.626V293.7H176.82V297.087Z" fill="#EBEBEB"/>
<path d="M168.109 297.087H174.915V293.7H168.109V297.087Z" fill="#EBEBEB"/>
<path d="M176.82 291.332H183.626V287.946H176.82V291.332Z" fill="#EBEBEB"/>
<path d="M168.109 291.332H174.915V287.946H168.109V291.332Z" fill="#EBEBEB"/>
<path d="M176.82 285.569H183.626V282.183H176.82V285.569Z" fill="#EBEBEB"/>
<path d="M168.109 285.569H174.915V282.183H168.109V285.569Z" fill="#EBEBEB"/>
<path d="M176.82 279.823H183.626V276.437H176.82V279.823Z" fill="#EBEBEB"/>
<path d="M168.109 279.823H174.915V276.437H168.109V279.823Z" fill="#EBEBEB"/>
<path d="M176.82 274.068H183.626V270.682H176.82V274.068Z" fill="#EBEBEB"/>
<path d="M168.109 274.068H174.915V270.682H168.109V274.068Z" fill="#EBEBEB"/>
<path d="M176.82 268.313H183.626V264.927H176.82V268.313Z" fill="#EBEBEB"/>
<path d="M168.109 268.313H174.915V264.927H168.109V268.313Z" fill="#EBEBEB"/>
<path d="M176.82 262.56H183.626V259.173H176.82V262.56Z" fill="#EBEBEB"/>
<path d="M168.109 262.56H174.915V259.173H168.109V262.56Z" fill="#EBEBEB"/>
<path d="M176.82 256.805H183.626V253.418H176.82V256.805Z" fill="#EBEBEB"/>
<path d="M168.109 256.805H174.915V253.418H168.109V256.805Z" fill="#EBEBEB"/>
<path d="M176.82 251.05H183.626V247.664H176.82V251.05Z" fill="#EBEBEB"/>
<path d="M168.109 251.05H174.915V247.664H168.109V251.05Z" fill="#EBEBEB"/>
<path d="M176.82 245.304H183.626V241.917H176.82V245.304Z" fill="#EBEBEB"/>
<path d="M168.109 245.304H174.915V241.917H168.109V245.304Z" fill="#EBEBEB"/>
<path d="M176.82 239.549H183.626V236.163H176.82V239.549Z" fill="#EBEBEB"/>
<path d="M168.109 239.549H174.915V236.163H168.109V239.549Z" fill="#EBEBEB"/>
<path d="M176.82 233.795H183.626V230.408H176.82V233.795Z" fill="#EBEBEB"/>
<path d="M168.109 233.795H174.915V230.408H168.109V233.795Z" fill="#EBEBEB"/>
<path d="M207 378.197C285.732 378.197 349.557 371.821 349.557 363.956C349.557 356.09 285.732 349.714 207 349.714C128.268 349.714 64.4434 356.09 64.4434 363.956C64.4434 371.821 128.268 378.197 207 378.197Z" fill="#EBEBEB"/>
<path d="M287.415 259.677H256.307V322.141H287.415V259.677Z" fill="#37474F"/>
<path d="M266.707 265.084H261.201V268.91H266.707V265.084Z" fill="#455A64"/>
<path d="M266.707 273.256H261.201V277.081H266.707V273.256Z" fill="#455A64"/>
<path d="M266.707 281.429H261.201V285.254H266.707V281.429Z" fill="#455A64"/>
<path d="M266.707 289.61H261.201V293.435H266.707V289.61Z" fill="#455A64"/>
<path d="M266.707 297.781H261.201V301.607H266.707V297.781Z" fill="#455A64"/>
<path d="M266.707 305.954H261.201V309.78H266.707V305.954Z" fill="#455A64"/>
<path d="M266.707 314.126H261.201V317.952H266.707V314.126Z" fill="#455A64"/>
<path d="M274.623 265.084H269.117V268.91H274.623V265.084Z" fill="#455A64"/>
<path d="M274.623 273.256H269.117V277.081H274.623V273.256Z" fill="#455A64"/>
<path d="M274.623 281.429H269.117V285.254H274.623V281.429Z" fill="#455A64"/>
<path d="M274.623 289.61H269.117V293.435H274.623V289.61Z" fill="#455A64"/>
<path d="M274.623 297.781H269.117V301.607H274.623V297.781Z" fill="#455A64"/>
<path d="M274.623 305.954H269.117V309.78H274.623V305.954Z" fill="#455A64"/>
<path d="M274.623 314.126H269.117V317.952H274.623V314.126Z" fill="#455A64"/>
<path d="M282.53 265.084H277.024V268.91H282.53V265.084Z" fill="#455A64"/>
<path d="M282.53 273.256H277.024V277.081H282.53V273.256Z" fill="#455A64"/>
<path d="M282.53 281.429H277.024V285.254H282.53V281.429Z" fill="#455A64"/>
<path d="M282.53 289.61H277.024V293.435H282.53V289.61Z" fill="#455A64"/>
<path d="M282.53 297.781H277.024V301.607H282.53V297.781Z" fill="#455A64"/>
<path d="M282.53 305.954H277.024V309.78H282.53V305.954Z" fill="#455A64"/>
<path d="M282.53 314.126H277.024V317.952H282.53V314.126Z" fill="#455A64"/>
<path d="M287.423 253.169H266.707V259.677H287.423V253.169Z" fill="#455A64"/>
<path d="M287.415 249.137H274.283V253.169H287.415V249.137Z" fill="#37474F"/>
<path d="M309.242 259.677H287.416V322.141H309.242V259.677Z" fill="#263238"/>
<path d="M302.526 317.339H307.006V313.514H302.526V317.339Z" fill="#37474F"/>
<path d="M302.526 309.175H307.006V305.35H302.526V309.175Z" fill="#37474F"/>
<path d="M302.526 301.003H307.006V297.178H302.526V301.003Z" fill="#37474F"/>
<path d="M302.526 292.823H307.006V288.997H302.526V292.823Z" fill="#37474F"/>
<path d="M302.526 284.65H307.006V280.825H302.526V284.65Z" fill="#37474F"/>
<path d="M302.526 276.469H307.006V272.644H302.526V276.469Z" fill="#37474F"/>
<path d="M302.526 268.305H307.006V264.48H302.526V268.305Z" fill="#37474F"/>
<path d="M296.084 317.339H300.564V313.514H296.084V317.339Z" fill="#37474F"/>
<path d="M296.084 309.175H300.564V305.35H296.084V309.175Z" fill="#37474F"/>
<path d="M296.085 301.003H300.564V297.178H296.085V301.003Z" fill="#37474F"/>
<path d="M296.085 292.823H300.564V288.997H296.085V292.823Z" fill="#37474F"/>
<path d="M296.084 284.65H300.564V280.825H296.084V284.65Z" fill="#37474F"/>
<path d="M296.084 276.469H300.564V272.644H296.084V276.469Z" fill="#37474F"/>
<path d="M296.084 268.305H300.564V264.48H296.084V268.305Z" fill="#37474F"/>
<path d="M289.659 317.339H294.138V313.514H289.659V317.339Z" fill="#37474F"/>
<path d="M289.659 309.175H294.138V305.35H289.659V309.175Z" fill="#37474F"/>
<path d="M289.659 301.003H294.138V297.178H289.659V301.003Z" fill="#37474F"/>
<path d="M289.659 292.823H294.138V288.997H289.659V292.823Z" fill="#37474F"/>
<path d="M289.659 284.65H294.138V280.824H289.659V284.65Z" fill="#37474F"/>
<path d="M289.659 276.469H294.138V272.644H289.659V276.469Z" fill="#37474F"/>
<path d="M289.659 268.305H294.138V264.48H289.659V268.305Z" fill="#37474F"/>
<path d="M305.938 253.169H287.416V259.677H305.938V253.169Z" fill="#37474F"/>
<path d="M297.451 249.137H287.416V253.169H297.451V249.137Z" fill="#263238"/>
<path d="M278.953 80.6963H287.316C268.91 80.6963 253.998 95.8404 253.998 114.52C253.998 133.2 268.902 148.36 287.316 148.36H278.953C260.547 148.36 245.635 133.216 245.635 114.52C245.635 95.8238 260.547 80.6963 278.953 80.6963Z" fill="#FFC727"/>
<g opacity="0.1">
<path d="M278.953 80.6963H287.316C268.91 80.6963 253.998 95.8404 253.998 114.52C253.998 133.2 268.902 148.36 287.316 148.36H278.953C260.547 148.36 245.635 133.216 245.635 114.52C245.635 95.8238 260.547 80.6963 278.953 80.6963Z" fill="black"/>
</g>
<path d="M287.316 244.351H278.953C312.777 204.946 344.456 161.749 339.803 114.057C336.772 83.164 315.791 52.3955 278.953 52.3955H287.316C324.162 52.3955 345.135 83.164 348.157 114.057C352.852 161.749 321.173 204.946 287.316 244.351Z" fill="#FFC727"/>
<g opacity="0.1">
<path d="M287.316 244.351H278.953C312.777 204.946 344.456 161.749 339.803 114.057C336.772 83.164 315.791 52.3955 278.953 52.3955H287.316C324.162 52.3955 345.135 83.164 348.157 114.057C352.852 161.749 321.173 204.946 287.316 244.351Z" fill="black"/>
</g>
<path d="M339.795 114.057C344.456 161.75 312.777 204.947 278.953 244.36C245.171 204.947 213.492 161.75 218.145 114.057C221.175 83.1645 242.157 52.4043 278.953 52.4043C315.75 52.4043 336.772 83.1645 339.795 114.057ZM278.953 148.361C297.401 148.361 312.313 133.217 312.313 114.521C312.313 95.8246 297.409 80.6971 278.953 80.6971C260.497 80.6971 245.635 95.8412 245.635 114.521C245.635 133.201 260.538 148.361 278.953 148.361Z" fill="#FFC727"/>
<path d="M42.1289 325.983L83.3467 325.785L124.565 325.71L207 325.569L289.436 325.71L330.654 325.785L371.872 325.983L330.654 326.19L289.436 326.265L207 326.397L124.565 326.265L83.3467 326.19L42.1289 325.983Z" fill="#263238"/>
<path d="M372.02 322.142H41.9795V325.984H372.02V322.142Z" fill="#C7C7C7"/>
<path d="M51.5264 322.142C51.7472 323.413 51.7472 324.712 51.5264 325.984C51.2946 324.713 51.2946 323.412 51.5264 322.142Z" fill="#263238"/>
<path d="M62.6294 322.142C62.8502 323.413 62.8502 324.712 62.6294 325.984C62.4087 324.712 62.4087 323.413 62.6294 322.142Z" fill="#263238"/>
<path d="M73.7329 322.142C73.9537 323.413 73.9537 324.712 73.7329 325.984C73.5122 324.712 73.5122 323.413 73.7329 322.142Z" fill="#263238"/>
<path d="M84.8364 322.142C85.0572 323.413 85.0572 324.712 84.8364 325.984C84.6157 324.712 84.6157 323.413 84.8364 322.142Z" fill="#263238"/>
<path d="M95.9485 322.142C96.1693 323.413 96.1693 324.712 95.9485 325.984C95.7167 324.713 95.7167 323.412 95.9485 322.142Z" fill="#263238"/>
<path d="M107.052 322.142C107.273 323.413 107.273 324.712 107.052 325.984C106.832 324.712 106.832 323.413 107.052 322.142Z" fill="#263238"/>
<path d="M118.156 322.142C118.377 323.413 118.377 324.712 118.156 325.984C117.935 324.712 117.935 323.413 118.156 322.142Z" fill="#263238"/>
<path d="M129.259 322.142C129.48 323.413 129.48 324.712 129.259 325.984C129.039 324.712 129.039 323.413 129.259 322.142Z" fill="#263238"/>
<path d="M140.371 322.142C140.592 323.413 140.592 324.712 140.371 325.984C140.139 324.713 140.139 323.412 140.371 322.142Z" fill="#263238"/>
<path d="M151.474 322.142C151.695 323.413 151.695 324.712 151.474 325.984C151.253 324.712 151.253 323.413 151.474 322.142Z" fill="#263238"/>
<path d="M162.578 322.142C162.798 323.413 162.798 324.712 162.578 325.984C162.357 324.712 162.357 323.413 162.578 322.142Z" fill="#263238"/>
<path d="M173.681 322.142C173.902 323.413 173.902 324.712 173.681 325.984C173.46 324.712 173.46 323.413 173.681 322.142Z" fill="#263238"/>
<path d="M184.793 322.142C185.014 323.413 185.014 324.712 184.793 325.984C184.561 324.713 184.561 323.412 184.793 322.142Z" fill="#263238"/>
<path d="M195.896 322.142C196.117 323.413 196.117 324.712 195.896 325.984C195.675 324.712 195.675 323.413 195.896 322.142Z" fill="#263238"/>
<path d="M207 322.142C207.22 323.413 207.22 324.712 207 325.984C206.779 324.712 206.779 323.413 207 322.142Z" fill="#263238"/>
<path d="M218.103 322.142C218.324 323.413 218.324 324.712 218.103 325.984C217.882 324.712 217.882 323.413 218.103 322.142Z" fill="#263238"/>
<path d="M229.215 322.142C229.436 323.413 229.436 324.712 229.215 325.984C228.983 324.713 228.983 323.412 229.215 322.142Z" fill="#263238"/>
<path d="M240.319 322.142C240.54 323.413 240.54 324.712 240.319 325.984C240.098 324.712 240.098 323.413 240.319 322.142Z" fill="#263238"/>
<path d="M251.422 322.142C251.643 323.413 251.643 324.712 251.422 325.984C251.202 324.712 251.202 323.413 251.422 322.142Z" fill="#263238"/>
<path d="M262.526 322.142C262.747 323.413 262.747 324.712 262.526 325.984C262.305 324.712 262.305 323.413 262.526 322.142Z" fill="#263238"/>
<path d="M273.629 322.142C273.861 323.412 273.861 324.713 273.629 325.984C273.409 324.712 273.409 323.413 273.629 322.142Z" fill="#263238"/>
<path d="M284.741 322.142C284.961 323.413 284.961 324.712 284.741 325.984C284.52 324.712 284.52 323.413 284.741 322.142Z" fill="#263238"/>
<path d="M295.844 322.142C296.065 323.413 296.065 324.712 295.844 325.984C295.624 324.712 295.624 323.413 295.844 322.142Z" fill="#263238"/>
<path d="M306.948 322.142C307.169 323.413 307.169 324.712 306.948 325.984C306.727 324.712 306.727 323.413 306.948 322.142Z" fill="#263238"/>
<path d="M318.051 322.142C318.283 323.412 318.283 324.713 318.051 325.984C317.831 324.712 317.831 323.413 318.051 322.142Z" fill="#263238"/>
<path d="M329.163 322.142C329.383 323.413 329.383 324.712 329.163 325.984C328.942 324.712 328.942 323.413 329.163 322.142Z" fill="#263238"/>
<path d="M340.308 322.142C340.528 323.413 340.528 324.712 340.308 325.984C340.186 325.351 340.131 324.707 340.142 324.063C340.135 323.418 340.191 322.775 340.308 322.142Z" fill="#263238"/>
<path d="M351.37 322.142C351.59 323.413 351.59 324.712 351.37 325.984C351.149 324.712 351.149 323.413 351.37 322.142Z" fill="#263238"/>
<path d="M362.473 322.142C362.705 323.412 362.705 324.713 362.473 325.984C362.252 324.712 362.252 323.413 362.473 322.142Z" fill="#263238"/>
<path d="M76.549 322.142H58.333C58.333 322.142 58.333 319.435 60.1629 318.714C60.6502 318.51 61.19 318.467 61.7037 318.59C62.2174 318.714 62.6783 318.998 63.0195 319.402C63.0195 319.402 63.7481 314.434 67.085 314.434C70.4218 314.434 72.0364 318.714 72.0364 318.714C72.3193 318.303 72.7161 317.984 73.178 317.796C73.6399 317.608 74.1468 317.558 74.6363 317.655C76.4745 317.903 76.549 322.142 76.549 322.142Z" fill="#37474F"/>
<path d="M369.173 322.142C369.173 322.142 368.618 319.542 367.517 319.136C367.175 319.047 366.814 319.074 366.49 319.213C366.166 319.353 365.898 319.597 365.728 319.906C365.728 319.906 365.463 317.422 363.882 316.677C362.3 315.932 361.116 317.455 361.116 317.455C361.116 317.455 359.907 314.301 357.738 314.301C355.569 314.301 354.476 318.913 354.476 318.913C354.476 318.913 353.2 317.538 351.892 318.317C350.584 319.095 350.584 322.142 350.584 322.142H369.173Z" fill="#37474F"/>
<path d="M199.209 322.142C199.209 322.142 198.654 319.542 197.553 319.136C197.211 319.046 196.848 319.073 196.522 319.213C196.197 319.352 195.927 319.596 195.756 319.906C195.756 319.906 195.5 317.422 193.918 316.677C192.337 315.932 191.153 317.455 191.153 317.455C191.153 317.455 189.936 314.301 187.775 314.301C185.613 314.301 184.512 318.913 184.512 318.913C184.512 318.913 183.237 317.538 181.929 318.317C180.621 319.095 180.612 322.142 180.612 322.142H199.209Z" fill="#37474F"/>
<path d="M61.6117 322.142H44.8281C44.8281 322.142 45.3829 319.774 46.4841 319.608C46.8219 319.575 47.162 319.645 47.4582 319.811C47.7544 319.977 47.9924 320.23 48.1401 320.536C48.1401 320.536 48.0904 317.224 50.1687 316.677C52.247 316.131 53.9858 319.029 53.9858 319.029C54.357 318.563 54.8244 318.183 55.3559 317.914C55.8875 317.646 56.4708 317.495 57.066 317.472C58.8462 317.58 59.2933 320.329 59.2933 320.329C59.2933 320.329 60.8996 319.377 61.6117 322.142Z" fill="#455A64"/>
<path d="M184.213 322.142H167.43C167.43 322.142 167.984 319.774 169.086 319.608C169.423 319.574 169.764 319.645 170.06 319.811C170.356 319.977 170.594 320.23 170.742 320.535C170.742 320.535 170.692 317.223 172.77 316.677C174.849 316.131 176.596 319.029 176.596 319.029C176.967 318.563 177.434 318.183 177.966 317.914C178.497 317.645 179.081 317.495 179.676 317.472C181.448 317.58 181.903 320.328 181.903 320.328C181.903 320.328 183.501 319.376 184.213 322.142Z" fill="#455A64"/>
<path d="M351.768 322.142H341.451C341.451 322.142 341.451 320.611 342.494 320.205C342.768 320.084 343.074 320.055 343.366 320.124C343.657 320.193 343.918 320.355 344.109 320.586C344.109 320.586 344.523 317.771 346.411 317.771C348.299 317.771 349.201 320.205 349.201 320.205C349.362 319.972 349.587 319.791 349.848 319.683C350.11 319.576 350.397 319.547 350.675 319.6C351.727 319.741 351.768 322.142 351.768 322.142Z" fill="#455A64"/>
<path d="M225.605 322.142H215.28C215.28 322.142 215.28 320.611 216.315 320.205C216.594 320.075 216.909 320.042 217.209 320.111C217.509 320.18 217.777 320.347 217.971 320.586C217.971 320.586 218.385 317.771 220.273 317.771C222.161 317.771 223.063 320.205 223.063 320.205C223.224 319.972 223.449 319.791 223.71 319.683C223.972 319.576 224.259 319.547 224.537 319.6C225.564 319.741 225.605 322.142 225.605 322.142Z" fill="#455A64"/>
<path d="M182.872 366.73C180.942 367.351 125.889 366.647 123.81 365.289C122.982 364.784 122.643 356.76 122.486 347.073V346.767C122.444 344.763 122.419 342.701 122.411 340.614C122.411 340.325 122.411 340.043 122.411 339.786L125.077 311.229L161.907 311.585L158.28 339.878L158.23 341.004L158.015 346.858V347.462C158.015 347.462 178.972 357.15 181.1 358.888C183.228 360.627 184.801 366.109 182.872 366.73Z" fill="#DD6A57"/>
<path d="M182.872 366.73C180.942 367.351 125.889 366.647 123.81 365.289C122.982 364.784 122.643 356.76 122.486 347.073V346.766C122.444 344.763 122.419 342.701 122.411 340.614C122.411 340.325 122.411 340.043 122.411 339.786L158.28 339.877L158.23 341.004L158.015 346.858V347.462C158.015 347.462 178.972 357.15 181.1 358.888C183.228 360.627 184.801 366.109 182.872 366.73Z" fill="#EBEBEB"/>
<path d="M182.88 366.722C181.886 367.044 166.925 367.011 152.31 366.722C149.371 366.664 146.448 366.597 143.658 366.523C133.233 366.241 124.614 365.811 123.786 365.289C122.958 364.767 122.627 357.009 122.461 347.454C122.461 347.313 122.461 347.181 122.461 347.048C122.461 346.916 122.461 346.833 122.461 346.734H122.544L158.024 346.792V347.404C158.024 347.404 178.972 357.092 181.1 358.822C183.228 360.553 184.809 366.109 182.88 366.722Z" fill="#00ADEF"/>
<path d="M182.276 364.585C173.002 364.237 135.552 363.716 126.353 364.08C126.278 364.08 126.278 364.138 126.353 364.138C135.535 364.685 172.994 364.9 182.276 364.734C182.475 364.734 182.475 364.594 182.276 364.585Z" fill="#263238"/>
<path d="M161.957 346.932C158.314 346.204 153.843 346.709 151.019 349.275C150.912 349.375 151.019 349.532 151.168 349.491C154.672 348.413 158.28 347.711 161.932 347.396C161.994 347.399 162.054 347.378 162.1 347.337C162.146 347.296 162.173 347.238 162.176 347.177C162.18 347.115 162.159 347.055 162.117 347.009C162.076 346.963 162.019 346.936 161.957 346.932Z" fill="#263238"/>
<path d="M164.573 348.588C160.93 347.859 156.459 348.364 153.635 350.931C153.519 351.03 153.635 351.179 153.784 351.146C157.288 350.068 160.896 349.366 164.548 349.051C164.61 349.055 164.67 349.033 164.716 348.992C164.762 348.951 164.789 348.893 164.792 348.832C164.796 348.77 164.774 348.71 164.733 348.664C164.692 348.618 164.634 348.591 164.573 348.588Z" fill="#263238"/>
<path d="M167.189 350.194C163.546 349.465 159.075 349.97 156.251 352.537C156.135 352.637 156.251 352.786 156.4 352.752C159.903 351.671 163.512 350.968 167.164 350.658C167.226 350.661 167.286 350.64 167.332 350.599C167.378 350.557 167.405 350.5 167.409 350.438C167.412 350.377 167.391 350.316 167.349 350.271C167.308 350.225 167.251 350.197 167.189 350.194Z" fill="#263238"/>
<path d="M152.352 366.722C149.413 366.664 146.49 366.597 143.7 366.523C133.275 366.241 124.656 365.811 123.828 365.289C123 364.767 122.669 357.009 122.503 347.454C122.503 347.313 122.503 347.181 122.503 347.048C122.503 346.916 122.503 346.833 122.503 346.734H122.544C127.388 350.145 144.519 361.547 152.352 366.722Z" fill="#263238"/>
<path d="M160.127 346.932H120.474C120.474 346.932 128.439 254.321 128.125 252.706C127.727 250.636 125.384 241.263 122.271 229.017C121.294 225.183 120.234 221.076 119.141 216.812C116.185 205.295 112.923 192.701 110.082 181.746C105.818 165.335 102.481 152.584 102.481 152.584H136.09C136.09 152.584 140.006 165.004 144.95 181.15C152.998 207.398 163.745 243.523 164.822 252.309C166.536 266.484 160.127 346.932 160.127 346.932Z" fill="#455A64"/>
<path d="M158.371 340.159C152.31 340.035 154.049 339.985 147.996 339.927C145.032 339.927 125.558 339.729 122.784 340.192C122.726 340.192 122.726 340.3 122.784 340.317C125.558 340.772 145.032 340.598 147.996 340.565C154.049 340.507 152.31 340.457 158.371 340.333C158.39 340.327 158.406 340.316 158.417 340.3C158.429 340.284 158.435 340.266 158.435 340.246C158.435 340.227 158.429 340.208 158.417 340.192C158.406 340.177 158.39 340.165 158.371 340.159Z" fill="#263238"/>
<path d="M135.585 247.042C134.285 241.313 132.339 235.699 130.617 230.068C127.172 218.642 123.711 207.218 120.234 195.798C118.506 190.084 116.762 184.377 115.001 178.674C114.118 175.793 113.226 172.914 112.326 170.038C111.44 167.223 110.438 164.433 109.644 161.593C109.321 160.442 109.138 161.071 109.552 162.545C110.38 165.501 111.208 168.457 112.078 171.405C113.789 177.25 115.511 183.09 117.245 188.925C120.684 200.517 124.153 212.123 127.653 223.743C129.397 229.561 131.147 235.376 132.902 241.188C133.789 243.957 134.506 246.778 135.047 249.634C135.517 252.618 135.636 255.647 135.403 258.659C135.022 264.729 134.318 270.781 133.747 276.834C133.175 282.887 132.629 288.964 132.091 295.05C130.987 307.111 129.883 319.181 128.779 331.258C128.635 332.787 128.505 334.319 128.389 335.854C128.348 336.367 129.126 336.326 129.176 335.854C130.484 323.922 131.478 311.949 132.596 299.993C133.714 288.037 134.823 276.205 135.908 264.315C136.181 261.325 136.504 258.336 136.504 255.331C136.512 252.542 136.203 249.762 135.585 247.042Z" fill="#263238"/>
<path d="M132.273 152.576C129.946 170.626 125.508 204.466 122.271 229.017C114.686 199.275 102.481 152.584 102.481 152.584L132.273 152.576Z" fill="#263238"/>
<path d="M140.155 367.268C138.226 367.897 83.1725 367.4 81.0859 366.042C80.2579 365.545 79.8936 357.522 79.6949 347.826C79.6949 347.719 79.6949 347.619 79.6949 347.52C79.6949 345.516 79.6203 343.454 79.6038 341.368C79.6038 341.078 79.6038 340.797 79.6038 340.54C79.4713 326.522 80.4815 311.974 80.4815 311.974L116.466 312.206L115.464 340.498V341.625L115.266 347.479V348.083C115.266 348.083 136.256 357.696 138.392 359.427C140.528 361.157 142.085 366.647 140.155 367.268Z" fill="#DD6A57"/>
<path d="M140.155 367.268C138.226 367.897 83.1722 367.4 81.0856 366.042C80.2576 365.545 79.8933 357.522 79.6946 347.826C79.6946 347.718 79.6946 347.619 79.6946 347.52C79.6946 345.516 79.6201 343.454 79.6035 341.368C79.6035 341.078 79.6035 340.796 79.6035 340.54L115.464 340.498V341.624L115.265 347.478V348.083C115.265 348.083 136.255 357.696 138.392 359.426C140.528 361.157 142.084 366.647 140.155 367.268Z" fill="#EBEBEB"/>
<path d="M140.156 367.268C138.227 367.897 83.1729 367.4 81.0864 366.042C80.2584 365.546 79.894 357.522 79.6953 347.826C79.6953 347.719 79.6953 347.619 79.6953 347.52L115.225 347.446V348.05C115.225 348.05 136.215 357.663 138.351 359.394C140.487 361.124 142.085 366.647 140.156 367.268Z" fill="#00ADEF"/>
<path d="M139.551 365.148C130.269 364.841 92.8184 364.452 83.6194 364.85C83.5448 364.85 83.5448 364.908 83.6194 364.908C92.8102 365.421 130.269 365.504 139.551 365.305C139.741 365.272 139.749 365.148 139.551 365.148Z" fill="#263238"/>
<path d="M119.166 347.57C115.522 346.849 111.051 347.371 108.236 349.946C108.128 350.045 108.236 350.203 108.385 350.161C111.887 349.07 115.495 348.354 119.149 348.025C119.202 348.017 119.251 347.991 119.287 347.95C119.323 347.91 119.344 347.858 119.346 347.804C119.348 347.75 119.331 347.697 119.298 347.654C119.265 347.611 119.218 347.582 119.166 347.57Z" fill="#263238"/>
<path d="M121.79 349.176C118.139 348.464 113.668 348.986 110.853 351.561C110.745 351.66 110.894 351.817 111.01 351.776C114.512 350.683 118.12 349.967 121.774 349.64C121.835 349.642 121.895 349.62 121.94 349.578C121.985 349.536 122.012 349.478 122.014 349.416C122.016 349.355 121.994 349.295 121.952 349.25C121.91 349.205 121.852 349.178 121.79 349.176Z" fill="#263238"/>
<path d="M124.407 350.79C120.764 350.078 116.292 350.6 113.477 353.175C113.37 353.274 113.477 353.423 113.626 353.39C117.127 352.295 120.736 351.578 124.39 351.254C124.452 351.256 124.512 351.234 124.557 351.192C124.602 351.15 124.628 351.092 124.63 351.03C124.633 350.969 124.61 350.909 124.568 350.864C124.526 350.819 124.468 350.792 124.407 350.79Z" fill="#263238"/>
<path d="M135.005 152.576C135.005 152.576 134.227 168.655 130.551 181.39C130.261 182.442 129.938 183.477 129.59 184.47C126.22 185.829 122.98 187.492 119.911 189.438C119.911 189.438 119.522 202.372 119.141 216.762C118.719 232.892 118.313 250.884 118.363 254.693C118.71 268.968 116.599 347.429 116.599 347.429L77.0039 347.677C77.0039 347.677 84.1495 260.025 84.0999 254.792C84.0171 246.388 86.0043 209.252 87.5443 182.152C88.48 165.459 89.25 152.584 89.25 152.584L135.005 152.576Z" fill="#455A64"/>
<path d="M115.241 340.457C109.188 340.357 110.927 340.299 104.866 340.275C101.902 340.275 82.4272 340.175 79.6616 340.647C79.6037 340.647 79.6037 340.755 79.6616 340.771C82.4354 341.219 101.91 340.962 104.874 340.912C110.927 340.829 109.188 340.788 115.241 340.639C115.265 340.639 115.288 340.629 115.305 340.612C115.322 340.595 115.332 340.572 115.332 340.548C115.332 340.524 115.322 340.501 115.305 340.483C115.288 340.466 115.265 340.457 115.241 340.457Z" fill="#263238"/>
<path d="M92.5454 158.33C91.8167 180.446 91.055 202.562 90.0614 224.669C89.0678 246.777 87.743 269.034 85.9214 291.158C84.8864 303.52 83.9176 320.908 82.6094 333.245C82.6094 333.328 82.7253 333.361 82.7336 333.245C85.615 311.303 87.2213 284.178 88.6372 262.095C90.0531 240.012 91.0053 217.913 91.7505 195.805C92.1811 183.294 92.4957 170.791 92.8683 158.28C92.8269 158.148 92.5537 158.148 92.5454 158.33Z" fill="#263238"/>
<path d="M131.238 183.509C127.296 185.158 123.506 187.147 119.911 189.454C119.77 189.537 119.911 189.761 120.026 189.686C123.852 187.823 127.76 186.035 131.469 183.965C131.523 183.93 131.562 183.877 131.579 183.816C131.596 183.754 131.589 183.689 131.56 183.632C131.531 183.575 131.482 183.531 131.423 183.508C131.363 183.485 131.297 183.486 131.238 183.509Z" fill="#263238"/>
<path d="M131.461 169.872C131.197 171.28 130.857 172.679 130.551 174.079C130.244 175.478 130.062 176.728 129.723 178.028C129.434 179.285 128.794 180.434 127.876 181.34C127.363 181.812 126.8 182.243 126.22 182.682L125.301 183.385L125.4 182.814C125.5 182.284 125.591 181.746 125.674 181.216C125.872 180.024 126.063 178.84 126.245 177.647C126.601 175.312 126.932 172.944 127.421 170.634C127.426 170.614 127.424 170.593 127.414 170.575C127.404 170.558 127.387 170.545 127.367 170.539C127.347 170.534 127.326 170.536 127.308 170.546C127.29 170.556 127.277 170.573 127.272 170.593C126.692 172.886 126.046 175.155 125.541 177.474C125.293 178.608 124.407 184.205 124.365 184.603C124.324 185 124.291 185.431 124.283 185.836C124.225 186.254 124.225 186.677 124.283 187.095C124.283 187.194 124.423 187.178 124.473 187.095C124.646 186.707 124.766 186.298 124.829 185.878C124.938 185.48 125.026 185.076 125.094 184.669C125.094 184.52 125.144 184.371 125.16 184.222C125.715 183.882 126.229 183.443 126.742 183.071C127.255 182.698 127.868 182.243 128.398 181.829C129.371 181.011 130.073 179.917 130.41 178.691C130.746 177.368 130.968 176.019 131.072 174.658C131.246 173.069 131.379 171.471 131.602 169.881C131.652 169.815 131.478 169.74 131.461 169.872Z" fill="#263238"/>
<path d="M120.731 111.11C122.925 117.237 130.667 130.982 142.54 141.804C147.136 145.985 181.324 143.236 184.71 141.92C187.078 140.992 191.5 123.762 189.008 122.205C184.338 119.282 153.776 126.022 152.476 125.335C150.489 124.275 137.332 115.457 128.853 107.077C122.668 100.967 117.079 100.909 120.731 111.11Z" fill="#DD6A57"/>
<path d="M129.516 129.218L148.908 121.517C148.908 121.517 131.52 106.555 125.144 103.599C117.982 100.287 117.849 104.659 120.366 111.73C122.883 118.801 129.516 129.218 129.516 129.218Z" fill="#37474F"/>
<path d="M144.809 119.157C144.096 119.314 138.019 121.641 136.711 122.154C135.402 122.668 130.012 124.796 128.704 125.466C128.691 125.466 128.678 125.472 128.669 125.481C128.66 125.49 128.654 125.503 128.654 125.516C128.654 125.529 128.66 125.542 128.669 125.551C128.678 125.561 128.691 125.566 128.704 125.566C130.112 125.168 135.543 123.082 136.893 122.535C138.243 121.989 144.204 119.604 144.825 119.223C144.9 119.232 144.9 119.149 144.809 119.157Z" fill="#263238"/>
<path d="M136.992 126.245L129.54 129.217C129.54 129.217 122.916 118.793 120.432 111.73C118.594 106.563 118.172 102.821 120.871 102.49L136.992 126.245Z" fill="#263238"/>
<path d="M84.7875 170.08C84.9117 170.22 139.75 170.576 140.264 170.022C140.967 169.194 128.787 109.768 123.182 102.407C121.981 100.834 114.422 98.6895 110.033 102.266C100.71 109.859 92.6452 135.916 90.7408 143.782C87.6275 156.749 84.3321 169.566 84.7875 170.08Z" fill="#00ADEF"/>
<path opacity="0.1" d="M123.488 102.871H109.296C109.528 102.655 109.76 102.457 109.991 102.266C110.132 102.151 110.279 102.044 110.43 101.943H122.627C122.819 102.072 122.992 102.229 123.14 102.407C123.266 102.554 123.382 102.709 123.488 102.871Z" fill="black"/>
<path opacity="0.1" d="M124.813 105.536H106.887C107.143 105.214 107.4 104.899 107.665 104.601H124.407C124.54 104.891 124.672 105.205 124.813 105.536Z" fill="black"/>
<path opacity="0.1" d="M125.856 108.203H104.966C105.181 107.881 105.388 107.574 105.603 107.268H125.475L125.856 108.203Z" fill="black"/>
<path opacity="0.1" d="M126.742 110.861H103.334C103.516 110.546 103.698 110.231 103.889 109.925H126.435C126.543 110.231 126.684 110.546 126.742 110.861Z" fill="black"/>
<path opacity="0.1" d="M127.586 113.527H101.844C102.009 113.212 102.167 112.897 102.341 112.591H127.263C127.388 112.897 127.512 113.212 127.586 113.527Z" fill="black"/>
<path opacity="0.1" d="M128.34 116.194H100.544C100.693 115.879 100.842 115.564 100.999 115.258H128.1L128.34 116.194Z" fill="black"/>
<path opacity="0.1" d="M129.168 118.851H99.3604L99.7826 117.915H128.903C128.953 118.222 129.036 118.536 129.168 118.851Z" fill="black"/>
<path opacity="0.1" d="M129.847 121.517H98.168L98.5654 120.581H129.599L129.847 121.517Z" fill="black"/>
<path opacity="0.1" d="M130.55 124.2H97.0908C97.2067 123.885 97.3309 123.579 97.4634 123.264H130.31C130.385 123.554 130.467 123.868 130.55 124.2Z" fill="black"/>
<path opacity="0.1" d="M131.23 126.841H96.0479C96.1638 126.527 96.2797 126.22 96.4039 125.906H130.981C131.072 126.22 131.155 126.527 131.23 126.841Z" fill="black"/>
<path opacity="0.1" d="M131.9 129.507H95.0957C95.2033 129.193 95.3193 128.886 95.4352 128.572H131.652C131.743 128.886 131.818 129.168 131.9 129.507Z" fill="black"/>
<path opacity="0.1" d="M133.184 134.832H93.2988L93.5969 133.896H132.96L133.184 134.832Z" fill="black"/>
<path opacity="0.1" d="M133.804 137.497H92.4707C92.5618 137.191 92.6529 136.876 92.7522 136.562H133.597C133.664 136.876 133.738 137.191 133.804 137.497Z" fill="black"/>
<path opacity="0.1" d="M134.425 140.155H91.6924L91.9573 139.228H134.185C134.276 139.542 134.351 139.849 134.425 140.155Z" fill="black"/>
<path opacity="0.1" d="M135.022 142.822H90.9727C91.0472 142.532 91.13 142.217 91.2128 141.886H134.815C134.882 142.201 134.964 142.507 135.022 142.822Z" fill="black"/>
<path opacity="0.1" d="M135.618 145.488H90.3262L90.5497 144.552H135.411C135.477 144.9 135.543 145.181 135.618 145.488Z" fill="black"/>
<path opacity="0.1" d="M136.198 148.145H89.6807L89.9042 147.218H135.999L136.198 148.145Z" fill="black"/>
<path opacity="0.1" d="M136.761 150.812H89.0352L89.2587 149.876H136.562C136.62 150.191 136.703 150.497 136.761 150.812Z" fill="black"/>
<path opacity="0.1" d="M137.324 153.478H88.3889L88.6125 152.542H137.133C137.2 152.857 137.266 153.18 137.324 153.478Z" fill="black"/>
<path opacity="0.1" d="M137.87 156.136H87.7676L87.9911 155.2H137.671C137.746 155.515 137.812 155.83 137.87 156.136Z" fill="black"/>
<path opacity="0.1" d="M138.409 158.802H87.0725C87.1553 158.496 87.2298 158.181 87.3043 157.866H138.202C138.276 158.148 138.351 158.496 138.409 158.802Z" fill="black"/>
<path opacity="0.1" d="M138.93 161.46H86.46C86.5345 161.154 86.6007 160.848 86.6835 160.525H138.748C138.806 160.856 138.872 161.162 138.93 161.46Z" fill="black"/>
<path opacity="0.1" d="M139.427 164.126H85.8386C85.9049 163.82 85.9794 163.513 86.0539 163.19H139.253C139.311 163.513 139.369 163.82 139.427 164.126Z" fill="black"/>
<path opacity="0.1" d="M139.932 166.792H85.2842C85.3421 166.503 85.4084 166.188 85.4912 165.857H139.767C139.791 166.188 139.841 166.494 139.932 166.792Z" fill="black"/>
<path opacity="0.1" d="M140.271 169.458H84.7949C84.7949 169.21 84.8694 168.895 84.9357 168.523H140.18C140.213 168.912 140.246 169.218 140.271 169.458Z" fill="black"/>
<path d="M125.831 171.636L134.6 134.152L138.061 100.544L156.243 105.371L171.446 102.324L185.033 108.137L204.383 103.757L191.293 139.253L185.778 175.196L171.147 178.823L156.434 172.505L141.522 177.382L125.831 171.636Z" fill="#EBEBEB"/>
<path d="M141.522 177.382L156.244 105.371L171.446 102.324L156.434 172.505L141.522 177.382Z" fill="#DBDBDB"/>
<path d="M171.147 178.824L185.033 108.137L204.383 103.757L191.293 139.253L185.778 175.197L171.147 178.824Z" fill="#DBDBDB"/>
<path d="M200.74 119.82C201.344 123.38 203.994 128.348 203.58 130.998C203.499 131.655 203.209 132.269 202.753 132.749C202.297 133.229 201.699 133.55 201.046 133.664C201.046 133.664 203.249 135.667 202.47 138.011C202.073 139.22 199.788 139.667 199.788 139.667C200.262 140.147 200.595 140.749 200.75 141.406C200.905 142.064 200.875 142.751 200.665 143.393C200.011 145.049 197.825 145.198 197.825 145.198C197.825 145.198 198.703 147.566 197.502 149.007C195.076 151.938 180.595 147.847 179.866 141.878C179.527 139.095 183.004 140.288 183.004 140.288C183.004 140.288 178.409 137.365 179.179 134.351C179.949 131.337 184.379 133.167 184.379 133.167C184.379 133.167 179.949 130.294 181.067 127.255C182.184 124.216 186.349 126.675 186.349 126.675C186.349 126.675 183.741 123.587 185.132 121.451C187.409 117.932 193.354 124.829 196.724 124.978L198.455 119.886L200.74 119.82Z" fill="#DD6A57"/>
<path d="M202.032 125.102C201.751 121.674 204.367 120.962 205.021 117.725C205.75 114.106 201.303 113.85 198.521 119.679L196.725 124.953L202.032 125.102Z" fill="#DD6A57"/>
<path d="M197.486 145.248C197.497 145.248 197.508 145.252 197.515 145.26C197.523 145.268 197.528 145.278 197.528 145.289C197.528 145.3 197.523 145.311 197.515 145.318C197.508 145.326 197.497 145.331 197.486 145.331C192.191 145.152 187.075 143.37 182.814 140.222C182.682 140.114 182.814 139.857 182.963 139.94C187.522 142.403 192.414 144.191 197.486 145.248Z" fill="#263238"/>
<path d="M199.854 139.692C199.912 139.692 199.854 139.799 199.854 139.791C194.018 139.546 188.463 137.216 184.197 133.225C184.056 133.084 184.064 132.811 184.247 132.96C187.244 135.535 195.077 138.773 199.854 139.692Z" fill="#263238"/>
<path d="M186.126 126.253C190.34 130.112 195.358 132.231 200.831 133.705C200.897 133.705 200.831 133.83 200.831 133.83C197.958 133.83 194.572 132.571 192.013 131.346C189.619 130.262 187.552 128.569 186.018 126.435C185.936 126.311 186.035 126.171 186.126 126.253Z" fill="#263238"/>
<path d="M102.672 107.16C93.0175 117.858 74.3047 145.48 77.9065 152.807C82.7503 162.677 101.132 177.399 107.714 179.809C110.555 180.844 122.776 160.259 120.134 158.372C116.988 156.111 99.5007 143.666 99.6746 142.499C99.8485 141.331 105.346 127.885 108.344 116.003C111.846 102.258 107.979 101.281 102.672 107.16Z" fill="#DD6A57"/>
<path d="M108.211 156.434C108.211 156.434 117.096 154.041 122.974 152.741C126.286 152.021 131.991 151.292 134.641 151.863C138.607 152.691 154.654 158.835 153.254 162.76C151.987 166.312 138.872 159.307 138.872 159.307C138.872 159.307 152.733 165.202 150.423 169.193C148.112 173.184 134.343 163.306 134.343 163.306C134.343 163.306 148.419 169.682 145.413 173.425C143.12 176.256 130.145 168.001 130.145 168.001C130.145 168.001 142.225 173.574 139.998 176.579C137.514 179.891 125.094 173.044 125.094 173.044C118.122 179.742 111.846 181.001 107.706 179.808C106.704 179.51 108.211 156.434 108.211 156.434Z" fill="#DD6A57"/>
<path d="M134.21 156.955C135.866 157.593 137.522 158.222 139.129 159.001C140.735 159.779 142.283 160.615 143.799 161.534C145.797 162.698 147.656 164.087 149.338 165.674C146.142 163.066 140.495 160.193 138.897 159.415C137.299 158.636 135.767 157.759 134.177 156.997C134.136 156.997 134.136 156.939 134.21 156.955Z" fill="#263238"/>
<path d="M131.287 162.653C133.366 163.555 135.427 164.367 137.497 165.36C139.567 166.354 141.364 167.463 143.293 168.589C143.451 168.68 143.351 168.73 143.194 168.647C141.199 167.604 139.269 166.793 137.266 165.766C135.262 164.739 133.283 163.646 131.246 162.702L131.287 162.653Z" fill="#263238"/>
<path d="M127.909 167.091C131.127 168.392 134.202 170.024 137.083 171.959C137.224 172.051 137.083 172.109 136.942 172.026C133.92 170.37 131.569 169.004 127.834 167.198C127.81 167.174 127.843 167.066 127.909 167.091Z" fill="#263238"/>
<path d="M104.469 130.493L84.001 126.411C84.001 126.411 98.4165 108.551 104.138 104.494C110.58 99.9317 111.507 104.221 110.307 111.631C109.106 119.042 104.469 130.493 104.469 130.493Z" fill="#37474F"/>
<path d="M104.651 126.916C103.964 126.668 97.5966 125.343 96.2055 125.086C94.8145 124.83 89.1427 123.728 87.6854 123.579C87.6723 123.579 87.6596 123.585 87.6503 123.594C87.641 123.603 87.6357 123.616 87.6357 123.629C87.6357 123.642 87.641 123.655 87.6503 123.664C87.6596 123.673 87.6723 123.679 87.6854 123.679C89.0847 124.093 94.8062 125.227 96.2138 125.517C97.6214 125.807 103.956 126.982 104.668 127.016C104.701 127.016 104.701 126.933 104.651 126.916Z" fill="#263238"/>
<path d="M116.516 98.2839C112.003 97.7788 106.58 101.646 110.604 106.87C114.628 112.095 118.884 113.113 121.269 112.385C124.092 111.499 125.144 105.761 124.448 103.095C123.753 100.428 120.366 98.7144 116.516 98.2839Z" fill="#455A64"/>
<path d="M120.226 110.496C118.338 110.778 112.774 107.325 110.696 103.599C110.555 103.342 111.524 93.0337 111.482 90.972C111.482 90.5497 124.449 93.9611 124.449 93.9611C123.739 96.5476 123.349 99.2117 123.29 101.893C123.297 102.172 123.33 102.449 123.389 102.721C123.389 102.721 123.389 102.804 123.389 102.862C123.687 104.485 122.991 110.124 120.226 110.496Z" fill="#DD6A57"/>
<path d="M112.31 91.0305C112.831 94.1521 114.926 102.887 122.08 102.97C122.523 102.975 122.966 102.945 123.405 102.879V102.738C123.353 102.465 123.323 102.188 123.314 101.91C123.373 99.2293 123.759 96.5655 124.465 93.9782C124.465 93.9782 115.183 91.5273 112.31 91.0305Z" fill="#263238"/>
<path d="M130.443 70.9924C130.443 70.9924 134.352 73.6006 134.277 78.0718C134.202 82.543 132.331 86.8818 131.917 87.0308C131.503 87.1798 130.443 70.9924 130.443 70.9924Z" fill="#263238"/>
<path d="M112.74 73.5429C110.422 77.7409 110.049 91.2041 112.624 94.7645C116.367 99.9313 123.852 101.935 128.588 97.1326C133.175 92.471 133.349 74.9174 130.344 71.5391C125.914 66.5629 116.16 67.3495 112.74 73.5429Z" fill="#DD6A57"/>
<path d="M123.72 84.2573C123.72 84.2573 123.654 84.2573 123.654 84.3401C123.654 85.2426 123.496 86.2859 122.668 86.5592V86.6088C123.678 86.5012 123.869 85.1184 123.72 84.2573Z" fill="#263238"/>
<path d="M122.941 83.2886C121.492 83.1313 121.285 86.0459 122.627 86.1949C123.968 86.3439 124.2 83.4211 122.941 83.2886Z" fill="#263238"/>
<path d="M128.712 84.5555C128.712 84.5141 128.778 84.5555 128.778 84.6383C128.679 85.5409 128.729 86.5924 129.524 86.9485C129.524 86.9485 129.524 87.0064 129.524 86.9981C128.522 86.7829 128.48 85.3918 128.712 84.5555Z" fill="#263238"/>
<path d="M129.59 83.6694C131.048 83.6694 130.957 86.584 129.59 86.5923C128.224 86.6006 128.34 83.6694 129.59 83.6694Z" fill="#263238"/>
<path d="M121.716 82.3116C122.109 82.231 122.496 82.1259 122.875 81.997C123.298 81.9427 123.691 81.7506 123.993 81.4505C124.07 81.3378 124.108 81.2029 124.1 81.0667C124.093 80.9306 124.041 80.8006 123.952 80.697C123.745 80.518 123.493 80.3982 123.223 80.3501C122.954 80.302 122.676 80.3275 122.42 80.4238C121.87 80.5384 121.383 80.8544 121.054 81.3097C120.984 81.4166 120.947 81.5416 120.947 81.6694C120.948 81.7971 120.985 81.9219 121.056 82.0284C121.126 82.1349 121.226 82.2185 121.344 82.2689C121.461 82.3192 121.591 82.334 121.716 82.3116Z" fill="#263238"/>
<path d="M130.824 81.6323C130.439 81.5265 130.061 81.3993 129.69 81.2514C129.271 81.171 128.89 80.9558 128.605 80.6387C128.534 80.5216 128.503 80.3842 128.518 80.2479C128.533 80.1116 128.593 79.9841 128.688 79.8852C128.907 79.7207 129.166 79.6171 129.438 79.5851C129.71 79.5531 129.985 79.5938 130.236 79.7031C130.776 79.851 131.242 80.193 131.545 80.6636C131.611 80.7745 131.642 80.9025 131.635 81.0314C131.629 81.1603 131.584 81.2843 131.507 81.3879C131.43 81.4914 131.324 81.5699 131.203 81.6134C131.081 81.6569 130.95 81.6635 130.824 81.6323Z" fill="#263238"/>
<path d="M122.047 92.3634C122.246 92.5953 122.444 92.9016 122.767 92.9513C123.106 92.9694 123.445 92.9158 123.761 92.794C123.761 92.794 123.819 92.794 123.761 92.8437C123.619 93.0129 123.434 93.1402 123.226 93.2117C123.017 93.2832 122.793 93.2963 122.577 93.2494C122.4 93.1894 122.243 93.0792 122.127 92.9323C122.011 92.7853 121.94 92.6079 121.923 92.4214C121.948 92.3469 122.022 92.3303 122.047 92.3634Z" fill="#263238"/>
<path d="M125.856 90.9893C125.436 91.4584 124.903 91.812 124.307 92.016C123.982 92.1234 123.631 92.1234 123.305 92.016C122.593 91.7759 122.626 91.1135 122.8 90.5587C122.897 90.2684 123.028 89.9905 123.189 89.7307C123.92 90.4261 124.855 90.8675 125.856 90.9893Z" fill="#263238"/>
<path d="M124.324 92.0161C123.998 92.1235 123.647 92.1235 123.322 92.0161C122.61 91.776 122.643 91.1136 122.817 90.5588C123.198 90.5906 123.556 90.7531 123.83 91.0187C124.105 91.2843 124.279 91.6367 124.324 92.0161Z" fill="#FF9CBD"/>
<path d="M111.134 86.2114C112.74 86.7496 114.711 81.9223 115.274 80.0676C115.771 78.4116 116.425 73.2118 116.516 72.8557C116.607 72.4997 123.463 77.6416 127.57 76.5403C131.676 75.4391 134.475 71.8373 134.574 70.1316C134.674 68.4259 129.697 63.9796 125.326 63.6567C120.954 63.3337 114.893 68.7737 114.893 68.7737C115.63 67.9844 116.303 67.1371 116.905 66.24C116.839 66.0413 113.99 67.068 113.419 69.1132C113.419 69.1132 114.04 66.6292 113.825 66.5381C113.609 66.447 111.341 68.6081 111.821 70.2641C111.821 70.2641 109.229 72.4086 108.94 74.8181C108.65 77.2276 109.246 85.5904 111.134 86.2114Z" fill="#263238"/>
<path d="M130.492 75.7533C129.27 76.3753 127.961 76.8107 126.609 77.045C125.103 77.1283 123.6 76.8441 122.229 76.217C120.839 75.6398 119.553 74.84 118.42 73.8489C117.426 73.0209 116.541 71.9528 115.472 71.1828C115.199 70.9841 114.876 71.3732 115.034 71.6216C116.792 74.2278 119.344 76.1967 122.312 77.2355C123.689 77.7207 125.168 77.8401 126.605 77.5817C128.042 77.3233 129.387 76.6962 130.509 75.7616C130.509 75.7616 130.509 75.7451 130.492 75.7533Z" fill="#263238"/>
<path d="M121.252 89.0763C120.512 88.9555 119.821 88.6296 119.257 88.1356C118.693 87.6416 118.278 86.9992 118.061 86.2816C117.844 85.5639 117.833 84.7998 118.028 84.076C118.224 83.3521 118.619 82.6977 119.167 82.187C119.716 81.6763 120.398 81.3298 121.134 81.1869C121.87 81.0441 122.631 81.1106 123.331 81.3788C124.031 81.6471 124.642 82.1064 125.094 82.7045C125.546 83.3027 125.822 84.0156 125.889 84.7624C125.978 85.8212 125.646 86.8725 124.963 87.6868C124.281 88.5012 123.304 89.0126 122.245 89.1094C121.914 89.1401 121.58 89.1289 121.252 89.0763ZM122.452 81.6905C122.177 81.6598 121.9 81.6598 121.624 81.6905C120.744 81.796 119.938 82.2337 119.369 82.914C118.801 83.5943 118.514 84.4659 118.567 85.3507C118.62 86.2356 119.009 87.0668 119.654 87.6747C120.299 88.2825 121.152 88.621 122.038 88.621C122.925 88.621 123.778 88.2825 124.423 87.6747C125.068 87.0668 125.457 86.2356 125.51 85.3507C125.563 84.4659 125.276 83.5943 124.707 82.914C124.139 82.2337 123.333 81.796 122.452 81.6905Z" fill="#00ADEF"/>
<path d="M130.443 89.4243C128.927 89.1759 127.81 87.4039 127.901 85.2843C127.924 84.2833 128.263 83.3153 128.869 82.5187C129.106 82.1592 129.432 81.8672 129.815 81.6715C130.198 81.4758 130.626 81.3829 131.056 81.4021C131.486 81.4213 131.903 81.5519 132.267 81.781C132.632 82.0101 132.93 82.33 133.134 82.7092C133.664 83.5549 133.919 84.5443 133.862 85.5409C133.763 87.7517 132.347 89.4905 130.699 89.416L130.443 89.4243ZM131.271 81.9723H131.064C130.721 81.9704 130.383 82.0515 130.079 82.2087C129.775 82.3659 129.513 82.5944 129.317 82.8748C128.79 83.597 128.501 84.465 128.489 85.3588C128.406 87.2632 129.432 88.8695 130.782 88.9275C132.132 88.9854 133.266 87.4785 133.382 85.6155C133.433 84.7413 133.21 83.8729 132.745 83.1315C132.596 82.8376 132.384 82.5808 132.123 82.3802C131.862 82.1795 131.56 82.0401 131.238 81.9723H131.271Z" fill="#00ADEF"/>
<path d="M125.732 85.2265L125.409 84.7959C126.038 84.3157 127.471 83.6864 128.398 84.7959L127.993 85.1437C127.165 84.1501 125.79 85.1768 125.732 85.2265Z" fill="#00ADEF"/>
<path d="M108.634 85.6482L108.17 85.3833C108.294 85.168 109.42 83.2636 110.654 83.1228C111.888 82.9821 118.106 83.7935 118.445 83.8432L118.371 84.3731C115.836 83.9891 113.282 83.7486 110.72 83.6527C109.892 83.7438 108.932 85.1266 108.634 85.6482Z" fill="#00ADEF"/>
<path d="M113.27 84.6959C113.27 84.6959 111.134 79.9266 109.022 80.6139C106.911 81.3011 107.962 87.8175 110.041 89.076C110.297 89.2595 110.589 89.3888 110.897 89.4562C111.205 89.5236 111.524 89.5276 111.834 89.4679C112.143 89.4083 112.438 89.2863 112.699 89.1093C112.96 88.9323 113.182 88.7041 113.353 88.4385L113.27 84.6959Z" fill="#DD6A57"/>
<path d="M109.371 82.469C109.371 82.469 109.321 82.5104 109.371 82.527C110.82 83.4626 111.374 85.0772 111.664 86.667C111.603 86.4918 111.504 86.332 111.375 86.1987C111.246 86.0654 111.089 85.9617 110.916 85.8948C110.743 85.8279 110.557 85.7994 110.372 85.8112C110.186 85.823 110.006 85.8748 109.843 85.9632V86.0625C110.135 86.0277 110.431 86.0837 110.69 86.223C110.949 86.3622 111.159 86.578 111.292 86.8408C111.504 87.2866 111.67 87.7526 111.788 88.2319C111.838 88.3892 112.103 88.3561 112.078 88.2319C112.509 86.1867 111.482 83.0817 109.371 82.469Z" fill="#263238"/>
<path d="M184.586 73.2443C184.226 76.6959 182.914 79.9795 180.796 82.7285C178.678 85.4775 175.838 87.5837 172.592 88.8119C169.346 90.0401 165.823 90.3419 162.416 89.6838C159.008 89.0256 155.851 87.4333 153.296 85.0847L143.932 86.4674L148.618 78.3613C147.442 75.5105 147.001 72.4101 147.335 69.3444C147.852 64.4034 150.311 59.8702 154.17 56.7421C158.03 53.614 162.974 52.1472 167.915 52.6643C172.856 53.1815 177.389 55.6403 180.517 59.4997C183.645 63.3592 185.112 68.3033 184.595 73.2443H184.586Z" fill="white"/>
<path d="M184.586 73.2446C184.227 76.6952 182.92 79.9792 180.811 82.7335C180.287 83.4204 179.72 84.0731 179.113 84.6876C178.49 85.2817 177.829 85.8349 177.134 86.3436C175.752 87.3804 174.23 88.2167 172.613 88.8276C170.999 89.467 169.301 89.8713 167.571 90.0282C166.707 90.111 165.838 90.1276 164.971 90.0778C164.101 90.0602 163.235 89.9716 162.379 89.8129C158.931 89.1919 155.722 87.6238 153.114 85.2837L153.338 85.3582L143.973 86.7907L143.294 86.8983L143.642 86.2939L148.303 78.1795V78.5024C147.206 75.8174 146.738 72.9163 146.938 70.0223C147.138 67.1284 147.998 64.3189 149.454 61.8099C150.915 59.3123 152.922 57.1779 155.325 55.5668C157.723 53.9777 160.45 52.9525 163.3 52.5682C166.151 52.1839 169.052 52.4504 171.785 53.3478C174.493 54.2651 176.961 55.779 179.006 57.7776C181.043 59.7671 182.604 62.1922 183.57 64.8709C184.537 67.5497 184.884 70.4125 184.586 73.2446ZM184.586 73.2446C184.881 70.4258 184.525 67.5771 183.547 64.9173C182.568 62.2574 180.993 59.8574 178.942 57.9015C176.891 55.9456 174.419 54.486 171.715 53.6349C169.012 52.7838 166.15 52.5637 163.348 52.9917C160.571 53.4078 157.926 54.4528 155.615 56.047C153.325 57.6535 151.413 59.7386 150.009 62.1577C148.631 64.5866 147.819 67.2952 147.633 70.0816C147.462 72.8669 147.912 75.6553 148.949 78.2457L149.024 78.4113L148.933 78.5604L144.213 86.6499L143.882 86.1531L153.255 84.8366H153.387L153.478 84.9277C155.98 87.2698 159.085 88.867 162.446 89.5396C163.283 89.7147 164.133 89.8199 164.988 89.8543C165.842 89.9164 166.7 89.9164 167.554 89.8543C169.254 89.7206 170.926 89.3499 172.522 88.753C174.139 88.171 175.66 87.3505 177.035 86.3187C177.728 85.8081 178.389 85.255 179.014 84.6627C179.621 84.0522 180.191 83.4052 180.72 82.7252C182.859 79.9826 184.197 76.7012 184.586 73.2446Z" fill="#263238"/>
<path d="M163.77 81.9716L155.771 73.882L158.454 71.2242L163.124 75.952L172.837 60.7334L176.024 62.762L163.77 81.9716Z" fill="#FFC727"/>
</svg>
